<svg width="803" height="105" viewBox="0 0 803 105" fill="none" xmlns="http://www.w3.org/2000/svg">
<path d="M144.484 105C121.777 105 105 87.5943 105 66.3679V66.0849C105 44.8585 121.777 27.0283 144.629 27.0283C159.092 27.0283 168.059 32.2641 175.146 39.9057L164.298 51.3679C158.947 45.8491 153.306 42.0283 144.484 42.0283C131.757 42.0283 122.5 52.783 122.5 65.8019V66.0849C122.5 79.3868 131.901 90.1415 145.352 90.1415C153.596 90.1415 159.67 86.3207 165.166 80.8019L175.724 90.9906C168.203 99.1981 159.381 105 144.484 105Z" fill="black"/>
<path d="M182.708 103.302V0H200.208V103.302H182.708Z" fill="black"/>
<path d="M239.278 104.858C222.067 104.858 212.087 93.5377 212.087 76.1321V28.5849H229.587V71.0377C229.587 82.6415 235.517 89.2924 245.931 89.2924C256.055 89.2924 263.142 82.3585 263.142 70.7547V28.5849H280.642V103.302H263.142V91.6981C258.224 98.7736 251.137 104.858 239.278 104.858Z" fill="black"/>
<path d="M335.907 104.858C323.325 104.858 315.37 98.6321 310.019 91.6981V103.302H292.518V0H310.019V41.0377C315.659 33.2547 323.614 27.0283 335.907 27.0283C353.986 27.0283 371.486 41.0377 371.486 65.8019V66.0849C371.486 90.849 354.131 104.858 335.907 104.858ZM331.858 90C343.862 90 353.697 80.8019 353.697 66.0849V65.8019C353.697 51.3679 343.717 41.8868 331.858 41.8868C319.998 41.8868 309.585 51.5094 309.585 65.8019V66.0849C309.585 80.5189 319.998 90 331.858 90Z" fill="black"/>
<path d="M414.575 105C391.868 105 375.091 87.5943 375.091 66.3679V66.0849C375.091 44.8585 391.868 27.0283 414.719 27.0283C429.182 27.0283 438.149 32.2641 445.236 39.9057L434.389 51.3679C429.038 45.8491 423.397 42.0283 414.575 42.0283C401.847 42.0283 392.591 52.783 392.591 65.8019V66.0849C392.591 79.3868 401.992 90.1415 415.443 90.1415C423.686 90.1415 429.761 86.3207 435.257 80.8019L445.815 90.9906C438.294 99.1981 429.472 105 414.575 105Z" fill="black"/>
<path d="M484.668 105C462.54 105 445.474 89.2924 445.474 66.2264V65.9434C445.474 44.5755 460.949 27.0283 482.788 27.0283C507.086 27.0283 519.38 45.7075 519.38 67.217C519.38 68.7736 519.235 70.3302 519.09 72.0283H462.974C464.854 84.1981 473.676 90.9906 484.958 90.9906C493.491 90.9906 499.565 87.8774 505.64 82.0755L515.908 90.9906C508.677 99.4811 498.697 105 484.668 105ZM462.829 60.7075H502.024C500.867 49.6698 494.214 41.0377 482.644 41.0377C471.941 41.0377 464.42 49.1038 462.829 60.7075Z" fill="black"/>
<path d="M526.83 103.302V28.5849H544.33V40.1887C549.248 33.1132 556.335 27.0283 568.194 27.0283C585.405 27.0283 595.385 38.3491 595.385 55.7547V103.302H577.885V60.8491C577.885 49.2453 571.955 42.5943 561.541 42.5943C551.417 42.5943 544.33 49.5283 544.33 61.1321V103.302H526.83Z" fill="black"/>
<path d="M631.993 104.575C619.121 104.575 610.009 99.0566 610.009 82.6415V43.3019H600.319V28.5849H610.009V8.06603H627.51V28.5849H648.047V43.3019H627.51V79.9528C627.51 86.6038 630.981 89.2924 636.911 89.2924C640.816 89.2924 644.287 88.4434 647.758 86.7453V100.755C643.419 103.16 638.501 104.575 631.993 104.575Z" fill="black"/>
<path d="M655.59 103.302V28.5849H673.091V45.4245C677.863 34.2453 686.686 26.6038 700.136 27.1698V45.283H699.124C683.793 45.283 673.091 55.0472 673.091 74.8585V103.302H655.59Z" fill="black"/>
<path d="M705.5 17.1226V0.849054H724.302V17.1226H705.5ZM706.223 103.302V28.5849H723.724V103.302H706.223Z" fill="black"/>
<path d="M771.76 105C749.053 105 732.276 87.5943 732.276 66.3679V66.0849C732.276 44.8585 749.053 27.0283 771.905 27.0283C786.368 27.0283 795.335 32.2641 802.422 39.9057L791.574 51.3679C786.223 45.8491 780.582 42.0283 771.76 42.0283C759.033 42.0283 749.776 52.783 749.776 65.8019V66.0849C749.776 79.3868 759.177 90.1415 772.628 90.1415C780.872 90.1415 786.946 86.3207 792.442 80.8019L803 90.9906C795.479 99.1981 786.657 105 771.76 105Z" fill="black"/>
<path d="M77.2534 17.9871H54.8247C53.5284 17.9871 52.4718 19.0436 52.4718 20.3397V27.9094C52.4718 29.2055 53.5284 30.262 54.8247 30.262H67.7656C71.5346 30.262 74.5955 33.3226 74.5955 37.0911V50.869C74.5955 52.1652 75.6522 53.2216 76.9484 53.2216H84.5191C85.8154 53.2216 86.872 52.1652 86.872 50.869V27.6044C86.872 22.2893 82.5583 17.9762 77.2425 17.9762L77.2534 17.9871ZM0 27.6153V50.8799C0 52.176 1.05662 53.2325 2.3529 53.2325H9.92356C11.2198 53.2325 12.2765 52.176 12.2765 50.8799V37.102C12.2765 33.3335 15.3374 30.2729 19.1064 30.2729H32.0473C33.3436 30.2729 34.4002 29.2164 34.4002 27.9203V20.3506C34.4002 19.0545 33.3436 17.998 32.0473 17.998H9.62945C4.31364 17.998 0 22.3111 0 27.6262V27.6153ZM74.5955 73.6435V85.7442C74.5955 89.5127 71.5346 92.5733 67.7656 92.5733H54.8247C53.5284 92.5733 52.4718 93.6298 52.4718 94.9259V102.496C52.4718 103.792 53.5284 104.848 54.8247 104.848H77.2534C82.5692 104.848 86.8829 100.535 86.8829 95.2199V73.6326C86.8829 72.3365 85.8262 71.28 84.53 71.28H76.9593C75.6631 71.28 74.6064 72.3365 74.6064 73.6326L74.5955 73.6435ZM12.2765 85.7442V73.6435C12.2765 72.3474 11.2198 71.2909 9.92356 71.2909H2.3529C1.05662 71.2909 0 72.3474 0 73.6435V95.2308C0 100.546 4.31364 104.859 9.62945 104.859H32.0582C33.3545 104.859 34.4111 103.803 34.4111 102.506V94.9368C34.4111 93.6407 33.3545 92.5842 32.0582 92.5842H19.1173C15.3483 92.5842 12.2873 89.5236 12.2873 85.7551L12.2765 85.7442Z" fill="#2E8DA1"/>
<path d="M60.0231 42.2555C58.1359 40.3683 55.0883 40.3683 53.2011 42.2555L51.0753 44.3812L57.8973 51.2033L60.0231 49.0775C61.9103 47.1903 61.9103 44.1426 60.0231 42.2555Z" fill="black"/>
<path d="M55.9453 53.1555L49.1233 46.3335L26.8026 68.6542C25.6746 69.7821 24.8395 71.1813 24.384 72.7214L22.9198 77.6562C22.7788 78.1443 22.9089 78.6649 23.2669 79.0228C23.6248 79.3807 24.1454 79.5108 24.6334 79.3698L29.5683 77.9057C31.1084 77.4501 32.4966 76.615 33.6355 75.487L55.9561 53.1664L55.9453 53.1555Z" fill="black"/>
</svg>
