<svg width="424" height="398" viewBox="0 0 424 398" fill="none" xmlns="http://www.w3.org/2000/svg">
<rect x="146.748" y="125.748" width="136.505" height="156.505" stroke="#ABB2FA" style="stroke:#ABB2FA;stroke:color(display-p3 0.6706 0.6990 0.9799);stroke-opacity:1;" stroke-width="3.4953"/>
<path d="M227.889 169.111H202.111V194.889H227.889V169.111Z" fill="#7780D9" style="fill:#7780D9;fill:color(display-p3 0.4667 0.5020 0.8510);fill-opacity:1;"/>
<path fill-rule="evenodd" clip-rule="evenodd" d="M212.583 159.444V155.417C212.583 154.082 213.665 153 215 153C216.335 153 217.417 154.082 217.417 155.417V159.444H222.25V155.417C222.25 154.082 223.332 153 224.667 153C226.001 153 227.083 154.082 227.083 155.417V159.444H228.694C233.588 159.444 237.556 163.412 237.556 168.306V169.917H241.583C242.918 169.917 244 170.999 244 172.333C244 173.668 242.918 174.75 241.583 174.75H237.556V179.583H241.583C242.918 179.583 244 180.665 244 182C244 183.335 242.918 184.417 241.583 184.417H237.556V189.25H241.583C242.918 189.25 244 190.332 244 191.667C244 193.001 242.918 194.083 241.583 194.083H237.556V195.694C237.556 200.588 233.588 204.556 228.694 204.556H227.083V208.583C227.083 209.918 226.001 211 224.667 211C223.332 211 222.25 209.918 222.25 208.583V204.556H217.417V208.583C217.417 209.918 216.335 211 215 211C213.665 211 212.583 209.918 212.583 208.583V204.556H207.75V208.583C207.75 209.918 206.668 211 205.333 211C203.999 211 202.917 209.918 202.917 208.583V204.556H201.306C196.412 204.556 192.444 200.588 192.444 195.694V194.083H188.417C187.082 194.083 186 193.001 186 191.667C186 190.332 187.082 189.25 188.417 189.25H192.444V184.417H188.417C187.082 184.417 186 183.335 186 182C186 180.665 187.082 179.583 188.417 179.583H192.444V174.75H188.417C187.082 174.75 186 173.668 186 172.333C186 170.999 187.082 169.917 188.417 169.917H192.444V168.306C192.444 163.412 196.412 159.444 201.306 159.444H202.917V155.417C202.917 154.082 203.999 153 205.333 153C206.668 153 207.75 154.082 207.75 155.417V159.444H212.583ZM197.278 168.306C197.278 166.081 199.081 164.278 201.306 164.278H228.694C230.919 164.278 232.722 166.081 232.722 168.306V195.694C232.722 197.919 230.919 199.722 228.694 199.722H201.306C199.081 199.722 197.278 197.919 197.278 195.694V168.306Z" fill="#7780D9" style="fill:#7780D9;fill:color(display-p3 0.4667 0.5020 0.8510);fill-opacity:1;"/>
<rect x="127.748" y="365.748" width="174.505" height="30.5047" stroke="#ABB2FA" style="stroke:#ABB2FA;stroke:color(display-p3 0.6706 0.6990 0.9799);stroke-opacity:1;" stroke-width="3.4953"/>
<rect x="180.748" y="1.74765" width="68.5047" height="68.5047" stroke="#ABB2FA" style="stroke:#ABB2FA;stroke:color(display-p3 0.6706 0.6990 0.9799);stroke-opacity:1;" stroke-width="3.4953"/>
<rect x="1.74765" y="37.7477" width="68.5047" height="68.5047" stroke="#ABB2FA" style="stroke:#ABB2FA;stroke:color(display-p3 0.6706 0.6990 0.9799);stroke-opacity:1;" stroke-width="3.4953"/>
<rect x="353.748" y="37.7477" width="68.5047" height="68.5047" stroke="#ABB2FA" style="stroke:#ABB2FA;stroke:color(display-p3 0.6706 0.6990 0.9799);stroke-opacity:1;" stroke-width="3.4953"/>
<path d="M379.5 52L367 60.1L375.7 67.1L388.2 59.3L379.5 52ZM367 73.9L379.5 82.1L388.2 74.8L375.7 67.1L367 73.9ZM388.2 74.8L397 82.1L409.4 74L400.8 67.1L388.2 74.8ZM409.4 60.1L397 52L388.2 59.3L400.8 67.1L409.4 60.1ZM388.3 76.4L379.5 83.7L375.8 81.2V84L388.3 91.5L400.8 84V81.2L397 83.7L388.3 76.4Z" fill="#8D90AE" style="fill:#8D90AE;fill:color(display-p3 0.5532 0.5649 0.6823);fill-opacity:1;"/>
<line x1="36" y1="220.5" x2="129" y2="220.5" stroke="white" stroke-opacity="0.2" style="stroke:white;stroke-opacity:0.2;" stroke-width="2"/>
<line y1="-1" x2="93" y2="-1" transform="matrix(-1 0 0 1 388 222)" stroke="white" stroke-opacity="0.2" style="stroke:white;stroke-opacity:0.2;" stroke-width="2"/>
<line x1="216" y1="291" x2="216" y2="356" stroke="white" stroke-opacity="0.2" style="stroke:white;stroke-opacity:0.2;" stroke-width="2"/>
<line x1="216" y1="79" x2="216" y2="117" stroke="white" stroke-opacity="0.2" style="stroke:white;stroke-opacity:0.2;" stroke-width="2"/>
<line x1="35" y1="221.5" x2="35" y2="120.5" stroke="white" stroke-opacity="0.2" style="stroke:white;stroke-opacity:0.2;" stroke-width="2"/>
<line x1="389" y1="222" x2="389" y2="121" stroke="white" stroke-opacity="0.2" style="stroke:white;stroke-opacity:0.2;" stroke-width="2"/>
<path d="M195.038 253V233.811H197.877V250.398H206.262V253H195.038ZM209.485 253V233.811H212.323V250.398H220.709V253H209.485ZM222.801 253V233.811H226.297L228.216 239.962C228.409 240.541 228.575 241.101 228.715 241.645C228.856 242.17 228.952 242.565 229.005 242.827C229.075 242.565 229.171 242.17 229.294 241.645C229.434 241.101 229.592 240.541 229.767 239.962L231.607 233.811H235.103V253H232.422V246.534C232.422 245.71 232.439 244.799 232.474 243.8C232.527 242.784 232.597 241.767 232.685 240.751C232.772 239.717 232.86 238.736 232.947 237.807C233.035 236.861 233.114 236.037 233.184 235.336L230.345 244.667H227.611L224.72 235.336C224.808 236.019 224.895 236.817 224.983 237.728C225.07 238.622 225.149 239.577 225.219 240.593C225.29 241.61 225.351 242.635 225.403 243.669C225.456 244.685 225.482 245.64 225.482 246.534V253H222.801Z" fill="white" style="fill:white;fill-opacity:1;"/>
<path d="M164.805 386L167.595 375.05H169.725L172.515 386H170.88L170.22 383.225H167.115L166.455 386H164.805ZM167.415 381.89H169.905L169.155 378.725C169.025 378.165 168.915 377.68 168.825 377.27C168.745 376.85 168.69 376.565 168.66 376.415C168.63 376.565 168.575 376.85 168.495 377.27C168.415 377.68 168.305 378.16 168.165 378.71L167.415 381.89ZM173.664 386V377.75H175.269V379.325H175.659L175.269 379.7C175.269 379.04 175.464 378.525 175.854 378.155C176.244 377.785 176.784 377.6 177.474 377.6C178.294 377.6 178.949 377.865 179.439 378.395C179.929 378.915 180.174 379.62 180.174 380.51V386H178.554V380.69C178.554 380.15 178.409 379.735 178.119 379.445C177.829 379.155 177.434 379.01 176.934 379.01C176.424 379.01 176.019 379.165 175.719 379.475C175.429 379.775 175.284 380.215 175.284 380.795V386H173.664ZM183.228 388.7L184.413 385.52L181.338 377.75H183.123L184.848 382.4C184.918 382.6 184.988 382.84 185.058 383.12C185.128 383.4 185.188 383.63 185.238 383.81C185.278 383.63 185.333 383.4 185.403 383.12C185.473 382.84 185.543 382.6 185.613 382.4L187.233 377.75H188.958L184.938 388.7H183.228ZM202.822 386C202.312 386 201.867 385.9 201.487 385.7C201.107 385.49 200.807 385.195 200.587 384.815C200.377 384.435 200.272 383.995 200.272 383.495V376.52H197.572V375.05H201.892V383.495C201.892 383.815 201.982 384.07 202.162 384.26C202.342 384.44 202.587 384.53 202.897 384.53H205.447V386H202.822ZM209.056 386.15C208.196 386.15 207.516 385.93 207.016 385.49C206.526 385.04 206.281 384.43 206.281 383.66C206.281 382.88 206.541 382.27 207.061 381.83C207.591 381.38 208.316 381.155 209.236 381.155H211.531V380.39C211.531 379.94 211.391 379.59 211.111 379.34C210.831 379.09 210.436 378.965 209.926 378.965C209.476 378.965 209.101 379.065 208.801 379.265C208.501 379.455 208.326 379.71 208.276 380.03H206.686C206.776 379.29 207.116 378.7 207.706 378.26C208.306 377.82 209.061 377.6 209.971 377.6C210.951 377.6 211.726 377.85 212.296 378.35C212.866 378.84 213.151 379.51 213.151 380.36V386H211.576V384.485H211.306L211.576 384.185C211.576 384.785 211.346 385.265 210.886 385.625C210.426 385.975 209.816 386.15 209.056 386.15ZM209.536 384.905C210.116 384.905 210.591 384.76 210.961 384.47C211.341 384.17 211.531 383.79 211.531 383.33V382.25H209.266C208.846 382.25 208.511 382.365 208.261 382.595C208.021 382.825 207.901 383.14 207.901 383.54C207.901 383.96 208.046 384.295 208.336 384.545C208.626 384.785 209.026 384.905 209.536 384.905ZM214.885 386V377.75H216.49V379.325H216.88L216.49 379.7C216.49 379.04 216.685 378.525 217.075 378.155C217.465 377.785 218.005 377.6 218.695 377.6C219.515 377.6 220.17 377.865 220.66 378.395C221.15 378.915 221.395 379.62 221.395 380.51V386H219.775V380.69C219.775 380.15 219.63 379.735 219.34 379.445C219.05 379.155 218.655 379.01 218.155 379.01C217.645 379.01 217.24 379.165 216.94 379.475C216.65 379.775 216.505 380.215 216.505 380.795V386H214.885ZM224.209 388.7V387.305H226.744C227.164 387.305 227.474 387.205 227.674 387.005C227.884 386.805 227.989 386.51 227.989 386.12V385.295L228.019 383.765H227.674L228.004 383.465C228.004 384.095 227.804 384.59 227.404 384.95C227.014 385.31 226.484 385.49 225.814 385.49C224.964 385.49 224.294 385.21 223.804 384.65C223.314 384.09 223.069 383.335 223.069 382.385V380.705C223.069 379.755 223.314 379 223.804 378.44C224.294 377.88 224.964 377.6 225.814 377.6C226.484 377.6 227.014 377.785 227.404 378.155C227.804 378.515 228.004 379.01 228.004 379.64L227.674 379.325H228.004L227.989 377.75H229.594V386.15C229.594 386.94 229.344 387.56 228.844 388.01C228.344 388.47 227.649 388.7 226.759 388.7H224.209ZM226.339 384.095C226.849 384.095 227.249 383.94 227.539 383.63C227.839 383.31 227.989 382.87 227.989 382.31V380.795C227.989 380.235 227.839 379.8 227.539 379.49C227.249 379.17 226.849 379.01 226.339 379.01C225.809 379.01 225.399 379.165 225.109 379.475C224.829 379.775 224.689 380.215 224.689 380.795V382.31C224.689 382.88 224.829 383.32 225.109 383.63C225.399 383.94 225.809 384.095 226.339 384.095ZM234.598 386.15C233.608 386.15 232.818 385.865 232.228 385.295C231.638 384.715 231.343 383.93 231.343 382.94V377.75H232.963V382.94C232.963 383.51 233.108 383.955 233.398 384.275C233.688 384.585 234.088 384.74 234.598 384.74C235.118 384.74 235.523 384.585 235.813 384.275C236.113 383.955 236.263 383.51 236.263 382.94V377.75H237.883V382.94C237.883 383.93 237.583 384.715 236.983 385.295C236.393 385.865 235.598 386.15 234.598 386.15ZM242.032 386.15C241.172 386.15 240.492 385.93 239.992 385.49C239.502 385.04 239.257 384.43 239.257 383.66C239.257 382.88 239.517 382.27 240.037 381.83C240.567 381.38 241.292 381.155 242.212 381.155H244.507V380.39C244.507 379.94 244.367 379.59 244.087 379.34C243.807 379.09 243.412 378.965 242.902 378.965C242.452 378.965 242.077 379.065 241.777 379.265C241.477 379.455 241.302 379.71 241.252 380.03H239.662C239.752 379.29 240.092 378.7 240.682 378.26C241.282 377.82 242.037 377.6 242.947 377.6C243.927 377.6 244.702 377.85 245.272 378.35C245.842 378.84 246.127 379.51 246.127 380.36V386H244.552V384.485H244.282L244.552 384.185C244.552 384.785 244.322 385.265 243.862 385.625C243.402 385.975 242.792 386.15 242.032 386.15ZM242.512 384.905C243.092 384.905 243.567 384.76 243.937 384.47C244.317 384.17 244.507 383.79 244.507 383.33V382.25H242.242C241.822 382.25 241.487 382.365 241.237 382.595C240.997 382.825 240.877 383.14 240.877 383.54C240.877 383.96 241.022 384.295 241.312 384.545C241.602 384.785 242.002 384.905 242.512 384.905ZM248.942 388.7V387.305H251.477C251.897 387.305 252.207 387.205 252.407 387.005C252.617 386.805 252.722 386.51 252.722 386.12V385.295L252.752 383.765H252.407L252.737 383.465C252.737 384.095 252.537 384.59 252.137 384.95C251.747 385.31 251.217 385.49 250.547 385.49C249.697 385.49 249.027 385.21 248.537 384.65C248.047 384.09 247.802 383.335 247.802 382.385V380.705C247.802 379.755 248.047 379 248.537 378.44C249.027 377.88 249.697 377.6 250.547 377.6C251.217 377.6 251.747 377.785 252.137 378.155C252.537 378.515 252.737 379.01 252.737 379.64L252.407 379.325H252.737L252.722 377.75H254.327V386.15C254.327 386.94 254.077 387.56 253.577 388.01C253.077 388.47 252.382 388.7 251.492 388.7H248.942ZM251.072 384.095C251.582 384.095 251.982 383.94 252.272 383.63C252.572 383.31 252.722 382.87 252.722 382.31V380.795C252.722 380.235 252.572 379.8 252.272 379.49C251.982 379.17 251.582 379.01 251.072 379.01C250.542 379.01 250.132 379.165 249.842 379.475C249.562 379.775 249.422 380.215 249.422 380.795V382.31C249.422 382.88 249.562 383.32 249.842 383.63C250.132 383.94 250.542 384.095 251.072 384.095ZM259.346 386.15C258.676 386.15 258.086 386.02 257.576 385.76C257.076 385.49 256.691 385.115 256.421 384.635C256.151 384.155 256.016 383.595 256.016 382.955V380.795C256.016 380.145 256.151 379.585 256.421 379.115C256.691 378.635 257.076 378.265 257.576 378.005C258.086 377.735 258.676 377.6 259.346 377.6C260.026 377.6 260.616 377.735 261.116 378.005C261.616 378.265 262.001 378.635 262.271 379.115C262.541 379.585 262.676 380.145 262.676 380.795V382.265H257.576V382.955C257.576 383.565 257.726 384.03 258.026 384.35C258.336 384.67 258.781 384.83 259.361 384.83C259.831 384.83 260.211 384.75 260.501 384.59C260.791 384.42 260.971 384.175 261.041 383.855H262.646C262.526 384.555 262.166 385.115 261.566 385.535C260.966 385.945 260.226 386.15 259.346 386.15ZM261.116 381.29V380.78C261.116 380.18 260.966 379.715 260.666 379.385C260.366 379.055 259.926 378.89 259.346 378.89C258.776 378.89 258.336 379.055 258.026 379.385C257.726 379.715 257.576 380.185 257.576 380.795V381.17L261.236 381.155L261.116 381.29Z" fill="white" style="fill:white;fill-opacity:1;"/>
<path d="M52.5053 80.007C52.3168 79.5505 52.1283 79.0561 51.9397 78.6376C51.6381 77.953 51.3364 77.3063 51.0724 76.6977L51.0347 76.6597C48.4329 70.954 45.6426 65.1722 42.7014 59.4665L42.5883 59.2382C42.2866 58.6677 41.985 58.0591 41.6833 57.4505C41.3063 56.7658 40.9292 56.043 40.3259 55.3584C39.1192 53.8368 37.3847 53 35.537 53C33.6517 53 31.9548 53.8368 30.7105 55.2823C30.1449 55.967 29.7301 56.6897 29.353 57.3744C29.0514 57.983 28.7497 58.5916 28.4481 59.1622L28.3349 59.3904C25.4315 65.0961 22.6034 70.8779 20.0016 76.5836L19.9639 76.6597C19.7 77.2683 19.3983 77.9149 19.0967 78.5996C18.9081 79.018 18.7196 79.4745 18.531 79.969C18.0408 81.3764 17.89 82.7077 18.0786 84.0771C18.4933 86.9299 20.3787 89.3263 22.9805 90.3914C23.9609 90.8098 24.979 91 26.0348 91C26.3365 91 26.7135 90.962 27.0152 90.9239C28.2595 90.7718 29.5416 90.3534 30.7859 89.6306C32.3319 88.7558 33.8025 87.5005 35.4616 85.6747C37.1207 87.5005 38.629 88.7558 40.1373 89.6306C41.3817 90.3534 42.6637 90.7718 43.9081 90.9239C44.2097 90.962 44.5868 91 44.8885 91C45.9443 91 47.0001 90.8098 47.9427 90.3914C50.5823 89.3263 52.4299 86.8919 52.8447 84.0771C53.1464 82.7457 52.9955 81.4144 52.5053 80.007ZM35.4993 81.985C33.4631 79.3984 32.1434 76.964 31.6909 74.9099C31.5024 74.035 31.4647 73.2743 31.5778 72.5896C31.6532 71.981 31.8794 71.4484 32.1811 70.992C32.8975 69.965 34.1042 69.3183 35.4993 69.3183C36.8945 69.3183 38.1388 69.9269 38.8176 70.992C39.1192 71.4484 39.3455 71.981 39.4209 72.5896C39.534 73.2743 39.4963 74.0731 39.3078 74.9099C38.8553 76.9259 37.5355 79.3604 35.4993 81.985ZM50.5445 83.7728C50.2806 85.7507 48.9608 87.4625 47.1132 88.2232C46.2082 88.6036 45.2278 88.7177 44.2474 88.6036C43.3047 88.4895 42.3621 88.1852 41.3817 87.6146C40.0242 86.8539 38.6667 85.6747 37.083 83.9249C39.5717 80.8438 41.08 78.029 41.6456 75.5185C41.9096 74.3393 41.9473 73.2743 41.8342 72.2853C41.6833 71.3343 41.344 70.4595 40.8161 69.6987C39.6471 67.987 37.6864 66.998 35.4993 66.998C33.3123 66.998 31.3515 68.025 30.1826 69.6987C29.6547 70.4595 29.3153 71.3343 29.1645 72.2853C29.0137 73.2743 29.0514 74.3774 29.353 75.5185C29.9187 78.029 31.4647 80.8819 33.9156 83.963C32.3696 85.7127 30.9745 86.8919 29.617 87.6527C28.6366 88.2232 27.6939 88.5275 26.7512 88.6416C25.7331 88.7558 24.7528 88.6036 23.8855 88.2613C22.0378 87.5005 20.7181 85.7888 20.4541 83.8108C20.341 82.8599 20.4164 81.9089 20.7935 80.8438C20.9066 80.4635 21.0951 80.0831 21.2837 79.6266C21.5476 79.018 21.8493 78.3714 22.1509 77.7247L22.1887 77.6486C24.7905 71.981 27.5808 66.1992 30.4843 60.5696L30.5974 60.3413C30.899 59.7708 31.2007 59.1622 31.5024 58.5916C31.804 57.983 32.1434 57.4124 32.5582 56.9179C33.35 56.005 34.4058 55.5105 35.5747 55.5105C36.7437 55.5105 37.7995 56.005 38.5913 56.9179C39.0061 57.4124 39.3455 57.983 39.6471 58.5916C39.9488 59.1622 40.2505 59.7708 40.5521 60.3413L40.6652 60.5696C43.531 66.2372 46.3213 72.019 48.9231 77.6867V77.7247C49.2248 78.3333 49.4887 79.018 49.7904 79.6266C49.9789 80.0831 50.1675 80.4635 50.2806 80.8438C50.5823 81.8328 50.6954 82.7838 50.5445 83.7728Z" fill="#8D90AE" style="fill:#8D90AE;fill:color(display-p3 0.5532 0.5649 0.6823);fill-opacity:1;"/>
<mask id="mask0_254_1047" style="mask-type:luminance" maskUnits="userSpaceOnUse" x="198" y="18" width="35" height="36">
<path d="M232.533 32.5031H215.805V39.3492H225.417C225.263 40.3181 224.916 41.2712 224.408 42.1403C223.826 43.1361 223.106 43.8942 222.368 44.4715C220.159 46.2008 217.583 46.5544 215.794 46.5544C211.274 46.5544 207.413 43.5711 205.918 39.5173C205.858 39.3702 205.818 39.2182 205.769 39.068C205.439 38.0362 205.258 36.9435 205.258 35.8078C205.258 34.6258 205.454 33.4944 205.81 32.4258C207.216 28.2113 211.164 25.0634 215.797 25.0634C216.729 25.0634 217.626 25.1767 218.477 25.4027C220.422 25.9191 221.798 26.9362 222.641 27.7407L227.727 22.6531C224.633 19.7557 220.6 18 215.789 18C211.942 17.9999 208.391 19.2239 205.482 21.2924C203.122 22.97 201.186 25.216 199.88 27.8245C198.665 30.2431 198 32.9233 198 35.8051C198 38.6871 198.666 41.3952 199.881 43.7914V43.8076C201.164 46.3515 203.041 48.5419 205.322 50.2117C207.314 51.6705 210.887 53.6134 215.789 53.6134C218.607 53.6134 221.106 53.0943 223.309 52.1215C224.898 51.4198 226.306 50.5045 227.581 49.3282C229.266 47.7738 230.585 45.8513 231.486 43.6394C232.387 41.4274 232.868 38.9261 232.868 36.2143C232.868 34.9513 232.744 33.6687 232.533 32.503V32.5031Z" fill="white" style="fill:white;fill-opacity:1;"/>
</mask>
<g mask="url(#mask0_254_1047)">
<g filter="url(#filter0_f_254_1047)">
<path d="M197.744 35.9261C197.762 38.7626 198.553 41.6891 199.751 44.0516V44.0678C200.617 45.7835 201.8 47.1388 203.147 48.4816L211.284 45.4491C209.744 44.6504 209.509 44.161 208.406 43.268C207.278 42.1065 206.438 40.7731 205.914 39.2097H205.893L205.914 39.1934C205.57 38.161 205.536 37.0651 205.523 35.9261H197.744Z" fill="#8D90AE" style="fill:#8D90AE;fill:color(display-p3 0.5532 0.5649 0.6823);fill-opacity:1;"/>
</g>
<g filter="url(#filter1_f_254_1047)">
<path d="M215.806 17.8705C215.002 20.7563 215.309 23.5615 215.806 25.1937C216.735 25.1944 217.629 25.3074 218.478 25.5327C220.423 26.0491 221.798 27.0662 222.641 27.8707L227.858 22.6532C224.767 19.7592 221.048 17.875 215.806 17.8705Z" fill="#8D90AE" style="fill:#8D90AE;fill:color(display-p3 0.5532 0.5649 0.6823);fill-opacity:1;"/>
</g>
<g filter="url(#filter2_f_254_1047)">
<path d="M215.788 17.8477C211.843 17.8476 208.201 19.103 205.216 21.2246C204.108 22.0124 203.091 22.9224 202.186 23.9343C201.949 26.2075 203.962 29.0013 207.948 28.9782C209.882 26.6802 212.743 25.1934 215.927 25.1934C215.93 25.1934 215.933 25.1936 215.936 25.1936L215.806 17.8482C215.8 17.8482 215.794 17.8477 215.788 17.8477Z" fill="#8D90AE" style="fill:#8D90AE;fill:color(display-p3 0.5532 0.5649 0.6823);fill-opacity:1;"/>
</g>
<g filter="url(#filter3_f_254_1047)">
<path d="M228.809 36.7485L225.288 39.2192C225.134 40.1881 224.786 41.1412 224.278 42.0103C223.696 43.006 222.977 43.7641 222.239 44.3414C220.034 46.0672 217.465 46.4225 215.676 46.424C213.828 49.6399 213.503 51.2507 215.806 53.8462C218.656 53.844 221.182 53.3187 223.41 52.3349C225.021 51.6237 226.448 50.6961 227.74 49.504C229.447 47.9288 230.784 45.9804 231.697 43.7388C232.61 41.4972 233.098 38.9625 233.098 36.2142L228.809 36.7485Z" fill="#8D90AE" style="fill:#8D90AE;fill:color(display-p3 0.5532 0.5649 0.6823);fill-opacity:1;"/>
</g>
<g filter="url(#filter4_f_254_1047)">
<path d="M215.546 32.2429V39.6092H232.487C232.636 38.6004 233.129 37.2949 233.129 36.2142C233.129 34.9513 233.004 33.4086 232.794 32.2429H215.546Z" fill="#8D90AE" style="fill:#8D90AE;fill:color(display-p3 0.5532 0.5649 0.6823);fill-opacity:1;"/>
</g>
<g filter="url(#filter5_f_254_1047)">
<path d="M202.267 23.6744C201.222 24.8427 200.328 26.1504 199.62 27.5646C198.405 29.9832 197.74 32.9235 197.74 35.8053C197.74 35.8459 197.744 35.8857 197.744 35.9262C198.282 36.9799 205.176 36.7781 205.523 35.9262C205.523 35.8865 205.519 35.8477 205.519 35.8079C205.519 34.6259 205.714 33.7547 206.07 32.6861C206.51 31.368 207.198 30.1542 208.079 29.1084C208.278 28.8482 208.81 28.2889 208.966 27.9534C209.025 27.8256 208.858 27.7538 208.849 27.7089C208.839 27.6585 208.615 27.699 208.565 27.6615C208.406 27.5425 208.092 27.4804 207.901 27.4252C207.493 27.3071 206.816 27.0468 206.44 26.7769C205.253 25.9238 203.399 24.9049 202.267 23.6744Z" fill="#8D90AE" style="fill:#8D90AE;fill:color(display-p3 0.5532 0.5649 0.6823);fill-opacity:1;"/>
</g>
<g filter="url(#filter6_f_254_1047)">
<path d="M206.466 27.7138C209.22 29.4179 210.012 26.8536 211.843 26.0512L208.658 19.3042C207.486 19.8072 206.379 20.4322 205.352 21.1624C203.818 22.253 202.463 23.5837 201.344 25.0981L206.466 27.7138Z" fill="#8D90AE" style="fill:#8D90AE;fill:color(display-p3 0.5532 0.5649 0.6823);fill-opacity:1;"/>
</g>
<g filter="url(#filter7_f_254_1047)">
<path d="M207.587 44.9277C203.889 46.291 203.311 46.3399 202.97 48.6802C203.621 49.3284 204.319 49.928 205.062 50.4717C207.054 51.9305 210.887 53.8733 215.789 53.8733C215.794 53.8733 215.8 53.8728 215.806 53.8728V46.2939C215.802 46.2939 215.798 46.2942 215.794 46.2942C213.959 46.2942 212.492 45.8018 210.988 44.9455C210.617 44.7344 209.944 45.3013 209.602 45.0478C209.131 44.6983 207.996 45.349 207.587 44.9277Z" fill="#8D90AE" style="fill:#8D90AE;fill:color(display-p3 0.5532 0.5649 0.6823);fill-opacity:1;"/>
</g>
<g opacity="0.5" filter="url(#filter8_f_254_1047)">
<path d="M213.641 46.0553V53.7416C214.326 53.8236 215.04 53.8734 215.789 53.8734C216.54 53.8734 217.266 53.8341 217.971 53.7617V46.1071C217.181 46.2452 216.436 46.2943 215.794 46.2943C215.055 46.2943 214.337 46.2064 213.641 46.0553Z" fill="#8D90AE" style="fill:#8D90AE;fill:color(display-p3 0.5532 0.5649 0.6823);fill-opacity:1;"/>
</g>
</g>
<defs>
<filter id="filter0_f_254_1047" x="197.274" y="35.4561" width="14.4802" height="13.4956" filterUnits="userSpaceOnUse" color-interpolation-filters="sRGB">
<feFlood flood-opacity="0" result="BackgroundImageFix"/>
<feBlend mode="normal" in="SourceGraphic" in2="BackgroundImageFix" result="shape"/>
<feGaussianBlur stdDeviation="0.23504" result="effect1_foregroundBlur_254_1047"/>
</filter>
<filter id="filter1_f_254_1047" x="214.841" y="17.4004" width="13.4861" height="10.9404" filterUnits="userSpaceOnUse" color-interpolation-filters="sRGB">
<feFlood flood-opacity="0" result="BackgroundImageFix"/>
<feBlend mode="normal" in="SourceGraphic" in2="BackgroundImageFix" result="shape"/>
<feGaussianBlur stdDeviation="0.23504" result="effect1_foregroundBlur_254_1047"/>
</filter>
<filter id="filter2_f_254_1047" x="201.697" y="17.3776" width="14.7087" height="12.0709" filterUnits="userSpaceOnUse" color-interpolation-filters="sRGB">
<feFlood flood-opacity="0" result="BackgroundImageFix"/>
<feBlend mode="normal" in="SourceGraphic" in2="BackgroundImageFix" result="shape"/>
<feGaussianBlur stdDeviation="0.23504" result="effect1_foregroundBlur_254_1047"/>
</filter>
<filter id="filter3_f_254_1047" x="213.714" y="35.7442" width="19.8542" height="18.5721" filterUnits="userSpaceOnUse" color-interpolation-filters="sRGB">
<feFlood flood-opacity="0" result="BackgroundImageFix"/>
<feBlend mode="normal" in="SourceGraphic" in2="BackgroundImageFix" result="shape"/>
<feGaussianBlur stdDeviation="0.23504" result="effect1_foregroundBlur_254_1047"/>
</filter>
<filter id="filter4_f_254_1047" x="215.076" y="31.7728" width="18.5227" height="8.30649" filterUnits="userSpaceOnUse" color-interpolation-filters="sRGB">
<feFlood flood-opacity="0" result="BackgroundImageFix"/>
<feBlend mode="normal" in="SourceGraphic" in2="BackgroundImageFix" result="shape"/>
<feGaussianBlur stdDeviation="0.23504" result="effect1_foregroundBlur_254_1047"/>
</filter>
<filter id="filter5_f_254_1047" x="197.27" y="23.2044" width="12.1784" height="13.9085" filterUnits="userSpaceOnUse" color-interpolation-filters="sRGB">
<feFlood flood-opacity="0" result="BackgroundImageFix"/>
<feBlend mode="normal" in="SourceGraphic" in2="BackgroundImageFix" result="shape"/>
<feGaussianBlur stdDeviation="0.23504" result="effect1_foregroundBlur_254_1047"/>
</filter>
<filter id="filter6_f_254_1047" x="198.039" y="15.9993" width="17.1092" height="15.592" filterUnits="userSpaceOnUse" color-interpolation-filters="sRGB">
<feFlood flood-opacity="0" result="BackgroundImageFix"/>
<feBlend mode="normal" in="SourceGraphic" in2="BackgroundImageFix" result="shape"/>
<feGaussianBlur stdDeviation="1.65243" result="effect1_foregroundBlur_254_1047"/>
</filter>
<filter id="filter7_f_254_1047" x="202.5" y="44.4273" width="13.7756" height="9.91611" filterUnits="userSpaceOnUse" color-interpolation-filters="sRGB">
<feFlood flood-opacity="0" result="BackgroundImageFix"/>
<feBlend mode="normal" in="SourceGraphic" in2="BackgroundImageFix" result="shape"/>
<feGaussianBlur stdDeviation="0.23504" result="effect1_foregroundBlur_254_1047"/>
</filter>
<filter id="filter8_f_254_1047" x="213.171" y="45.5852" width="5.27073" height="8.75827" filterUnits="userSpaceOnUse" color-interpolation-filters="sRGB">
<feFlood flood-opacity="0" result="BackgroundImageFix"/>
<feBlend mode="normal" in="SourceGraphic" in2="BackgroundImageFix" result="shape"/>
<feGaussianBlur stdDeviation="0.23504" result="effect1_foregroundBlur_254_1047"/>
</filter>
</defs>
</svg>
