<svg width="564" height="250" viewBox="0 0 564 250" fill="none" xmlns="http://www.w3.org/2000/svg">
<rect x="203.748" y="1.74765" width="146.505" height="83.5047" stroke="#ABB2FA" style="stroke:#ABB2FA;stroke:color(display-p3 0.6706 0.6990 0.9799);stroke-opacity:1;" stroke-width="3.4953"/>
<rect x="1.74765" y="84.7477" width="136.505" height="56.5047" stroke="#ABB2FA" style="stroke:#ABB2FA;stroke:color(display-p3 0.6706 0.6990 0.9799);stroke-opacity:1;" stroke-width="3.4953"/>
<rect x="405.748" y="84.7477" width="156.505" height="56.5047" stroke="#CCCFEE" style="stroke:#CCCFEE;stroke:color(display-p3 0.7991 0.8104 0.9346);stroke-opacity:1;" stroke-width="3.4953"/>
<rect x="250" y="195" width="54.1588" height="54.1588" fill="#7780D9" style="fill:#7780D9;fill:color(display-p3 0.4667 0.5020 0.8510);fill-opacity:1;"/>
<rect x="254.166" y="199.166" width="45.8266" height="45.8266" fill="#B9BFFF" style="fill:#B9BFFF;fill:color(display-p3 0.7246 0.7499 1.0000);fill-opacity:1;"/>
<path d="M256.249 201.249H260.415V205.415H256.249V201.249Z" fill="#B0B7FF" style="fill:#B0B7FF;fill:color(display-p3 0.6897 0.7182 1.0000);fill-opacity:1;"/>
<path d="M256.249 207.498H260.415V211.664H256.249V207.498Z" fill="#B0B7FF" style="fill:#B0B7FF;fill:color(display-p3 0.6897 0.7182 1.0000);fill-opacity:1;"/>
<path d="M256.249 213.747H260.415V217.913H256.249V213.747Z" fill="#B0B7FF" style="fill:#B0B7FF;fill:color(display-p3 0.6897 0.7182 1.0000);fill-opacity:1;"/>
<path d="M256.249 219.996H260.415V224.162H256.249V219.996Z" fill="#ABB2FA" style="fill:#ABB2FA;fill:color(display-p3 0.6706 0.6990 0.9799);fill-opacity:1;"/>
<path d="M256.249 226.245H260.415V230.411H256.249V226.245Z" fill="#ABB2FA" style="fill:#ABB2FA;fill:color(display-p3 0.6706 0.6990 0.9799);fill-opacity:1;"/>
<path d="M256.249 232.495H260.415V236.661H256.249V232.495Z" fill="#ABB2FA" style="fill:#ABB2FA;fill:color(display-p3 0.6706 0.6990 0.9799);fill-opacity:1;"/>
<path d="M256.249 238.744H260.415V242.91H256.249V238.744Z" fill="#969FF4" style="fill:#969FF4;fill:color(display-p3 0.5882 0.6220 0.9566);fill-opacity:1;"/>
<path d="M274.997 201.249H279.163V205.415H274.997V201.249Z" fill="#ABB2FA" style="fill:#ABB2FA;fill:color(display-p3 0.6706 0.6990 0.9799);fill-opacity:1;"/>
<path d="M274.997 207.498H279.163V211.664H274.997V207.498Z" fill="#ABB2FA" style="fill:#ABB2FA;fill:color(display-p3 0.6706 0.6990 0.9799);fill-opacity:1;"/>
<path d="M274.997 213.747H279.163V217.913H274.997V213.747Z" fill="#ABB2FA" style="fill:#ABB2FA;fill:color(display-p3 0.6706 0.6990 0.9799);fill-opacity:1;"/>
<path d="M274.997 219.996H279.163V224.162H274.997V219.996Z" fill="#969FF4" style="fill:#969FF4;fill:color(display-p3 0.5882 0.6220 0.9566);fill-opacity:1;"/>
<path d="M274.997 226.245H279.163V230.411H274.997V226.245Z" fill="#969FF4" style="fill:#969FF4;fill:color(display-p3 0.5882 0.6220 0.9566);fill-opacity:1;"/>
<path d="M274.997 232.495H279.163V236.661H274.997V232.495Z" fill="#969FF4" style="fill:#969FF4;fill:color(display-p3 0.5882 0.6220 0.9566);fill-opacity:1;"/>
<path d="M274.997 238.744H279.163V242.91H274.997V238.744Z" fill="#969FF4" style="fill:#969FF4;fill:color(display-p3 0.5882 0.6220 0.9566);fill-opacity:1;"/>
<path d="M262.499 201.249H266.665V205.415H262.499V201.249Z" fill="#B0B7FF" style="fill:#B0B7FF;fill:color(display-p3 0.6897 0.7182 1.0000);fill-opacity:1;"/>
<path d="M262.499 207.498H266.665V211.664H262.499V207.498Z" fill="#B0B7FF" style="fill:#B0B7FF;fill:color(display-p3 0.6897 0.7182 1.0000);fill-opacity:1;"/>
<path d="M262.499 213.747H266.665V217.913H262.499V213.747Z" fill="#ABB2FA" style="fill:#ABB2FA;fill:color(display-p3 0.6706 0.6990 0.9799);fill-opacity:1;"/>
<path d="M262.499 219.996H266.665V224.162H262.499V219.996Z" fill="#ABB2FA" style="fill:#ABB2FA;fill:color(display-p3 0.6706 0.6990 0.9799);fill-opacity:1;"/>
<path d="M262.499 226.245H266.665V230.411H262.499V226.245Z" fill="#ABB2FA" style="fill:#ABB2FA;fill:color(display-p3 0.6706 0.6990 0.9799);fill-opacity:1;"/>
<path d="M262.499 232.495H266.665V236.661H262.499V232.495Z" fill="#969FF4" style="fill:#969FF4;fill:color(display-p3 0.5882 0.6220 0.9566);fill-opacity:1;"/>
<path d="M262.499 238.744H266.665V242.91H262.499V238.744Z" fill="#969FF4" style="fill:#969FF4;fill:color(display-p3 0.5882 0.6220 0.9566);fill-opacity:1;"/>
<path d="M281.246 201.249H285.412V205.415H281.246V201.249Z" fill="#ABB2FA" style="fill:#ABB2FA;fill:color(display-p3 0.6706 0.6990 0.9799);fill-opacity:1;"/>
<path d="M281.246 207.498H285.412V211.664H281.246V207.498Z" fill="#ABB2FA" style="fill:#ABB2FA;fill:color(display-p3 0.6706 0.6990 0.9799);fill-opacity:1;"/>
<path d="M281.246 213.747H285.412V217.913H281.246V213.747Z" fill="#969FF4" style="fill:#969FF4;fill:color(display-p3 0.5882 0.6220 0.9566);fill-opacity:1;"/>
<path d="M281.246 219.996H285.412V224.162H281.246V219.996Z" fill="#969FF4" style="fill:#969FF4;fill:color(display-p3 0.5882 0.6220 0.9566);fill-opacity:1;"/>
<path d="M281.246 226.245H285.412V230.411H281.246V226.245Z" fill="#969FF4" style="fill:#969FF4;fill:color(display-p3 0.5882 0.6220 0.9566);fill-opacity:1;"/>
<path d="M281.246 232.495H285.412V236.661H281.246V232.495Z" fill="#969FF4" style="fill:#969FF4;fill:color(display-p3 0.5882 0.6220 0.9566);fill-opacity:1;"/>
<path d="M281.246 238.744H285.412V242.91H281.246V238.744Z" fill="#969FF4" style="fill:#969FF4;fill:color(display-p3 0.5882 0.6220 0.9566);fill-opacity:1;"/>
<path d="M268.747 201.249H272.913V205.415H268.747V201.249Z" fill="#B0B7FF" style="fill:#B0B7FF;fill:color(display-p3 0.6897 0.7182 1.0000);fill-opacity:1;"/>
<path d="M268.747 207.498H272.913V211.664H268.747V207.498Z" fill="#ABB2FA" style="fill:#ABB2FA;fill:color(display-p3 0.6706 0.6990 0.9799);fill-opacity:1;"/>
<path d="M268.747 213.747H272.913V217.913H268.747V213.747Z" fill="#ABB2FA" style="fill:#ABB2FA;fill:color(display-p3 0.6706 0.6990 0.9799);fill-opacity:1;"/>
<path d="M268.747 219.996H272.913V224.162H268.747V219.996Z" fill="#ABB2FA" style="fill:#ABB2FA;fill:color(display-p3 0.6706 0.6990 0.9799);fill-opacity:1;"/>
<path d="M268.747 226.245H272.913V230.411H268.747V226.245Z" fill="#969FF4" style="fill:#969FF4;fill:color(display-p3 0.5882 0.6220 0.9566);fill-opacity:1;"/>
<path d="M268.747 232.495H272.913V236.661H268.747V232.495Z" fill="#969FF4" style="fill:#969FF4;fill:color(display-p3 0.5882 0.6220 0.9566);fill-opacity:1;"/>
<path d="M268.747 238.744H272.913V242.91H268.747V238.744Z" fill="#969FF4" style="fill:#969FF4;fill:color(display-p3 0.5882 0.6220 0.9566);fill-opacity:1;"/>
<path d="M287.495 201.249H291.661V205.415H287.495V201.249Z" fill="#ABB2FA" style="fill:#ABB2FA;fill:color(display-p3 0.6706 0.6990 0.9799);fill-opacity:1;"/>
<path d="M287.495 207.498H291.661V211.664H287.495V207.498Z" fill="#969FF4" style="fill:#969FF4;fill:color(display-p3 0.5882 0.6220 0.9566);fill-opacity:1;"/>
<path d="M287.495 213.747H291.661V217.913H287.495V213.747Z" fill="#969FF4" style="fill:#969FF4;fill:color(display-p3 0.5882 0.6220 0.9566);fill-opacity:1;"/>
<path d="M287.495 219.996H291.661V224.162H287.495V219.996Z" fill="#969FF4" style="fill:#969FF4;fill:color(display-p3 0.5882 0.6220 0.9566);fill-opacity:1;"/>
<path d="M287.495 226.245H291.661V230.411H287.495V226.245Z" fill="#969FF4" style="fill:#969FF4;fill:color(display-p3 0.5882 0.6220 0.9566);fill-opacity:1;"/>
<path d="M287.495 232.495H291.661V236.661H287.495V232.495Z" fill="#969FF4" style="fill:#969FF4;fill:color(display-p3 0.5882 0.6220 0.9566);fill-opacity:1;"/>
<path d="M287.495 238.744H291.661V242.91H287.495V238.744Z" fill="#969FF4" style="fill:#969FF4;fill:color(display-p3 0.5882 0.6220 0.9566);fill-opacity:1;"/>
<path d="M293.744 201.249H297.91V205.415H293.744V201.249Z" fill="#969FF4" style="fill:#969FF4;fill:color(display-p3 0.5882 0.6220 0.9566);fill-opacity:1;"/>
<path d="M293.744 207.498H297.91V211.664H293.744V207.498Z" fill="#969FF4" style="fill:#969FF4;fill:color(display-p3 0.5882 0.6220 0.9566);fill-opacity:1;"/>
<path d="M293.744 213.747H297.91V217.913H293.744V213.747Z" fill="#969FF4" style="fill:#969FF4;fill:color(display-p3 0.5882 0.6220 0.9566);fill-opacity:1;"/>
<path d="M293.744 219.996H297.91V224.162H293.744V219.996Z" fill="#969FF4" style="fill:#969FF4;fill:color(display-p3 0.5882 0.6220 0.9566);fill-opacity:1;"/>
<path d="M293.744 226.245H297.91V230.411H293.744V226.245Z" fill="#969FF4" style="fill:#969FF4;fill:color(display-p3 0.5882 0.6220 0.9566);fill-opacity:1;"/>
<path d="M293.744 232.495H297.91V236.661H293.744V232.495Z" fill="#969FF4" style="fill:#969FF4;fill:color(display-p3 0.5882 0.6220 0.9566);fill-opacity:1;"/>
<path d="M293.744 238.744H297.91V242.91H293.744V238.744Z" fill="#969FF4" style="fill:#969FF4;fill:color(display-p3 0.5882 0.6220 0.9566);fill-opacity:1;"/>
<line x1="70" y1="222" x2="140" y2="222" stroke="black" stroke-opacity="0.2" style="stroke:black;stroke-opacity:0.2;" stroke-width="2"/>
<line x1="161" y1="222" x2="245" y2="222" stroke="black" stroke-opacity="0.2" style="stroke:black;stroke-opacity:0.2;" stroke-width="2"/>
<line x1="165" y1="37" x2="193" y2="37" stroke="black" stroke-opacity="0.2" style="stroke:black;stroke-opacity:0.2;" stroke-width="2"/>
<line x1="70" y1="37" x2="144" y2="37" stroke="black" stroke-opacity="0.2" style="stroke:black;stroke-opacity:0.2;" stroke-width="2"/>
<line x1="310" y1="222" x2="403" y2="222" stroke="black" stroke-opacity="0.2" style="stroke:black;stroke-opacity:0.2;" stroke-width="2"/>
<line x1="425" y1="222" x2="484" y2="222" stroke="black" stroke-opacity="0.2" style="stroke:black;stroke-opacity:0.2;" stroke-width="2"/>
<path d="M407 221.5L421.25 213.273L421.25 229.727L407 221.5Z" fill="#ABB2FA" style="fill:#ABB2FA;fill:color(display-p3 0.6706 0.6990 0.9799);fill-opacity:1;"/>
<path d="M143 221.5L157.25 213.273L157.25 229.727L143 221.5Z" fill="#ABB2FA" style="fill:#ABB2FA;fill:color(display-p3 0.6706 0.6990 0.9799);fill-opacity:1;"/>
<line x1="71" y1="156" x2="71" y2="221" stroke="black" stroke-opacity="0.2" style="stroke:black;stroke-opacity:0.2;" stroke-width="2"/>
<line x1="71" y1="38" x2="71" y2="76" stroke="black" stroke-opacity="0.2" style="stroke:black;stroke-opacity:0.2;" stroke-width="2"/>
<line x1="485" y1="156" x2="485" y2="223" stroke="black" stroke-opacity="0.2" style="stroke:black;stroke-opacity:0.2;" stroke-width="2"/>
<path d="M440.187 119V107.32H442.315L443.483 111.064C443.601 111.416 443.702 111.757 443.787 112.088C443.873 112.408 443.931 112.648 443.963 112.808C444.006 112.648 444.065 112.408 444.139 112.088C444.225 111.757 444.321 111.416 444.427 111.064L445.547 107.32H447.675V119H446.043V115.064C446.043 114.563 446.054 114.008 446.075 113.4C446.107 112.781 446.15 112.163 446.203 111.544C446.257 110.915 446.31 110.317 446.363 109.752C446.417 109.176 446.465 108.675 446.507 108.248L444.779 113.928H443.115L441.355 108.248C441.409 108.664 441.462 109.149 441.515 109.704C441.569 110.248 441.617 110.829 441.659 111.448C441.702 112.067 441.739 112.691 441.771 113.32C441.803 113.939 441.819 114.52 441.819 115.064V119H440.187ZM452.789 119.16C452.064 119.16 451.429 119.027 450.885 118.76C450.352 118.483 449.936 118.088 449.637 117.576C449.349 117.053 449.205 116.445 449.205 115.752V110.568C449.205 109.864 449.349 109.256 449.637 108.744C449.936 108.232 450.352 107.843 450.885 107.576C451.429 107.299 452.064 107.16 452.789 107.16C453.514 107.16 454.144 107.299 454.677 107.576C455.21 107.853 455.621 108.248 455.909 108.76C456.208 109.261 456.357 109.864 456.357 110.568H454.629C454.629 109.96 454.469 109.496 454.149 109.176C453.829 108.856 453.376 108.696 452.789 108.696C452.202 108.696 451.744 108.856 451.413 109.176C451.093 109.496 450.933 109.955 450.933 110.552V115.752C450.933 116.349 451.093 116.813 451.413 117.144C451.744 117.464 452.202 117.624 452.789 117.624C453.376 117.624 453.829 117.464 454.149 117.144C454.469 116.813 454.629 116.349 454.629 115.752H456.357C456.357 116.445 456.208 117.048 455.909 117.56C455.621 118.072 455.21 118.467 454.677 118.744C454.144 119.021 453.514 119.16 452.789 119.16ZM458.063 119V107.32H461.887C462.644 107.32 463.3 107.464 463.855 107.752C464.42 108.04 464.852 108.451 465.151 108.984C465.46 109.507 465.615 110.125 465.615 110.84C465.615 111.544 465.46 112.163 465.151 112.696C464.841 113.229 464.409 113.64 463.855 113.928C463.3 114.216 462.644 114.36 461.887 114.36H459.791V119H458.063ZM459.791 112.808H461.887C462.484 112.808 462.959 112.632 463.311 112.28C463.673 111.917 463.855 111.437 463.855 110.84C463.855 110.232 463.673 109.752 463.311 109.4C462.959 109.048 462.484 108.872 461.887 108.872H459.791V112.808ZM479.154 119.16C478.365 119.16 477.688 119.032 477.122 118.776C476.557 118.509 476.12 118.136 475.81 117.656C475.501 117.165 475.346 116.584 475.346 115.912H477.058C477.058 116.445 477.245 116.867 477.618 117.176C477.992 117.475 478.509 117.624 479.17 117.624C479.789 117.624 480.274 117.475 480.626 117.176C480.978 116.877 481.154 116.467 481.154 115.944C481.154 115.507 481.032 115.128 480.786 114.808C480.552 114.488 480.21 114.269 479.762 114.152L478.29 113.72C477.437 113.475 476.776 113.059 476.306 112.472C475.848 111.875 475.618 111.165 475.618 110.344C475.618 109.704 475.762 109.144 476.05 108.664C476.338 108.184 476.749 107.811 477.282 107.544C477.816 107.277 478.445 107.144 479.17 107.144C480.237 107.144 481.09 107.432 481.73 108.008C482.381 108.584 482.712 109.357 482.722 110.328H480.994C480.994 109.816 480.829 109.416 480.498 109.128C480.178 108.829 479.725 108.68 479.138 108.68C478.573 108.68 478.13 108.819 477.81 109.096C477.49 109.363 477.33 109.741 477.33 110.232C477.33 110.669 477.448 111.048 477.682 111.368C477.928 111.688 478.274 111.912 478.722 112.04L480.21 112.488C481.064 112.723 481.72 113.139 482.178 113.736C482.637 114.333 482.866 115.048 482.866 115.88C482.866 116.531 482.712 117.107 482.402 117.608C482.093 118.099 481.661 118.483 481.106 118.76C480.552 119.027 479.901 119.16 479.154 119.16ZM487.9 119.16C487.185 119.16 486.556 119.021 486.012 118.744C485.479 118.456 485.068 118.056 484.78 117.544C484.492 117.032 484.348 116.435 484.348 115.752V113.448C484.348 112.755 484.492 112.157 484.78 111.656C485.068 111.144 485.479 110.749 486.012 110.472C486.556 110.184 487.185 110.04 487.9 110.04C488.625 110.04 489.255 110.184 489.788 110.472C490.321 110.749 490.732 111.144 491.02 111.656C491.308 112.157 491.452 112.755 491.452 113.448V115.016H486.012V115.752C486.012 116.403 486.172 116.899 486.492 117.24C486.823 117.581 487.297 117.752 487.916 117.752C488.417 117.752 488.823 117.667 489.132 117.496C489.441 117.315 489.633 117.053 489.708 116.712H491.42C491.292 117.459 490.908 118.056 490.268 118.504C489.628 118.941 488.839 119.16 487.9 119.16ZM489.788 113.976V113.432C489.788 112.792 489.628 112.296 489.308 111.944C488.988 111.592 488.519 111.416 487.9 111.416C487.292 111.416 486.823 111.592 486.492 111.944C486.172 112.296 486.012 112.797 486.012 113.448V113.848L489.916 113.832L489.788 113.976ZM493.526 119V110.2H495.19V111.88H495.606L495.078 112.92C495.078 111.971 495.286 111.256 495.702 110.776C496.118 110.285 496.736 110.04 497.558 110.04C498.496 110.04 499.238 110.333 499.782 110.92C500.336 111.496 500.614 112.291 500.614 113.304V113.896H498.838V113.448C498.838 112.819 498.678 112.339 498.358 112.008C498.048 111.667 497.611 111.496 497.046 111.496C496.48 111.496 496.038 111.667 495.718 112.008C495.408 112.349 495.254 112.829 495.254 113.448V119H493.526ZM504.352 119L501.44 110.2H503.2L505.008 115.832C505.125 116.163 505.226 116.499 505.312 116.84C505.408 117.171 505.477 117.432 505.52 117.624C505.573 117.432 505.642 117.171 505.728 116.84C505.824 116.499 505.92 116.163 506.016 115.832L507.792 110.2H509.536L506.624 119H504.352ZM514.281 119.16C513.567 119.16 512.937 119.021 512.393 118.744C511.86 118.456 511.449 118.056 511.161 117.544C510.873 117.032 510.729 116.435 510.729 115.752V113.448C510.729 112.755 510.873 112.157 511.161 111.656C511.449 111.144 511.86 110.749 512.393 110.472C512.937 110.184 513.567 110.04 514.281 110.04C515.007 110.04 515.636 110.184 516.169 110.472C516.703 110.749 517.113 111.144 517.401 111.656C517.689 112.157 517.833 112.755 517.833 113.448V115.016H512.393V115.752C512.393 116.403 512.553 116.899 512.873 117.24C513.204 117.581 513.679 117.752 514.297 117.752C514.799 117.752 515.204 117.667 515.513 117.496C515.823 117.315 516.015 117.053 516.089 116.712H517.801C517.673 117.459 517.289 118.056 516.649 118.504C516.009 118.941 515.22 119.16 514.281 119.16ZM516.169 113.976V113.432C516.169 112.792 516.009 112.296 515.689 111.944C515.369 111.592 514.9 111.416 514.281 111.416C513.673 111.416 513.204 111.592 512.873 111.944C512.553 112.296 512.393 112.797 512.393 113.448V113.848L516.297 113.832L516.169 113.976ZM519.907 119V110.2H521.571V111.88H521.987L521.459 112.92C521.459 111.971 521.667 111.256 522.083 110.776C522.499 110.285 523.118 110.04 523.939 110.04C524.878 110.04 525.619 110.333 526.163 110.92C526.718 111.496 526.995 112.291 526.995 113.304V113.896H525.219V113.448C525.219 112.819 525.059 112.339 524.739 112.008C524.43 111.667 523.992 111.496 523.427 111.496C522.862 111.496 522.419 111.667 522.099 112.008C521.79 112.349 521.635 112.829 521.635 113.448V119H519.907Z" fill="black" style="fill:black;fill-opacity:1;"/>
<path d="M37.089 110L34.177 101.2H35.937L37.745 106.832C37.8623 107.163 37.9637 107.499 38.049 107.84C38.145 108.171 38.2143 108.432 38.257 108.624C38.3103 108.432 38.3797 108.171 38.465 107.84C38.561 107.499 38.657 107.163 38.753 106.832L40.529 101.2H42.273L39.361 110H37.089ZM43.6108 110V108.464H46.7148V99.824L43.5948 102.144V100.272L46.2668 98.32H48.4428V108.464H50.9548V110H43.6108ZM52.1005 111.76L57.7325 96.72H59.5245L53.8925 111.76H52.1005ZM64.6703 110.16C63.9449 110.16 63.3049 110.027 62.7503 109.76C62.2063 109.483 61.7849 109.088 61.4863 108.576C61.1983 108.053 61.0543 107.445 61.0543 106.752V104.448C61.0543 103.744 61.1983 103.136 61.4863 102.624C61.7849 102.112 62.2063 101.723 62.7503 101.456C63.3049 101.179 63.9449 101.04 64.6703 101.04C65.7263 101.04 66.5743 101.317 67.2143 101.872C67.8543 102.427 68.1903 103.184 68.2223 104.144H66.4943C66.4623 103.643 66.2863 103.253 65.9663 102.976C65.6463 102.699 65.2143 102.56 64.6703 102.56C64.0836 102.56 63.6196 102.725 63.2783 103.056C62.9369 103.376 62.7663 103.835 62.7663 104.432V106.752C62.7663 107.349 62.9369 107.813 63.2783 108.144C63.6196 108.475 64.0836 108.64 64.6703 108.64C65.2143 108.64 65.6463 108.501 65.9663 108.224C66.2863 107.947 66.4623 107.557 66.4943 107.056H68.2223C68.1903 108.016 67.8543 108.773 67.2143 109.328C66.5743 109.883 65.7263 110.16 64.6703 110.16ZM69.944 110V98.32H71.672V101.2L71.656 102.88H72.072L71.656 103.28C71.656 102.576 71.864 102.027 72.28 101.632C72.696 101.237 73.272 101.04 74.008 101.04C74.8827 101.04 75.5813 101.323 76.104 101.888C76.6267 102.443 76.888 103.195 76.888 104.144V110H75.16V104.336C75.16 103.76 75.0053 103.312 74.696 102.992C74.3867 102.672 73.9653 102.512 73.432 102.512C72.888 102.512 72.456 102.683 72.136 103.024C71.8267 103.355 71.672 103.829 71.672 104.448V110H69.944ZM81.3137 110.16C80.3964 110.16 79.6711 109.925 79.1377 109.456C78.6151 108.976 78.3537 108.325 78.3537 107.504C78.3537 106.672 78.6311 106.021 79.1857 105.552C79.7511 105.072 80.5244 104.832 81.5057 104.832H83.9537V104.016C83.9537 103.536 83.8044 103.163 83.5057 102.896C83.2071 102.629 82.7857 102.496 82.2417 102.496C81.7617 102.496 81.3617 102.603 81.0417 102.816C80.7217 103.019 80.5351 103.291 80.4817 103.632H78.7857C78.8817 102.843 79.2444 102.213 79.8737 101.744C80.5137 101.275 81.3191 101.04 82.2897 101.04C83.3351 101.04 84.1617 101.307 84.7697 101.84C85.3777 102.363 85.6817 103.077 85.6817 103.984V110H84.0017V108.384H83.7137L84.0017 108.064C84.0017 108.704 83.7564 109.216 83.2657 109.6C82.7751 109.973 82.1244 110.16 81.3137 110.16ZM81.8257 108.832C82.4444 108.832 82.9511 108.677 83.3457 108.368C83.7511 108.048 83.9537 107.643 83.9537 107.152V106H81.5377C81.0897 106 80.7324 106.123 80.4657 106.368C80.2097 106.613 80.0817 106.949 80.0817 107.376C80.0817 107.824 80.2364 108.181 80.5457 108.448C80.8551 108.704 81.2817 108.832 81.8257 108.832ZM91.9475 110C91.1475 110 90.5235 109.781 90.0755 109.344C89.6275 108.907 89.4035 108.299 89.4035 107.52V102.768H86.9715V101.2H89.4035V98.72H91.1315V101.2H94.5715V102.768H91.1315V107.52C91.1315 108.128 91.4248 108.432 92.0115 108.432H94.4115V110H91.9475ZM96.0692 111.76L101.701 96.72H103.493L97.8612 111.76H96.0692ZM25.0984 128.16C24.373 128.16 23.733 128.027 23.1784 127.76C22.6344 127.483 22.213 127.088 21.9144 126.576C21.6264 126.053 21.4824 125.445 21.4824 124.752V122.448C21.4824 121.744 21.6264 121.136 21.9144 120.624C22.213 120.112 22.6344 119.723 23.1784 119.456C23.733 119.179 24.373 119.04 25.0984 119.04C26.1544 119.04 27.0024 119.317 27.6424 119.872C28.2824 120.427 28.6184 121.184 28.6504 122.144H26.9224C26.8904 121.643 26.7144 121.253 26.3944 120.976C26.0744 120.699 25.6424 120.56 25.0984 120.56C24.5117 120.56 24.0477 120.725 23.7064 121.056C23.365 121.376 23.1944 121.835 23.1944 122.432V124.752C23.1944 125.349 23.365 125.813 23.7064 126.144C24.0477 126.475 24.5117 126.64 25.0984 126.64C25.6424 126.64 26.0744 126.501 26.3944 126.224C26.7144 125.947 26.8904 125.557 26.9224 125.056H28.6504C28.6184 126.016 28.2824 126.773 27.6424 127.328C27.0024 127.883 26.1544 128.16 25.0984 128.16ZM33.8281 128.144C33.1028 128.144 32.4735 128.005 31.9401 127.728C31.4068 127.451 30.9961 127.056 30.7081 126.544C30.4201 126.032 30.2761 125.429 30.2761 124.736V122.464C30.2761 121.76 30.4201 121.157 30.7081 120.656C30.9961 120.144 31.4068 119.749 31.9401 119.472C32.4735 119.195 33.1028 119.056 33.8281 119.056C34.5535 119.056 35.1828 119.195 35.7161 119.472C36.2495 119.749 36.6601 120.144 36.9481 120.656C37.2361 121.157 37.3801 121.76 37.3801 122.464V124.736C37.3801 125.429 37.2361 126.032 36.9481 126.544C36.6601 127.056 36.2495 127.451 35.7161 127.728C35.1828 128.005 34.5535 128.144 33.8281 128.144ZM33.8281 126.624C34.4148 126.624 34.8681 126.464 35.1881 126.144C35.5081 125.813 35.6681 125.344 35.6681 124.736V122.464C35.6681 121.845 35.5081 121.376 35.1881 121.056C34.8681 120.736 34.4148 120.576 33.8281 120.576C33.2521 120.576 32.7988 120.736 32.4681 121.056C32.1481 121.376 31.9881 121.845 31.9881 122.464V124.736C31.9881 125.344 32.1481 125.813 32.4681 126.144C32.7988 126.464 33.2521 126.624 33.8281 126.624ZM38.7659 128V119.2H40.2059V120.32H40.5259L40.2859 120.656C40.2859 120.165 40.4192 119.776 40.6859 119.488C40.9525 119.189 41.3099 119.04 41.7579 119.04C42.2379 119.04 42.6059 119.227 42.8619 119.6C43.1285 119.973 43.2619 120.485 43.2619 121.136L42.8779 120.32H43.4859L43.2299 120.656C43.2299 120.165 43.3632 119.776 43.6299 119.488C43.9072 119.189 44.2752 119.04 44.7339 119.04C45.2779 119.04 45.7045 119.248 46.0139 119.664C46.3232 120.069 46.4779 120.613 46.4779 121.296V128H44.9419V121.344C44.9419 121.013 44.8672 120.757 44.7179 120.576C44.5792 120.395 44.3765 120.304 44.1099 120.304C43.8432 120.304 43.6352 120.395 43.4859 120.576C43.3472 120.747 43.2779 120.997 43.2779 121.328V128H41.9819V121.344C41.9819 121.003 41.9072 120.747 41.7579 120.576C41.6085 120.395 41.3952 120.304 41.1179 120.304C40.8512 120.304 40.6485 120.395 40.5099 120.576C40.3819 120.747 40.3179 120.997 40.3179 121.328V128H38.7659ZM47.9596 130.88V119.2H49.6716V120.88H50.0396L49.6716 121.28C49.6716 120.587 49.885 120.043 50.3116 119.648C50.749 119.243 51.3303 119.04 52.0556 119.04C52.941 119.04 53.645 119.339 54.1676 119.936C54.701 120.523 54.9676 121.328 54.9676 122.352V124.832C54.9676 125.515 54.845 126.107 54.5996 126.608C54.365 127.099 54.029 127.483 53.5916 127.76C53.165 128.027 52.653 128.16 52.0556 128.16C51.341 128.16 50.765 127.963 50.3276 127.568C49.8903 127.163 49.6716 126.613 49.6716 125.92L50.0396 126.32H49.6396L49.6876 128.368V130.88H47.9596ZM51.4636 126.656C52.029 126.656 52.4663 126.496 52.7756 126.176C53.0956 125.845 53.2556 125.371 53.2556 124.752V122.448C53.2556 121.829 53.0956 121.36 52.7756 121.04C52.4663 120.709 52.029 120.544 51.4636 120.544C50.9196 120.544 50.4876 120.715 50.1676 121.056C49.8476 121.387 49.6876 121.851 49.6876 122.448V124.752C49.6876 125.349 49.8476 125.819 50.1676 126.16C50.4876 126.491 50.9196 126.656 51.4636 126.656ZM61.4734 128C60.9294 128 60.4547 127.893 60.0494 127.68C59.644 127.456 59.324 127.141 59.0894 126.736C58.8654 126.331 58.7534 125.861 58.7534 125.328V117.888H55.8734V116.32H60.4814V125.328C60.4814 125.669 60.5774 125.941 60.7694 126.144C60.9614 126.336 61.2227 126.432 61.5534 126.432H64.2734V128H61.4734ZM69.0031 128.16C68.2885 128.16 67.6591 128.021 67.1151 127.744C66.5818 127.456 66.1711 127.056 65.8831 126.544C65.5951 126.032 65.4511 125.435 65.4511 124.752V122.448C65.4511 121.755 65.5951 121.157 65.8831 120.656C66.1711 120.144 66.5818 119.749 67.1151 119.472C67.6591 119.184 68.2885 119.04 69.0031 119.04C69.7285 119.04 70.3578 119.184 70.8911 119.472C71.4245 119.749 71.8351 120.144 72.1231 120.656C72.4111 121.157 72.5551 121.755 72.5551 122.448V124.016H67.1151V124.752C67.1151 125.403 67.2751 125.899 67.5951 126.24C67.9258 126.581 68.4005 126.752 69.0191 126.752C69.5205 126.752 69.9258 126.667 70.2351 126.496C70.5445 126.315 70.7365 126.053 70.8111 125.712H72.5231C72.3951 126.459 72.0111 127.056 71.3711 127.504C70.7311 127.941 69.9418 128.16 69.0031 128.16ZM70.8911 122.976V122.432C70.8911 121.792 70.7311 121.296 70.4111 120.944C70.0911 120.592 69.6218 120.416 69.0031 120.416C68.3951 120.416 67.9258 120.592 67.5951 120.944C67.2751 121.296 67.1151 121.797 67.1151 122.448V122.848L71.0191 122.832L70.8911 122.976ZM78.7569 128C77.9569 128 77.3329 127.781 76.8849 127.344C76.4369 126.907 76.2129 126.299 76.2129 125.52V120.768H73.7809V119.2H76.2129V116.72H77.9409V119.2H81.3809V120.768H77.9409V125.52C77.9409 126.128 78.2342 126.432 78.8209 126.432H81.2209V128H78.7569ZM83.0866 128V126.432H86.1746V120.768H83.4866V119.2H87.8546V126.432H90.6866V128H83.0866ZM86.8466 117.68C86.4733 117.68 86.1746 117.584 85.9506 117.392C85.7266 117.189 85.6146 116.923 85.6146 116.592C85.6146 116.251 85.7266 115.984 85.9506 115.792C86.1746 115.589 86.4733 115.488 86.8466 115.488C87.22 115.488 87.5186 115.589 87.7426 115.792C87.9666 115.984 88.0786 116.251 88.0786 116.592C88.0786 116.923 87.9666 117.189 87.7426 117.392C87.5186 117.584 87.22 117.68 86.8466 117.68ZM95.3844 128.144C94.659 128.144 94.0297 128.005 93.4964 127.728C92.963 127.451 92.5524 127.056 92.2644 126.544C91.9764 126.032 91.8324 125.429 91.8324 124.736V122.464C91.8324 121.76 91.9764 121.157 92.2644 120.656C92.5524 120.144 92.963 119.749 93.4964 119.472C94.0297 119.195 94.659 119.056 95.3844 119.056C96.1097 119.056 96.739 119.195 97.2724 119.472C97.8057 119.749 98.2164 120.144 98.5044 120.656C98.7924 121.157 98.9364 121.76 98.9364 122.464V124.736C98.9364 125.429 98.7924 126.032 98.5044 126.544C98.2164 127.056 97.8057 127.451 97.2724 127.728C96.739 128.005 96.1097 128.144 95.3844 128.144ZM95.3844 126.624C95.971 126.624 96.4244 126.464 96.7444 126.144C97.0644 125.813 97.2244 125.344 97.2244 124.736V122.464C97.2244 121.845 97.0644 121.376 96.7444 121.056C96.4244 120.736 95.971 120.576 95.3844 120.576C94.8084 120.576 94.355 120.736 94.0244 121.056C93.7044 121.376 93.5444 121.845 93.5444 122.464V124.736C93.5444 125.344 93.7044 125.813 94.0244 126.144C94.355 126.464 94.8084 126.624 95.3844 126.624ZM100.722 128V119.2H102.434V120.88H102.85L102.434 121.28C102.434 120.576 102.642 120.027 103.058 119.632C103.474 119.237 104.05 119.04 104.786 119.04C105.661 119.04 106.359 119.323 106.882 119.888C107.405 120.443 107.666 121.195 107.666 122.144V128H105.938V122.336C105.938 121.76 105.783 121.317 105.474 121.008C105.165 120.699 104.743 120.544 104.21 120.544C103.666 120.544 103.234 120.709 102.914 121.04C102.605 121.36 102.45 121.829 102.45 122.448V128H100.722ZM112.668 128.144C112.039 128.144 111.484 128.043 111.004 127.84C110.535 127.637 110.161 127.36 109.884 127.008C109.617 126.645 109.463 126.219 109.42 125.728H111.148C111.191 126.016 111.345 126.251 111.612 126.432C111.879 126.603 112.231 126.688 112.668 126.688H113.356C113.879 126.688 114.273 126.581 114.54 126.368C114.807 126.155 114.94 125.872 114.94 125.52C114.94 125.179 114.817 124.912 114.572 124.72C114.337 124.517 113.985 124.384 113.516 124.32L112.38 124.144C111.441 123.995 110.748 123.728 110.3 123.344C109.863 122.949 109.644 122.368 109.644 121.6C109.644 120.789 109.905 120.165 110.428 119.728C110.961 119.28 111.745 119.056 112.78 119.056H113.388C114.305 119.056 115.036 119.269 115.58 119.696C116.135 120.112 116.449 120.672 116.524 121.376H114.796C114.753 121.12 114.609 120.912 114.364 120.752C114.129 120.592 113.804 120.512 113.388 120.512H112.78C112.279 120.512 111.911 120.608 111.676 120.8C111.452 120.981 111.34 121.253 111.34 121.616C111.34 121.936 111.441 122.176 111.644 122.336C111.847 122.496 112.161 122.608 112.588 122.672L113.756 122.864C114.748 123.003 115.473 123.28 115.932 123.696C116.401 124.101 116.636 124.693 116.636 125.472C116.636 126.315 116.359 126.971 115.804 127.44C115.26 127.909 114.444 128.144 113.356 128.144H112.668Z" fill="black" style="fill:black;fill-opacity:1;"/>
<path d="M259.872 40L263.592 25.4H266.432L270.152 40H267.972L267.092 36.3H262.952L262.072 40H259.872ZM263.352 34.52H266.672L265.672 30.3C265.498 29.5533 265.352 28.9067 265.232 28.36C265.125 27.8 265.052 27.42 265.012 27.22C264.972 27.42 264.898 27.8 264.792 28.36C264.685 28.9067 264.538 29.5467 264.352 30.28L263.352 34.52ZM271.704 40V37.86L276.224 33.2C276.917 32.48 277.424 31.8333 277.744 31.26C278.077 30.6733 278.244 30.0933 278.244 29.52C278.244 28.7733 278.037 28.1867 277.624 27.76C277.224 27.3333 276.671 27.12 275.964 27.12C275.191 27.12 274.577 27.3467 274.124 27.8C273.684 28.24 273.464 28.8467 273.464 29.62H271.304C271.331 28.7133 271.537 27.9333 271.924 27.28C272.311 26.6133 272.851 26.1 273.544 25.74C274.237 25.38 275.051 25.2 275.984 25.2C276.877 25.2 277.657 25.3733 278.324 25.72C278.991 26.0667 279.504 26.5533 279.864 27.18C280.224 27.8067 280.404 28.5467 280.404 29.4C280.404 30.2667 280.177 31.1133 279.724 31.94C279.284 32.7667 278.557 33.6867 277.544 34.7L274.244 38.04H280.624V40H271.704ZM281.856 40L285.576 25.4H288.416L292.136 40H289.956L289.076 36.3H284.936L284.056 40H281.856ZM285.336 34.52H288.656L287.656 30.3C287.483 29.5533 287.336 28.9067 287.216 28.36C287.109 27.8 287.036 27.42 286.996 27.22C286.956 27.42 286.883 27.8 286.776 28.36C286.669 28.9067 286.523 29.5467 286.336 30.28L285.336 34.52ZM226.201 59.92C224.633 59.5253 223.417 58.784 222.553 57.696C221.689 56.5973 221.257 55.2587 221.257 53.68V50.8C221.257 49.7653 221.454 48.8267 221.849 47.984C222.254 47.1413 222.825 46.4267 223.561 45.84C224.307 45.2427 225.187 44.816 226.201 44.56V46.224C225.539 46.384 224.969 46.6773 224.489 47.104C224.009 47.52 223.635 48.0427 223.369 48.672C223.113 49.3013 222.985 50.0107 222.985 50.8V53.68C222.985 54.448 223.113 55.1467 223.369 55.776C223.635 56.4053 224.009 56.928 224.489 57.344C224.969 57.7493 225.539 58.032 226.201 58.192V59.92ZM232.098 58.16C231.373 58.16 230.738 58.0267 230.194 57.76C229.661 57.4827 229.245 57.088 228.946 56.576C228.658 56.0533 228.514 55.4453 228.514 54.752V49.568C228.514 48.864 228.658 48.256 228.946 47.744C229.245 47.232 229.661 46.8427 230.194 46.576C230.738 46.2987 231.373 46.16 232.098 46.16C232.824 46.16 233.453 46.2987 233.986 46.576C234.52 46.8533 234.93 47.248 235.218 47.76C235.517 48.2613 235.666 48.864 235.666 49.568H233.938C233.938 48.96 233.778 48.496 233.458 48.176C233.138 47.856 232.685 47.696 232.098 47.696C231.512 47.696 231.053 47.856 230.722 48.176C230.402 48.496 230.242 48.9547 230.242 49.552V54.752C230.242 55.3493 230.402 55.8133 230.722 56.144C231.053 56.464 231.512 56.624 232.098 56.624C232.685 56.624 233.138 56.464 233.458 56.144C233.778 55.8133 233.938 55.3493 233.938 54.752H235.666C235.666 55.4453 235.517 56.048 235.218 56.56C234.93 57.072 234.52 57.4667 233.986 57.744C233.453 58.0213 232.824 58.16 232.098 58.16ZM240.828 58.144C240.103 58.144 239.473 58.0053 238.94 57.728C238.407 57.4507 237.996 57.056 237.708 56.544C237.42 56.032 237.276 55.4293 237.276 54.736V52.464C237.276 51.76 237.42 51.1573 237.708 50.656C237.996 50.144 238.407 49.7493 238.94 49.472C239.473 49.1947 240.103 49.056 240.828 49.056C241.553 49.056 242.183 49.1947 242.716 49.472C243.249 49.7493 243.66 50.144 243.948 50.656C244.236 51.1573 244.38 51.76 244.38 52.464V54.736C244.38 55.4293 244.236 56.032 243.948 56.544C243.66 57.056 243.249 57.4507 242.716 57.728C242.183 58.0053 241.553 58.144 240.828 58.144ZM240.828 56.624C241.415 56.624 241.868 56.464 242.188 56.144C242.508 55.8133 242.668 55.344 242.668 54.736V52.464C242.668 51.8453 242.508 51.376 242.188 51.056C241.868 50.736 241.415 50.576 240.828 50.576C240.252 50.576 239.799 50.736 239.468 51.056C239.148 51.376 238.988 51.8453 238.988 52.464V54.736C238.988 55.344 239.148 55.8133 239.468 56.144C239.799 56.464 240.252 56.624 240.828 56.624ZM245.766 58V49.2H247.206V50.32H247.526L247.286 50.656C247.286 50.1653 247.419 49.776 247.686 49.488C247.953 49.1893 248.31 49.04 248.758 49.04C249.238 49.04 249.606 49.2267 249.862 49.6C250.129 49.9733 250.262 50.4853 250.262 51.136L249.878 50.32H250.486L250.23 50.656C250.23 50.1653 250.363 49.776 250.63 49.488C250.907 49.1893 251.275 49.04 251.734 49.04C252.278 49.04 252.705 49.248 253.014 49.664C253.323 50.0693 253.478 50.6133 253.478 51.296V58H251.942V51.344C251.942 51.0133 251.867 50.7573 251.718 50.576C251.579 50.3947 251.377 50.304 251.11 50.304C250.843 50.304 250.635 50.3947 250.486 50.576C250.347 50.7467 250.278 50.9973 250.278 51.328V58H248.982V51.344C248.982 51.0027 248.907 50.7467 248.758 50.576C248.609 50.3947 248.395 50.304 248.118 50.304C247.851 50.304 247.649 50.3947 247.51 50.576C247.382 50.7467 247.318 50.9973 247.318 51.328V58H245.766ZM254.912 58V56.432H258V50.768H255.312V49.2H259.68V56.432H262.512V58H254.912ZM258.672 47.68C258.298 47.68 258 47.584 257.776 47.392C257.552 47.1893 257.44 46.9227 257.44 46.592C257.44 46.2507 257.552 45.984 257.776 45.792C258 45.5893 258.298 45.488 258.672 45.488C259.045 45.488 259.344 45.5893 259.568 45.792C259.792 45.984 259.904 46.2507 259.904 46.592C259.904 46.9227 259.792 47.1893 259.568 47.392C259.344 47.584 259.045 47.68 258.672 47.68ZM263.753 58V49.2H265.465V50.88H265.881L265.465 51.28C265.465 50.576 265.673 50.0267 266.089 49.632C266.505 49.2373 267.081 49.04 267.817 49.04C268.692 49.04 269.391 49.3227 269.913 49.888C270.436 50.4427 270.697 51.1947 270.697 52.144V58H268.969V52.336C268.969 51.76 268.815 51.3173 268.505 51.008C268.196 50.6987 267.775 50.544 267.241 50.544C266.697 50.544 266.265 50.7093 265.945 51.04C265.636 51.36 265.481 51.8293 265.481 52.448V58H263.753ZM273.699 60.88V59.392H276.403C276.851 59.392 277.182 59.2853 277.395 59.072C277.619 58.8587 277.731 58.544 277.731 58.128V57.248L277.763 55.616H277.395L277.747 55.296C277.747 55.968 277.534 56.496 277.107 56.88C276.691 57.264 276.126 57.456 275.411 57.456C274.504 57.456 273.79 57.1573 273.267 56.56C272.744 55.9627 272.483 55.1573 272.483 54.144V52.352C272.483 51.3387 272.744 50.5333 273.267 49.936C273.79 49.3387 274.504 49.04 275.411 49.04C276.126 49.04 276.691 49.2373 277.107 49.632C277.534 50.016 277.747 50.544 277.747 51.216L277.395 50.88H277.747L277.731 49.2H279.443V58.16C279.443 59.0027 279.176 59.664 278.643 60.144C278.11 60.6347 277.368 60.88 276.419 60.88H273.699ZM275.971 55.968C276.515 55.968 276.942 55.8027 277.251 55.472C277.571 55.1307 277.731 54.6613 277.731 54.064V52.448C277.731 51.8507 277.571 51.3867 277.251 51.056C276.942 50.7147 276.515 50.544 275.971 50.544C275.406 50.544 274.968 50.7093 274.659 51.04C274.36 51.36 274.211 51.8293 274.211 52.448V54.064C274.211 54.672 274.36 55.1413 274.659 55.472C274.968 55.8027 275.406 55.968 275.971 55.968ZM293.639 58.16C292.849 58.16 292.172 58.032 291.607 57.776C291.041 57.5093 290.604 57.136 290.295 56.656C289.985 56.1653 289.831 55.584 289.831 54.912H291.543C291.543 55.4453 291.729 55.8667 292.103 56.176C292.476 56.4747 292.993 56.624 293.655 56.624C294.273 56.624 294.759 56.4747 295.111 56.176C295.463 55.8773 295.639 55.4667 295.639 54.944C295.639 54.5067 295.516 54.128 295.271 53.808C295.036 53.488 294.695 53.2693 294.247 53.152L292.775 52.72C291.921 52.4747 291.26 52.0587 290.791 51.472C290.332 50.8747 290.103 50.1653 290.103 49.344C290.103 48.704 290.247 48.144 290.535 47.664C290.823 47.184 291.233 46.8107 291.767 46.544C292.3 46.2773 292.929 46.144 293.655 46.144C294.721 46.144 295.575 46.432 296.215 47.008C296.865 47.584 297.196 48.3573 297.207 49.328H295.479C295.479 48.816 295.313 48.416 294.983 48.128C294.663 47.8293 294.209 47.68 293.623 47.68C293.057 47.68 292.615 47.8187 292.295 48.096C291.975 48.3627 291.815 48.7413 291.815 49.232C291.815 49.6693 291.932 50.048 292.167 50.368C292.412 50.688 292.759 50.912 293.207 51.04L294.695 51.488C295.548 51.7227 296.204 52.1387 296.663 52.736C297.121 53.3333 297.351 54.048 297.351 54.88C297.351 55.5307 297.196 56.1067 296.887 56.608C296.577 57.0987 296.145 57.4827 295.591 57.76C295.036 58.0267 294.385 58.16 293.639 58.16ZM302.384 58.144C301.659 58.144 301.03 58.0053 300.496 57.728C299.963 57.4507 299.552 57.056 299.264 56.544C298.976 56.032 298.832 55.4293 298.832 54.736V52.464C298.832 51.76 298.976 51.1573 299.264 50.656C299.552 50.144 299.963 49.7493 300.496 49.472C301.03 49.1947 301.659 49.056 302.384 49.056C303.11 49.056 303.739 49.1947 304.272 49.472C304.806 49.7493 305.216 50.144 305.504 50.656C305.792 51.1573 305.936 51.76 305.936 52.464V54.736C305.936 55.4293 305.792 56.032 305.504 56.544C305.216 57.056 304.806 57.4507 304.272 57.728C303.739 58.0053 303.11 58.144 302.384 58.144ZM302.384 56.624C302.971 56.624 303.424 56.464 303.744 56.144C304.064 55.8133 304.224 55.344 304.224 54.736V52.464C304.224 51.8453 304.064 51.376 303.744 51.056C303.424 50.736 302.971 50.576 302.384 50.576C301.808 50.576 301.355 50.736 301.024 51.056C300.704 51.376 300.544 51.8453 300.544 52.464V54.736C300.544 55.344 300.704 55.8133 301.024 56.144C301.355 56.464 301.808 56.624 302.384 56.624ZM311.178 58.144C310.453 58.144 309.823 58.0053 309.29 57.728C308.757 57.4507 308.346 57.056 308.058 56.544C307.77 56.032 307.626 55.4293 307.626 54.736V52.464C307.626 51.76 307.77 51.1573 308.058 50.656C308.346 50.144 308.757 49.7493 309.29 49.472C309.823 49.1947 310.453 49.056 311.178 49.056C311.903 49.056 312.533 49.1947 313.066 49.472C313.599 49.7493 314.01 50.144 314.298 50.656C314.586 51.1573 314.73 51.76 314.73 52.464V54.736C314.73 55.4293 314.586 56.032 314.298 56.544C314.01 57.056 313.599 57.4507 313.066 57.728C312.533 58.0053 311.903 58.144 311.178 58.144ZM311.178 56.624C311.765 56.624 312.218 56.464 312.538 56.144C312.858 55.8133 313.018 55.344 313.018 54.736V52.464C313.018 51.8453 312.858 51.376 312.538 51.056C312.218 50.736 311.765 50.576 311.178 50.576C310.602 50.576 310.149 50.736 309.818 51.056C309.498 51.376 309.338 51.8453 309.338 52.464V54.736C309.338 55.344 309.498 55.8133 309.818 56.144C310.149 56.464 310.602 56.624 311.178 56.624ZM316.516 58V49.2H318.228V50.88H318.644L318.228 51.28C318.228 50.576 318.436 50.0267 318.852 49.632C319.268 49.2373 319.844 49.04 320.58 49.04C321.455 49.04 322.153 49.3227 322.676 49.888C323.199 50.4427 323.46 51.1947 323.46 52.144V58H321.732V52.336C321.732 51.76 321.577 51.3173 321.268 51.008C320.959 50.6987 320.537 50.544 320.004 50.544C319.46 50.544 319.028 50.7093 318.708 51.04C318.399 51.36 318.244 51.8293 318.244 52.448V58H316.516ZM325.806 59.92V58.192C326.467 58.032 327.038 57.7493 327.518 57.344C327.998 56.928 328.366 56.4053 328.622 55.776C328.888 55.1467 329.022 54.448 329.022 53.68V50.8C329.022 50.0107 328.888 49.3013 328.622 48.672C328.366 48.0427 327.998 47.52 327.518 47.104C327.038 46.6773 326.467 46.384 325.806 46.224V44.56C326.83 44.816 327.71 45.2427 328.446 45.84C329.182 46.4267 329.747 47.1413 330.142 47.984C330.547 48.8267 330.75 49.7653 330.75 50.8V53.68C330.75 55.2587 330.318 56.5973 329.454 57.696C328.59 58.784 327.374 59.5253 325.806 59.92Z" fill="black" style="fill:black;fill-opacity:1;"/>
<path d="M162 36.5L147.75 44.7272L147.75 28.2728L162 36.5Z" fill="#ABB2FA" style="fill:#ABB2FA;fill:color(display-p3 0.6706 0.6990 0.9799);fill-opacity:1;"/>
</svg>
