<svg width="405" height="387" viewBox="0 0 405 387" fill="none" xmlns="http://www.w3.org/2000/svg">
<path d="M185 173L185 190" stroke="white" style="stroke:white;stroke-opacity:1;" stroke-width="2" stroke-dasharray="4 4"/>
<path d="M306.5 210H80" stroke="white" style="stroke:white;stroke-opacity:1;" stroke-width="2"/>
<path d="M306.5 341H80" stroke="white" style="stroke:white;stroke-opacity:1;" stroke-width="2"/>
<path d="M69 209.5L78.75 215.129L78.75 203.871L69 209.5Z" fill="#ABB2FA" style="fill:#ABB2FA;fill:color(display-p3 0.6706 0.6990 0.9799);fill-opacity:1;"/>
<path d="M69 340.5L78.75 346.129L78.75 334.871L69 340.5Z" fill="#ABB2FA" style="fill:#ABB2FA;fill:color(display-p3 0.6706 0.6990 0.9799);fill-opacity:1;"/>
<path d="M294.5 154H68" stroke="white" style="stroke:white;stroke-opacity:1;" stroke-width="2"/>
<path d="M306 285H68" stroke="white" style="stroke:white;stroke-opacity:1;" stroke-width="2" stroke-dasharray="4 4"/>
<path d="M307 153.5L297.25 159.129L297.25 147.871L307 153.5Z" fill="#ABB2FA" style="fill:#ABB2FA;fill:color(display-p3 0.6706 0.6990 0.9799);fill-opacity:1;"/>
<path d="M68 89L68 387" stroke="white" style="stroke:white;stroke-opacity:1;" stroke-width="2"/>
<path d="M307 89L307 387" stroke="white" style="stroke:white;stroke-opacity:1;" stroke-width="2"/>
<rect x="-1.74765" y="1.74765" width="130.505" height="87.5047" transform="matrix(-1 0 0 1 130.505 0)" stroke="white" style="stroke:white;stroke-opacity:1;" stroke-width="3.4953"/>
<rect x="-1.74765" y="1.74765" width="192.505" height="87.5047" transform="matrix(-1 0 0 1 401.505 0)" stroke="#A6AEFF" style="stroke:#A6AEFF;stroke:color(display-p3 0.6501 0.6822 1.0000);stroke-opacity:1;" stroke-width="3.4953"/>
<path d="M272.678 67.4967V37.0934H277.759V41.4665H278.926L277.759 42.6743C277.759 40.814 278.315 39.3563 279.425 38.3012C280.536 37.2184 282.035 36.677 283.923 36.677C286.228 36.677 288.074 37.4683 289.463 39.0509C290.851 40.6335 291.545 42.7576 291.545 45.4231V51.6287C291.545 53.4057 291.226 54.9606 290.587 56.2933C289.976 57.5983 289.102 58.6117 287.963 59.3336C286.825 60.0555 285.478 60.4165 283.923 60.4165C282.035 60.4165 280.536 59.8889 279.425 58.8338C278.315 57.751 277.759 56.2794 277.759 54.4191L278.926 55.6269H277.718L277.884 61.0829V67.4967H272.678ZM282.091 55.9185C283.424 55.9185 284.465 55.5297 285.214 54.7523C285.964 53.9749 286.339 52.8643 286.339 51.4205V45.673C286.339 44.2292 285.964 43.1186 285.214 42.3411C284.465 41.5637 283.424 41.175 282.091 41.175C280.786 41.175 279.759 41.5776 279.009 42.3828C278.259 43.1602 277.884 44.2569 277.884 45.673V51.4205C277.884 52.8365 278.259 53.9471 279.009 54.7523C279.759 55.5297 280.786 55.9185 282.091 55.9185ZM307.105 60C305.606 60 304.287 59.6946 303.149 59.0837C302.038 58.4729 301.163 57.6122 300.525 56.5015C299.886 55.3632 299.567 54.0582 299.567 52.5866V34.303H292.237V29.5967H304.773V52.5866C304.773 53.4196 305.009 54.0859 305.481 54.5857C305.981 55.0577 306.647 55.2937 307.48 55.2937H314.394V60H307.105ZM322.707 60.4165C320.347 60.4165 318.487 59.7918 317.126 58.5423C315.766 57.2929 315.085 55.613 315.085 53.5029C315.085 51.2539 315.835 49.5185 317.334 48.2968C318.834 47.0751 320.958 46.4643 323.707 46.4643H329.412V44.5068C329.412 43.3962 329.051 42.5355 328.33 41.9246C327.608 41.286 326.622 40.9667 325.373 40.9667C324.234 40.9667 323.29 41.2166 322.54 41.7164C321.791 42.2162 321.347 42.8964 321.208 43.7572H316.127C316.377 41.5915 317.348 39.87 319.042 38.5928C320.736 37.3156 322.901 36.677 325.539 36.677C328.343 36.677 330.551 37.385 332.161 38.801C333.799 40.1893 334.618 42.0773 334.618 44.4652V60H329.579V56.0018H328.746L329.579 54.8773C329.579 56.571 328.954 57.9176 327.705 58.9171C326.455 59.9167 324.789 60.4165 322.707 60.4165ZM324.415 56.5015C325.886 56.5015 327.08 56.1267 327.996 55.377C328.94 54.6274 329.412 53.6556 329.412 52.4617V49.6712H323.79C322.735 49.6712 321.888 49.9766 321.249 50.5875C320.611 51.1983 320.291 52.0035 320.291 53.0031C320.291 54.0859 320.652 54.9467 321.374 55.5853C322.124 56.1961 323.137 56.5015 324.415 56.5015ZM337.601 60V37.0934H342.682V41.4665H344.098L342.682 42.6743C342.682 40.7863 343.223 39.3147 344.306 38.2596C345.417 37.2045 346.93 36.677 348.846 36.677C351.095 36.677 352.886 37.4266 354.219 38.926C355.579 40.4253 356.259 42.4383 356.259 44.965V60H351.053V45.5064C351.053 44.1181 350.692 43.0491 349.97 42.2995C349.249 41.5498 348.235 41.175 346.93 41.175C345.653 41.175 344.639 41.5637 343.89 42.3411C343.168 43.1186 342.807 44.2292 342.807 45.673V60H337.601ZM368.529 60.3748C366.586 60.3748 364.892 60.0139 363.448 59.292C362.032 58.5423 360.922 57.5011 360.116 56.1684C359.339 54.8078 358.95 53.2113 358.95 51.3788V45.7146C358.95 43.8821 359.339 42.2995 360.116 40.9667C360.922 39.6062 362.032 38.565 363.448 37.8431C364.892 37.0934 366.586 36.7186 368.529 36.7186C370.501 36.7186 372.194 37.0934 373.61 37.8431C375.026 38.565 376.123 39.6062 376.901 40.9667C377.706 42.2995 378.108 43.8682 378.108 45.673V51.3788C378.108 53.2113 377.706 54.8078 376.901 56.1684C376.123 57.5011 375.026 58.5423 373.61 59.292C372.194 60.0139 370.501 60.3748 368.529 60.3748ZM368.529 55.8352C369.918 55.8352 370.987 55.4603 371.736 54.7107C372.514 53.9332 372.902 52.8226 372.902 51.3788V45.7146C372.902 44.2431 372.514 43.1324 371.736 42.3828C370.987 41.6331 369.918 41.2583 368.529 41.2583C367.169 41.2583 366.1 41.6331 365.322 42.3828C364.545 43.1324 364.156 44.2431 364.156 45.7146V51.3788C364.156 52.8226 364.545 53.9332 365.322 54.7107C366.1 55.4603 367.169 55.8352 368.529 55.8352Z" fill="#7780D9" style="fill:#7780D9;fill:color(display-p3 0.4667 0.5020 0.8510);fill-opacity:1;"/>
<rect x="233" y="30.0989" width="30.6206" height="30.6206" fill="#7780D9" style="fill:#7780D9;fill:color(display-p3 0.4667 0.5020 0.8510);fill-opacity:1;"/>
<rect x="235.355" y="32.4541" width="25.9097" height="25.9097" fill="#B9BFFF" style="fill:#B9BFFF;fill:color(display-p3 0.7246 0.7499 1.0000);fill-opacity:1;"/>
<path d="M236.533 33.6318H238.888V35.9873H236.533V33.6318Z" fill="#B0B7FF" style="fill:#B0B7FF;fill:color(display-p3 0.6897 0.7182 1.0000);fill-opacity:1;"/>
<path d="M236.533 37.1649H238.888V39.5203H236.533V37.1649Z" fill="#B0B7FF" style="fill:#B0B7FF;fill:color(display-p3 0.6897 0.7182 1.0000);fill-opacity:1;"/>
<path d="M236.533 40.698H238.888V43.0534H236.533V40.698Z" fill="#B0B7FF" style="fill:#B0B7FF;fill:color(display-p3 0.6897 0.7182 1.0000);fill-opacity:1;"/>
<path d="M236.533 44.2316H238.888V46.587H236.533V44.2316Z" fill="#ABB2FA" style="fill:#ABB2FA;fill:color(display-p3 0.6706 0.6990 0.9799);fill-opacity:1;"/>
<path d="M236.533 47.7645H238.888V50.12H236.533V47.7645Z" fill="#ABB2FA" style="fill:#ABB2FA;fill:color(display-p3 0.6706 0.6990 0.9799);fill-opacity:1;"/>
<path d="M236.533 51.2976H238.888V53.653H236.533V51.2976Z" fill="#ABB2FA" style="fill:#ABB2FA;fill:color(display-p3 0.6706 0.6990 0.9799);fill-opacity:1;"/>
<path d="M236.533 54.8307H238.888V57.1861H236.533V54.8307Z" fill="#969FF4" style="fill:#969FF4;fill:color(display-p3 0.5882 0.6220 0.9566);fill-opacity:1;"/>
<path d="M247.133 33.6318H249.488V35.9873H247.133V33.6318Z" fill="#ABB2FA" style="fill:#ABB2FA;fill:color(display-p3 0.6706 0.6990 0.9799);fill-opacity:1;"/>
<path d="M247.133 37.1649H249.488V39.5203H247.133V37.1649Z" fill="#ABB2FA" style="fill:#ABB2FA;fill:color(display-p3 0.6706 0.6990 0.9799);fill-opacity:1;"/>
<path d="M247.133 40.698H249.488V43.0534H247.133V40.698Z" fill="#ABB2FA" style="fill:#ABB2FA;fill:color(display-p3 0.6706 0.6990 0.9799);fill-opacity:1;"/>
<path d="M247.133 44.2316H249.488V46.587H247.133V44.2316Z" fill="#969FF4" style="fill:#969FF4;fill:color(display-p3 0.5882 0.6220 0.9566);fill-opacity:1;"/>
<path d="M247.133 47.7645H249.488V50.12H247.133V47.7645Z" fill="#969FF4" style="fill:#969FF4;fill:color(display-p3 0.5882 0.6220 0.9566);fill-opacity:1;"/>
<path d="M247.133 51.2976H249.488V53.653H247.133V51.2976Z" fill="#969FF4" style="fill:#969FF4;fill:color(display-p3 0.5882 0.6220 0.9566);fill-opacity:1;"/>
<path d="M247.133 54.8307H249.488V57.1861H247.133V54.8307Z" fill="#969FF4" style="fill:#969FF4;fill:color(display-p3 0.5882 0.6220 0.9566);fill-opacity:1;"/>
<path d="M240.066 33.6318H242.422V35.9873H240.066V33.6318Z" fill="#B0B7FF" style="fill:#B0B7FF;fill:color(display-p3 0.6897 0.7182 1.0000);fill-opacity:1;"/>
<path d="M240.066 37.1649H242.422V39.5203H240.066V37.1649Z" fill="#B0B7FF" style="fill:#B0B7FF;fill:color(display-p3 0.6897 0.7182 1.0000);fill-opacity:1;"/>
<path d="M240.066 40.698H242.422V43.0534H240.066V40.698Z" fill="#ABB2FA" style="fill:#ABB2FA;fill:color(display-p3 0.6706 0.6990 0.9799);fill-opacity:1;"/>
<path d="M240.066 44.2316H242.422V46.587H240.066V44.2316Z" fill="#ABB2FA" style="fill:#ABB2FA;fill:color(display-p3 0.6706 0.6990 0.9799);fill-opacity:1;"/>
<path d="M240.066 47.7645H242.422V50.12H240.066V47.7645Z" fill="#ABB2FA" style="fill:#ABB2FA;fill:color(display-p3 0.6706 0.6990 0.9799);fill-opacity:1;"/>
<path d="M240.066 51.2976H242.422V53.653H240.066V51.2976Z" fill="#969FF4" style="fill:#969FF4;fill:color(display-p3 0.5882 0.6220 0.9566);fill-opacity:1;"/>
<path d="M240.066 54.8307H242.422V57.1861H240.066V54.8307Z" fill="#969FF4" style="fill:#969FF4;fill:color(display-p3 0.5882 0.6220 0.9566);fill-opacity:1;"/>
<path d="M250.666 33.6318H253.021V35.9873H250.666V33.6318Z" fill="#ABB2FA" style="fill:#ABB2FA;fill:color(display-p3 0.6706 0.6990 0.9799);fill-opacity:1;"/>
<path d="M250.666 37.1649H253.021V39.5203H250.666V37.1649Z" fill="#ABB2FA" style="fill:#ABB2FA;fill:color(display-p3 0.6706 0.6990 0.9799);fill-opacity:1;"/>
<path d="M250.666 40.698H253.021V43.0534H250.666V40.698Z" fill="#969FF4" style="fill:#969FF4;fill:color(display-p3 0.5882 0.6220 0.9566);fill-opacity:1;"/>
<path d="M250.666 44.2316H253.021V46.587H250.666V44.2316Z" fill="#969FF4" style="fill:#969FF4;fill:color(display-p3 0.5882 0.6220 0.9566);fill-opacity:1;"/>
<path d="M250.666 47.7645H253.021V50.12H250.666V47.7645Z" fill="#969FF4" style="fill:#969FF4;fill:color(display-p3 0.5882 0.6220 0.9566);fill-opacity:1;"/>
<path d="M250.666 51.2976H253.021V53.653H250.666V51.2976Z" fill="#969FF4" style="fill:#969FF4;fill:color(display-p3 0.5882 0.6220 0.9566);fill-opacity:1;"/>
<path d="M250.666 54.8307H253.021V57.1861H250.666V54.8307Z" fill="#969FF4" style="fill:#969FF4;fill:color(display-p3 0.5882 0.6220 0.9566);fill-opacity:1;"/>
<path d="M243.6 33.6318H245.955V35.9873H243.6V33.6318Z" fill="#B0B7FF" style="fill:#B0B7FF;fill:color(display-p3 0.6897 0.7182 1.0000);fill-opacity:1;"/>
<path d="M243.6 37.1649H245.955V39.5203H243.6V37.1649Z" fill="#ABB2FA" style="fill:#ABB2FA;fill:color(display-p3 0.6706 0.6990 0.9799);fill-opacity:1;"/>
<path d="M243.6 40.698H245.955V43.0534H243.6V40.698Z" fill="#ABB2FA" style="fill:#ABB2FA;fill:color(display-p3 0.6706 0.6990 0.9799);fill-opacity:1;"/>
<path d="M243.6 44.2316H245.955V46.587H243.6V44.2316Z" fill="#ABB2FA" style="fill:#ABB2FA;fill:color(display-p3 0.6706 0.6990 0.9799);fill-opacity:1;"/>
<path d="M243.6 47.7645H245.955V50.12H243.6V47.7645Z" fill="#969FF4" style="fill:#969FF4;fill:color(display-p3 0.5882 0.6220 0.9566);fill-opacity:1;"/>
<path d="M243.6 51.2976H245.955V53.653H243.6V51.2976Z" fill="#969FF4" style="fill:#969FF4;fill:color(display-p3 0.5882 0.6220 0.9566);fill-opacity:1;"/>
<path d="M243.6 54.8307H245.955V57.1861H243.6V54.8307Z" fill="#969FF4" style="fill:#969FF4;fill:color(display-p3 0.5882 0.6220 0.9566);fill-opacity:1;"/>
<path d="M254.199 33.6318H256.554V35.9873H254.199V33.6318Z" fill="#ABB2FA" style="fill:#ABB2FA;fill:color(display-p3 0.6706 0.6990 0.9799);fill-opacity:1;"/>
<path d="M254.199 37.1649H256.554V39.5203H254.199V37.1649Z" fill="#969FF4" style="fill:#969FF4;fill:color(display-p3 0.5882 0.6220 0.9566);fill-opacity:1;"/>
<path d="M254.199 40.698H256.554V43.0534H254.199V40.698Z" fill="#969FF4" style="fill:#969FF4;fill:color(display-p3 0.5882 0.6220 0.9566);fill-opacity:1;"/>
<path d="M254.199 44.2316H256.554V46.587H254.199V44.2316Z" fill="#969FF4" style="fill:#969FF4;fill:color(display-p3 0.5882 0.6220 0.9566);fill-opacity:1;"/>
<path d="M254.199 47.7645H256.554V50.12H254.199V47.7645Z" fill="#969FF4" style="fill:#969FF4;fill:color(display-p3 0.5882 0.6220 0.9566);fill-opacity:1;"/>
<path d="M254.199 51.2976H256.554V53.653H254.199V51.2976Z" fill="#969FF4" style="fill:#969FF4;fill:color(display-p3 0.5882 0.6220 0.9566);fill-opacity:1;"/>
<path d="M254.199 54.8307H256.554V57.1861H254.199V54.8307Z" fill="#969FF4" style="fill:#969FF4;fill:color(display-p3 0.5882 0.6220 0.9566);fill-opacity:1;"/>
<path d="M257.732 33.6318H260.087V35.9873H257.732V33.6318Z" fill="#969FF4" style="fill:#969FF4;fill:color(display-p3 0.5882 0.6220 0.9566);fill-opacity:1;"/>
<path d="M257.732 37.1649H260.087V39.5203H257.732V37.1649Z" fill="#969FF4" style="fill:#969FF4;fill:color(display-p3 0.5882 0.6220 0.9566);fill-opacity:1;"/>
<path d="M257.732 40.698H260.087V43.0534H257.732V40.698Z" fill="#969FF4" style="fill:#969FF4;fill:color(display-p3 0.5882 0.6220 0.9566);fill-opacity:1;"/>
<path d="M257.732 44.2316H260.087V46.587H257.732V44.2316Z" fill="#969FF4" style="fill:#969FF4;fill:color(display-p3 0.5882 0.6220 0.9566);fill-opacity:1;"/>
<path d="M257.732 47.7645H260.087V50.12H257.732V47.7645Z" fill="#969FF4" style="fill:#969FF4;fill:color(display-p3 0.5882 0.6220 0.9566);fill-opacity:1;"/>
<path d="M257.732 51.2976H260.087V53.653H257.732V51.2976Z" fill="#969FF4" style="fill:#969FF4;fill:color(display-p3 0.5882 0.6220 0.9566);fill-opacity:1;"/>
<path d="M257.732 54.8307H260.087V57.1861H257.732V54.8307Z" fill="#969FF4" style="fill:#969FF4;fill:color(display-p3 0.5882 0.6220 0.9566);fill-opacity:1;"/>
<rect x="-1.74765" y="1.74765" width="174.505" height="35.5047" transform="matrix(-1 0 0 1 270.505 134)" fill="black" stroke="#B3BAFF" style="fill:black;fill-opacity:1;stroke:#B3BAFF;stroke:color(display-p3 0.7000 0.7276 1.0000);stroke-opacity:1;" stroke-width="3.4953"/>
<rect x="-1.74765" y="1.74765" width="174.505" height="35.5047" transform="matrix(-1 0 0 1 270.505 265)" fill="black" stroke="#B3BAFF" style="fill:black;fill-opacity:1;stroke:#B3BAFF;stroke:color(display-p3 0.7000 0.7276 1.0000);stroke-opacity:1;" stroke-width="3.4953"/>
<rect width="178" height="39" transform="matrix(-1 0 0 1 274 190)" fill="black" style="fill:black;fill-opacity:1;"/>
<rect x="-1.74765" y="1.74765" width="174.505" height="35.5047" transform="matrix(-1 0 0 1 270.505 190)" stroke="#ABB3FF" stroke-opacity="0.52" style="stroke:#ABB3FF;stroke:color(display-p3 0.6708 0.7011 1.0000);stroke-opacity:0.52;" stroke-width="3.4953"/>
<rect x="-1.74765" y="1.74765" width="174.505" height="35.5047" transform="matrix(-1 0 0 1 270.505 321)" fill="black" stroke="#B3BAFF" style="fill:black;fill-opacity:1;stroke:#B3BAFF;stroke:color(display-p3 0.7000 0.7276 1.0000);stroke-opacity:1;" stroke-width="3.4953"/>
<path fill-rule="evenodd" clip-rule="evenodd" d="M53 21.9375C53 19.7629 54.7629 18 56.9375 18H77.0625C79.2371 18 81 19.7629 81 21.9375V36.8125C81 38.9871 79.2371 40.75 77.0625 40.75H71.6285C71.973 41.9083 72.6512 42.9231 73.5535 43.6843C73.9748 44.0396 74.1292 44.6204 73.94 45.138C73.7508 45.6557 73.2584 46 72.7073 46H61.2929C60.7418 46 60.2493 45.6557 60.0602 45.138C59.871 44.6204 60.0254 44.0396 60.4466 43.6843C61.349 42.9231 62.0272 41.9083 62.3717 40.75H56.9375C54.7629 40.75 53 38.9871 53 36.8125V21.9375ZM55.625 21.9375C55.625 21.2126 56.2126 20.625 56.9375 20.625H77.0625C77.7874 20.625 78.375 21.2126 78.375 21.9375V35.0625C78.375 35.7874 77.7874 36.375 77.0625 36.375H56.9375C56.2126 36.375 55.625 35.7874 55.625 35.0625V21.9375Z" fill="#7780D9" style="fill:#7780D9;fill:color(display-p3 0.4667 0.5020 0.8510);fill-opacity:1;"/>
<path d="M23.9771 70V68.2993H26.5814V58.768H23.9771V57.0673H31.1344V58.768H28.5301V68.2993H31.1344V70H23.9771ZM33.466 70V60.2562H35.3616V62.1163H35.8223L35.3616 62.5592C35.3616 61.7797 35.5919 61.1715 36.0526 60.7345C36.5132 60.2975 37.151 60.079 37.9659 60.079C38.9344 60.079 39.708 60.392 40.2867 61.0179C40.8654 61.6321 41.1548 62.4648 41.1548 63.5159V70H39.2415V63.7285C39.2415 63.0907 39.0702 62.6006 38.7277 62.2581C38.3852 61.9156 37.9187 61.7443 37.3281 61.7443C36.7258 61.7443 36.2474 61.9274 35.8931 62.2935C35.5506 62.6478 35.3794 63.1675 35.3794 63.8525V70H33.466ZM48.0926 70C47.2068 70 46.5158 69.7579 46.0198 69.2736C45.5237 68.7894 45.2757 68.1162 45.2757 67.254V61.9923H42.5829V60.2562H45.2757V57.5102H47.1891V60.2562H50.998V61.9923H47.1891V67.254C47.1891 67.9272 47.5139 68.2638 48.1634 68.2638H50.8209V70H48.0926ZM56.7665 70.1772C55.9752 70.1772 55.2784 70.0236 54.676 69.7165C54.0855 69.3977 53.6308 68.9548 53.3119 68.3878C52.993 67.8209 52.8336 67.1595 52.8336 66.4036V63.8525C52.8336 63.0848 52.993 62.4234 53.3119 61.8683C53.6308 61.3014 54.0855 60.8644 54.676 60.5573C55.2784 60.2384 55.9752 60.079 56.7665 60.079C57.5697 60.079 58.2665 60.2384 58.857 60.5573C59.4476 60.8644 59.9023 61.3014 60.2212 61.8683C60.5401 62.4234 60.6995 63.0848 60.6995 63.8525V65.5887H54.676V66.4036C54.676 67.1241 54.8532 67.6733 55.2075 68.0512C55.5737 68.4292 56.0992 68.6181 56.7843 68.6181C57.3394 68.6181 57.7882 68.5237 58.1307 68.3347C58.4732 68.1339 58.6858 67.8445 58.7685 67.4666H60.6641C60.5223 68.2934 60.0972 68.9548 59.3885 69.4508C58.6799 69.935 57.8059 70.1772 56.7665 70.1772ZM58.857 64.4372V63.8348C58.857 63.1262 58.6799 62.577 58.3256 62.1872C57.9712 61.7975 57.4516 61.6026 56.7665 61.6026C56.0933 61.6026 55.5737 61.7975 55.2075 62.1872C54.8532 62.577 54.676 63.1321 54.676 63.8525V64.2954L58.9988 64.2777L58.857 64.4372ZM62.9957 70V60.2562H64.8381V62.1163H65.2988L64.7141 63.2679C64.7141 62.2167 64.9444 61.4254 65.4051 60.8939C65.8657 60.3506 66.5507 60.079 67.4601 60.079C68.4995 60.079 69.3203 60.4038 69.9227 61.0534C70.5368 61.6912 70.8439 62.5711 70.8439 63.6931V64.3486H68.8774V63.8525C68.8774 63.1557 68.7003 62.6242 68.3459 62.2581C68.0034 61.8801 67.5192 61.6912 66.8932 61.6912C66.2672 61.6912 65.7771 61.8801 65.4228 62.2581C65.0803 62.636 64.909 63.1675 64.909 63.8525V70H62.9957ZM74.6991 70V63.0199H71.9354V61.2837H74.6991V59.707C74.6991 58.892 74.9589 58.2483 75.4786 57.7759C75.9983 57.3035 76.7069 57.0673 77.6045 57.0673H80.4568V58.768H77.64C77.3093 58.768 77.0494 58.8507 76.8604 59.016C76.6833 59.1814 76.5947 59.4176 76.5947 59.7247V61.2837H80.4568V63.0199H76.5947V70H74.6991ZM85.0029 70.1772C83.9872 70.1772 83.1841 69.9173 82.5935 69.3977C82.0148 68.8662 81.7255 68.1457 81.7255 67.2363C81.7255 66.3151 82.0325 65.5946 82.6467 65.0749C83.2727 64.5434 84.1289 64.2777 85.2155 64.2777H87.9261V63.3742C87.9261 62.8427 87.7607 62.4293 87.43 62.1341C87.0993 61.8388 86.6328 61.6912 86.0305 61.6912C85.499 61.6912 85.0561 61.8093 84.7018 62.0455C84.3474 62.2699 84.1407 62.5711 84.0817 62.949H82.2038C82.3101 62.075 82.7116 61.3782 83.4085 60.8585C84.1171 60.3388 85.0088 60.079 86.0836 60.079C87.2411 60.079 88.1564 60.3743 88.8296 60.9648C89.5028 61.5435 89.8394 62.3348 89.8394 63.3388V70H87.9792V68.2107H87.6603L87.9792 67.8564C87.9792 68.565 87.7076 69.1319 87.1643 69.5571C86.621 69.9705 85.9005 70.1772 85.0029 70.1772ZM85.5698 68.7067C86.2549 68.7067 86.8159 68.5355 87.2529 68.193C87.7017 67.8386 87.9261 67.3898 87.9261 66.8465V65.571H85.251C84.7549 65.571 84.3592 65.7068 84.064 65.9784C83.7805 66.2501 83.6388 66.6221 83.6388 67.0946C83.6388 67.5906 83.81 67.9863 84.1526 68.2815C84.4951 68.565 84.9675 68.7067 85.5698 68.7067ZM95.7851 70.1772C94.982 70.1772 94.2733 70.0295 93.6592 69.7343C93.0568 69.4272 92.5903 68.9902 92.2596 68.4233C91.9407 67.8445 91.7813 67.1713 91.7813 66.4036V63.8525C91.7813 63.073 91.9407 62.3998 92.2596 61.8329C92.5903 61.266 93.0568 60.8349 93.6592 60.5396C94.2733 60.2325 94.982 60.079 95.7851 60.079C96.9544 60.079 97.8933 60.3861 98.602 61.0002C99.3106 61.6144 99.6826 62.4529 99.7181 63.5159H97.8047C97.7693 62.9608 97.5744 62.5297 97.2201 62.2226C96.8658 61.9156 96.3874 61.762 95.7851 61.762C95.1355 61.762 94.6217 61.9451 94.2438 62.3112C93.8659 62.6655 93.6769 63.1734 93.6769 63.8348V66.4036C93.6769 67.065 93.8659 67.5788 94.2438 67.9449C94.6217 68.3111 95.1355 68.4941 95.7851 68.4941C96.3874 68.4941 96.8658 68.3406 97.2201 68.0335C97.5744 67.7264 97.7693 67.2953 97.8047 66.7402H99.7181C99.6826 67.8032 99.3106 68.6418 98.602 69.2559C97.8933 69.8701 96.9544 70.1772 95.7851 70.1772ZM105.451 70.1772C104.66 70.1772 103.963 70.0236 103.361 69.7165C102.77 69.3977 102.315 68.9548 101.997 68.3878C101.678 67.8209 101.518 67.1595 101.518 66.4036V63.8525C101.518 63.0848 101.678 62.4234 101.997 61.8683C102.315 61.3014 102.77 60.8644 103.361 60.5573C103.963 60.2384 104.66 60.079 105.451 60.079C106.254 60.079 106.951 60.2384 107.542 60.5573C108.132 60.8644 108.587 61.3014 108.906 61.8683C109.225 62.4234 109.384 63.0848 109.384 63.8525V65.5887H103.361V66.4036C103.361 67.1241 103.538 67.6733 103.892 68.0512C104.258 68.4292 104.784 68.6181 105.469 68.6181C106.024 68.6181 106.473 68.5237 106.815 68.3347C107.158 68.1339 107.37 67.8445 107.453 67.4666H109.349C109.207 68.2934 108.782 68.9548 108.073 69.4508C107.364 69.935 106.491 70.1772 105.451 70.1772ZM107.542 64.4372V63.8348C107.542 63.1262 107.364 62.577 107.01 62.1872C106.656 61.7975 106.136 61.6026 105.451 61.6026C104.778 61.6026 104.258 61.7975 103.892 62.1872C103.538 62.577 103.361 63.1321 103.361 63.8525V64.2954L107.683 64.2777L107.542 64.4372Z" fill="white" style="fill:white;fill-opacity:1;"/>
<path d="M136.319 159.177C135.079 159.177 134.122 158.841 133.449 158.167C132.776 157.482 132.439 156.555 132.439 155.386V146.067H134.352V155.386C134.352 156.036 134.512 156.549 134.831 156.927C135.161 157.305 135.657 157.494 136.319 157.494C136.968 157.494 137.459 157.305 137.789 156.927C138.12 156.549 138.285 156.036 138.285 155.386V146.067H140.199V155.386C140.199 156.555 139.862 157.482 139.189 158.167C138.516 158.841 137.559 159.177 136.319 159.177ZM145.719 159.159C145.022 159.159 144.408 159.047 143.877 158.823C143.357 158.598 142.944 158.291 142.637 157.902C142.341 157.5 142.17 157.028 142.123 156.484H144.036C144.083 156.803 144.255 157.063 144.55 157.264C144.845 157.453 145.235 157.547 145.719 157.547H146.481C147.06 157.547 147.497 157.429 147.792 157.193C148.087 156.957 148.235 156.644 148.235 156.254C148.235 155.876 148.099 155.581 147.827 155.368C147.568 155.144 147.178 154.996 146.658 154.925L145.4 154.73C144.361 154.565 143.593 154.27 143.097 153.845C142.613 153.408 142.371 152.764 142.371 151.914C142.371 151.016 142.66 150.325 143.239 149.841C143.829 149.345 144.698 149.097 145.843 149.097H146.516C147.532 149.097 148.341 149.333 148.943 149.805C149.558 150.266 149.906 150.886 149.989 151.666H148.075C148.028 151.382 147.869 151.152 147.597 150.975C147.337 150.797 146.977 150.709 146.516 150.709H145.843C145.288 150.709 144.881 150.815 144.621 151.028C144.373 151.229 144.249 151.53 144.249 151.931C144.249 152.286 144.361 152.551 144.585 152.729C144.81 152.906 145.158 153.03 145.631 153.101L146.924 153.313C148.022 153.467 148.825 153.774 149.333 154.234C149.853 154.683 150.113 155.339 150.113 156.201C150.113 157.134 149.806 157.86 149.192 158.38C148.589 158.9 147.686 159.159 146.481 159.159H145.719ZM155.793 159.177C155.001 159.177 154.305 159.024 153.702 158.717C153.112 158.398 152.657 157.955 152.338 157.388C152.019 156.821 151.86 156.16 151.86 155.404V152.853C151.86 152.085 152.019 151.423 152.338 150.868C152.657 150.301 153.112 149.864 153.702 149.557C154.305 149.238 155.001 149.079 155.793 149.079C156.596 149.079 157.293 149.238 157.883 149.557C158.474 149.864 158.928 150.301 159.247 150.868C159.566 151.423 159.726 152.085 159.726 152.853V154.589H153.702V155.404C153.702 156.124 153.879 156.673 154.234 157.051C154.6 157.429 155.125 157.618 155.81 157.618C156.366 157.618 156.814 157.524 157.157 157.335C157.499 157.134 157.712 156.845 157.795 156.467H159.69C159.548 157.293 159.123 157.955 158.415 158.451C157.706 158.935 156.832 159.177 155.793 159.177ZM157.883 153.437V152.835C157.883 152.126 157.706 151.577 157.352 151.187C156.997 150.797 156.478 150.603 155.793 150.603C155.119 150.603 154.6 150.797 154.234 151.187C153.879 151.577 153.702 152.132 153.702 152.853V153.295L158.025 153.278L157.883 153.437ZM162.022 159V149.256H163.864V151.116H164.325L163.74 152.268C163.74 151.217 163.971 150.425 164.431 149.894C164.892 149.351 165.577 149.079 166.486 149.079C167.526 149.079 168.346 149.404 168.949 150.053C169.563 150.691 169.87 151.571 169.87 152.693V153.349H167.904V152.853C167.904 152.156 167.726 151.624 167.372 151.258C167.03 150.88 166.545 150.691 165.919 150.691C165.293 150.691 164.803 150.88 164.449 151.258C164.106 151.636 163.935 152.167 163.935 152.853V159H162.022ZM181.177 159V146.067H185.411C186.249 146.067 186.976 146.227 187.59 146.546C188.216 146.864 188.694 147.319 189.025 147.91C189.368 148.488 189.539 149.173 189.539 149.965C189.539 150.744 189.368 151.429 189.025 152.02C188.682 152.61 188.204 153.065 187.59 153.384C186.976 153.703 186.249 153.862 185.411 153.862H183.09V159H181.177ZM183.09 152.144H185.411C186.072 152.144 186.598 151.949 186.988 151.559C187.389 151.158 187.59 150.626 187.59 149.965C187.59 149.292 187.389 148.76 186.988 148.37C186.598 147.981 186.072 147.786 185.411 147.786H183.09V152.144ZM191.233 159V149.256H193.075V151.116H193.536L192.951 152.268C192.951 151.217 193.181 150.425 193.642 149.894C194.103 149.351 194.788 149.079 195.697 149.079C196.736 149.079 197.557 149.404 198.16 150.053C198.774 150.691 199.081 151.571 199.081 152.693V153.349H197.114V152.853C197.114 152.156 196.937 151.624 196.583 151.258C196.24 150.88 195.756 150.691 195.13 150.691C194.504 150.691 194.014 150.88 193.66 151.258C193.317 151.636 193.146 152.167 193.146 152.853V159H191.233ZM204.477 159.159C203.674 159.159 202.977 159.006 202.387 158.699C201.796 158.392 201.342 157.955 201.023 157.388C200.704 156.821 200.544 156.154 200.544 155.386V152.87C200.544 152.091 200.704 151.423 201.023 150.868C201.342 150.301 201.796 149.864 202.387 149.557C202.977 149.25 203.674 149.097 204.477 149.097C205.28 149.097 205.977 149.25 206.568 149.557C207.158 149.864 207.613 150.301 207.932 150.868C208.251 151.423 208.41 152.091 208.41 152.87V155.386C208.41 156.154 208.251 156.821 207.932 157.388C207.613 157.955 207.158 158.392 206.568 158.699C205.977 159.006 205.28 159.159 204.477 159.159ZM204.477 157.476C205.127 157.476 205.629 157.299 205.983 156.945C206.337 156.579 206.515 156.059 206.515 155.386V152.87C206.515 152.185 206.337 151.666 205.983 151.311C205.629 150.957 205.127 150.78 204.477 150.78C203.84 150.78 203.338 150.957 202.971 151.311C202.617 151.666 202.44 152.185 202.44 152.87V155.386C202.44 156.059 202.617 156.579 202.971 156.945C203.338 157.299 203.84 157.476 204.477 157.476ZM209.945 159V149.256H211.539V150.496H211.893L211.628 150.868C211.628 150.325 211.775 149.894 212.071 149.575C212.366 149.244 212.762 149.079 213.258 149.079C213.789 149.079 214.197 149.286 214.48 149.699C214.775 150.112 214.923 150.679 214.923 151.4L214.498 150.496H215.171L214.887 150.868C214.887 150.325 215.035 149.894 215.33 149.575C215.637 149.244 216.045 149.079 216.553 149.079C217.155 149.079 217.628 149.309 217.97 149.77C218.313 150.219 218.484 150.821 218.484 151.577V159H216.783V151.63C216.783 151.264 216.7 150.981 216.535 150.78C216.381 150.579 216.157 150.479 215.862 150.479C215.567 150.479 215.336 150.579 215.171 150.78C215.017 150.969 214.941 151.246 214.941 151.612V159H213.506V151.63C213.506 151.252 213.423 150.969 213.258 150.78C213.092 150.579 212.856 150.479 212.549 150.479C212.254 150.479 212.029 150.579 211.876 150.78C211.734 150.969 211.663 151.246 211.663 151.612V159H209.945ZM220.124 162.189V149.256H222.02V151.116H222.428L222.02 151.559C222.02 150.792 222.256 150.189 222.729 149.752C223.213 149.303 223.857 149.079 224.66 149.079C225.64 149.079 226.42 149.41 226.998 150.071C227.589 150.721 227.884 151.612 227.884 152.746V155.492C227.884 156.248 227.748 156.904 227.477 157.459C227.217 158.002 226.845 158.427 226.361 158.734C225.888 159.03 225.321 159.177 224.66 159.177C223.868 159.177 223.231 158.959 222.746 158.522C222.262 158.073 222.02 157.465 222.02 156.697L222.428 157.14H221.985L222.038 159.407V162.189H220.124ZM224.004 157.512C224.63 157.512 225.115 157.335 225.457 156.98C225.811 156.614 225.989 156.089 225.989 155.404V152.853C225.989 152.167 225.811 151.648 225.457 151.294C225.115 150.927 224.63 150.744 224.004 150.744C223.402 150.744 222.924 150.933 222.569 151.311C222.215 151.677 222.038 152.191 222.038 152.853V155.404C222.038 156.065 222.215 156.585 222.569 156.963C222.924 157.329 223.402 157.512 224.004 157.512ZM234.751 159C233.865 159 233.174 158.758 232.678 158.274C232.182 157.789 231.934 157.116 231.934 156.254V150.992H229.241V149.256H231.934V146.51H233.848V149.256H237.656V150.992H233.848V156.254C233.848 156.927 234.172 157.264 234.822 157.264H237.479V159H234.751Z" fill="white" style="fill:white;fill-opacity:1;"/>
<path d="M151.948 290V277.067H155.562C156.413 277.067 157.151 277.233 157.777 277.563C158.403 277.882 158.887 278.337 159.23 278.927C159.584 279.518 159.761 280.215 159.761 281.018V286.032C159.761 286.823 159.584 287.52 159.23 288.122C158.887 288.724 158.403 289.191 157.777 289.522C157.151 289.841 156.413 290 155.562 290H151.948ZM153.862 288.264H155.562C156.271 288.264 156.826 288.069 157.228 287.679C157.641 287.278 157.848 286.728 157.848 286.032V281.018C157.848 280.333 157.641 279.796 157.228 279.406C156.826 279.004 156.271 278.803 155.562 278.803H153.862V288.264ZM165.53 290.177C164.738 290.177 164.041 290.024 163.439 289.717C162.849 289.398 162.394 288.955 162.075 288.388C161.756 287.821 161.597 287.16 161.597 286.404V283.853C161.597 283.085 161.756 282.423 162.075 281.868C162.394 281.301 162.849 280.864 163.439 280.557C164.041 280.238 164.738 280.079 165.53 280.079C166.333 280.079 167.03 280.238 167.62 280.557C168.211 280.864 168.665 281.301 168.984 281.868C169.303 282.423 169.463 283.085 169.463 283.853V285.589H163.439V286.404C163.439 287.124 163.616 287.673 163.971 288.051C164.337 288.429 164.862 288.618 165.547 288.618C166.102 288.618 166.551 288.524 166.894 288.335C167.236 288.134 167.449 287.845 167.532 287.467H169.427C169.285 288.293 168.86 288.955 168.152 289.451C167.443 289.935 166.569 290.177 165.53 290.177ZM167.62 284.437V283.835C167.62 283.126 167.443 282.577 167.089 282.187C166.734 281.797 166.215 281.603 165.53 281.603C164.856 281.603 164.337 281.797 163.971 282.187C163.616 282.577 163.439 283.132 163.439 283.853V284.295L167.762 284.278L167.62 284.437ZM176.33 290C175.444 290 174.753 289.758 174.257 289.274C173.761 288.789 173.513 288.116 173.513 287.254V281.992H170.82V280.256H173.513V277.51H175.426V280.256H179.235V281.992H175.426V287.254C175.426 287.927 175.751 288.264 176.4 288.264H179.058V290H176.33ZM184.029 290.177C183.013 290.177 182.21 289.917 181.62 289.398C181.041 288.866 180.752 288.146 180.752 287.236C180.752 286.315 181.059 285.595 181.673 285.075C182.299 284.543 183.155 284.278 184.242 284.278H186.952V283.374C186.952 282.843 186.787 282.429 186.456 282.134C186.125 281.839 185.659 281.691 185.057 281.691C184.525 281.691 184.082 281.809 183.728 282.045C183.374 282.27 183.167 282.571 183.108 282.949H181.23C181.336 282.075 181.738 281.378 182.435 280.859C183.143 280.339 184.035 280.079 185.11 280.079C186.267 280.079 187.183 280.374 187.856 280.965C188.529 281.544 188.866 282.335 188.866 283.339V290H187.005V288.211H186.686L187.005 287.856C187.005 288.565 186.734 289.132 186.19 289.557C185.647 289.97 184.927 290.177 184.029 290.177ZM184.596 288.707C185.281 288.707 185.842 288.535 186.279 288.193C186.728 287.839 186.952 287.39 186.952 286.847V285.571H184.277C183.781 285.571 183.385 285.707 183.09 285.978C182.807 286.25 182.665 286.622 182.665 287.095C182.665 287.591 182.836 287.986 183.179 288.282C183.521 288.565 183.994 288.707 184.596 288.707ZM190.861 290V288.264H194.28V281.992H191.303V280.256H196.14V288.264H199.276V290H190.861ZM195.024 278.573C194.61 278.573 194.28 278.467 194.032 278.254C193.784 278.03 193.66 277.735 193.66 277.368C193.66 276.99 193.784 276.695 194.032 276.483C194.28 276.258 194.61 276.146 195.024 276.146C195.437 276.146 195.768 276.258 196.016 276.483C196.264 276.695 196.388 276.99 196.388 277.368C196.388 277.735 196.264 278.03 196.016 278.254C195.768 278.467 195.437 278.573 195.024 278.573ZM205.877 290C205.275 290 204.749 289.882 204.3 289.646C203.851 289.398 203.497 289.049 203.237 288.6C202.989 288.152 202.865 287.632 202.865 287.041V278.803H199.676V277.067H204.778V287.041C204.778 287.419 204.885 287.721 205.097 287.945C205.31 288.158 205.599 288.264 205.965 288.264H208.977V290H205.877ZM213.878 290.159C213.181 290.159 212.567 290.047 212.035 289.823C211.515 289.598 211.102 289.291 210.795 288.902C210.5 288.5 210.329 288.028 210.281 287.484H212.195C212.242 287.803 212.413 288.063 212.708 288.264C213.004 288.453 213.393 288.547 213.878 288.547H214.639C215.218 288.547 215.655 288.429 215.95 288.193C216.246 287.957 216.393 287.644 216.393 287.254C216.393 286.876 216.257 286.581 215.986 286.368C215.726 286.144 215.336 285.996 214.817 285.925L213.559 285.73C212.519 285.565 211.752 285.27 211.256 284.845C210.771 284.408 210.529 283.764 210.529 282.914C210.529 282.016 210.819 281.325 211.397 280.841C211.988 280.345 212.856 280.097 214.002 280.097H214.675C215.691 280.097 216.5 280.333 217.102 280.805C217.716 281.266 218.065 281.886 218.147 282.666H216.234C216.187 282.382 216.027 282.152 215.756 281.975C215.496 281.797 215.135 281.709 214.675 281.709H214.002C213.447 281.709 213.039 281.815 212.779 282.028C212.531 282.229 212.407 282.53 212.407 282.931C212.407 283.286 212.519 283.551 212.744 283.729C212.968 283.906 213.317 284.03 213.789 284.101L215.082 284.313C216.181 284.467 216.984 284.774 217.492 285.234C218.011 285.683 218.271 286.339 218.271 287.201C218.271 288.134 217.964 288.86 217.35 289.38C216.748 289.9 215.844 290.159 214.639 290.159H213.878Z" fill="white" style="fill:white;fill-opacity:1;"/>
<path d="M126.653 215.177C125.85 215.177 125.147 215.03 124.545 214.734C123.954 214.427 123.493 213.99 123.163 213.423C122.844 212.845 122.684 212.171 122.684 211.404V205.664C122.684 204.884 122.844 204.211 123.163 203.644C123.493 203.077 123.954 202.646 124.545 202.351C125.147 202.044 125.85 201.89 126.653 201.89C127.456 201.89 128.153 202.044 128.743 202.351C129.334 202.658 129.789 203.095 130.107 203.662C130.438 204.217 130.603 204.884 130.603 205.664H128.69C128.69 204.99 128.513 204.477 128.159 204.122C127.804 203.768 127.302 203.591 126.653 203.591C126.003 203.591 125.495 203.768 125.129 204.122C124.775 204.477 124.598 204.985 124.598 205.646V211.404C124.598 212.065 124.775 212.579 125.129 212.945C125.495 213.299 126.003 213.476 126.653 213.476C127.302 213.476 127.804 213.299 128.159 212.945C128.513 212.579 128.69 212.065 128.69 211.404H130.603C130.603 212.171 130.438 212.839 130.107 213.406C129.789 213.972 129.334 214.409 128.743 214.717C128.153 215.024 127.456 215.177 126.653 215.177ZM137.718 215C137.116 215 136.59 214.882 136.142 214.646C135.693 214.398 135.339 214.049 135.079 213.6C134.831 213.152 134.707 212.632 134.707 212.041V203.803H131.518V202.067H136.62V212.041C136.62 212.419 136.726 212.721 136.939 212.945C137.151 213.158 137.441 213.264 137.807 213.264H140.819V215H137.718ZM145.081 215.177C144.066 215.177 143.263 214.917 142.672 214.398C142.093 213.866 141.804 213.146 141.804 212.236C141.804 211.315 142.111 210.595 142.725 210.075C143.351 209.543 144.207 209.278 145.294 209.278H148.005V208.374C148.005 207.843 147.839 207.429 147.508 207.134C147.178 206.839 146.711 206.691 146.109 206.691C145.577 206.691 145.135 206.809 144.78 207.045C144.426 207.27 144.219 207.571 144.16 207.949H142.282C142.389 207.075 142.79 206.378 143.487 205.859C144.196 205.339 145.087 205.079 146.162 205.079C147.32 205.079 148.235 205.374 148.908 205.965C149.581 206.544 149.918 207.335 149.918 208.339V215H148.058V213.211H147.739L148.058 212.856C148.058 213.565 147.786 214.132 147.243 214.557C146.699 214.97 145.979 215.177 145.081 215.177ZM145.648 213.707C146.333 213.707 146.894 213.535 147.331 213.193C147.78 212.839 148.005 212.39 148.005 211.847V210.571H145.329C144.833 210.571 144.438 210.707 144.142 210.978C143.859 211.25 143.717 211.622 143.717 212.095C143.717 212.591 143.888 212.986 144.231 213.282C144.574 213.565 145.046 213.707 145.648 213.707ZM152.285 215V205.256H154.127V207.116H154.588L154.003 208.268C154.003 207.217 154.234 206.425 154.694 205.894C155.155 205.351 155.84 205.079 156.749 205.079C157.789 205.079 158.61 205.404 159.212 206.053C159.826 206.691 160.133 207.571 160.133 208.693V209.349H158.167V208.853C158.167 208.156 157.989 207.624 157.635 207.258C157.293 206.88 156.808 206.691 156.182 206.691C155.556 206.691 155.066 206.88 154.712 207.258C154.369 207.636 154.198 208.167 154.198 208.853V215H152.285ZM161.65 215V213.264H165.069V206.992H162.093V205.256H166.929V213.264H170.065V215H161.65ZM165.813 203.573C165.4 203.573 165.069 203.467 164.821 203.254C164.573 203.03 164.449 202.735 164.449 202.368C164.449 201.99 164.573 201.695 164.821 201.483C165.069 201.258 165.4 201.146 165.813 201.146C166.226 201.146 166.557 201.258 166.805 201.483C167.053 201.695 167.177 201.99 167.177 202.368C167.177 202.735 167.053 203.03 166.805 203.254C166.557 203.467 166.226 203.573 165.813 203.573ZM173.725 215V208.02H170.962V206.284H173.725V204.707C173.725 203.892 173.985 203.248 174.505 202.776C175.024 202.303 175.733 202.067 176.631 202.067H179.483V203.768H176.666C176.335 203.768 176.076 203.851 175.887 204.016C175.709 204.181 175.621 204.418 175.621 204.725V206.284H179.483V208.02H175.621V215H173.725ZM181.124 215V213.264H184.543V206.992H181.567V205.256H186.403V213.264H189.539V215H181.124ZM185.287 203.573C184.874 203.573 184.543 203.467 184.295 203.254C184.047 203.03 183.923 202.735 183.923 202.368C183.923 201.99 184.047 201.695 184.295 201.483C184.543 201.258 184.874 201.146 185.287 201.146C185.7 201.146 186.031 201.258 186.279 201.483C186.527 201.695 186.651 201.99 186.651 202.368C186.651 202.735 186.527 203.03 186.279 203.254C186.031 203.467 185.7 203.573 185.287 203.573ZM194.811 215.177C194.008 215.177 193.299 215.03 192.685 214.734C192.083 214.427 191.616 213.99 191.286 213.423C190.967 212.845 190.807 212.171 190.807 211.404V208.853C190.807 208.073 190.967 207.4 191.286 206.833C191.616 206.266 192.083 205.835 192.685 205.54C193.299 205.233 194.008 205.079 194.811 205.079C195.981 205.079 196.919 205.386 197.628 206C198.337 206.614 198.709 207.453 198.744 208.516H196.831C196.795 207.961 196.601 207.53 196.246 207.223C195.892 206.916 195.414 206.762 194.811 206.762C194.162 206.762 193.648 206.945 193.27 207.311C192.892 207.666 192.703 208.173 192.703 208.835V211.404C192.703 212.065 192.892 212.579 193.27 212.945C193.648 213.311 194.162 213.494 194.811 213.494C195.414 213.494 195.892 213.341 196.246 213.034C196.601 212.726 196.795 212.295 196.831 211.74H198.744C198.709 212.803 198.337 213.642 197.628 214.256C196.919 214.87 195.981 215.177 194.811 215.177ZM203.503 215.177C202.487 215.177 201.684 214.917 201.094 214.398C200.515 213.866 200.225 213.146 200.225 212.236C200.225 211.315 200.533 210.595 201.147 210.075C201.773 209.543 202.629 209.278 203.716 209.278H206.426V208.374C206.426 207.843 206.261 207.429 205.93 207.134C205.599 206.839 205.133 206.691 204.53 206.691C203.999 206.691 203.556 206.809 203.202 207.045C202.847 207.27 202.641 207.571 202.582 207.949H200.704C200.81 207.075 201.212 206.378 201.908 205.859C202.617 205.339 203.509 205.079 204.584 205.079C205.741 205.079 206.656 205.374 207.33 205.965C208.003 206.544 208.339 207.335 208.339 208.339V215H206.479V213.211H206.16L206.479 212.856C206.479 213.565 206.208 214.132 205.664 214.557C205.121 214.97 204.401 215.177 203.503 215.177ZM204.07 213.707C204.755 213.707 205.316 213.535 205.753 213.193C206.202 212.839 206.426 212.39 206.426 211.847V210.571H203.751C203.255 210.571 202.859 210.707 202.564 210.978C202.281 211.25 202.139 211.622 202.139 212.095C202.139 212.591 202.31 212.986 202.653 213.282C202.995 213.565 203.467 213.707 204.07 213.707ZM215.277 215C214.391 215 213.7 214.758 213.204 214.274C212.708 213.789 212.46 213.116 212.46 212.254V206.992H209.767V205.256H212.46V202.51H214.374V205.256H218.183V206.992H214.374V212.254C214.374 212.927 214.698 213.264 215.348 213.264H218.005V215H215.277ZM220.071 215V213.264H223.491V206.992H220.514V205.256H225.351V213.264H228.486V215H220.071ZM224.235 203.573C223.821 203.573 223.491 203.467 223.243 203.254C222.994 203.03 222.87 202.735 222.87 202.368C222.87 201.99 222.994 201.695 223.243 201.483C223.491 201.258 223.821 201.146 224.235 201.146C224.648 201.146 224.979 201.258 225.227 201.483C225.475 201.695 225.599 201.99 225.599 202.368C225.599 202.735 225.475 203.03 225.227 203.254C224.979 203.467 224.648 203.573 224.235 203.573ZM233.688 215.159C232.885 215.159 232.188 215.006 231.598 214.699C231.007 214.392 230.552 213.955 230.233 213.388C229.915 212.821 229.755 212.154 229.755 211.386V208.87C229.755 208.091 229.915 207.423 230.233 206.868C230.552 206.301 231.007 205.864 231.598 205.557C232.188 205.25 232.885 205.097 233.688 205.097C234.491 205.097 235.188 205.25 235.779 205.557C236.369 205.864 236.824 206.301 237.143 206.868C237.462 207.423 237.621 208.091 237.621 208.87V211.386C237.621 212.154 237.462 212.821 237.143 213.388C236.824 213.955 236.369 214.392 235.779 214.699C235.188 215.006 234.491 215.159 233.688 215.159ZM233.688 213.476C234.338 213.476 234.84 213.299 235.194 212.945C235.548 212.579 235.725 212.059 235.725 211.386V208.87C235.725 208.185 235.548 207.666 235.194 207.311C234.84 206.957 234.338 206.78 233.688 206.78C233.05 206.78 232.548 206.957 232.182 207.311C231.828 207.666 231.651 208.185 231.651 208.87V211.386C231.651 212.059 231.828 212.579 232.182 212.945C232.548 213.299 233.05 213.476 233.688 213.476ZM239.598 215V205.256H241.494V207.116H241.955L241.494 207.559C241.494 206.78 241.724 206.171 242.185 205.734C242.646 205.297 243.283 205.079 244.098 205.079C245.067 205.079 245.84 205.392 246.419 206.018C246.998 206.632 247.287 207.465 247.287 208.516V215H245.374V208.729C245.374 208.091 245.203 207.601 244.86 207.258C244.518 206.916 244.051 206.744 243.46 206.744C242.858 206.744 242.38 206.927 242.025 207.294C241.683 207.648 241.512 208.167 241.512 208.853V215H239.598Z" fill="white" fill-opacity="0.77" style="fill:white;fill-opacity:0.77;"/>
<path d="M117.869 346V333.067H121.483C122.334 333.067 123.072 333.233 123.698 333.563C124.324 333.882 124.808 334.337 125.15 334.927C125.505 335.518 125.682 336.215 125.682 337.018V342.032C125.682 342.823 125.505 343.52 125.15 344.122C124.808 344.724 124.324 345.191 123.698 345.522C123.072 345.841 122.334 346 121.483 346H117.869ZM119.782 344.264H121.483C122.192 344.264 122.747 344.069 123.148 343.679C123.562 343.278 123.769 342.728 123.769 342.032V337.018C123.769 336.333 123.562 335.796 123.148 335.406C122.747 335.004 122.192 334.803 121.483 334.803H119.782V344.264ZM127.571 346V344.264H130.99V337.992H128.013V336.256H132.85V344.264H135.986V346H127.571ZM131.734 334.573C131.32 334.573 130.99 334.467 130.742 334.254C130.494 334.03 130.37 333.735 130.37 333.368C130.37 332.99 130.494 332.695 130.742 332.483C130.99 332.258 131.32 332.146 131.734 332.146C132.147 332.146 132.478 332.258 132.726 332.483C132.974 332.695 133.098 332.99 133.098 333.368C133.098 333.735 132.974 334.03 132.726 334.254C132.478 334.467 132.147 334.573 131.734 334.573ZM140.851 346.159C140.154 346.159 139.54 346.047 139.008 345.823C138.489 345.598 138.075 345.291 137.768 344.902C137.473 344.5 137.302 344.028 137.254 343.484H139.168C139.215 343.803 139.386 344.063 139.681 344.264C139.977 344.453 140.366 344.547 140.851 344.547H141.612C142.191 344.547 142.628 344.429 142.923 344.193C143.219 343.957 143.366 343.644 143.366 343.254C143.366 342.876 143.231 342.581 142.959 342.368C142.699 342.144 142.309 341.996 141.79 341.925L140.532 341.73C139.492 341.565 138.725 341.27 138.229 340.845C137.744 340.408 137.502 339.764 137.502 338.914C137.502 338.016 137.792 337.325 138.37 336.841C138.961 336.345 139.829 336.097 140.975 336.097H141.648C142.664 336.097 143.473 336.333 144.075 336.805C144.689 337.266 145.038 337.886 145.12 338.666H143.207C143.16 338.382 143 338.152 142.729 337.975C142.469 337.797 142.109 337.709 141.648 337.709H140.975C140.42 337.709 140.012 337.815 139.752 338.028C139.504 338.229 139.38 338.53 139.38 338.931C139.38 339.286 139.492 339.551 139.717 339.729C139.941 339.906 140.29 340.03 140.762 340.101L142.055 340.313C143.154 340.467 143.957 340.774 144.465 341.234C144.984 341.683 145.244 342.339 145.244 343.201C145.244 344.134 144.937 344.86 144.323 345.38C143.721 345.9 142.817 346.159 141.612 346.159H140.851ZM147.098 349.189V336.256H148.993V338.116H149.401L148.993 338.559C148.993 337.792 149.229 337.189 149.702 336.752C150.186 336.303 150.83 336.079 151.633 336.079C152.613 336.079 153.393 336.41 153.971 337.071C154.562 337.721 154.857 338.612 154.857 339.746V342.492C154.857 343.248 154.721 343.904 154.45 344.459C154.19 345.002 153.818 345.427 153.334 345.734C152.861 346.03 152.294 346.177 151.633 346.177C150.842 346.177 150.204 345.959 149.72 345.522C149.235 345.073 148.993 344.465 148.993 343.697L149.401 344.14H148.958L149.011 346.407V349.189H147.098ZM150.977 344.512C151.603 344.512 152.088 344.335 152.43 343.98C152.784 343.614 152.962 343.089 152.962 342.404V339.853C152.962 339.167 152.784 338.648 152.43 338.294C152.088 337.927 151.603 337.744 150.977 337.744C150.375 337.744 149.897 337.933 149.542 338.311C149.188 338.677 149.011 339.191 149.011 339.853V342.404C149.011 343.065 149.188 343.585 149.542 343.963C149.897 344.329 150.375 344.512 150.977 344.512ZM162.061 346C161.458 346 160.933 345.882 160.484 345.646C160.035 345.398 159.681 345.049 159.421 344.6C159.173 344.152 159.049 343.632 159.049 343.041V334.803H155.86V333.067H160.962V343.041C160.962 343.419 161.069 343.721 161.281 343.945C161.494 344.158 161.783 344.264 162.149 344.264H165.161V346H162.061ZM169.424 346.177C168.408 346.177 167.605 345.917 167.014 345.398C166.436 344.866 166.146 344.146 166.146 343.236C166.146 342.315 166.453 341.595 167.067 341.075C167.693 340.543 168.55 340.278 169.636 340.278H172.347V339.374C172.347 338.843 172.181 338.429 171.851 338.134C171.52 337.839 171.054 337.691 170.451 337.691C169.92 337.691 169.477 337.809 169.123 338.045C168.768 338.27 168.562 338.571 168.502 338.949H166.625C166.731 338.075 167.132 337.378 167.829 336.859C168.538 336.339 169.43 336.079 170.504 336.079C171.662 336.079 172.577 336.374 173.25 336.965C173.924 337.544 174.26 338.335 174.26 339.339V346H172.4V344.211H172.081L172.4 343.856C172.4 344.565 172.128 345.132 171.585 345.557C171.042 345.97 170.321 346.177 169.424 346.177ZM169.991 344.707C170.676 344.707 171.237 344.535 171.674 344.193C172.122 343.839 172.347 343.39 172.347 342.847V341.571H169.672C169.176 341.571 168.78 341.707 168.485 341.978C168.201 342.25 168.06 342.622 168.06 343.095C168.06 343.591 168.231 343.986 168.573 344.282C168.916 344.565 169.388 344.707 169.991 344.707ZM177.867 349.189L179.267 345.433L175.635 336.256H177.743L179.781 341.748C179.863 341.984 179.946 342.268 180.029 342.599C180.111 342.929 180.182 343.201 180.241 343.413C180.289 343.201 180.353 342.929 180.436 342.599C180.519 342.268 180.602 341.984 180.684 341.748L182.598 336.256H184.635L179.887 349.189H177.867ZM195.782 346V333.067H199.839C200.654 333.067 201.363 333.227 201.965 333.546C202.567 333.853 203.034 334.29 203.365 334.857C203.707 335.423 203.878 336.091 203.878 336.859C203.878 337.721 203.654 338.471 203.205 339.108C202.768 339.734 202.172 340.177 201.416 340.437L204.056 346H201.877L199.52 340.685H197.696V346H195.782ZM197.696 339.002H199.839C200.477 339.002 200.985 338.813 201.363 338.435C201.741 338.045 201.93 337.532 201.93 336.894C201.93 336.233 201.741 335.713 201.363 335.335C200.985 334.957 200.477 334.768 199.839 334.768H197.696V339.002ZM209.346 346.177C208.554 346.177 207.858 346.024 207.255 345.717C206.665 345.398 206.21 344.955 205.891 344.388C205.572 343.821 205.413 343.16 205.413 342.404V339.853C205.413 339.085 205.572 338.423 205.891 337.868C206.21 337.301 206.665 336.864 207.255 336.557C207.858 336.238 208.554 336.079 209.346 336.079C210.149 336.079 210.846 336.238 211.436 336.557C212.027 336.864 212.482 337.301 212.8 337.868C213.119 338.423 213.279 339.085 213.279 339.853V341.589H207.255V342.404C207.255 343.124 207.432 343.673 207.787 344.051C208.153 344.429 208.678 344.618 209.363 344.618C209.919 344.618 210.367 344.524 210.71 344.335C211.052 344.134 211.265 343.845 211.348 343.467H213.243C213.102 344.293 212.676 344.955 211.968 345.451C211.259 345.935 210.385 346.177 209.346 346.177ZM211.436 340.437V339.835C211.436 339.126 211.259 338.577 210.905 338.187C210.55 337.797 210.031 337.603 209.346 337.603C208.673 337.603 208.153 337.797 207.787 338.187C207.432 338.577 207.255 339.132 207.255 339.853V340.295L211.578 340.278L211.436 340.437ZM218.746 346.159C218.049 346.159 217.435 346.047 216.904 345.823C216.384 345.598 215.971 345.291 215.663 344.902C215.368 344.5 215.197 344.028 215.15 343.484H217.063C217.11 343.803 217.282 344.063 217.577 344.264C217.872 344.453 218.262 344.547 218.746 344.547H219.508C220.087 344.547 220.524 344.429 220.819 344.193C221.114 343.957 221.262 343.644 221.262 343.254C221.262 342.876 221.126 342.581 220.854 342.368C220.594 342.144 220.205 341.996 219.685 341.925L218.427 341.73C217.388 341.565 216.62 341.27 216.124 340.845C215.64 340.408 215.398 339.764 215.398 338.914C215.398 338.016 215.687 337.325 216.266 336.841C216.856 336.345 217.724 336.097 218.87 336.097H219.543C220.559 336.097 221.368 336.333 221.97 336.805C222.585 337.266 222.933 337.886 223.016 338.666H221.102C221.055 338.382 220.896 338.152 220.624 337.975C220.364 337.797 220.004 337.709 219.543 337.709H218.87C218.315 337.709 217.908 337.815 217.648 338.028C217.4 338.229 217.276 338.53 217.276 338.931C217.276 339.286 217.388 339.551 217.612 339.729C217.837 339.906 218.185 340.03 218.658 340.101L219.951 340.313C221.049 340.467 221.852 340.774 222.36 341.234C222.88 341.683 223.14 342.339 223.14 343.201C223.14 344.134 222.833 344.86 222.218 345.38C221.616 345.9 220.713 346.159 219.508 346.159H218.746ZM228.802 346.177C227.633 346.177 226.7 345.841 226.003 345.167C225.306 344.482 224.958 343.555 224.958 342.386V336.256H226.871V342.386C226.871 343.059 227.042 343.585 227.385 343.963C227.727 344.329 228.2 344.512 228.802 344.512C229.416 344.512 229.894 344.329 230.237 343.963C230.591 343.585 230.768 343.059 230.768 342.386V336.256H232.682V342.386C232.682 343.555 232.327 344.482 231.619 345.167C230.922 345.841 229.983 346.177 228.802 346.177ZM239.956 346C239.354 346 238.828 345.882 238.379 345.646C237.931 345.398 237.576 345.049 237.316 344.6C237.068 344.152 236.944 343.632 236.944 343.041V334.803H233.755V333.067H238.858V343.041C238.858 343.419 238.964 343.721 239.177 343.945C239.389 344.158 239.679 344.264 240.045 344.264H243.056V346H239.956ZM249.356 346C248.471 346 247.78 345.758 247.284 345.274C246.788 344.789 246.54 344.116 246.54 343.254V337.992H243.847V336.256H246.54V333.51H248.453V336.256H252.262V337.992H248.453V343.254C248.453 343.927 248.778 344.264 249.427 344.264H252.085V346H249.356Z" fill="white" style="fill:white;fill-opacity:1;"/>
</svg>
