<svg width="126" height="48" viewBox="0 0 126 48" fill="none" xmlns="http://www.w3.org/2000/svg">
<path d="M33.723 43.0923V17.2768H38.0374V20.99H39.0276L38.0374 22.0156C38.0374 20.436 38.5089 19.1983 39.4519 18.3024C40.3949 17.3829 41.668 16.9232 43.2712 16.9232C45.228 16.9232 46.7958 17.5951 47.9746 18.9389C49.1534 20.2828 49.7427 22.0863 49.7427 24.3496V29.6188C49.7427 31.1276 49.4716 32.4479 48.9294 33.5795C48.4107 34.6876 47.6681 35.5481 46.7015 36.161C45.7349 36.774 44.5914 37.0805 43.2712 37.0805C41.668 37.0805 40.3949 36.6326 39.4519 35.7367C38.5089 34.8172 38.0374 33.5677 38.0374 31.9881L39.0276 33.0137H38.002L38.1435 37.6463V43.0923H33.723ZM41.7152 33.2612C42.8468 33.2612 43.7309 32.9312 44.3675 32.271C45.004 31.6109 45.3223 30.6679 45.3223 29.442V24.5618C45.3223 23.3358 45.004 22.3928 44.3675 21.7327C43.7309 21.0725 42.8468 20.7425 41.7152 20.7425C40.6071 20.7425 39.7348 21.0843 39.0983 21.768C38.4617 22.4282 38.1435 23.3594 38.1435 24.5618V29.442C38.1435 30.6443 38.4617 31.5873 39.0983 32.271C39.7348 32.9312 40.6071 33.2612 41.7152 33.2612ZM62.9549 36.7269C61.6819 36.7269 60.562 36.4675 59.5954 35.9489C58.6524 35.4302 57.9097 34.6994 57.3675 33.7563C56.8252 32.7897 56.5541 31.6817 56.5541 30.4321V14.9075H50.3301V10.9114H60.9746V30.4321C60.9746 31.1394 61.175 31.7052 61.5758 32.1296C62.0001 32.5304 62.5659 32.7308 63.2732 32.7308H69.1436V36.7269H62.9549ZM76.2025 37.0805C74.1986 37.0805 72.619 36.55 71.4638 35.4891C70.3086 34.4282 69.731 33.0019 69.731 31.2101C69.731 29.3005 70.3675 27.827 71.6406 26.7897C72.9137 25.7523 74.7172 25.2337 77.0512 25.2337H81.8961V23.5716C81.8961 22.6285 81.5896 21.8977 80.9766 21.379C80.3636 20.8368 79.5267 20.5657 78.4658 20.5657C77.4992 20.5657 76.6976 20.7779 76.0611 21.2022C75.4245 21.6266 75.0473 22.2042 74.9294 22.935H70.6151C70.8272 21.0961 71.6524 19.6344 73.0905 18.5499C74.5286 17.4655 76.3675 16.9232 78.6072 16.9232C80.9884 16.9232 82.8627 17.5244 84.2301 18.7268C85.621 19.9055 86.3165 21.5087 86.3165 23.5362V36.7269H82.0375V33.332H81.3302L82.0375 32.3771C82.0375 33.8153 81.5071 34.9587 80.4462 35.8074C79.3852 36.6561 77.9707 37.0805 76.2025 37.0805ZM77.6524 33.7563C78.9019 33.7563 79.9157 33.438 80.6937 32.8015C81.4953 32.165 81.8961 31.3398 81.8961 30.326V27.9567H77.122C76.2261 27.9567 75.507 28.216 74.9648 28.7347C74.4225 29.2533 74.1514 29.937 74.1514 30.7858C74.1514 31.7052 74.4579 32.4361 75.0709 32.9783C75.7074 33.497 76.5679 33.7563 77.6524 33.7563ZM88.8489 36.7269V17.2768H93.1633V20.99H94.3656L93.1633 22.0156C93.1633 20.4124 93.623 19.1629 94.5424 18.267C95.4855 17.3711 96.7704 16.9232 98.3971 16.9232C100.307 16.9232 101.827 17.5598 102.959 18.8328C104.114 20.1059 104.692 21.8152 104.692 23.9606V36.7269H100.271V24.4203C100.271 23.2415 99.9649 22.3339 99.3519 21.6973C98.7389 21.0608 97.8784 20.7425 96.7704 20.7425C95.6859 20.7425 94.8254 21.0725 94.1888 21.7327C93.5758 22.3928 93.2694 23.3358 93.2694 24.5618V36.7269H88.8489ZM115.11 37.0451C113.46 37.0451 112.022 36.7387 110.796 36.1257C109.594 35.4891 108.651 34.605 107.967 33.4734C107.307 32.3182 106.977 30.9626 106.977 29.4066V24.5971C106.977 23.0411 107.307 21.6973 107.967 20.5657C108.651 19.4105 109.594 18.5264 110.796 17.9134C112.022 17.2768 113.46 16.9586 115.11 16.9586C116.784 16.9586 118.222 17.2768 119.425 17.9134C120.627 18.5264 121.558 19.4105 122.218 20.5657C122.902 21.6973 123.244 23.0293 123.244 24.5618V29.4066C123.244 30.9626 122.902 32.3182 122.218 33.4734C121.558 34.605 120.627 35.4891 119.425 36.1257C118.222 36.7387 116.784 37.0451 115.11 37.0451ZM115.11 33.1905C116.289 33.1905 117.197 32.8722 117.833 32.2357C118.493 31.5756 118.823 30.6325 118.823 29.4066V24.5971C118.823 23.3476 118.493 22.4046 117.833 21.768C117.197 21.1315 116.289 20.8132 115.11 20.8132C113.955 20.8132 113.047 21.1315 112.387 21.768C111.727 22.4046 111.397 23.3476 111.397 24.5971V29.4066C111.397 30.6325 111.727 31.5756 112.387 32.2357C113.047 32.8722 113.955 33.1905 115.11 33.1905Z" fill="#7780D9" style="fill:#7780D9;fill:color(display-p3 0.4667 0.5020 0.8510);fill-opacity:1;"/>
<rect y="11" width="26" height="26" fill="#7780D9" style="fill:#7780D9;fill:color(display-p3 0.4667 0.5020 0.8510);fill-opacity:1;"/>
<rect x="2" y="13" width="22" height="22" fill="#B9BFFF" style="fill:#B9BFFF;fill:color(display-p3 0.7246 0.7499 1.0000);fill-opacity:1;"/>
<path d="M3 14H5V16H3V14Z" fill="#B0B7FF" style="fill:#B0B7FF;fill:color(display-p3 0.6897 0.7182 1.0000);fill-opacity:1;"/>
<path d="M3 17H5V19H3V17Z" fill="#B0B7FF" style="fill:#B0B7FF;fill:color(display-p3 0.6897 0.7182 1.0000);fill-opacity:1;"/>
<path d="M3 20H5V22H3V20Z" fill="#B0B7FF" style="fill:#B0B7FF;fill:color(display-p3 0.6897 0.7182 1.0000);fill-opacity:1;"/>
<path d="M3 23H5V25H3V23Z" fill="#ABB2FA" style="fill:#ABB2FA;fill:color(display-p3 0.6706 0.6990 0.9799);fill-opacity:1;"/>
<path d="M3 26H5V28H3V26Z" fill="#ABB2FA" style="fill:#ABB2FA;fill:color(display-p3 0.6706 0.6990 0.9799);fill-opacity:1;"/>
<path d="M3 29H5V31H3V29Z" fill="#ABB2FA" style="fill:#ABB2FA;fill:color(display-p3 0.6706 0.6990 0.9799);fill-opacity:1;"/>
<path d="M3 32H5V34H3V32Z" fill="#969FF4" style="fill:#969FF4;fill:color(display-p3 0.5882 0.6220 0.9566);fill-opacity:1;"/>
<path d="M12 14H14V16H12V14Z" fill="#ABB2FA" style="fill:#ABB2FA;fill:color(display-p3 0.6706 0.6990 0.9799);fill-opacity:1;"/>
<path d="M12 17H14V19H12V17Z" fill="#ABB2FA" style="fill:#ABB2FA;fill:color(display-p3 0.6706 0.6990 0.9799);fill-opacity:1;"/>
<path d="M12 20H14V22H12V20Z" fill="#ABB2FA" style="fill:#ABB2FA;fill:color(display-p3 0.6706 0.6990 0.9799);fill-opacity:1;"/>
<path d="M12 23H14V25H12V23Z" fill="#969FF4" style="fill:#969FF4;fill:color(display-p3 0.5882 0.6220 0.9566);fill-opacity:1;"/>
<path d="M12 26H14V28H12V26Z" fill="#969FF4" style="fill:#969FF4;fill:color(display-p3 0.5882 0.6220 0.9566);fill-opacity:1;"/>
<path d="M12 29H14V31H12V29Z" fill="#969FF4" style="fill:#969FF4;fill:color(display-p3 0.5882 0.6220 0.9566);fill-opacity:1;"/>
<path d="M12 32H14V34H12V32Z" fill="#969FF4" style="fill:#969FF4;fill:color(display-p3 0.5882 0.6220 0.9566);fill-opacity:1;"/>
<path d="M6 14H8V16H6V14Z" fill="#B0B7FF" style="fill:#B0B7FF;fill:color(display-p3 0.6897 0.7182 1.0000);fill-opacity:1;"/>
<path d="M6 17H8V19H6V17Z" fill="#B0B7FF" style="fill:#B0B7FF;fill:color(display-p3 0.6897 0.7182 1.0000);fill-opacity:1;"/>
<path d="M6 20H8V22H6V20Z" fill="#ABB2FA" style="fill:#ABB2FA;fill:color(display-p3 0.6706 0.6990 0.9799);fill-opacity:1;"/>
<path d="M6 23H8V25H6V23Z" fill="#ABB2FA" style="fill:#ABB2FA;fill:color(display-p3 0.6706 0.6990 0.9799);fill-opacity:1;"/>
<path d="M6 26H8V28H6V26Z" fill="#ABB2FA" style="fill:#ABB2FA;fill:color(display-p3 0.6706 0.6990 0.9799);fill-opacity:1;"/>
<path d="M6 29H8V31H6V29Z" fill="#969FF4" style="fill:#969FF4;fill:color(display-p3 0.5882 0.6220 0.9566);fill-opacity:1;"/>
<path d="M6 32H8V34H6V32Z" fill="#969FF4" style="fill:#969FF4;fill:color(display-p3 0.5882 0.6220 0.9566);fill-opacity:1;"/>
<path d="M15 14H17V16H15V14Z" fill="#ABB2FA" style="fill:#ABB2FA;fill:color(display-p3 0.6706 0.6990 0.9799);fill-opacity:1;"/>
<path d="M15 17H17V19H15V17Z" fill="#ABB2FA" style="fill:#ABB2FA;fill:color(display-p3 0.6706 0.6990 0.9799);fill-opacity:1;"/>
<path d="M15 20H17V22H15V20Z" fill="#969FF4" style="fill:#969FF4;fill:color(display-p3 0.5882 0.6220 0.9566);fill-opacity:1;"/>
<path d="M15 23H17V25H15V23Z" fill="#969FF4" style="fill:#969FF4;fill:color(display-p3 0.5882 0.6220 0.9566);fill-opacity:1;"/>
<path d="M15 26H17V28H15V26Z" fill="#969FF4" style="fill:#969FF4;fill:color(display-p3 0.5882 0.6220 0.9566);fill-opacity:1;"/>
<path d="M15 29H17V31H15V29Z" fill="#969FF4" style="fill:#969FF4;fill:color(display-p3 0.5882 0.6220 0.9566);fill-opacity:1;"/>
<path d="M15 32H17V34H15V32Z" fill="#969FF4" style="fill:#969FF4;fill:color(display-p3 0.5882 0.6220 0.9566);fill-opacity:1;"/>
<path d="M9 14H11V16H9V14Z" fill="#B0B7FF" style="fill:#B0B7FF;fill:color(display-p3 0.6897 0.7182 1.0000);fill-opacity:1;"/>
<path d="M9 17H11V19H9V17Z" fill="#ABB2FA" style="fill:#ABB2FA;fill:color(display-p3 0.6706 0.6990 0.9799);fill-opacity:1;"/>
<path d="M9 20H11V22H9V20Z" fill="#ABB2FA" style="fill:#ABB2FA;fill:color(display-p3 0.6706 0.6990 0.9799);fill-opacity:1;"/>
<path d="M9 23H11V25H9V23Z" fill="#ABB2FA" style="fill:#ABB2FA;fill:color(display-p3 0.6706 0.6990 0.9799);fill-opacity:1;"/>
<path d="M9 26H11V28H9V26Z" fill="#969FF4" style="fill:#969FF4;fill:color(display-p3 0.5882 0.6220 0.9566);fill-opacity:1;"/>
<path d="M9 29H11V31H9V29Z" fill="#969FF4" style="fill:#969FF4;fill:color(display-p3 0.5882 0.6220 0.9566);fill-opacity:1;"/>
<path d="M9 32H11V34H9V32Z" fill="#969FF4" style="fill:#969FF4;fill:color(display-p3 0.5882 0.6220 0.9566);fill-opacity:1;"/>
<path d="M18 14H20V16H18V14Z" fill="#ABB2FA" style="fill:#ABB2FA;fill:color(display-p3 0.6706 0.6990 0.9799);fill-opacity:1;"/>
<path d="M18 17H20V19H18V17Z" fill="#969FF4" style="fill:#969FF4;fill:color(display-p3 0.5882 0.6220 0.9566);fill-opacity:1;"/>
<path d="M18 20H20V22H18V20Z" fill="#969FF4" style="fill:#969FF4;fill:color(display-p3 0.5882 0.6220 0.9566);fill-opacity:1;"/>
<path d="M18 23H20V25H18V23Z" fill="#969FF4" style="fill:#969FF4;fill:color(display-p3 0.5882 0.6220 0.9566);fill-opacity:1;"/>
<path d="M18 26H20V28H18V26Z" fill="#969FF4" style="fill:#969FF4;fill:color(display-p3 0.5882 0.6220 0.9566);fill-opacity:1;"/>
<path d="M18 29H20V31H18V29Z" fill="#969FF4" style="fill:#969FF4;fill:color(display-p3 0.5882 0.6220 0.9566);fill-opacity:1;"/>
<path d="M18 32H20V34H18V32Z" fill="#969FF4" style="fill:#969FF4;fill:color(display-p3 0.5882 0.6220 0.9566);fill-opacity:1;"/>
<path d="M21 14H23V16H21V14Z" fill="#969FF4" style="fill:#969FF4;fill:color(display-p3 0.5882 0.6220 0.9566);fill-opacity:1;"/>
<path d="M21 17H23V19H21V17Z" fill="#969FF4" style="fill:#969FF4;fill:color(display-p3 0.5882 0.6220 0.9566);fill-opacity:1;"/>
<path d="M21 20H23V22H21V20Z" fill="#969FF4" style="fill:#969FF4;fill:color(display-p3 0.5882 0.6220 0.9566);fill-opacity:1;"/>
<path d="M21 23H23V25H21V23Z" fill="#969FF4" style="fill:#969FF4;fill:color(display-p3 0.5882 0.6220 0.9566);fill-opacity:1;"/>
<path d="M21 26H23V28H21V26Z" fill="#969FF4" style="fill:#969FF4;fill:color(display-p3 0.5882 0.6220 0.9566);fill-opacity:1;"/>
<path d="M21 29H23V31H21V29Z" fill="#969FF4" style="fill:#969FF4;fill:color(display-p3 0.5882 0.6220 0.9566);fill-opacity:1;"/>
<path d="M21 32H23V34H21V32Z" fill="#969FF4" style="fill:#969FF4;fill:color(display-p3 0.5882 0.6220 0.9566);fill-opacity:1;"/>
</svg>
