<svg width="674" height="161" viewBox="0 0 674 161" fill="none" xmlns="http://www.w3.org/2000/svg">
<mask id="path-1-outside-1_37_143" maskUnits="userSpaceOnUse" x="-0.310547" y="-0.625" width="674" height="247" fill="black">
<rect fill="white" x="-0.310547" y="-0.625" width="674" height="247"/>
<path d="M2.98285 242.814V50.4222H35.136V78.095H42.5154L35.136 85.7379C35.136 73.966 38.65 64.7417 45.6781 58.0651C52.7061 51.2128 62.1939 47.7866 74.1415 47.7866C88.7247 47.7866 100.409 52.7941 109.194 62.809C117.979 72.824 122.371 86.265 122.371 103.132V142.401C122.371 153.646 120.351 163.485 116.31 171.919C112.444 180.177 106.91 186.59 99.7059 191.158C92.5022 195.726 83.9807 198.011 74.1415 198.011C62.1939 198.011 52.7061 194.672 45.6781 187.996C38.65 181.143 35.136 171.831 35.136 160.059L42.5154 167.702H34.8725L35.9267 202.227V242.814H2.98285ZM62.5453 169.547C70.9789 169.547 77.5677 167.087 82.3116 162.168C87.0555 157.248 89.4275 150.22 89.4275 141.084V104.714C89.4275 95.5772 87.0555 88.5491 82.3116 83.6295C77.5677 78.7099 70.9789 76.2501 62.5453 76.2501C54.2874 76.2501 47.7865 78.7978 43.0426 83.8931C38.2986 88.8127 35.9267 95.7529 35.9267 104.714V141.084C35.9267 150.044 38.2986 157.072 43.0426 162.168C47.7865 167.087 54.2874 169.547 62.5453 169.547ZM220.836 195.375C211.348 195.375 203.003 193.442 195.799 189.577C188.771 185.711 183.236 180.265 179.195 173.237C175.154 166.033 173.134 157.775 173.134 148.463V32.7643H126.749V2.98304H206.077V148.463C206.077 153.734 207.571 157.951 210.558 161.113C213.72 164.1 217.937 165.594 223.208 165.594H266.958V195.375H220.836ZM319.565 198.011C304.63 198.011 292.858 194.057 284.249 186.151C275.64 178.244 271.335 167.614 271.335 154.261C271.335 140.029 276.079 129.048 285.567 121.317C295.055 113.586 308.496 109.721 325.89 109.721H361.996V97.3342C361.996 90.3061 359.712 84.8594 355.144 80.994C350.576 76.9529 344.339 74.9324 336.432 74.9324C329.228 74.9324 323.255 76.5137 318.511 79.6763C313.767 82.8389 310.956 87.1435 310.077 92.5903H277.924C279.505 78.8856 285.655 67.9922 296.372 59.91C307.09 51.8278 320.795 47.7866 337.486 47.7866C355.232 47.7866 369.2 52.267 379.391 61.2277C389.757 70.0127 394.94 81.9604 394.94 97.0706V195.375H363.051V170.074H357.78L363.051 162.958C363.051 173.676 359.097 182.197 351.191 188.523C343.284 194.848 332.742 198.011 319.565 198.011ZM330.37 173.237C339.683 173.237 347.238 170.865 353.036 166.121C359.01 161.377 361.996 155.227 361.996 147.672V130.014H326.417C319.741 130.014 314.382 131.947 310.341 135.813C306.299 139.678 304.279 144.773 304.279 151.098C304.279 157.951 306.563 163.398 311.131 167.439C315.875 171.304 322.288 173.237 330.37 173.237ZM413.813 195.375V50.4222H445.966V78.095H454.927L445.966 85.7379C445.966 73.7903 449.392 64.4782 456.245 57.8016C463.273 51.125 472.848 47.7866 484.972 47.7866C499.203 47.7866 510.536 52.5306 518.97 62.0184C527.579 71.5062 531.884 84.2445 531.884 100.233V195.375H498.94V103.659C498.94 94.8744 496.656 88.1099 492.088 83.366C487.519 78.6221 481.106 76.2501 472.848 76.2501C464.766 76.2501 458.353 78.7099 453.609 83.6295C449.041 88.5491 446.757 95.5772 446.757 104.714V195.375H413.813ZM609.528 197.747C597.229 197.747 586.511 195.463 577.375 190.895C568.414 186.151 561.386 179.562 556.291 171.128C551.371 162.519 548.912 152.416 548.912 140.82V104.977C548.912 93.3809 551.371 83.366 556.291 74.9324C561.386 66.323 568.414 59.7343 577.375 55.1661C586.511 50.4222 597.229 48.0502 609.528 48.0502C622.003 48.0502 632.721 50.4222 641.681 55.1661C650.642 59.7343 657.582 66.323 662.502 74.9324C667.597 83.366 670.145 93.2931 670.145 104.714V140.82C670.145 152.416 667.597 162.519 662.502 171.128C657.582 179.562 650.642 186.151 641.681 190.895C632.721 195.463 622.003 197.747 609.528 197.747ZM609.528 169.02C618.313 169.02 625.078 166.648 629.822 161.904C634.741 156.984 637.201 149.956 637.201 140.82V104.977C637.201 95.665 634.741 88.637 629.822 83.8931C625.078 79.1492 618.313 76.7772 609.528 76.7772C600.919 76.7772 594.154 79.1492 589.235 83.8931C584.315 88.637 581.855 95.665 581.855 104.977V140.82C581.855 149.956 584.315 156.984 589.235 161.904C594.154 166.648 600.919 169.02 609.528 169.02Z"/>
</mask>
<path d="M2.98285 242.814H-3.60328e-06V245.797H2.98285V242.814ZM2.98285 50.4222V47.4393H-3.60328e-06V50.4222H2.98285ZM35.136 50.4222H38.1189V47.4393H35.136V50.4222ZM35.136 78.095H32.1532V81.0778H35.136V78.095ZM42.5154 78.095L44.6613 80.1668L49.5418 75.1121H42.5154V78.095ZM35.136 85.7379H32.1532V93.1217L37.2819 87.8098L35.136 85.7379ZM45.6781 58.0651L47.7325 60.2277L47.7465 60.2144L47.7604 60.2008L45.6781 58.0651ZM109.194 62.809L111.436 60.842L111.436 60.842L109.194 62.809ZM116.31 171.919L113.62 170.63L113.614 170.642L113.608 170.654L116.31 171.919ZM99.7059 191.158L101.303 193.677L101.303 193.677L99.7059 191.158ZM45.6781 187.996L43.5957 190.131L43.6096 190.145L43.6236 190.158L45.6781 187.996ZM35.136 160.059L37.2819 157.987L32.1532 152.675V160.059H35.136ZM42.5154 167.702V170.685H49.5418L44.6613 165.63L42.5154 167.702ZM34.8725 167.702V164.719H31.7972L31.891 167.793L34.8725 167.702ZM35.9267 202.227H38.9095V202.182L38.9081 202.136L35.9267 202.227ZM35.9267 242.814V245.797H38.9095V242.814H35.9267ZM82.3116 162.168L84.4588 164.238L84.4588 164.238L82.3116 162.168ZM43.0426 83.8931L45.1897 85.9636L45.2079 85.9448L45.2257 85.9257L43.0426 83.8931ZM43.0426 162.168L40.8594 164.2L40.8772 164.219L40.8954 164.238L43.0426 162.168ZM2.98285 242.814H5.96571V50.4222H2.98285H-3.60328e-06V242.814H2.98285ZM2.98285 50.4222V53.405H35.136V50.4222V47.4393H2.98285V50.4222ZM35.136 50.4222H32.1532V78.095H35.136H38.1189V50.4222H35.136ZM35.136 78.095V81.0778H42.5154V78.095V75.1121H35.136V78.095ZM42.5154 78.095L40.3696 76.0231L32.9902 83.6661L35.136 85.7379L37.2819 87.8098L44.6613 80.1668L42.5154 78.095ZM35.136 85.7379H38.1189C38.1189 74.5952 41.4213 66.2234 47.7325 60.2277L45.6781 58.0651L43.6236 55.9025C35.8788 63.2601 32.1532 73.3368 32.1532 85.7379H35.136ZM45.6781 58.0651L47.7604 60.2008C54.1149 54.0052 62.7926 50.7695 74.1415 50.7695V47.7866V44.8038C61.5952 44.8038 51.2972 48.4204 43.5957 55.9294L45.6781 58.0651ZM74.1415 47.7866V50.7695C87.9572 50.7695 98.7903 55.4724 106.951 64.776L109.194 62.809L111.436 60.842C102.027 50.1158 89.4921 44.8038 74.1415 44.8038V47.7866ZM109.194 62.809L106.951 64.776C115.143 74.114 119.388 86.7901 119.388 103.132H122.371H125.354C125.354 85.7399 120.815 71.5339 111.436 60.842L109.194 62.809ZM122.371 103.132H119.388V142.401H122.371H125.354V103.132H122.371ZM122.371 142.401H119.388C119.388 153.289 117.433 162.672 113.62 170.63L116.31 171.919L119 173.208C123.269 164.299 125.354 154.003 125.354 142.401H122.371ZM116.31 171.919L113.608 170.654C109.966 178.435 104.799 184.397 98.1085 188.639L99.7059 191.158L101.303 193.677C109.021 188.783 114.922 181.919 119.011 173.184L116.31 171.919ZM99.7059 191.158L98.1085 188.639C91.4523 192.86 83.5038 195.028 74.1415 195.028V198.011V200.993C84.4577 200.993 93.5522 198.593 101.303 193.677L99.7059 191.158ZM74.1415 198.011V195.028C62.7714 195.028 54.0839 191.867 47.7325 185.833L45.6781 187.996L43.6236 190.158C51.3283 197.478 61.6164 200.993 74.1415 200.993V198.011ZM45.6781 187.996L47.7604 185.86C41.4208 179.679 38.1189 171.199 38.1189 160.059H35.136H32.1532C32.1532 172.463 35.8793 182.608 43.5957 190.131L45.6781 187.996ZM35.136 160.059L32.9902 162.131L40.3696 169.774L42.5154 167.702L44.6613 165.63L37.2819 157.987L35.136 160.059ZM42.5154 167.702V164.719H34.8725V167.702V170.685H42.5154V167.702ZM34.8725 167.702L31.891 167.793L32.9452 202.318L35.9267 202.227L38.9081 202.136L37.8539 167.611L34.8725 167.702ZM35.9267 202.227H32.9438V242.814H35.9267H38.9095V202.227H35.9267ZM35.9267 242.814V239.831H2.98285V242.814V245.797H35.9267V242.814ZM62.5453 169.547V172.53C71.5866 172.53 79.0263 169.872 84.4588 164.238L82.3116 162.168L80.1644 160.097C76.1091 164.303 70.3712 166.564 62.5453 166.564V169.547ZM82.3116 162.168L84.4588 164.238C89.8993 158.596 92.4103 150.725 92.4103 141.084H89.4275H86.4446C86.4446 149.715 84.2118 155.9 80.1644 160.097L82.3116 162.168ZM89.4275 141.084H92.4103V104.714H89.4275H86.4446V141.084H89.4275ZM89.4275 104.714H92.4103C92.4103 95.0719 89.8993 87.201 84.4588 81.559L82.3116 83.6295L80.1644 85.7C84.2118 89.8973 86.4446 96.0824 86.4446 104.714H89.4275ZM82.3116 83.6295L84.4588 81.559C79.0263 75.9253 71.5866 73.2673 62.5453 73.2673V76.2501V79.233C70.3712 79.233 76.1091 81.4945 80.1644 85.7L82.3116 83.6295ZM62.5453 76.2501V73.2673C53.6268 73.2673 46.2724 76.0465 40.8594 81.8605L43.0426 83.8931L45.2257 85.9257C49.3005 81.549 54.9479 79.233 62.5453 79.233V76.2501ZM43.0426 83.8931L40.8954 81.8226C35.4647 87.4544 32.9438 95.2289 32.9438 104.714H35.9267H38.9095C38.9095 96.2768 41.1326 90.171 45.1897 85.9636L43.0426 83.8931ZM35.9267 104.714H32.9438V141.084H35.9267H38.9095V104.714H35.9267ZM35.9267 141.084H32.9438C32.9438 150.574 35.4669 158.408 40.8594 164.2L43.0426 162.168L45.2257 160.135C41.1304 155.736 38.9095 149.514 38.9095 141.084H35.9267ZM43.0426 162.168L40.8954 164.238C46.3159 169.859 53.6587 172.53 62.5453 172.53V169.547V166.564C54.9161 166.564 49.257 164.315 45.1897 160.097L43.0426 162.168ZM195.799 189.577L194.361 192.191L194.375 192.198L194.389 192.205L195.799 189.577ZM179.195 173.237L176.594 174.696L176.602 174.71L176.609 174.724L179.195 173.237ZM173.134 32.7643H176.116V29.7814H173.134V32.7643ZM126.749 32.7643H123.766V35.7471H126.749V32.7643ZM126.749 2.98304V0.000179061H123.766V2.98304H126.749ZM206.077 2.98304H209.06V0.000179061H206.077V2.98304ZM210.558 161.113L208.389 163.162L208.448 163.223L208.51 163.282L210.558 161.113ZM266.958 165.594H269.941V162.611H266.958V165.594ZM266.958 195.375V198.358H269.941V195.375H266.958ZM220.836 195.375V192.392C211.761 192.392 203.914 190.546 197.209 186.949L195.799 189.577L194.389 192.205C202.091 196.338 210.936 198.358 220.836 198.358V195.375ZM195.799 189.577L197.236 186.963C190.693 183.364 185.553 178.31 181.781 171.75L179.195 173.237L176.609 174.724C180.92 182.22 186.849 188.059 194.361 192.191L195.799 189.577ZM179.195 173.237L181.797 171.777C178.036 165.074 176.116 157.33 176.116 148.463H173.134H170.151C170.151 158.22 172.272 166.992 176.594 174.696L179.195 173.237ZM173.134 148.463H176.116V32.7643H173.134H170.151V148.463H173.134ZM173.134 32.7643V29.7814H126.749V32.7643V35.7471H173.134V32.7643ZM126.749 32.7643H129.732V2.98304H126.749H123.766V32.7643H126.749ZM126.749 2.98304V5.96589H206.077V2.98304V0.000179061H126.749V2.98304ZM206.077 2.98304H203.095V148.463H206.077H209.06V2.98304H206.077ZM206.077 148.463H203.095C203.095 154.325 204.773 159.333 208.389 163.162L210.558 161.113L212.726 159.065C210.369 156.569 209.06 153.143 209.06 148.463H206.077ZM210.558 161.113L208.51 163.282C212.339 166.898 217.346 168.577 223.208 168.577V165.594V162.611C218.528 162.611 215.102 161.302 212.606 158.945L210.558 161.113ZM223.208 165.594V168.577H266.958V165.594V162.611H223.208V165.594ZM266.958 165.594H263.975V195.375H266.958H269.941V165.594H266.958ZM266.958 195.375V192.392H220.836V195.375V198.358H266.958V195.375ZM284.249 186.151L282.231 188.348L282.231 188.348L284.249 186.151ZM285.567 121.317L287.451 123.63L287.451 123.63L285.567 121.317ZM361.996 109.721V112.704H364.979V109.721H361.996ZM355.144 80.994L353.168 83.2282L353.192 83.2499L353.217 83.2711L355.144 80.994ZM318.511 79.6763L320.165 82.1582L320.165 82.1582L318.511 79.6763ZM310.077 92.5903V95.5731H312.617L313.022 93.0652L310.077 92.5903ZM277.924 92.5903L274.961 92.2483L274.577 95.5731H277.924V92.5903ZM296.372 59.91L298.168 62.2916L298.168 62.2916L296.372 59.91ZM379.391 61.2277L377.421 63.4678L377.442 63.4857L377.462 63.5033L379.391 61.2277ZM394.94 195.375V198.358H397.923V195.375H394.94ZM363.051 195.375H360.068V198.358H363.051V195.375ZM363.051 170.074H366.034V167.091H363.051V170.074ZM357.78 170.074L355.383 168.299L351.858 173.057H357.78V170.074ZM363.051 162.958H366.034V153.92L360.654 161.183L363.051 162.958ZM351.191 188.523L353.054 190.852L353.054 190.852L351.191 188.523ZM353.036 166.121L351.181 163.785L351.164 163.798L351.147 163.812L353.036 166.121ZM361.996 130.014H364.979V127.032H361.996V130.014ZM311.131 167.439L309.155 169.673L309.2 169.713L309.247 169.751L311.131 167.439ZM319.565 198.011V195.028C305.163 195.028 294.186 191.226 286.267 183.954L284.249 186.151L282.231 188.348C291.531 196.888 304.098 200.993 319.565 200.993V198.011ZM284.249 186.151L286.267 183.954C278.363 176.695 274.318 166.91 274.318 154.261H271.335H268.352C268.352 168.318 272.917 179.793 282.231 188.348L284.249 186.151ZM271.335 154.261H274.318C274.318 140.763 278.776 130.698 287.451 123.63L285.567 121.317L283.683 119.005C273.382 127.398 268.352 139.296 268.352 154.261H271.335ZM285.567 121.317L287.451 123.63C296.222 116.483 308.899 112.704 325.89 112.704V109.721V106.738C308.093 106.738 293.887 110.69 283.683 119.005L285.567 121.317ZM325.89 109.721V112.704H361.996V109.721V106.738H325.89V109.721ZM361.996 109.721H364.979V97.3342H361.996H359.014V109.721H361.996ZM361.996 97.3342H364.979C364.979 89.5983 362.428 83.2502 357.071 78.717L355.144 80.994L353.217 83.2711C356.996 86.4687 359.014 91.014 359.014 97.3342H361.996ZM355.144 80.994L357.121 78.7599C351.861 74.1076 344.846 71.9495 336.432 71.9495V74.9324V77.9152C343.832 77.9152 349.29 79.7982 353.168 83.2282L355.144 80.994ZM336.432 74.9324V71.9495C328.794 71.9495 322.205 73.6287 316.856 77.1944L318.511 79.6763L320.165 82.1582C324.304 79.3987 329.662 77.9152 336.432 77.9152V74.9324ZM318.511 79.6763L316.856 77.1944C311.448 80.7999 308.148 85.8188 307.132 92.1153L310.077 92.5903L313.022 93.0652C313.763 88.4683 316.086 84.8778 320.165 82.1582L318.511 79.6763ZM310.077 92.5903V89.6074H277.924V92.5903V95.5731H310.077V92.5903ZM277.924 92.5903L280.887 92.9322C282.378 80.0132 288.123 69.8671 298.168 62.2916L296.372 59.91L294.576 57.5284C283.187 66.1173 276.633 77.7581 274.961 92.2483L277.924 92.5903ZM296.372 59.91L298.168 62.2916C308.254 54.6863 321.282 50.7695 337.486 50.7695V47.7866V44.8038C320.307 44.8038 305.927 48.9693 294.576 57.5284L296.372 59.91ZM337.486 47.7866V50.7695C354.735 50.7695 367.925 55.1174 377.421 63.4678L379.391 61.2277L381.361 58.9877C370.476 49.4166 355.729 44.8038 337.486 44.8038V47.7866ZM379.391 61.2277L377.462 63.5033C387.08 71.6538 391.957 82.7265 391.957 97.0706H394.94H397.923C397.923 81.1943 392.434 68.3717 381.319 58.9521L379.391 61.2277ZM394.94 97.0706H391.957V195.375H394.94H397.923V97.0706H394.94ZM394.94 195.375V192.392H363.051V195.375V198.358H394.94V195.375ZM363.051 195.375H366.034V170.074H363.051H360.068V195.375H363.051ZM363.051 170.074V167.091H357.78V170.074V173.057H363.051V170.074ZM357.78 170.074L360.177 171.85L365.448 164.734L363.051 162.958L360.654 161.183L355.383 168.299L357.78 170.074ZM363.051 162.958H360.068C360.068 172.831 356.48 180.471 349.328 186.193L351.191 188.523L353.054 190.852C361.715 183.924 366.034 174.521 366.034 162.958H363.051ZM351.191 188.523L349.328 186.193C342.091 191.983 332.271 195.028 319.565 195.028V198.011V200.993C333.214 200.993 344.478 197.713 353.054 190.852L351.191 188.523ZM330.37 173.237V176.22C340.199 176.22 348.474 173.707 354.925 168.429L353.036 166.121L351.147 163.812C346.001 168.022 339.166 170.254 330.37 170.254V173.237ZM353.036 166.121L354.891 168.457C361.569 163.153 364.979 156.148 364.979 147.672H361.996H359.014C359.014 154.307 356.45 159.601 351.181 163.785L353.036 166.121ZM361.996 147.672H364.979V130.014H361.996H359.014V147.672H361.996ZM361.996 130.014V127.032H326.417V130.014V132.997H361.996V130.014ZM326.417 130.014V127.032C319.131 127.032 312.98 129.16 308.279 133.657L310.341 135.813L312.402 137.968C315.783 134.734 320.35 132.997 326.417 132.997V130.014ZM310.341 135.813L308.279 133.657C303.57 138.161 301.296 144.076 301.296 151.098H304.279H307.262C307.262 145.47 309.029 141.195 312.402 137.968L310.341 135.813ZM304.279 151.098H301.296C301.296 158.688 303.864 164.992 309.155 169.673L311.131 167.439L313.108 165.204C309.262 161.803 307.262 157.214 307.262 151.098H304.279ZM311.131 167.439L309.247 169.751C314.673 174.172 321.823 176.22 330.37 176.22V173.237V170.254C322.753 170.254 317.077 168.436 313.015 165.126L311.131 167.439ZM413.813 195.375H410.83V198.358H413.813V195.375ZM413.813 50.4222V47.4393H410.83V50.4222H413.813ZM445.966 50.4222H448.949V47.4393H445.966V50.4222ZM445.966 78.095H442.983V81.0778H445.966V78.095ZM454.927 78.095L456.863 80.3644L463.02 75.1121H454.927V78.095ZM445.966 85.7379H442.983V92.2027L447.902 88.0074L445.966 85.7379ZM456.245 57.8016L454.19 55.639L454.177 55.652L454.163 55.6652L456.245 57.8016ZM518.97 62.0184L516.74 64.0001L516.75 64.0115L516.761 64.0228L518.97 62.0184ZM531.884 195.375V198.358H534.867V195.375H531.884ZM498.94 195.375H495.957V198.358H498.94V195.375ZM492.088 83.366L489.939 85.435L489.939 85.435L492.088 83.366ZM453.609 83.6295L451.462 81.559L451.442 81.5792L451.423 81.5998L453.609 83.6295ZM446.757 195.375V198.358H449.74V195.375H446.757ZM413.813 195.375H416.796V50.4222H413.813H410.83V195.375H413.813ZM413.813 50.4222V53.405H445.966V50.4222V47.4393H413.813V50.4222ZM445.966 50.4222H442.983V78.095H445.966H448.949V50.4222H445.966ZM445.966 78.095V81.0778H454.927V78.095V75.1121H445.966V78.095ZM454.927 78.095L452.991 75.8255L444.03 83.4685L445.966 85.7379L447.902 88.0074L456.863 80.3644L454.927 78.095ZM445.966 85.7379H448.949C448.949 74.3825 452.186 65.9205 458.326 59.938L456.245 57.8016L454.163 55.6652C446.598 63.0359 442.983 73.1981 442.983 85.7379H445.966ZM456.245 57.8016L458.299 59.9641C464.643 53.9379 473.412 50.7695 484.972 50.7695V47.7866V44.8038C472.285 44.8038 461.903 48.312 454.19 55.639L456.245 57.8016ZM484.972 47.7866V50.7695C498.466 50.7695 508.945 55.2302 516.74 64.0001L518.97 62.0184L521.199 60.0367C512.127 49.8309 499.94 44.8038 484.972 44.8038V47.7866ZM518.97 62.0184L516.761 64.0228C524.757 72.8349 528.901 84.7942 528.901 100.233H531.884H534.867C534.867 83.6948 530.401 70.1775 521.179 60.0139L518.97 62.0184ZM531.884 100.233H528.901V195.375H531.884H534.867V100.233H531.884ZM531.884 195.375V192.392H498.94V195.375V198.358H531.884V195.375ZM498.94 195.375H501.923V103.659H498.94H495.957V195.375H498.94ZM498.94 103.659H501.923C501.923 94.3674 499.499 86.7619 494.236 81.2969L492.088 83.366L489.939 85.435C493.813 89.4579 495.957 95.3813 495.957 103.659H498.94ZM492.088 83.366L494.236 81.2969C488.97 75.8285 481.698 73.2673 472.848 73.2673V76.2501V79.233C480.514 79.233 486.068 81.4156 489.939 85.435L492.088 83.366ZM472.848 76.2501V73.2673C464.116 73.2673 456.87 75.9505 451.462 81.559L453.609 83.6295L455.756 85.7C459.836 81.4693 465.416 79.233 472.848 79.233V76.2501ZM453.609 83.6295L451.423 81.5998C446.182 87.2445 443.774 95.0998 443.774 104.714H446.757H449.74C449.74 96.0545 451.9 89.8538 455.795 85.6592L453.609 83.6295ZM446.757 104.714H443.774V195.375H446.757H449.74V104.714H446.757ZM446.757 195.375V192.392H413.813V195.375V198.358H446.757V195.375ZM577.375 190.895L575.979 193.531L576.01 193.547L576.041 193.563L577.375 190.895ZM556.291 171.128L553.701 172.608L553.719 172.64L553.738 172.671L556.291 171.128ZM556.291 74.9324L553.724 73.4131L553.719 73.4212L553.714 73.4294L556.291 74.9324ZM577.375 55.1661L578.73 57.8235L578.74 57.8185L578.75 57.8133L577.375 55.1661ZM641.681 55.1661L640.286 57.8023L640.306 57.8131L640.327 57.8235L641.681 55.1661ZM662.502 74.9324L659.912 76.4123L659.93 76.4438L659.949 76.4748L662.502 74.9324ZM662.502 171.128L659.935 169.609L659.93 169.617L659.925 169.625L662.502 171.128ZM641.681 190.895L643.036 193.552L643.057 193.542L643.077 193.531L641.681 190.895ZM629.822 161.904L627.712 159.795L627.712 159.795L629.822 161.904ZM629.822 83.8931L627.712 86.0023L627.732 86.0215L627.751 86.0403L629.822 83.8931ZM589.235 83.8931L591.305 86.0403L591.305 86.0403L589.235 83.8931ZM589.235 161.904L587.126 164.013L587.145 164.032L587.164 164.051L589.235 161.904ZM609.528 197.747V194.764C597.599 194.764 587.355 192.55 578.709 188.227L577.375 190.895L576.041 193.563C585.668 198.376 596.86 200.73 609.528 200.73V197.747ZM577.375 190.895L578.771 188.258C570.273 183.76 563.651 177.543 558.844 169.586L556.291 171.128L553.738 172.671C559.121 181.581 566.555 188.542 575.979 193.531L577.375 190.895ZM556.291 171.128L558.881 169.648C554.259 161.561 551.894 151.986 551.894 140.82H548.912H545.929C545.929 152.847 548.483 163.477 553.701 172.608L556.291 171.128ZM548.912 140.82H551.894V104.977H548.912H545.929V140.82H548.912ZM548.912 104.977H551.894C551.894 93.8094 554.26 84.3338 558.868 76.4353L556.291 74.9324L553.714 73.4294C548.483 82.3982 545.929 92.9524 545.929 104.977H548.912ZM556.291 74.9324L558.858 76.4516C563.664 68.3317 570.27 62.1363 578.73 57.8235L577.375 55.1661L576.02 52.5086C566.559 57.3322 559.109 64.3144 553.724 73.4131L556.291 74.9324ZM577.375 55.1661L578.75 57.8133C587.386 53.3289 597.615 51.0331 609.528 51.0331V48.0502V45.0673C596.843 45.0673 585.637 47.5154 576 52.5188L577.375 55.1661ZM609.528 48.0502V51.0331C621.627 51.0331 631.843 53.3326 640.286 57.8023L641.681 55.1661L643.077 52.5299C633.598 47.5117 622.379 45.0673 609.528 45.0673V48.0502ZM641.681 55.1661L640.327 57.8235C648.778 62.1319 655.285 68.315 659.912 76.4123L662.502 74.9324L665.092 73.4524C659.88 64.3311 652.507 57.3367 643.036 52.5086L641.681 55.1661ZM662.502 74.9324L659.949 76.4748C664.721 84.3732 667.162 93.7489 667.162 104.714H670.145H673.128C673.128 92.8372 670.474 82.3587 665.055 73.3899L662.502 74.9324ZM670.145 104.714H667.162V140.82H670.145H673.128V104.714H670.145ZM670.145 140.82H667.162C667.162 151.968 664.717 161.529 659.935 169.609L662.502 171.128L665.069 172.648C670.477 163.509 673.128 152.865 673.128 140.82H670.145ZM662.502 171.128L659.925 169.625C655.297 177.559 648.775 183.764 640.286 188.258L641.681 190.895L643.077 193.531C652.509 188.537 659.867 181.564 665.078 172.631L662.502 171.128ZM641.681 190.895L640.327 188.237C631.874 192.546 621.643 194.764 609.528 194.764V197.747V200.73C622.363 200.73 633.567 198.379 643.036 193.552L641.681 190.895ZM609.528 169.02V172.003C618.85 172.003 626.47 169.474 631.931 164.013L629.822 161.904L627.712 159.795C623.685 163.822 617.777 166.037 609.528 166.037V169.02ZM629.822 161.904L631.931 164.013C637.569 158.375 640.184 150.49 640.184 140.82H637.201H634.218C634.218 149.423 631.914 155.594 627.712 159.795L629.822 161.904ZM637.201 140.82H640.184V104.977H637.201H634.218V140.82H637.201ZM637.201 104.977H640.184C640.184 95.1578 637.582 87.2322 631.892 81.7459L629.822 83.8931L627.751 86.0403C631.901 90.0418 634.218 96.1722 634.218 104.977H637.201ZM629.822 83.8931L631.931 81.7839C626.47 76.3232 618.85 73.7944 609.528 73.7944V76.7772V79.7601C617.777 79.7601 623.685 81.9752 627.712 86.0023L629.822 83.8931ZM609.528 76.7772V73.7944C600.357 73.7944 592.775 76.3358 587.164 81.7459L589.235 83.8931L591.305 86.0403C595.534 81.9625 601.481 79.7601 609.528 79.7601V76.7772ZM589.235 83.8931L587.164 81.7459C581.475 87.2322 578.873 95.1578 578.873 104.977H581.855H584.838C584.838 96.1722 587.156 90.0418 591.305 86.0403L589.235 83.8931ZM581.855 104.977H578.873V140.82H581.855H584.838V104.977H581.855ZM581.855 140.82H578.873C578.873 150.49 581.488 158.375 587.126 164.013L589.235 161.904L591.344 159.795C587.143 155.594 584.838 149.423 584.838 140.82H581.855ZM589.235 161.904L587.164 164.051C592.775 169.461 600.357 172.003 609.528 172.003V169.02V166.037C601.481 166.037 595.534 163.835 591.305 159.757L589.235 161.904Z" fill="#7780D9" fill-opacity="0.42" style="fill:#7780D9;fill:color(display-p3 0.4667 0.5020 0.8510);fill-opacity:0.42;" mask="url(#path-1-outside-1_37_143)"/>
</svg>
