<svg width="771" height="515" viewBox="0 0 771 515" fill="none" xmlns="http://www.w3.org/2000/svg">
<path d="M306.5 244H80" stroke="white" style="stroke:white;stroke-opacity:1;" stroke-width="2"/>
<path d="M69 243.5L78.75 249.129L78.75 237.871L69 243.5Z" fill="#ABB2FA" style="fill:#ABB2FA;fill:color(display-p3 0.6706 0.6990 0.9799);fill-opacity:1;"/>
<path d="M294.5 188H68" stroke="white" style="stroke:white;stroke-opacity:1;" stroke-width="2"/>
<path d="M294.5 296H68" stroke="white" style="stroke:white;stroke-opacity:1;" stroke-width="2"/>
<path d="M511 296H307" stroke="white" style="stroke:white;stroke-opacity:1;" stroke-width="2"/>
<path d="M511 404H307" stroke="white" style="stroke:white;stroke-opacity:1;" stroke-width="2"/>
<path d="M319 348H523" stroke="white" style="stroke:white;stroke-opacity:1;" stroke-width="2"/>
<path d="M82 492L307 492" stroke="white" style="stroke:white;stroke-opacity:1;" stroke-width="2"/>
<path d="M319 463L704 463" stroke="white" style="stroke:white;stroke-opacity:1;" stroke-width="2"/>
<path d="M307 187.5L297.25 193.129L297.25 181.871L307 187.5Z" fill="#ABB2FA" style="fill:#ABB2FA;fill:color(display-p3 0.6706 0.6990 0.9799);fill-opacity:1;"/>
<path d="M307 295.5L297.25 301.129L297.25 289.871L307 295.5Z" fill="#ABB2FA" style="fill:#ABB2FA;fill:color(display-p3 0.6706 0.6990 0.9799);fill-opacity:1;"/>
<path d="M691 404H526" stroke="white" style="stroke:white;stroke-opacity:1;" stroke-width="2"/>
<path d="M704 403.5L694.25 409.129L694.25 397.871L704 403.5Z" fill="#ABB2FA" style="fill:#ABB2FA;fill:color(display-p3 0.6706 0.6990 0.9799);fill-opacity:1;"/>
<path d="M523 295.5L513.25 301.129L513.25 289.871L523 295.5Z" fill="#ABB2FA" style="fill:#ABB2FA;fill:color(display-p3 0.6706 0.6990 0.9799);fill-opacity:1;"/>
<path d="M523 403.5L513.25 409.129L513.25 397.871L523 403.5Z" fill="#ABB2FA" style="fill:#ABB2FA;fill:color(display-p3 0.6706 0.6990 0.9799);fill-opacity:1;"/>
<path d="M307 347.5L316.75 353.129L316.75 341.871L307 347.5Z" fill="#ABB2FA" style="fill:#ABB2FA;fill:color(display-p3 0.6706 0.6990 0.9799);fill-opacity:1;"/>
<path d="M69 491.5L78.75 497.129L78.75 485.871L69 491.5Z" fill="#ABB2FA" style="fill:#ABB2FA;fill:color(display-p3 0.6706 0.6990 0.9799);fill-opacity:1;"/>
<path d="M307 462.5L316.75 468.129L316.75 456.871L307 462.5Z" fill="#ABB2FA" style="fill:#ABB2FA;fill:color(display-p3 0.6706 0.6990 0.9799);fill-opacity:1;"/>
<path d="M68 89.5V514.5" stroke="white" style="stroke:white;stroke-opacity:1;" stroke-width="2"/>
<path d="M307 89.5V514.5" stroke="white" style="stroke:white;stroke-opacity:1;" stroke-width="2"/>
<path d="M523 89.5V514.5" stroke="white" style="stroke:white;stroke-opacity:1;" stroke-width="2"/>
<path d="M704 89.5V514.5" stroke="white" style="stroke:white;stroke-opacity:1;" stroke-width="2"/>
<rect x="-1.74765" y="1.74765" width="130.505" height="87.5047" transform="matrix(-1 0 0 1 130.505 0)" stroke="white" style="stroke:white;stroke-opacity:1;" stroke-width="3.4953"/>
<rect x="-1.74765" y="1.74765" width="130.505" height="87.5047" transform="matrix(-1 0 0 1 586.505 0)" stroke="white" style="stroke:white;stroke-opacity:1;" stroke-width="3.4953"/>
<rect x="-1.74765" y="1.74765" width="130.505" height="87.5047" transform="matrix(-1 0 0 1 767.505 0)" stroke="white" style="stroke:white;stroke-opacity:1;" stroke-width="3.4953"/>
<rect x="-1.74765" y="1.74765" width="192.505" height="87.5047" transform="matrix(-1 0 0 1 401.505 0)" stroke="#A6AEFF" style="stroke:#A6AEFF;stroke:color(display-p3 0.6501 0.6822 1.0000);stroke-opacity:1;" stroke-width="3.4953"/>
<path d="M272.678 67.4967V37.0934H277.76V41.4665H278.926L277.76 42.6743C277.76 40.814 278.315 39.3563 279.426 38.3012C280.536 37.2184 282.035 36.677 283.924 36.677C286.228 36.677 288.074 37.4683 289.463 39.0509C290.851 40.6335 291.545 42.7576 291.545 45.4231V51.6287C291.545 53.4057 291.226 54.9606 290.587 56.2933C289.976 57.5983 289.102 58.6117 287.963 59.3336C286.825 60.0555 285.478 60.4165 283.924 60.4165C282.035 60.4165 280.536 59.8889 279.426 58.8338C278.315 57.751 277.76 56.2794 277.76 54.4191L278.926 55.6269H277.718L277.885 61.0829V67.4967H272.678ZM282.091 55.9185C283.424 55.9185 284.465 55.5297 285.215 54.7523C285.964 53.9749 286.339 52.8643 286.339 51.4205V45.673C286.339 44.2292 285.964 43.1186 285.215 42.3411C284.465 41.5637 283.424 41.175 282.091 41.175C280.786 41.175 279.759 41.5776 279.009 42.3828C278.259 43.1602 277.885 44.2569 277.885 45.673V51.4205C277.885 52.8365 278.259 53.9471 279.009 54.7523C279.759 55.5297 280.786 55.9185 282.091 55.9185ZM307.105 60C305.606 60 304.287 59.6946 303.149 59.0837C302.038 58.4729 301.164 57.6122 300.525 56.5015C299.886 55.3632 299.567 54.0582 299.567 52.5866V34.303H292.237V29.5967H304.773V52.5866C304.773 53.4196 305.009 54.0859 305.481 54.5857C305.981 55.0577 306.647 55.2937 307.48 55.2937H314.394V60H307.105ZM322.707 60.4165C320.347 60.4165 318.487 59.7918 317.126 58.5423C315.766 57.2929 315.086 55.613 315.086 53.5029C315.086 51.2539 315.835 49.5185 317.335 48.2968C318.834 47.0751 320.958 46.4643 323.707 46.4643H329.413V44.5068C329.413 43.3962 329.052 42.5355 328.33 41.9246C327.608 41.286 326.622 40.9667 325.373 40.9667C324.234 40.9667 323.29 41.2166 322.541 41.7164C321.791 42.2162 321.347 42.8964 321.208 43.7572H316.127C316.377 41.5915 317.348 39.87 319.042 38.5928C320.736 37.3156 322.902 36.677 325.539 36.677C328.344 36.677 330.551 37.385 332.161 38.801C333.8 40.1893 334.619 42.0773 334.619 44.4652V60H329.579V56.0018H328.746L329.579 54.8773C329.579 56.571 328.954 57.9176 327.705 58.9171C326.456 59.9167 324.79 60.4165 322.707 60.4165ZM324.415 56.5015C325.886 56.5015 327.08 56.1267 327.997 55.377C328.941 54.6274 329.413 53.6556 329.413 52.4617V49.6712H323.79C322.735 49.6712 321.888 49.9766 321.25 50.5875C320.611 51.1983 320.292 52.0035 320.292 53.0031C320.292 54.0859 320.653 54.9467 321.374 55.5853C322.124 56.1961 323.138 56.5015 324.415 56.5015ZM337.601 60V37.0934H342.682V41.4665H344.098L342.682 42.6743C342.682 40.7863 343.224 39.3147 344.306 38.2596C345.417 37.2045 346.93 36.677 348.846 36.677C351.095 36.677 352.886 37.4266 354.219 38.926C355.579 40.4253 356.259 42.4383 356.259 44.965V60H351.053V45.5064C351.053 44.1181 350.692 43.0491 349.971 42.2995C349.249 41.5498 348.235 41.175 346.93 41.175C345.653 41.175 344.64 41.5637 343.89 42.3411C343.168 43.1186 342.807 44.2292 342.807 45.673V60H337.601ZM368.529 60.3748C366.586 60.3748 364.892 60.0139 363.448 59.292C362.032 58.5423 360.922 57.5011 360.116 56.1684C359.339 54.8078 358.95 53.2113 358.95 51.3788V45.7146C358.95 43.8821 359.339 42.2995 360.116 40.9667C360.922 39.6062 362.032 38.565 363.448 37.8431C364.892 37.0934 366.586 36.7186 368.529 36.7186C370.501 36.7186 372.194 37.0934 373.611 37.8431C375.027 38.565 376.123 39.6062 376.901 40.9667C377.706 42.2995 378.109 43.8682 378.109 45.673V51.3788C378.109 53.2113 377.706 54.8078 376.901 56.1684C376.123 57.5011 375.027 58.5423 373.611 59.292C372.194 60.0139 370.501 60.3748 368.529 60.3748ZM368.529 55.8352C369.918 55.8352 370.987 55.4603 371.736 54.7107C372.514 53.9332 372.903 52.8226 372.903 51.3788V45.7146C372.903 44.2431 372.514 43.1324 371.736 42.3828C370.987 41.6331 369.918 41.2583 368.529 41.2583C367.169 41.2583 366.1 41.6331 365.323 42.3828C364.545 43.1324 364.156 44.2431 364.156 45.7146V51.3788C364.156 52.8226 364.545 53.9332 365.323 54.7107C366.1 55.4603 367.169 55.8352 368.529 55.8352Z" fill="#7780D9" style="fill:#7780D9;fill:color(display-p3 0.4667 0.5020 0.8510);fill-opacity:1;"/>
<rect x="233" y="30.0989" width="30.6206" height="30.6206" fill="#7780D9" style="fill:#7780D9;fill:color(display-p3 0.4667 0.5020 0.8510);fill-opacity:1;"/>
<rect x="235.355" y="32.4541" width="25.9097" height="25.9097" fill="#B9BFFF" style="fill:#B9BFFF;fill:color(display-p3 0.7246 0.7499 1.0000);fill-opacity:1;"/>
<path d="M236.533 33.6318H238.888V35.9873H236.533V33.6318Z" fill="#B0B7FF" style="fill:#B0B7FF;fill:color(display-p3 0.6897 0.7182 1.0000);fill-opacity:1;"/>
<path d="M236.533 37.1649H238.888V39.5203H236.533V37.1649Z" fill="#B0B7FF" style="fill:#B0B7FF;fill:color(display-p3 0.6897 0.7182 1.0000);fill-opacity:1;"/>
<path d="M236.533 40.698H238.888V43.0534H236.533V40.698Z" fill="#B0B7FF" style="fill:#B0B7FF;fill:color(display-p3 0.6897 0.7182 1.0000);fill-opacity:1;"/>
<path d="M236.533 44.2316H238.888V46.587H236.533V44.2316Z" fill="#ABB2FA" style="fill:#ABB2FA;fill:color(display-p3 0.6706 0.6990 0.9799);fill-opacity:1;"/>
<path d="M236.533 47.7645H238.888V50.12H236.533V47.7645Z" fill="#ABB2FA" style="fill:#ABB2FA;fill:color(display-p3 0.6706 0.6990 0.9799);fill-opacity:1;"/>
<path d="M236.533 51.2976H238.888V53.653H236.533V51.2976Z" fill="#ABB2FA" style="fill:#ABB2FA;fill:color(display-p3 0.6706 0.6990 0.9799);fill-opacity:1;"/>
<path d="M236.533 54.8307H238.888V57.1861H236.533V54.8307Z" fill="#969FF4" style="fill:#969FF4;fill:color(display-p3 0.5882 0.6220 0.9566);fill-opacity:1;"/>
<path d="M247.133 33.6318H249.488V35.9873H247.133V33.6318Z" fill="#ABB2FA" style="fill:#ABB2FA;fill:color(display-p3 0.6706 0.6990 0.9799);fill-opacity:1;"/>
<path d="M247.133 37.1649H249.488V39.5203H247.133V37.1649Z" fill="#ABB2FA" style="fill:#ABB2FA;fill:color(display-p3 0.6706 0.6990 0.9799);fill-opacity:1;"/>
<path d="M247.133 40.698H249.488V43.0534H247.133V40.698Z" fill="#ABB2FA" style="fill:#ABB2FA;fill:color(display-p3 0.6706 0.6990 0.9799);fill-opacity:1;"/>
<path d="M247.133 44.2316H249.488V46.587H247.133V44.2316Z" fill="#969FF4" style="fill:#969FF4;fill:color(display-p3 0.5882 0.6220 0.9566);fill-opacity:1;"/>
<path d="M247.133 47.7645H249.488V50.12H247.133V47.7645Z" fill="#969FF4" style="fill:#969FF4;fill:color(display-p3 0.5882 0.6220 0.9566);fill-opacity:1;"/>
<path d="M247.133 51.2976H249.488V53.653H247.133V51.2976Z" fill="#969FF4" style="fill:#969FF4;fill:color(display-p3 0.5882 0.6220 0.9566);fill-opacity:1;"/>
<path d="M247.133 54.8307H249.488V57.1861H247.133V54.8307Z" fill="#969FF4" style="fill:#969FF4;fill:color(display-p3 0.5882 0.6220 0.9566);fill-opacity:1;"/>
<path d="M240.066 33.6318H242.421V35.9873H240.066V33.6318Z" fill="#B0B7FF" style="fill:#B0B7FF;fill:color(display-p3 0.6897 0.7182 1.0000);fill-opacity:1;"/>
<path d="M240.066 37.1649H242.421V39.5203H240.066V37.1649Z" fill="#B0B7FF" style="fill:#B0B7FF;fill:color(display-p3 0.6897 0.7182 1.0000);fill-opacity:1;"/>
<path d="M240.066 40.698H242.421V43.0534H240.066V40.698Z" fill="#ABB2FA" style="fill:#ABB2FA;fill:color(display-p3 0.6706 0.6990 0.9799);fill-opacity:1;"/>
<path d="M240.066 44.2316H242.421V46.587H240.066V44.2316Z" fill="#ABB2FA" style="fill:#ABB2FA;fill:color(display-p3 0.6706 0.6990 0.9799);fill-opacity:1;"/>
<path d="M240.066 47.7645H242.421V50.12H240.066V47.7645Z" fill="#ABB2FA" style="fill:#ABB2FA;fill:color(display-p3 0.6706 0.6990 0.9799);fill-opacity:1;"/>
<path d="M240.066 51.2976H242.421V53.653H240.066V51.2976Z" fill="#969FF4" style="fill:#969FF4;fill:color(display-p3 0.5882 0.6220 0.9566);fill-opacity:1;"/>
<path d="M240.066 54.8307H242.421V57.1861H240.066V54.8307Z" fill="#969FF4" style="fill:#969FF4;fill:color(display-p3 0.5882 0.6220 0.9566);fill-opacity:1;"/>
<path d="M250.666 33.6318H253.021V35.9873H250.666V33.6318Z" fill="#ABB2FA" style="fill:#ABB2FA;fill:color(display-p3 0.6706 0.6990 0.9799);fill-opacity:1;"/>
<path d="M250.666 37.1649H253.021V39.5203H250.666V37.1649Z" fill="#ABB2FA" style="fill:#ABB2FA;fill:color(display-p3 0.6706 0.6990 0.9799);fill-opacity:1;"/>
<path d="M250.666 40.698H253.021V43.0534H250.666V40.698Z" fill="#969FF4" style="fill:#969FF4;fill:color(display-p3 0.5882 0.6220 0.9566);fill-opacity:1;"/>
<path d="M250.666 44.2316H253.021V46.587H250.666V44.2316Z" fill="#969FF4" style="fill:#969FF4;fill:color(display-p3 0.5882 0.6220 0.9566);fill-opacity:1;"/>
<path d="M250.666 47.7645H253.021V50.12H250.666V47.7645Z" fill="#969FF4" style="fill:#969FF4;fill:color(display-p3 0.5882 0.6220 0.9566);fill-opacity:1;"/>
<path d="M250.666 51.2976H253.021V53.653H250.666V51.2976Z" fill="#969FF4" style="fill:#969FF4;fill:color(display-p3 0.5882 0.6220 0.9566);fill-opacity:1;"/>
<path d="M250.666 54.8307H253.021V57.1861H250.666V54.8307Z" fill="#969FF4" style="fill:#969FF4;fill:color(display-p3 0.5882 0.6220 0.9566);fill-opacity:1;"/>
<path d="M243.6 33.6318H245.955V35.9873H243.6V33.6318Z" fill="#B0B7FF" style="fill:#B0B7FF;fill:color(display-p3 0.6897 0.7182 1.0000);fill-opacity:1;"/>
<path d="M243.6 37.1649H245.955V39.5203H243.6V37.1649Z" fill="#ABB2FA" style="fill:#ABB2FA;fill:color(display-p3 0.6706 0.6990 0.9799);fill-opacity:1;"/>
<path d="M243.6 40.698H245.955V43.0534H243.6V40.698Z" fill="#ABB2FA" style="fill:#ABB2FA;fill:color(display-p3 0.6706 0.6990 0.9799);fill-opacity:1;"/>
<path d="M243.6 44.2316H245.955V46.587H243.6V44.2316Z" fill="#ABB2FA" style="fill:#ABB2FA;fill:color(display-p3 0.6706 0.6990 0.9799);fill-opacity:1;"/>
<path d="M243.6 47.7645H245.955V50.12H243.6V47.7645Z" fill="#969FF4" style="fill:#969FF4;fill:color(display-p3 0.5882 0.6220 0.9566);fill-opacity:1;"/>
<path d="M243.6 51.2976H245.955V53.653H243.6V51.2976Z" fill="#969FF4" style="fill:#969FF4;fill:color(display-p3 0.5882 0.6220 0.9566);fill-opacity:1;"/>
<path d="M243.6 54.8307H245.955V57.1861H243.6V54.8307Z" fill="#969FF4" style="fill:#969FF4;fill:color(display-p3 0.5882 0.6220 0.9566);fill-opacity:1;"/>
<path d="M254.199 33.6318H256.554V35.9873H254.199V33.6318Z" fill="#ABB2FA" style="fill:#ABB2FA;fill:color(display-p3 0.6706 0.6990 0.9799);fill-opacity:1;"/>
<path d="M254.199 37.1649H256.554V39.5203H254.199V37.1649Z" fill="#969FF4" style="fill:#969FF4;fill:color(display-p3 0.5882 0.6220 0.9566);fill-opacity:1;"/>
<path d="M254.199 40.698H256.554V43.0534H254.199V40.698Z" fill="#969FF4" style="fill:#969FF4;fill:color(display-p3 0.5882 0.6220 0.9566);fill-opacity:1;"/>
<path d="M254.199 44.2316H256.554V46.587H254.199V44.2316Z" fill="#969FF4" style="fill:#969FF4;fill:color(display-p3 0.5882 0.6220 0.9566);fill-opacity:1;"/>
<path d="M254.199 47.7645H256.554V50.12H254.199V47.7645Z" fill="#969FF4" style="fill:#969FF4;fill:color(display-p3 0.5882 0.6220 0.9566);fill-opacity:1;"/>
<path d="M254.199 51.2976H256.554V53.653H254.199V51.2976Z" fill="#969FF4" style="fill:#969FF4;fill:color(display-p3 0.5882 0.6220 0.9566);fill-opacity:1;"/>
<path d="M254.199 54.8307H256.554V57.1861H254.199V54.8307Z" fill="#969FF4" style="fill:#969FF4;fill:color(display-p3 0.5882 0.6220 0.9566);fill-opacity:1;"/>
<path d="M257.732 33.6318H260.087V35.9873H257.732V33.6318Z" fill="#969FF4" style="fill:#969FF4;fill:color(display-p3 0.5882 0.6220 0.9566);fill-opacity:1;"/>
<path d="M257.732 37.1649H260.087V39.5203H257.732V37.1649Z" fill="#969FF4" style="fill:#969FF4;fill:color(display-p3 0.5882 0.6220 0.9566);fill-opacity:1;"/>
<path d="M257.732 40.698H260.087V43.0534H257.732V40.698Z" fill="#969FF4" style="fill:#969FF4;fill:color(display-p3 0.5882 0.6220 0.9566);fill-opacity:1;"/>
<path d="M257.732 44.2316H260.087V46.587H257.732V44.2316Z" fill="#969FF4" style="fill:#969FF4;fill:color(display-p3 0.5882 0.6220 0.9566);fill-opacity:1;"/>
<path d="M257.732 47.7645H260.087V50.12H257.732V47.7645Z" fill="#969FF4" style="fill:#969FF4;fill:color(display-p3 0.5882 0.6220 0.9566);fill-opacity:1;"/>
<path d="M257.732 51.2976H260.087V53.653H257.732V51.2976Z" fill="#969FF4" style="fill:#969FF4;fill:color(display-p3 0.5882 0.6220 0.9566);fill-opacity:1;"/>
<path d="M257.732 54.8307H260.087V57.1861H257.732V54.8307Z" fill="#969FF4" style="fill:#969FF4;fill:color(display-p3 0.5882 0.6220 0.9566);fill-opacity:1;"/>
<rect x="-1.74765" y="1.74765" width="174.505" height="35.5047" transform="matrix(-1 0 0 1 270.505 168)" fill="black" stroke="#B3BAFF" style="fill:black;fill-opacity:1;stroke:#B3BAFF;stroke:color(display-p3 0.7000 0.7276 1.0000);stroke-opacity:1;" stroke-width="3.4953"/>
<rect width="178" height="39" transform="matrix(-1 0 0 1 274 224)" fill="black" style="fill:black;fill-opacity:1;"/>
<rect x="-1.74765" y="1.74765" width="174.505" height="35.5047" transform="matrix(-1 0 0 1 270.505 224)" stroke="#C7CAE8" stroke-opacity="0.52" style="stroke:#C7CAE8;stroke:color(display-p3 0.7804 0.7924 0.9113);stroke-opacity:0.52;" stroke-width="3.4953"/>
<rect x="-1.74765" y="1.74765" width="174.505" height="35.5047" transform="matrix(-1 0 0 1 494.505 276)" fill="black" stroke="#B3BAFF" style="fill:black;fill-opacity:1;stroke:#B3BAFF;stroke:color(display-p3 0.7000 0.7276 1.0000);stroke-opacity:1;" stroke-width="3.4953"/>
<rect x="-1.74765" y="1.74765" width="174.505" height="35.5047" transform="matrix(-1 0 0 1 494.505 384)" fill="black" stroke="#B3BAFF" style="fill:black;fill-opacity:1;stroke:#B3BAFF;stroke:color(display-p3 0.7000 0.7276 1.0000);stroke-opacity:1;" stroke-width="3.4953"/>
<path fill-rule="evenodd" clip-rule="evenodd" d="M53 21.9375C53 19.7629 54.7629 18 56.9375 18H77.0625C79.2371 18 81 19.7629 81 21.9375V36.8125C81 38.9871 79.2371 40.75 77.0625 40.75H71.6285C71.973 41.9083 72.6512 42.9231 73.5535 43.6843C73.9748 44.0396 74.1292 44.6204 73.94 45.138C73.7508 45.6557 73.2584 46 72.7073 46H61.2929C60.7418 46 60.2493 45.6557 60.0602 45.138C59.871 44.6204 60.0254 44.0396 60.4466 43.6843C61.349 42.9231 62.0272 41.9083 62.3717 40.75H56.9375C54.7629 40.75 53 38.9871 53 36.8125V21.9375ZM55.625 21.9375C55.625 21.2126 56.2126 20.625 56.9375 20.625H77.0625C77.7874 20.625 78.375 21.2126 78.375 21.9375V35.0625C78.375 35.7874 77.7874 36.375 77.0625 36.375H56.9375C56.2126 36.375 55.625 35.7874 55.625 35.0625V21.9375Z" fill="#7780D9" style="fill:#7780D9;fill:color(display-p3 0.4667 0.5020 0.8510);fill-opacity:1;"/>
<path fill-rule="evenodd" clip-rule="evenodd" d="M511 11C508.791 11 507 12.7989 507 15.0179V31.9821C507 34.2011 508.791 36 511 36H535C537.209 36 539 34.2011 539 31.9821V15.0179C539 12.7989 537.209 11 535 11H511ZM512.676 26.6281C512.183 26.0783 512.227 25.2315 512.775 24.7367L516.118 21.7143L512.775 18.6919C512.227 18.1971 512.183 17.3503 512.676 16.8005C513.168 16.2507 514.011 16.2061 514.559 16.7009L519.003 20.7188C519.284 20.9728 519.444 21.3346 519.444 21.7143C519.444 22.094 519.284 22.4558 519.003 22.7098L514.559 26.7276C514.011 27.2224 513.168 27.1779 512.676 26.6281ZM522.556 23.9464C521.819 23.9464 521.222 24.546 521.222 25.2857C521.222 26.0254 521.819 26.625 522.556 26.625H527C527.736 26.625 528.333 26.0254 528.333 25.2857C528.333 24.546 527.736 23.9464 527 23.9464H522.556Z" fill="#7780D9" style="fill:#7780D9;fill:color(display-p3 0.4667 0.5020 0.8510);fill-opacity:1;"/>
<path d="M711.667 25.3333H698.333V38.6667H711.667V25.3333Z" fill="#7780D9" style="fill:#7780D9;fill:color(display-p3 0.4667 0.5020 0.8510);fill-opacity:1;"/>
<path fill-rule="evenodd" clip-rule="evenodd" d="M703.75 20.3333V18.25C703.75 17.5596 704.31 17 705 17C705.69 17 706.25 17.5596 706.25 18.25V20.3333H708.75V18.25C708.75 17.5596 709.31 17 710 17C710.69 17 711.25 17.5596 711.25 18.25V20.3333H712.083C714.615 20.3333 716.667 22.3854 716.667 24.9167V25.75H718.75C719.44 25.75 720 26.3096 720 27C720 27.6904 719.44 28.25 718.75 28.25H716.667V30.75H718.75C719.44 30.75 720 31.3096 720 32C720 32.6904 719.44 33.25 718.75 33.25H716.667V35.75H718.75C719.44 35.75 720 36.3096 720 37C720 37.6904 719.44 38.25 718.75 38.25H716.667V39.0833C716.667 41.6146 714.615 43.6667 712.083 43.6667H711.25V45.75C711.25 46.4404 710.69 47 710 47C709.31 47 708.75 46.4404 708.75 45.75V43.6667H706.25V45.75C706.25 46.4404 705.69 47 705 47C704.31 47 703.75 46.4404 703.75 45.75V43.6667H701.25V45.75C701.25 46.4404 700.69 47 700 47C699.31 47 698.75 46.4404 698.75 45.75V43.6667H697.917C695.385 43.6667 693.333 41.6146 693.333 39.0833V38.25H691.25C690.56 38.25 690 37.6904 690 37C690 36.3096 690.56 35.75 691.25 35.75H693.333V33.25H691.25C690.56 33.25 690 32.6904 690 32C690 31.3096 690.56 30.75 691.25 30.75H693.333V28.25H691.25C690.56 28.25 690 27.6904 690 27C690 26.3096 690.56 25.75 691.25 25.75H693.333V24.9167C693.333 22.3854 695.385 20.3333 697.917 20.3333H698.75V18.25C698.75 17.5596 699.31 17 700 17C700.69 17 701.25 17.5596 701.25 18.25V20.3333H703.75ZM695.833 24.9167C695.833 23.7661 696.766 22.8333 697.917 22.8333H712.083C713.234 22.8333 714.167 23.7661 714.167 24.9167V39.0833C714.167 40.2339 713.234 41.1667 712.083 41.1667H697.917C696.766 41.1667 695.833 40.2339 695.833 39.0833V24.9167Z" fill="#7780D9" style="fill:#7780D9;fill:color(display-p3 0.4667 0.5020 0.8510);fill-opacity:1;"/>
<path d="M23.9771 70V68.2993H26.5814V58.768H23.9771V57.0673H31.1344V58.768H28.5301V68.2993H31.1344V70H23.9771ZM33.466 70V60.2562H35.3616V62.1163H35.8223L35.3616 62.5592C35.3616 61.7797 35.5919 61.1715 36.0526 60.7345C36.5132 60.2975 37.151 60.079 37.9659 60.079C38.9344 60.079 39.708 60.392 40.2867 61.0179C40.8654 61.6321 41.1548 62.4648 41.1548 63.5159V70H39.2415V63.7285C39.2415 63.0907 39.0702 62.6006 38.7277 62.2581C38.3852 61.9156 37.9187 61.7443 37.3281 61.7443C36.7258 61.7443 36.2474 61.9274 35.8931 62.2935C35.5506 62.6478 35.3794 63.1675 35.3794 63.8525V70H33.466ZM48.0926 70C47.2068 70 46.5158 69.7579 46.0198 69.2736C45.5237 68.7894 45.2757 68.1162 45.2757 67.254V61.9923H42.5829V60.2562H45.2757V57.5102H47.1891V60.2562H50.998V61.9923H47.1891V67.254C47.1891 67.9272 47.5139 68.2638 48.1634 68.2638H50.8209V70H48.0926ZM56.7665 70.1772C55.9752 70.1772 55.2784 70.0236 54.676 69.7165C54.0855 69.3977 53.6308 68.9548 53.3119 68.3878C52.993 67.8209 52.8336 67.1595 52.8336 66.4036V63.8525C52.8336 63.0848 52.993 62.4234 53.3119 61.8683C53.6308 61.3014 54.0855 60.8644 54.676 60.5573C55.2784 60.2384 55.9752 60.079 56.7665 60.079C57.5697 60.079 58.2665 60.2384 58.857 60.5573C59.4476 60.8644 59.9023 61.3014 60.2212 61.8683C60.5401 62.4234 60.6995 63.0848 60.6995 63.8525V65.5887H54.676V66.4036C54.676 67.1241 54.8532 67.6733 55.2075 68.0512C55.5737 68.4292 56.0992 68.6181 56.7843 68.6181C57.3394 68.6181 57.7882 68.5237 58.1307 68.3347C58.4732 68.1339 58.6858 67.8445 58.7685 67.4666H60.6641C60.5223 68.2934 60.0972 68.9548 59.3885 69.4508C58.6799 69.935 57.8059 70.1772 56.7665 70.1772ZM58.857 64.4372V63.8348C58.857 63.1262 58.6799 62.577 58.3256 62.1872C57.9712 61.7975 57.4516 61.6026 56.7665 61.6026C56.0933 61.6026 55.5737 61.7975 55.2075 62.1872C54.8532 62.577 54.676 63.1321 54.676 63.8525V64.2954L58.9988 64.2777L58.857 64.4372ZM62.9957 70V60.2562H64.8381V62.1163H65.2988L64.7141 63.2679C64.7141 62.2167 64.9444 61.4254 65.4051 60.8939C65.8657 60.3506 66.5507 60.079 67.4601 60.079C68.4995 60.079 69.3203 60.4038 69.9227 61.0534C70.5368 61.6912 70.8439 62.5711 70.8439 63.6931V64.3486H68.8774V63.8525C68.8774 63.1557 68.7003 62.6242 68.3459 62.2581C68.0034 61.8801 67.5192 61.6912 66.8932 61.6912C66.2672 61.6912 65.7771 61.8801 65.4228 62.2581C65.0803 62.636 64.909 63.1675 64.909 63.8525V70H62.9957ZM74.6991 70V63.0199H71.9354V61.2837H74.6991V59.707C74.6991 58.892 74.9589 58.2483 75.4786 57.7759C75.9983 57.3035 76.7069 57.0673 77.6045 57.0673H80.4568V58.768H77.64C77.3093 58.768 77.0494 58.8507 76.8604 59.016C76.6833 59.1814 76.5947 59.4176 76.5947 59.7247V61.2837H80.4568V63.0199H76.5947V70H74.6991ZM85.0029 70.1772C83.9872 70.1772 83.1841 69.9173 82.5935 69.3977C82.0148 68.8662 81.7255 68.1457 81.7255 67.2363C81.7255 66.3151 82.0325 65.5946 82.6467 65.0749C83.2727 64.5434 84.1289 64.2777 85.2155 64.2777H87.9261V63.3742C87.9261 62.8427 87.7607 62.4293 87.43 62.1341C87.0993 61.8388 86.6328 61.6912 86.0305 61.6912C85.499 61.6912 85.0561 61.8093 84.7018 62.0455C84.3474 62.2699 84.1407 62.5711 84.0817 62.949H82.2038C82.3101 62.075 82.7116 61.3782 83.4085 60.8585C84.1171 60.3388 85.0088 60.079 86.0836 60.079C87.2411 60.079 88.1564 60.3743 88.8296 60.9648C89.5028 61.5435 89.8394 62.3348 89.8394 63.3388V70H87.9792V68.2107H87.6603L87.9792 67.8564C87.9792 68.565 87.7076 69.1319 87.1643 69.5571C86.621 69.9705 85.9005 70.1772 85.0029 70.1772ZM85.5698 68.7067C86.2549 68.7067 86.8159 68.5355 87.2529 68.193C87.7017 67.8386 87.9261 67.3898 87.9261 66.8465V65.571H85.251C84.7549 65.571 84.3592 65.7068 84.064 65.9784C83.7805 66.2501 83.6388 66.6221 83.6388 67.0946C83.6388 67.5906 83.81 67.9863 84.1526 68.2815C84.4951 68.565 84.9675 68.7067 85.5698 68.7067ZM95.7851 70.1772C94.982 70.1772 94.2733 70.0295 93.6592 69.7343C93.0568 69.4272 92.5903 68.9902 92.2596 68.4233C91.9407 67.8445 91.7813 67.1713 91.7813 66.4036V63.8525C91.7813 63.073 91.9407 62.3998 92.2596 61.8329C92.5903 61.266 93.0568 60.8349 93.6592 60.5396C94.2733 60.2325 94.982 60.079 95.7851 60.079C96.9544 60.079 97.8933 60.3861 98.602 61.0002C99.3106 61.6144 99.6826 62.4529 99.7181 63.5159H97.8047C97.7693 62.9608 97.5744 62.5297 97.2201 62.2226C96.8658 61.9156 96.3874 61.762 95.7851 61.762C95.1355 61.762 94.6217 61.9451 94.2438 62.3112C93.8659 62.6655 93.6769 63.1734 93.6769 63.8348V66.4036C93.6769 67.065 93.8659 67.5788 94.2438 67.9449C94.6217 68.3111 95.1355 68.4941 95.7851 68.4941C96.3874 68.4941 96.8658 68.3406 97.2201 68.0335C97.5744 67.7264 97.7693 67.2953 97.8047 66.7402H99.7181C99.6826 67.8032 99.3106 68.6418 98.602 69.2559C97.8933 69.8701 96.9544 70.1772 95.7851 70.1772ZM105.451 70.1772C104.66 70.1772 103.963 70.0236 103.361 69.7165C102.77 69.3977 102.315 68.9548 101.997 68.3878C101.678 67.8209 101.518 67.1595 101.518 66.4036V63.8525C101.518 63.0848 101.678 62.4234 101.997 61.8683C102.315 61.3014 102.77 60.8644 103.361 60.5573C103.963 60.2384 104.66 60.079 105.451 60.079C106.254 60.079 106.951 60.2384 107.542 60.5573C108.132 60.8644 108.587 61.3014 108.906 61.8683C109.225 62.4234 109.384 63.0848 109.384 63.8525V65.5887H103.361V66.4036C103.361 67.1241 103.538 67.6733 103.892 68.0512C104.258 68.4292 104.784 68.6181 105.469 68.6181C106.024 68.6181 106.473 68.5237 106.815 68.3347C107.158 68.1339 107.37 67.8445 107.453 67.4666H109.349C109.207 68.2934 108.782 68.9548 108.073 69.4508C107.364 69.935 106.491 70.1772 105.451 70.1772ZM107.542 64.4372V63.8348C107.542 63.1262 107.364 62.577 107.01 62.1872C106.656 61.7975 106.136 61.6026 105.451 61.6026C104.778 61.6026 104.258 61.7975 103.892 62.1872C103.538 62.577 103.361 63.1321 103.361 63.8525V64.2954L107.683 64.2777L107.542 64.4372Z" fill="white" style="fill:white;fill-opacity:1;"/>
<path d="M469.766 58L473.061 45.0673H475.577L478.872 58H476.941L476.161 54.7225H472.494L471.715 58H469.766ZM472.848 53.1458H475.789L474.903 49.4077C474.75 48.7463 474.62 48.1735 474.514 47.6892C474.419 47.1932 474.354 46.8566 474.319 46.6794C474.283 46.8566 474.218 47.1932 474.124 47.6892C474.029 48.1735 473.9 48.7404 473.734 49.39L472.848 53.1458ZM480.229 61.1889V48.2562H482.125V50.1163H482.532L482.125 50.5592C482.125 49.7915 482.361 49.1892 482.833 48.7522C483.318 48.3034 483.961 48.079 484.764 48.079C485.745 48.079 486.524 48.4097 487.103 49.0711C487.693 49.7207 487.989 50.6124 487.989 51.7462V54.4922C487.989 55.2481 487.853 55.9036 487.581 56.4587C487.321 57.002 486.949 57.4272 486.465 57.7343C485.993 58.0295 485.426 58.1772 484.764 58.1772C483.973 58.1772 483.335 57.9587 482.851 57.5217C482.367 57.0729 482.125 56.4646 482.125 55.6969L482.532 56.1398H482.089L482.142 58.4075V61.1889H480.229ZM484.109 56.5118C484.735 56.5118 485.219 56.3347 485.562 55.9804C485.916 55.6142 486.093 55.0887 486.093 54.4036V51.8525C486.093 51.1675 485.916 50.6478 485.562 50.2935C485.219 49.9274 484.735 49.7443 484.109 49.7443C483.507 49.7443 483.028 49.9333 482.674 50.3112C482.32 50.6774 482.142 51.1911 482.142 51.8525V54.4036C482.142 55.065 482.32 55.5847 482.674 55.9627C483.028 56.3288 483.507 56.5118 484.109 56.5118ZM489.966 61.1889V48.2562H491.862V50.1163H492.269L491.862 50.5592C491.862 49.7915 492.098 49.1892 492.57 48.7522C493.055 48.3034 493.698 48.079 494.501 48.079C495.482 48.079 496.261 48.4097 496.84 49.0711C497.43 49.7207 497.726 50.6124 497.726 51.7462V54.4922C497.726 55.2481 497.59 55.9036 497.318 56.4587C497.058 57.002 496.686 57.4272 496.202 57.7343C495.73 58.0295 495.163 58.1772 494.501 58.1772C493.71 58.1772 493.072 57.9587 492.588 57.5217C492.104 57.0729 491.862 56.4646 491.862 55.6969L492.269 56.1398H491.826L491.879 58.4075V61.1889H489.966ZM493.846 56.5118C494.472 56.5118 494.956 56.3347 495.299 55.9804C495.653 55.6142 495.83 55.0887 495.83 54.4036V51.8525C495.83 51.1675 495.653 50.6478 495.299 50.2935C494.956 49.9274 494.472 49.7443 493.846 49.7443C493.243 49.7443 492.765 49.9333 492.411 50.3112C492.057 50.6774 491.879 51.1911 491.879 51.8525V54.4036C491.879 55.065 492.057 55.5847 492.411 55.9627C492.765 56.3288 493.243 56.5118 493.846 56.5118ZM504.929 58C504.327 58 503.801 57.8819 503.352 57.6457C502.904 57.3977 502.549 57.0492 502.289 56.6004C502.041 56.1516 501.917 55.632 501.917 55.0414V46.8034H498.729V45.0673H503.831V55.0414C503.831 55.4194 503.937 55.7205 504.15 55.9449C504.362 56.1575 504.652 56.2638 505.018 56.2638H508.029V58H504.929ZM509.387 58V56.2638H512.806V49.9923H509.83V48.2562H514.666V56.2638H517.802V58H509.387ZM513.55 46.5731C513.137 46.5731 512.806 46.4668 512.558 46.2542C512.31 46.0298 512.186 45.7346 512.186 45.3684C512.186 44.9905 512.31 44.6952 512.558 44.4826C512.806 44.2582 513.137 44.146 513.55 44.146C513.963 44.146 514.294 44.2582 514.542 44.4826C514.79 44.6952 514.914 44.9905 514.914 45.3684C514.914 45.7346 514.79 46.0298 514.542 46.2542C514.294 46.4668 513.963 46.5731 513.55 46.5731ZM523.074 58.1772C522.271 58.1772 521.563 58.0295 520.948 57.7343C520.346 57.4272 519.88 56.9902 519.549 56.4233C519.23 55.8445 519.07 55.1713 519.07 54.4036V51.8525C519.07 51.073 519.23 50.3998 519.549 49.8329C519.88 49.266 520.346 48.8349 520.948 48.5396C521.563 48.2325 522.271 48.079 523.074 48.079C524.244 48.079 525.183 48.3861 525.891 49.0002C526.6 49.6144 526.972 50.4529 527.007 51.5159H525.094C525.059 50.9608 524.864 50.5297 524.509 50.2226C524.155 49.9156 523.677 49.762 523.074 49.762C522.425 49.762 521.911 49.9451 521.533 50.3112C521.155 50.6655 520.966 51.1734 520.966 51.8348V54.4036C520.966 55.065 521.155 55.5788 521.533 55.9449C521.911 56.3111 522.425 56.4941 523.074 56.4941C523.677 56.4941 524.155 56.3406 524.509 56.0335C524.864 55.7264 525.059 55.2953 525.094 54.7402H527.007C526.972 55.8032 526.6 56.6418 525.891 57.2559C525.183 57.8701 524.244 58.1772 523.074 58.1772ZM531.766 58.1772C530.75 58.1772 529.947 57.9173 529.357 57.3977C528.778 56.8662 528.489 56.1457 528.489 55.2363C528.489 54.3151 528.796 53.5946 529.41 53.0749C530.036 52.5434 530.892 52.2777 531.979 52.2777H534.689V51.3742C534.689 50.8427 534.524 50.4293 534.193 50.1341C533.862 49.8388 533.396 49.6912 532.794 49.6912C532.262 49.6912 531.819 49.8093 531.465 50.0455C531.111 50.2699 530.904 50.5711 530.845 50.949H528.967C529.073 50.075 529.475 49.3782 530.172 48.8585C530.88 48.3388 531.772 48.079 532.847 48.079C534.004 48.079 534.919 48.3743 535.593 48.9648C536.266 49.5435 536.602 50.3348 536.602 51.3388V58H534.742V56.2107H534.423L534.742 55.8564C534.742 56.565 534.471 57.1319 533.927 57.5571C533.384 57.9705 532.664 58.1772 531.766 58.1772ZM532.333 56.7067C533.018 56.7067 533.579 56.5355 534.016 56.193C534.465 55.8386 534.689 55.3898 534.689 54.8465V53.571H532.014C531.518 53.571 531.122 53.7068 530.827 53.9784C530.544 54.2501 530.402 54.6221 530.402 55.0946C530.402 55.5906 530.573 55.9863 530.916 56.2815C531.258 56.565 531.731 56.7067 532.333 56.7067ZM543.54 58C542.654 58 541.964 57.7579 541.467 57.2736C540.971 56.7894 540.723 56.1162 540.723 55.254V49.9923H538.031V48.2562H540.723V45.5102H542.637V48.2562H546.446V49.9923H542.637V55.254C542.637 55.9272 542.962 56.2638 543.611 56.2638H546.269V58H543.54ZM548.334 58V56.2638H551.754V49.9923H548.777V48.2562H553.614V56.2638H556.75V58H548.334ZM552.498 46.5731C552.084 46.5731 551.754 46.4668 551.506 46.2542C551.258 46.0298 551.134 45.7346 551.134 45.3684C551.134 44.9905 551.258 44.6952 551.506 44.4826C551.754 44.2582 552.084 44.146 552.498 44.146C552.911 44.146 553.242 44.2582 553.49 44.4826C553.738 44.6952 553.862 44.9905 553.862 45.3684C553.862 45.7346 553.738 46.0298 553.49 46.2542C553.242 46.4668 552.911 46.5731 552.498 46.5731ZM561.951 58.1594C561.148 58.1594 560.451 58.0059 559.861 57.6988C559.27 57.3917 558.815 56.9548 558.497 56.3878C558.178 55.8209 558.018 55.1536 558.018 54.3859V51.8702C558.018 51.0907 558.178 50.4234 558.497 49.8683C558.815 49.3014 559.27 48.8644 559.861 48.5573C560.451 48.2502 561.148 48.0967 561.951 48.0967C562.754 48.0967 563.451 48.2502 564.042 48.5573C564.632 48.8644 565.087 49.3014 565.406 49.8683C565.725 50.4234 565.884 51.0907 565.884 51.8702V54.3859C565.884 55.1536 565.725 55.8209 565.406 56.3878C565.087 56.9548 564.632 57.3917 564.042 57.6988C563.451 58.0059 562.754 58.1594 561.951 58.1594ZM561.951 56.4764C562.601 56.4764 563.103 56.2993 563.457 55.9449C563.811 55.5788 563.989 55.0591 563.989 54.3859V51.8702C563.989 51.1852 563.811 50.6655 563.457 50.3112C563.103 49.9569 562.601 49.7797 561.951 49.7797C561.313 49.7797 560.811 49.9569 560.445 50.3112C560.091 50.6655 559.914 51.1852 559.914 51.8702V54.3859C559.914 55.0591 560.091 55.5788 560.445 55.9449C560.811 56.2993 561.313 56.4764 561.951 56.4764ZM567.861 58V48.2562H569.757V50.1163H570.218L569.757 50.5592C569.757 49.7797 569.987 49.1715 570.448 48.7345C570.909 48.2975 571.546 48.079 572.361 48.079C573.33 48.079 574.103 48.392 574.682 49.0179C575.261 49.6321 575.55 50.4648 575.55 51.5159V58H573.637V51.7285C573.637 51.0907 573.466 50.6006 573.123 50.2581C572.781 49.9156 572.314 49.7443 571.724 49.7443C571.121 49.7443 570.643 49.9274 570.289 50.2935C569.946 50.6478 569.775 51.1675 569.775 51.8525V58H567.861ZM498.714 78.1772C497.84 78.1772 497.09 78.0354 496.464 77.752C495.838 77.4567 495.354 77.0433 495.012 76.5118C494.669 75.9686 494.498 75.3249 494.498 74.5808H496.393C496.393 75.1713 496.6 75.6379 497.014 75.9804C497.427 76.3111 498 76.4764 498.732 76.4764C499.417 76.4764 499.954 76.3111 500.344 75.9804C500.734 75.6497 500.929 75.195 500.929 74.6162C500.929 74.132 500.793 73.7127 500.521 73.3584C500.262 73.0041 499.884 72.7619 499.388 72.632L497.758 72.1537C496.813 71.882 496.081 71.4214 495.561 70.7718C495.053 70.1104 494.799 69.325 494.799 68.4156C494.799 67.707 494.958 67.0869 495.277 66.5554C495.596 66.0239 496.051 65.6106 496.642 65.3153C497.232 65.02 497.929 64.8724 498.732 64.8724C499.913 64.8724 500.858 65.1913 501.567 65.8291C502.287 66.4668 502.653 67.3231 502.665 68.3979H500.752C500.752 67.831 500.569 67.3881 500.202 67.0692C499.848 66.7385 499.346 66.5731 498.697 66.5731C498.071 66.5731 497.58 66.7267 497.226 67.0337C496.872 67.329 496.695 67.7483 496.695 68.2916C496.695 68.7758 496.825 69.1951 497.084 69.5494C497.356 69.9038 497.74 70.1518 498.236 70.2935L499.884 70.7896C500.828 71.0494 501.555 71.51 502.063 72.1714C502.57 72.8328 502.824 73.6241 502.824 74.5454C502.824 75.2658 502.653 75.9036 502.311 76.4587C501.968 77.002 501.49 77.4272 500.876 77.7343C500.262 78.0295 499.541 78.1772 498.714 78.1772ZM508.398 78.1772C507.607 78.1772 506.91 78.0236 506.308 77.7165C505.717 77.3977 505.262 76.9548 504.943 76.3878C504.625 75.8209 504.465 75.1595 504.465 74.4036V71.8525C504.465 71.0848 504.625 70.4234 504.943 69.8683C505.262 69.3014 505.717 68.8644 506.308 68.5573C506.91 68.2384 507.607 68.079 508.398 68.079C509.201 68.079 509.898 68.2384 510.489 68.5573C511.079 68.8644 511.534 69.3014 511.853 69.8683C512.172 70.4234 512.331 71.0848 512.331 71.8525V73.5887H506.308V74.4036C506.308 75.1241 506.485 75.6733 506.839 76.0512C507.205 76.4292 507.731 76.6181 508.416 76.6181C508.971 76.6181 509.42 76.5237 509.762 76.3347C510.105 76.1339 510.317 75.8445 510.4 75.4666H512.296C512.154 76.2934 511.729 76.9548 511.02 77.4508C510.311 77.935 509.437 78.1772 508.398 78.1772ZM510.489 72.4372V71.8348C510.489 71.1262 510.311 70.577 509.957 70.1872C509.603 69.7975 509.083 69.6026 508.398 69.6026C507.725 69.6026 507.205 69.7975 506.839 70.1872C506.485 70.577 506.308 71.1321 506.308 71.8525V72.2954L510.63 72.2777L510.489 72.4372ZM514.627 78V68.2562H516.47V70.1163H516.93L516.346 71.2679C516.346 70.2167 516.576 69.4254 517.037 68.8939C517.497 68.3506 518.182 68.079 519.092 68.079C520.131 68.079 520.952 68.4038 521.554 69.0534C522.168 69.6912 522.475 70.5711 522.475 71.6931V72.3486H520.509V71.8525C520.509 71.1557 520.332 70.6242 519.977 70.2581C519.635 69.8801 519.151 69.6912 518.525 69.6912C517.899 69.6912 517.409 69.8801 517.054 70.2581C516.712 70.636 516.541 71.1675 516.541 71.8525V78H514.627ZM526.614 78L523.39 68.2562H525.339L527.34 74.4922C527.47 74.8583 527.583 75.2304 527.677 75.6083C527.783 75.9745 527.86 76.2638 527.907 76.4764C527.966 76.2638 528.043 75.9745 528.138 75.6083C528.244 75.2304 528.35 74.8583 528.457 74.4922L530.423 68.2562H532.354L529.13 78H526.614ZM537.609 78.1772C536.818 78.1772 536.121 78.0236 535.518 77.7165C534.928 77.3977 534.473 76.9548 534.154 76.3878C533.835 75.8209 533.676 75.1595 533.676 74.4036V71.8525C533.676 71.0848 533.835 70.4234 534.154 69.8683C534.473 69.3014 534.928 68.8644 535.518 68.5573C536.121 68.2384 536.818 68.079 537.609 68.079C538.412 68.079 539.109 68.2384 539.699 68.5573C540.29 68.8644 540.745 69.3014 541.063 69.8683C541.382 70.4234 541.542 71.0848 541.542 71.8525V73.5887H535.518V74.4036C535.518 75.1241 535.696 75.6733 536.05 76.0512C536.416 76.4292 536.942 76.6181 537.627 76.6181C538.182 76.6181 538.63 76.5237 538.973 76.3347C539.315 76.1339 539.528 75.8445 539.611 75.4666H541.506C541.365 76.2934 540.939 76.9548 540.231 77.4508C539.522 77.935 538.648 78.1772 537.609 78.1772ZM539.699 72.4372V71.8348C539.699 71.1262 539.522 70.577 539.168 70.1872C538.814 69.7975 538.294 69.6026 537.609 69.6026C536.936 69.6026 536.416 69.7975 536.05 70.1872C535.696 70.577 535.518 71.1321 535.518 71.8525V72.2954L539.841 72.2777L539.699 72.4372ZM543.838 78V68.2562H545.68V70.1163H546.141L545.556 71.2679C545.556 70.2167 545.787 69.4254 546.247 68.8939C546.708 68.3506 547.393 68.079 548.302 68.079C549.342 68.079 550.163 68.4038 550.765 69.0534C551.379 69.6912 551.686 70.5711 551.686 71.6931V72.3486H549.72V71.8525C549.72 71.1557 549.543 70.6242 549.188 70.2581C548.846 69.8801 548.361 69.6912 547.736 69.6912C547.11 69.6912 546.619 69.8801 546.265 70.2581C545.923 70.636 545.751 71.1675 545.751 71.8525V78H543.838Z" fill="white" style="fill:white;fill-opacity:1;"/>
<path d="M691.383 70V57.0673H693.296V68.2461H698.948V70H691.383ZM701.12 70V57.0673H703.033V68.2461H708.684V70H701.12ZM710.095 70V57.0673H712.451L713.744 61.2128C713.874 61.6026 713.986 61.9805 714.081 62.3467C714.175 62.701 714.24 62.9667 714.276 63.1439C714.323 62.9667 714.388 62.701 714.471 62.3467C714.565 61.9805 714.671 61.6026 714.79 61.2128L716.03 57.0673H718.386V70H716.579V65.6418C716.579 65.0867 716.591 64.4726 716.614 63.7994C716.65 63.1143 716.697 62.4293 716.756 61.7443C716.815 61.0475 716.874 60.3861 716.933 59.7601C716.992 59.1223 717.045 58.5672 717.093 58.0948L715.179 64.384H713.337L711.388 58.0948C711.447 58.5554 711.506 59.0928 711.565 59.707C711.624 60.3093 711.677 60.953 711.725 61.638C711.772 62.323 711.813 63.014 711.849 63.7108C711.884 64.3958 711.902 65.0395 711.902 65.6418V70H710.095Z" fill="white" style="fill:white;fill-opacity:1;"/>
<path d="M136.319 193.177C135.079 193.177 134.122 192.841 133.449 192.167C132.776 191.482 132.439 190.555 132.439 189.386V180.067H134.352V189.386C134.352 190.036 134.512 190.549 134.831 190.927C135.161 191.305 135.657 191.494 136.319 191.494C136.968 191.494 137.459 191.305 137.789 190.927C138.12 190.549 138.285 190.036 138.285 189.386V180.067H140.199V189.386C140.199 190.555 139.862 191.482 139.189 192.167C138.516 192.841 137.559 193.177 136.319 193.177ZM145.719 193.159C145.022 193.159 144.408 193.047 143.877 192.823C143.357 192.598 142.944 192.291 142.637 191.902C142.341 191.5 142.17 191.028 142.123 190.484H144.036C144.083 190.803 144.255 191.063 144.55 191.264C144.845 191.453 145.235 191.547 145.719 191.547H146.481C147.06 191.547 147.497 191.429 147.792 191.193C148.087 190.957 148.235 190.644 148.235 190.254C148.235 189.876 148.099 189.581 147.827 189.368C147.568 189.144 147.178 188.996 146.658 188.925L145.4 188.73C144.361 188.565 143.593 188.27 143.097 187.845C142.613 187.408 142.371 186.764 142.371 185.914C142.371 185.016 142.66 184.325 143.239 183.841C143.829 183.345 144.698 183.097 145.843 183.097H146.516C147.532 183.097 148.341 183.333 148.943 183.805C149.558 184.266 149.906 184.886 149.989 185.666H148.075C148.028 185.382 147.869 185.152 147.597 184.975C147.337 184.797 146.977 184.709 146.516 184.709H145.843C145.288 184.709 144.881 184.815 144.621 185.028C144.373 185.229 144.249 185.53 144.249 185.931C144.249 186.286 144.361 186.551 144.585 186.729C144.81 186.906 145.158 187.03 145.631 187.101L146.924 187.313C148.022 187.467 148.825 187.774 149.333 188.234C149.853 188.683 150.113 189.339 150.113 190.201C150.113 191.134 149.806 191.86 149.192 192.38C148.589 192.9 147.686 193.159 146.481 193.159H145.719ZM155.793 193.177C155.001 193.177 154.305 193.024 153.702 192.717C153.112 192.398 152.657 191.955 152.338 191.388C152.019 190.821 151.86 190.16 151.86 189.404V186.853C151.86 186.085 152.019 185.423 152.338 184.868C152.657 184.301 153.112 183.864 153.702 183.557C154.305 183.238 155.001 183.079 155.793 183.079C156.596 183.079 157.293 183.238 157.883 183.557C158.474 183.864 158.928 184.301 159.247 184.868C159.566 185.423 159.726 186.085 159.726 186.853V188.589H153.702V189.404C153.702 190.124 153.879 190.673 154.234 191.051C154.6 191.429 155.125 191.618 155.81 191.618C156.366 191.618 156.814 191.524 157.157 191.335C157.499 191.134 157.712 190.845 157.795 190.467H159.69C159.548 191.293 159.123 191.955 158.415 192.451C157.706 192.935 156.832 193.177 155.793 193.177ZM157.883 187.437V186.835C157.883 186.126 157.706 185.577 157.352 185.187C156.997 184.797 156.478 184.603 155.793 184.603C155.119 184.603 154.6 184.797 154.234 185.187C153.879 185.577 153.702 186.132 153.702 186.853V187.295L158.025 187.278L157.883 187.437ZM162.022 193V183.256H163.864V185.116H164.325L163.74 186.268C163.74 185.217 163.971 184.425 164.431 183.894C164.892 183.351 165.577 183.079 166.486 183.079C167.526 183.079 168.346 183.404 168.949 184.053C169.563 184.691 169.87 185.571 169.87 186.693V187.349H167.904V186.853C167.904 186.156 167.726 185.624 167.372 185.258C167.03 184.88 166.545 184.691 165.919 184.691C165.293 184.691 164.803 184.88 164.449 185.258C164.106 185.636 163.935 186.167 163.935 186.853V193H162.022ZM181.177 193V180.067H185.411C186.249 180.067 186.976 180.227 187.59 180.546C188.216 180.864 188.694 181.319 189.025 181.91C189.368 182.488 189.539 183.173 189.539 183.965C189.539 184.744 189.368 185.429 189.025 186.02C188.682 186.61 188.204 187.065 187.59 187.384C186.976 187.703 186.249 187.862 185.411 187.862H183.09V193H181.177ZM183.09 186.144H185.411C186.072 186.144 186.598 185.949 186.988 185.559C187.389 185.158 187.59 184.626 187.59 183.965C187.59 183.292 187.389 182.76 186.988 182.37C186.598 181.981 186.072 181.786 185.411 181.786H183.09V186.144ZM191.233 193V183.256H193.075V185.116H193.536L192.951 186.268C192.951 185.217 193.181 184.425 193.642 183.894C194.103 183.351 194.788 183.079 195.697 183.079C196.736 183.079 197.557 183.404 198.16 184.053C198.774 184.691 199.081 185.571 199.081 186.693V187.349H197.114V186.853C197.114 186.156 196.937 185.624 196.583 185.258C196.24 184.88 195.756 184.691 195.13 184.691C194.504 184.691 194.014 184.88 193.66 185.258C193.317 185.636 193.146 186.167 193.146 186.853V193H191.233ZM204.477 193.159C203.674 193.159 202.977 193.006 202.387 192.699C201.796 192.392 201.342 191.955 201.023 191.388C200.704 190.821 200.544 190.154 200.544 189.386V186.87C200.544 186.091 200.704 185.423 201.023 184.868C201.342 184.301 201.796 183.864 202.387 183.557C202.977 183.25 203.674 183.097 204.477 183.097C205.28 183.097 205.977 183.25 206.568 183.557C207.158 183.864 207.613 184.301 207.932 184.868C208.251 185.423 208.41 186.091 208.41 186.87V189.386C208.41 190.154 208.251 190.821 207.932 191.388C207.613 191.955 207.158 192.392 206.568 192.699C205.977 193.006 205.28 193.159 204.477 193.159ZM204.477 191.476C205.127 191.476 205.629 191.299 205.983 190.945C206.337 190.579 206.515 190.059 206.515 189.386V186.87C206.515 186.185 206.337 185.666 205.983 185.311C205.629 184.957 205.127 184.78 204.477 184.78C203.84 184.78 203.338 184.957 202.971 185.311C202.617 185.666 202.44 186.185 202.44 186.87V189.386C202.44 190.059 202.617 190.579 202.971 190.945C203.338 191.299 203.84 191.476 204.477 191.476ZM209.945 193V183.256H211.539V184.496H211.893L211.628 184.868C211.628 184.325 211.775 183.894 212.071 183.575C212.366 183.244 212.762 183.079 213.258 183.079C213.789 183.079 214.197 183.286 214.48 183.699C214.775 184.112 214.923 184.679 214.923 185.4L214.498 184.496H215.171L214.887 184.868C214.887 184.325 215.035 183.894 215.33 183.575C215.637 183.244 216.045 183.079 216.553 183.079C217.155 183.079 217.628 183.309 217.97 183.77C218.313 184.219 218.484 184.821 218.484 185.577V193H216.783V185.63C216.783 185.264 216.7 184.981 216.535 184.78C216.381 184.579 216.157 184.479 215.862 184.479C215.567 184.479 215.336 184.579 215.171 184.78C215.017 184.969 214.941 185.246 214.941 185.612V193H213.506V185.63C213.506 185.252 213.423 184.969 213.258 184.78C213.092 184.579 212.856 184.479 212.549 184.479C212.254 184.479 212.029 184.579 211.876 184.78C211.734 184.969 211.663 185.246 211.663 185.612V193H209.945ZM220.124 196.189V183.256H222.02V185.116H222.428L222.02 185.559C222.02 184.792 222.256 184.189 222.729 183.752C223.213 183.303 223.857 183.079 224.66 183.079C225.64 183.079 226.42 183.41 226.998 184.071C227.589 184.721 227.884 185.612 227.884 186.746V189.492C227.884 190.248 227.748 190.904 227.477 191.459C227.217 192.002 226.845 192.427 226.361 192.734C225.888 193.03 225.321 193.177 224.66 193.177C223.868 193.177 223.231 192.959 222.746 192.522C222.262 192.073 222.02 191.465 222.02 190.697L222.428 191.14H221.985L222.038 193.407V196.189H220.124ZM224.004 191.512C224.63 191.512 225.115 191.335 225.457 190.98C225.811 190.614 225.989 190.089 225.989 189.404V186.853C225.989 186.167 225.811 185.648 225.457 185.294C225.115 184.927 224.63 184.744 224.004 184.744C223.402 184.744 222.924 184.933 222.569 185.311C222.215 185.677 222.038 186.191 222.038 186.853V189.404C222.038 190.065 222.215 190.585 222.569 190.963C222.924 191.329 223.402 191.512 224.004 191.512ZM234.751 193C233.865 193 233.174 192.758 232.678 192.274C232.182 191.789 231.934 191.116 231.934 190.254V184.992H229.241V183.256H231.934V180.51H233.848V183.256H237.656V184.992H233.848V190.254C233.848 190.927 234.172 191.264 234.822 191.264H237.479V193H234.751Z" fill="white" style="fill:white;fill-opacity:1;"/>
<path d="M126.653 249.177C125.85 249.177 125.147 249.03 124.545 248.734C123.954 248.427 123.493 247.99 123.163 247.423C122.844 246.845 122.684 246.171 122.684 245.404V239.664C122.684 238.884 122.844 238.211 123.163 237.644C123.493 237.077 123.954 236.646 124.545 236.351C125.147 236.044 125.85 235.89 126.653 235.89C127.456 235.89 128.153 236.044 128.743 236.351C129.334 236.658 129.789 237.095 130.107 237.662C130.438 238.217 130.603 238.884 130.603 239.664H128.69C128.69 238.99 128.513 238.477 128.159 238.122C127.804 237.768 127.302 237.591 126.653 237.591C126.003 237.591 125.495 237.768 125.129 238.122C124.775 238.477 124.598 238.985 124.598 239.646V245.404C124.598 246.065 124.775 246.579 125.129 246.945C125.495 247.299 126.003 247.476 126.653 247.476C127.302 247.476 127.804 247.299 128.159 246.945C128.513 246.579 128.69 246.065 128.69 245.404H130.603C130.603 246.171 130.438 246.839 130.107 247.406C129.789 247.972 129.334 248.409 128.743 248.717C128.153 249.024 127.456 249.177 126.653 249.177ZM137.718 249C137.116 249 136.59 248.882 136.142 248.646C135.693 248.398 135.339 248.049 135.079 247.6C134.831 247.152 134.707 246.632 134.707 246.041V237.803H131.518V236.067H136.62V246.041C136.62 246.419 136.726 246.721 136.939 246.945C137.151 247.158 137.441 247.264 137.807 247.264H140.819V249H137.718ZM145.081 249.177C144.066 249.177 143.263 248.917 142.672 248.398C142.093 247.866 141.804 247.146 141.804 246.236C141.804 245.315 142.111 244.595 142.725 244.075C143.351 243.543 144.207 243.278 145.294 243.278H148.005V242.374C148.005 241.843 147.839 241.429 147.508 241.134C147.178 240.839 146.711 240.691 146.109 240.691C145.577 240.691 145.135 240.809 144.78 241.045C144.426 241.27 144.219 241.571 144.16 241.949H142.282C142.389 241.075 142.79 240.378 143.487 239.859C144.196 239.339 145.087 239.079 146.162 239.079C147.32 239.079 148.235 239.374 148.908 239.965C149.581 240.544 149.918 241.335 149.918 242.339V249H148.058V247.211H147.739L148.058 246.856C148.058 247.565 147.786 248.132 147.243 248.557C146.699 248.97 145.979 249.177 145.081 249.177ZM145.648 247.707C146.333 247.707 146.894 247.535 147.331 247.193C147.78 246.839 148.005 246.39 148.005 245.847V244.571H145.329C144.833 244.571 144.438 244.707 144.142 244.978C143.859 245.25 143.717 245.622 143.717 246.095C143.717 246.591 143.888 246.986 144.231 247.282C144.574 247.565 145.046 247.707 145.648 247.707ZM152.285 249V239.256H154.127V241.116H154.588L154.003 242.268C154.003 241.217 154.234 240.425 154.694 239.894C155.155 239.351 155.84 239.079 156.749 239.079C157.789 239.079 158.61 239.404 159.212 240.053C159.826 240.691 160.133 241.571 160.133 242.693V243.349H158.167V242.853C158.167 242.156 157.989 241.624 157.635 241.258C157.293 240.88 156.808 240.691 156.182 240.691C155.556 240.691 155.066 240.88 154.712 241.258C154.369 241.636 154.198 242.167 154.198 242.853V249H152.285ZM161.65 249V247.264H165.069V240.992H162.093V239.256H166.929V247.264H170.065V249H161.65ZM165.813 237.573C165.4 237.573 165.069 237.467 164.821 237.254C164.573 237.03 164.449 236.735 164.449 236.368C164.449 235.99 164.573 235.695 164.821 235.483C165.069 235.258 165.4 235.146 165.813 235.146C166.226 235.146 166.557 235.258 166.805 235.483C167.053 235.695 167.177 235.99 167.177 236.368C167.177 236.735 167.053 237.03 166.805 237.254C166.557 237.467 166.226 237.573 165.813 237.573ZM173.725 249V242.02H170.962V240.284H173.725V238.707C173.725 237.892 173.985 237.248 174.505 236.776C175.024 236.303 175.733 236.067 176.631 236.067H179.483V237.768H176.666C176.335 237.768 176.076 237.851 175.887 238.016C175.709 238.181 175.621 238.418 175.621 238.725V240.284H179.483V242.02H175.621V249H173.725ZM181.124 249V247.264H184.543V240.992H181.567V239.256H186.403V247.264H189.539V249H181.124ZM185.287 237.573C184.874 237.573 184.543 237.467 184.295 237.254C184.047 237.03 183.923 236.735 183.923 236.368C183.923 235.99 184.047 235.695 184.295 235.483C184.543 235.258 184.874 235.146 185.287 235.146C185.7 235.146 186.031 235.258 186.279 235.483C186.527 235.695 186.651 235.99 186.651 236.368C186.651 236.735 186.527 237.03 186.279 237.254C186.031 237.467 185.7 237.573 185.287 237.573ZM194.811 249.177C194.008 249.177 193.299 249.03 192.685 248.734C192.083 248.427 191.616 247.99 191.286 247.423C190.967 246.845 190.807 246.171 190.807 245.404V242.853C190.807 242.073 190.967 241.4 191.286 240.833C191.616 240.266 192.083 239.835 192.685 239.54C193.299 239.233 194.008 239.079 194.811 239.079C195.981 239.079 196.919 239.386 197.628 240C198.337 240.614 198.709 241.453 198.744 242.516H196.831C196.795 241.961 196.601 241.53 196.246 241.223C195.892 240.916 195.414 240.762 194.811 240.762C194.162 240.762 193.648 240.945 193.27 241.311C192.892 241.666 192.703 242.173 192.703 242.835V245.404C192.703 246.065 192.892 246.579 193.27 246.945C193.648 247.311 194.162 247.494 194.811 247.494C195.414 247.494 195.892 247.341 196.246 247.034C196.601 246.726 196.795 246.295 196.831 245.74H198.744C198.709 246.803 198.337 247.642 197.628 248.256C196.919 248.87 195.981 249.177 194.811 249.177ZM203.503 249.177C202.487 249.177 201.684 248.917 201.094 248.398C200.515 247.866 200.225 247.146 200.225 246.236C200.225 245.315 200.533 244.595 201.147 244.075C201.773 243.543 202.629 243.278 203.716 243.278H206.426V242.374C206.426 241.843 206.261 241.429 205.93 241.134C205.599 240.839 205.133 240.691 204.53 240.691C203.999 240.691 203.556 240.809 203.202 241.045C202.847 241.27 202.641 241.571 202.582 241.949H200.704C200.81 241.075 201.212 240.378 201.908 239.859C202.617 239.339 203.509 239.079 204.584 239.079C205.741 239.079 206.656 239.374 207.33 239.965C208.003 240.544 208.339 241.335 208.339 242.339V249H206.479V247.211H206.16L206.479 246.856C206.479 247.565 206.208 248.132 205.664 248.557C205.121 248.97 204.401 249.177 203.503 249.177ZM204.07 247.707C204.755 247.707 205.316 247.535 205.753 247.193C206.202 246.839 206.426 246.39 206.426 245.847V244.571H203.751C203.255 244.571 202.859 244.707 202.564 244.978C202.281 245.25 202.139 245.622 202.139 246.095C202.139 246.591 202.31 246.986 202.653 247.282C202.995 247.565 203.467 247.707 204.07 247.707ZM215.277 249C214.391 249 213.7 248.758 213.204 248.274C212.708 247.789 212.46 247.116 212.46 246.254V240.992H209.767V239.256H212.46V236.51H214.374V239.256H218.183V240.992H214.374V246.254C214.374 246.927 214.698 247.264 215.348 247.264H218.005V249H215.277ZM220.071 249V247.264H223.491V240.992H220.514V239.256H225.351V247.264H228.486V249H220.071ZM224.235 237.573C223.821 237.573 223.491 237.467 223.243 237.254C222.994 237.03 222.87 236.735 222.87 236.368C222.87 235.99 222.994 235.695 223.243 235.483C223.491 235.258 223.821 235.146 224.235 235.146C224.648 235.146 224.979 235.258 225.227 235.483C225.475 235.695 225.599 235.99 225.599 236.368C225.599 236.735 225.475 237.03 225.227 237.254C224.979 237.467 224.648 237.573 224.235 237.573ZM233.688 249.159C232.885 249.159 232.188 249.006 231.598 248.699C231.007 248.392 230.552 247.955 230.233 247.388C229.915 246.821 229.755 246.154 229.755 245.386V242.87C229.755 242.091 229.915 241.423 230.233 240.868C230.552 240.301 231.007 239.864 231.598 239.557C232.188 239.25 232.885 239.097 233.688 239.097C234.491 239.097 235.188 239.25 235.779 239.557C236.369 239.864 236.824 240.301 237.143 240.868C237.462 241.423 237.621 242.091 237.621 242.87V245.386C237.621 246.154 237.462 246.821 237.143 247.388C236.824 247.955 236.369 248.392 235.779 248.699C235.188 249.006 234.491 249.159 233.688 249.159ZM233.688 247.476C234.338 247.476 234.84 247.299 235.194 246.945C235.548 246.579 235.725 246.059 235.725 245.386V242.87C235.725 242.185 235.548 241.666 235.194 241.311C234.84 240.957 234.338 240.78 233.688 240.78C233.05 240.78 232.548 240.957 232.182 241.311C231.828 241.666 231.651 242.185 231.651 242.87V245.386C231.651 246.059 231.828 246.579 232.182 246.945C232.548 247.299 233.05 247.476 233.688 247.476ZM239.598 249V239.256H241.494V241.116H241.955L241.494 241.559C241.494 240.78 241.724 240.171 242.185 239.734C242.646 239.297 243.283 239.079 244.098 239.079C245.067 239.079 245.84 239.392 246.419 240.018C246.998 240.632 247.287 241.465 247.287 242.516V249H245.374V242.729C245.374 242.091 245.203 241.601 244.86 241.258C244.518 240.916 244.051 240.744 243.46 240.744C242.858 240.744 242.38 240.927 242.025 241.294C241.683 241.648 241.512 242.167 241.512 242.853V249H239.598Z" fill="white" fill-opacity="0.51" style="fill:white;fill-opacity:0.51;"/>
<path d="M327.959 301V288.067H335.559V289.768H329.836V293.435H334.939V295.118H329.836V299.299H335.559V301H327.959ZM337.518 301V291.256H339.414V293.116H339.875L339.414 293.559C339.414 292.78 339.644 292.171 340.105 291.734C340.565 291.297 341.203 291.079 342.018 291.079C342.987 291.079 343.76 291.392 344.339 292.018C344.918 292.632 345.207 293.465 345.207 294.516V301H343.294V294.729C343.294 294.091 343.123 293.601 342.78 293.258C342.437 292.916 341.971 292.744 341.38 292.744C340.778 292.744 340.3 292.927 339.945 293.294C339.603 293.648 339.432 294.167 339.432 294.853V301H337.518ZM352.145 301C351.259 301 350.568 300.758 350.072 300.274C349.576 299.789 349.328 299.116 349.328 298.254V292.992H346.635V291.256H349.328V288.51H351.241V291.256H355.05V292.992H351.241V298.254C351.241 298.927 351.566 299.264 352.216 299.264H354.873V301H352.145ZM356.939 301V299.264H360.358V292.992H357.382V291.256H362.218V299.264H365.354V301H356.939ZM361.102 289.573C360.689 289.573 360.358 289.467 360.11 289.254C359.862 289.03 359.738 288.735 359.738 288.368C359.738 287.99 359.862 287.695 360.11 287.483C360.358 287.258 360.689 287.146 361.102 287.146C361.516 287.146 361.846 287.258 362.094 287.483C362.342 287.695 362.466 287.99 362.466 288.368C362.466 288.735 362.342 289.03 362.094 289.254C361.846 289.467 361.516 289.573 361.102 289.573ZM371.619 301C370.733 301 370.042 300.758 369.546 300.274C369.05 299.789 368.802 299.116 368.802 298.254V292.992H366.109V291.256H368.802V288.51H370.715V291.256H374.524V292.992H370.715V298.254C370.715 298.927 371.04 299.264 371.69 299.264H374.347V301H371.619ZM376.413 301V299.264H379.832V292.992H376.856V291.256H381.692V299.264H384.828V301H376.413ZM380.576 289.573C380.163 289.573 379.832 289.467 379.584 289.254C379.336 289.03 379.212 288.735 379.212 288.368C379.212 287.99 379.336 287.695 379.584 287.483C379.832 287.258 380.163 287.146 380.576 287.146C380.99 287.146 381.32 287.258 381.568 287.483C381.816 287.695 381.94 287.99 381.94 288.368C381.94 288.735 381.816 289.03 381.568 289.254C381.32 289.467 380.99 289.573 380.576 289.573ZM390.03 301.177C389.238 301.177 388.541 301.024 387.939 300.717C387.349 300.398 386.894 299.955 386.575 299.388C386.256 298.821 386.097 298.16 386.097 297.404V294.853C386.097 294.085 386.256 293.423 386.575 292.868C386.894 292.301 387.349 291.864 387.939 291.557C388.541 291.238 389.238 291.079 390.03 291.079C390.833 291.079 391.53 291.238 392.12 291.557C392.711 291.864 393.165 292.301 393.484 292.868C393.803 293.423 393.963 294.085 393.963 294.853V296.589H387.939V297.404C387.939 298.124 388.116 298.673 388.471 299.051C388.837 299.429 389.362 299.618 390.047 299.618C390.602 299.618 391.051 299.524 391.394 299.335C391.736 299.134 391.949 298.845 392.032 298.467H393.927C393.785 299.293 393.36 299.955 392.652 300.451C391.943 300.935 391.069 301.177 390.03 301.177ZM392.12 295.437V294.835C392.12 294.126 391.943 293.577 391.589 293.187C391.234 292.797 390.715 292.603 390.03 292.603C389.356 292.603 388.837 292.797 388.471 293.187C388.116 293.577 387.939 294.132 387.939 294.853V295.295L392.262 295.278L392.12 295.437ZM399.43 301.159C398.733 301.159 398.119 301.047 397.587 300.823C397.068 300.598 396.654 300.291 396.347 299.902C396.052 299.5 395.881 299.028 395.834 298.484H397.747C397.794 298.803 397.965 299.063 398.261 299.264C398.556 299.453 398.946 299.547 399.43 299.547H400.192C400.77 299.547 401.207 299.429 401.503 299.193C401.798 298.957 401.946 298.644 401.946 298.254C401.946 297.876 401.81 297.581 401.538 297.368C401.278 297.144 400.889 296.996 400.369 296.925L399.111 296.73C398.072 296.565 397.304 296.27 396.808 295.845C396.324 295.408 396.082 294.764 396.082 293.914C396.082 293.016 396.371 292.325 396.95 291.841C397.54 291.345 398.408 291.097 399.554 291.097H400.227C401.243 291.097 402.052 291.333 402.654 291.805C403.268 292.266 403.617 292.886 403.7 293.666H401.786C401.739 293.382 401.579 293.152 401.308 292.975C401.048 292.797 400.688 292.709 400.227 292.709H399.554C398.999 292.709 398.591 292.815 398.332 293.028C398.084 293.229 397.959 293.53 397.959 293.931C397.959 294.286 398.072 294.551 398.296 294.729C398.521 294.906 398.869 295.03 399.341 295.101L400.635 295.313C401.733 295.467 402.536 295.774 403.044 296.234C403.564 296.683 403.824 297.339 403.824 298.201C403.824 299.134 403.516 299.86 402.902 300.38C402.3 300.9 401.396 301.159 400.192 301.159H399.43ZM418.301 299.335V296.022H415.024V294.286H418.301V290.973H420.179V294.286H423.457V296.022H420.179V299.335H418.301ZM434.888 301V288.067H439.122C439.96 288.067 440.687 288.227 441.301 288.546C441.927 288.864 442.405 289.319 442.736 289.91C443.078 290.488 443.25 291.173 443.25 291.965C443.25 292.744 443.078 293.429 442.736 294.02C442.393 294.61 441.915 295.065 441.301 295.384C440.687 295.703 439.96 295.862 439.122 295.862H436.801V301H434.888ZM436.801 294.144H439.122C439.783 294.144 440.309 293.949 440.698 293.559C441.1 293.158 441.301 292.626 441.301 291.965C441.301 291.292 441.1 290.76 440.698 290.37C440.309 289.981 439.783 289.786 439.122 289.786H436.801V294.144ZM444.943 301V291.256H446.786V293.116H447.246L446.662 294.268C446.662 293.217 446.892 292.425 447.353 291.894C447.813 291.351 448.498 291.079 449.408 291.079C450.447 291.079 451.268 291.404 451.87 292.053C452.485 292.691 452.792 293.571 452.792 294.693V295.349H450.825V294.853C450.825 294.156 450.648 293.624 450.294 293.258C449.951 292.88 449.467 292.691 448.841 292.691C448.215 292.691 447.725 292.88 447.37 293.258C447.028 293.636 446.857 294.167 446.857 294.853V301H444.943ZM458.188 301.159C457.385 301.159 456.688 301.006 456.098 300.699C455.507 300.392 455.052 299.955 454.733 299.388C454.415 298.821 454.255 298.154 454.255 297.386V294.87C454.255 294.091 454.415 293.423 454.733 292.868C455.052 292.301 455.507 291.864 456.098 291.557C456.688 291.25 457.385 291.097 458.188 291.097C458.991 291.097 459.688 291.25 460.279 291.557C460.869 291.864 461.324 292.301 461.643 292.868C461.962 293.423 462.121 294.091 462.121 294.87V297.386C462.121 298.154 461.962 298.821 461.643 299.388C461.324 299.955 460.869 300.392 460.279 300.699C459.688 301.006 458.991 301.159 458.188 301.159ZM458.188 299.476C458.838 299.476 459.34 299.299 459.694 298.945C460.048 298.579 460.225 298.059 460.225 297.386V294.87C460.225 294.185 460.048 293.666 459.694 293.311C459.34 292.957 458.838 292.78 458.188 292.78C457.55 292.78 457.048 292.957 456.682 293.311C456.328 293.666 456.151 294.185 456.151 294.87V297.386C456.151 298.059 456.328 298.579 456.682 298.945C457.048 299.299 457.55 299.476 458.188 299.476ZM463.655 301V291.256H465.25V292.496H465.604L465.338 292.868C465.338 292.325 465.486 291.894 465.781 291.575C466.077 291.244 466.472 291.079 466.968 291.079C467.5 291.079 467.907 291.286 468.191 291.699C468.486 292.112 468.634 292.679 468.634 293.4L468.208 292.496H468.882L468.598 292.868C468.598 292.325 468.746 291.894 469.041 291.575C469.348 291.244 469.756 291.079 470.264 291.079C470.866 291.079 471.338 291.309 471.681 291.77C472.023 292.219 472.195 292.821 472.195 293.577V301H470.494V293.63C470.494 293.264 470.411 292.981 470.246 292.78C470.092 292.579 469.868 292.479 469.573 292.479C469.277 292.479 469.047 292.579 468.882 292.78C468.728 292.969 468.651 293.246 468.651 293.612V301H467.216V293.63C467.216 293.252 467.134 292.969 466.968 292.78C466.803 292.579 466.567 292.479 466.26 292.479C465.964 292.479 465.74 292.579 465.586 292.78C465.445 292.969 465.374 293.246 465.374 293.612V301H463.655ZM473.835 304.189V291.256H475.731V293.116H476.138L475.731 293.559C475.731 292.792 475.967 292.189 476.44 291.752C476.924 291.303 477.567 291.079 478.371 291.079C479.351 291.079 480.13 291.41 480.709 292.071C481.3 292.721 481.595 293.612 481.595 294.746V297.492C481.595 298.248 481.459 298.904 481.187 299.459C480.928 300.002 480.556 300.427 480.071 300.734C479.599 301.03 479.032 301.177 478.371 301.177C477.579 301.177 476.941 300.959 476.457 300.522C475.973 300.073 475.731 299.465 475.731 298.697L476.138 299.14H475.695L475.749 301.407V304.189H473.835ZM477.715 299.512C478.341 299.512 478.825 299.335 479.168 298.98C479.522 298.614 479.699 298.089 479.699 297.404V294.853C479.699 294.167 479.522 293.648 479.168 293.294C478.825 292.927 478.341 292.744 477.715 292.744C477.113 292.744 476.634 292.933 476.28 293.311C475.926 293.677 475.749 294.191 475.749 294.853V297.404C475.749 298.065 475.926 298.585 476.28 298.963C476.634 299.329 477.113 299.512 477.715 299.512ZM488.462 301C487.576 301 486.885 300.758 486.389 300.274C485.893 299.789 485.645 299.116 485.645 298.254V292.992H482.952V291.256H485.645V288.51H487.558V291.256H491.367V292.992H487.558V298.254C487.558 298.927 487.883 299.264 488.533 299.264H491.19V301H488.462Z" fill="white" style="fill:white;fill-opacity:1;"/>
<path d="M342.064 409V396.067H349.664V397.768H343.942V401.435H349.044V403.118H343.942V407.299H349.664V409H342.064ZM352.899 412.189V410.541H355.893C356.389 410.541 356.755 410.423 356.992 410.187C357.24 409.951 357.364 409.602 357.364 409.142V408.167L357.399 406.36H356.992L357.381 406.006C357.381 406.75 357.145 407.335 356.673 407.76C356.212 408.185 355.586 408.398 354.795 408.398C353.791 408.398 353 408.067 352.421 407.406C351.842 406.744 351.553 405.852 351.553 404.73V402.746C351.553 401.624 351.842 400.732 352.421 400.071C353 399.41 353.791 399.079 354.795 399.079C355.586 399.079 356.212 399.297 356.673 399.734C357.145 400.16 357.381 400.744 357.381 401.488L356.992 401.116H357.381L357.364 399.256H359.259V409.177C359.259 410.11 358.964 410.842 358.374 411.374C357.783 411.917 356.962 412.189 355.911 412.189H352.899ZM355.415 406.75C356.017 406.75 356.49 406.567 356.832 406.201C357.187 405.823 357.364 405.303 357.364 404.642V402.853C357.364 402.191 357.187 401.677 356.832 401.311C356.49 400.933 356.017 400.744 355.415 400.744C354.789 400.744 354.305 400.927 353.962 401.294C353.632 401.648 353.466 402.167 353.466 402.853V404.642C353.466 405.315 353.632 405.835 353.962 406.201C354.305 406.567 354.789 406.75 355.415 406.75ZM361.68 409V399.256H363.522V401.116H363.983L363.398 402.268C363.398 401.217 363.628 400.425 364.089 399.894C364.55 399.351 365.235 399.079 366.144 399.079C367.183 399.079 368.004 399.404 368.607 400.053C369.221 400.691 369.528 401.571 369.528 402.693V403.349H367.561V402.853C367.561 402.156 367.384 401.624 367.03 401.258C366.687 400.88 366.203 400.691 365.577 400.691C364.951 400.691 364.461 400.88 364.107 401.258C363.764 401.636 363.593 402.167 363.593 402.853V409H361.68ZM374.924 409.177C374.133 409.177 373.436 409.024 372.834 408.717C372.243 408.398 371.788 407.955 371.47 407.388C371.151 406.821 370.991 406.16 370.991 405.404V402.853C370.991 402.085 371.151 401.423 371.47 400.868C371.788 400.301 372.243 399.864 372.834 399.557C373.436 399.238 374.133 399.079 374.924 399.079C375.727 399.079 376.424 399.238 377.015 399.557C377.605 399.864 378.06 400.301 378.379 400.868C378.698 401.423 378.857 402.085 378.857 402.853V404.589H372.834V405.404C372.834 406.124 373.011 406.673 373.365 407.051C373.731 407.429 374.257 407.618 374.942 407.618C375.497 407.618 375.946 407.524 376.288 407.335C376.631 407.134 376.843 406.845 376.926 406.467H378.822C378.68 407.293 378.255 407.955 377.546 408.451C376.838 408.935 375.964 409.177 374.924 409.177ZM377.015 403.437V402.835C377.015 402.126 376.838 401.577 376.483 401.187C376.129 400.797 375.609 400.603 374.924 400.603C374.251 400.603 373.731 400.797 373.365 401.187C373.011 401.577 372.834 402.132 372.834 402.853V403.295L377.156 403.278L377.015 403.437ZM384.325 409.159C383.628 409.159 383.014 409.047 382.482 408.823C381.962 408.598 381.549 408.291 381.242 407.902C380.947 407.5 380.775 407.028 380.728 406.484H382.642C382.689 406.803 382.86 407.063 383.155 407.264C383.451 407.453 383.84 407.547 384.325 407.547H385.086C385.665 407.547 386.102 407.429 386.397 407.193C386.693 406.957 386.84 406.644 386.84 406.254C386.84 405.876 386.704 405.581 386.433 405.368C386.173 405.144 385.783 404.996 385.263 404.925L384.006 404.73C382.966 404.565 382.199 404.27 381.703 403.845C381.218 403.408 380.976 402.764 380.976 401.914C380.976 401.016 381.266 400.325 381.844 399.841C382.435 399.345 383.303 399.097 384.449 399.097H385.122C386.137 399.097 386.947 399.333 387.549 399.805C388.163 400.266 388.511 400.886 388.594 401.666H386.681C386.634 401.382 386.474 401.152 386.202 400.975C385.943 400.797 385.582 400.709 385.122 400.709H384.449C383.893 400.709 383.486 400.815 383.226 401.028C382.978 401.229 382.854 401.53 382.854 401.931C382.854 402.286 382.966 402.551 383.191 402.729C383.415 402.906 383.764 403.03 384.236 403.101L385.529 403.313C386.628 403.467 387.431 403.774 387.939 404.234C388.458 404.683 388.718 405.339 388.718 406.201C388.718 407.134 388.411 407.86 387.797 408.38C387.195 408.9 386.291 409.159 385.086 409.159H384.325ZM394.061 409.159C393.365 409.159 392.75 409.047 392.219 408.823C391.699 408.598 391.286 408.291 390.979 407.902C390.684 407.5 390.512 407.028 390.465 406.484H392.378C392.426 406.803 392.597 407.063 392.892 407.264C393.187 407.453 393.577 407.547 394.061 407.547H394.823C395.402 407.547 395.839 407.429 396.134 407.193C396.43 406.957 396.577 406.644 396.577 406.254C396.577 405.876 396.441 405.581 396.17 405.368C395.91 405.144 395.52 404.996 395 404.925L393.743 404.73C392.703 404.565 391.936 404.27 391.439 403.845C390.955 403.408 390.713 402.764 390.713 401.914C390.713 401.016 391.002 400.325 391.581 399.841C392.172 399.345 393.04 399.097 394.185 399.097H394.859C395.874 399.097 396.683 399.333 397.286 399.805C397.9 400.266 398.248 400.886 398.331 401.666H396.418C396.37 401.382 396.211 401.152 395.939 400.975C395.68 400.797 395.319 400.709 394.859 400.709H394.185C393.63 400.709 393.223 400.815 392.963 401.028C392.715 401.229 392.591 401.53 392.591 401.931C392.591 402.286 392.703 402.551 392.928 402.729C393.152 402.906 393.5 403.03 393.973 403.101L395.266 403.313C396.365 403.467 397.168 403.774 397.676 404.234C398.195 404.683 398.455 405.339 398.455 406.201C398.455 407.134 398.148 407.86 397.534 408.38C396.931 408.9 396.028 409.159 394.823 409.159H394.061ZM414.935 409C414.049 409 413.358 408.758 412.862 408.274C412.366 407.789 412.118 407.116 412.118 406.254V400.992H409.425V399.256H412.118V396.51H414.031V399.256H417.84V400.992H414.031V406.254C414.031 406.927 414.356 407.264 415.006 407.264H417.663V409H414.935ZM423.609 409.159C422.806 409.159 422.109 409.006 421.518 408.699C420.928 408.392 420.473 407.955 420.154 407.388C419.835 406.821 419.676 406.154 419.676 405.386V402.87C419.676 402.091 419.835 401.423 420.154 400.868C420.473 400.301 420.928 399.864 421.518 399.557C422.109 399.25 422.806 399.097 423.609 399.097C424.412 399.097 425.109 399.25 425.699 399.557C426.29 399.864 426.745 400.301 427.063 400.868C427.382 401.423 427.542 402.091 427.542 402.87V405.386C427.542 406.154 427.382 406.821 427.063 407.388C426.745 407.955 426.29 408.392 425.699 408.699C425.109 409.006 424.412 409.159 423.609 409.159ZM423.609 407.476C424.258 407.476 424.76 407.299 425.115 406.945C425.469 406.579 425.646 406.059 425.646 405.386V402.87C425.646 402.185 425.469 401.666 425.115 401.311C424.76 400.957 424.258 400.78 423.609 400.78C422.971 400.78 422.469 400.957 422.103 401.311C421.749 401.666 421.571 402.185 421.571 402.87V405.386C421.571 406.059 421.749 406.579 422.103 406.945C422.469 407.299 422.971 407.476 423.609 407.476ZM439.699 409V396.067H441.612V407.246H447.264V409H439.699ZM449.436 409V396.067H451.349V407.246H457.001V409H449.436ZM458.411 409V396.067H460.767L462.06 400.213C462.19 400.603 462.303 400.981 462.397 401.347C462.492 401.701 462.557 401.967 462.592 402.144C462.639 401.967 462.704 401.701 462.787 401.347C462.881 400.981 462.988 400.603 463.106 400.213L464.346 396.067H466.702V409H464.895V404.642C464.895 404.087 464.907 403.473 464.931 402.799C464.966 402.114 465.013 401.429 465.072 400.744C465.131 400.047 465.19 399.386 465.249 398.76C465.308 398.122 465.362 397.567 465.409 397.095L463.495 403.384H461.653L459.704 397.095C459.763 397.555 459.822 398.093 459.881 398.707C459.94 399.309 459.994 399.953 460.041 400.638C460.088 401.323 460.129 402.014 460.165 402.711C460.2 403.396 460.218 404.039 460.218 404.642V409H458.411ZM471.957 409.159C471.26 409.159 470.646 409.047 470.114 408.823C469.595 408.598 469.181 408.291 468.874 407.902C468.579 407.5 468.408 407.028 468.36 406.484H470.274C470.321 406.803 470.492 407.063 470.788 407.264C471.083 407.453 471.473 407.547 471.957 407.547H472.719C473.297 407.547 473.734 407.429 474.03 407.193C474.325 406.957 474.473 406.644 474.473 406.254C474.473 405.876 474.337 405.581 474.065 405.368C473.805 405.144 473.415 404.996 472.896 404.925L471.638 404.73C470.599 404.565 469.831 404.27 469.335 403.845C468.851 403.408 468.609 402.764 468.609 401.914C468.609 401.016 468.898 400.325 469.477 399.841C470.067 399.345 470.935 399.097 472.081 399.097H472.754C473.77 399.097 474.579 399.333 475.181 399.805C475.795 400.266 476.144 400.886 476.226 401.666H474.313C474.266 401.382 474.106 401.152 473.835 400.975C473.575 400.797 473.215 400.709 472.754 400.709H472.081C471.526 400.709 471.118 400.815 470.858 401.028C470.61 401.229 470.486 401.53 470.486 401.931C470.486 402.286 470.599 402.551 470.823 402.729C471.047 402.906 471.396 403.03 471.868 403.101L473.162 403.313C474.26 403.467 475.063 403.774 475.571 404.234C476.091 404.683 476.35 405.339 476.35 406.201C476.35 407.134 476.043 407.86 475.429 408.38C474.827 408.9 473.923 409.159 472.719 409.159H471.957Z" fill="white" style="fill:white;fill-opacity:1;"/>
<path d="M185 204L185 224" stroke="white" style="stroke:white;stroke-opacity:1;" stroke-width="2" stroke-dasharray="4 4"/>
</svg>
