<svg width="531" height="274" viewBox="0 0 531 274" fill="none" xmlns="http://www.w3.org/2000/svg">
<rect x="1.74765" y="57.7477" width="136.505" height="156.505" stroke="#ABB2FA" style="stroke:#ABB2FA;stroke:color(display-p3 0.6706 0.6990 0.9799);stroke-opacity:1;" stroke-width="3.4953"/>
<rect x="260.748" y="186.748" width="54.5047" height="54.5047" stroke="#ABB2FA" style="stroke:#ABB2FA;stroke:color(display-p3 0.6706 0.6990 0.9799);stroke-opacity:1;" stroke-width="3.4953"/>
<path fill-rule="evenodd" clip-rule="evenodd" d="M276.26 210.766C278.071 204.099 285.019 200.143 291.78 201.929C294.011 202.519 295.941 203.659 297.461 205.161L300.677 208.332H295.297C294.597 208.332 294.03 208.891 294.03 209.582C294.03 210.272 294.597 210.831 295.297 210.831H303.733C304.069 210.831 304.391 210.7 304.629 210.465C304.867 210.231 305 209.913 305 209.581V201.263C305 200.572 304.433 200.013 303.733 200.013C303.033 200.013 302.466 200.572 302.466 201.263V206.562L299.255 203.395C297.428 201.591 295.109 200.221 292.435 199.515C284.323 197.371 275.985 202.119 273.812 210.119C273.63 210.785 274.032 211.471 274.708 211.649C275.384 211.828 276.078 211.432 276.26 210.766ZM302.292 216.351C301.616 216.172 300.921 216.568 300.74 217.234C298.929 223.901 291.98 227.857 285.22 226.071C282.988 225.481 281.059 224.341 279.539 222.839L276.325 219.668H281.703C282.403 219.668 282.97 219.109 282.97 218.418C282.97 217.728 282.403 217.169 281.703 217.169L273.267 217.169C272.567 217.169 272 217.728 272 218.418V226.737C272 227.428 272.567 227.987 273.267 227.987C273.967 227.987 274.534 227.428 274.534 226.737V221.437L277.745 224.605C279.572 226.41 281.89 227.779 284.564 228.485C292.676 230.629 301.014 225.881 303.188 217.881C303.369 217.215 302.968 216.529 302.292 216.351Z" fill="#D4D7FF" style="fill:#D4D7FF;fill:color(display-p3 0.8295 0.8446 1.0000);fill-opacity:1;"/>
<rect x="368.748" y="217.748" width="54.5047" height="54.5047" stroke="#ABB2FA" style="stroke:#ABB2FA;stroke:color(display-p3 0.6706 0.6990 0.9799);stroke-opacity:1;" stroke-width="3.4953"/>
<path d="M395.5 229C389.149 229 384 234.253 384 240.733C384 245.072 386.309 248.86 389.736 250.889C390.692 251.454 391.29 252.322 391.317 253.196C391.332 253.677 391.662 254.089 392.122 254.2C392.611 254.318 393.111 254.411 393.618 254.478C394.069 254.537 394.455 254.168 394.455 253.704V247.075C394.01 247.025 393.574 246.943 393.149 246.831C392.59 246.684 392.253 246.103 392.397 245.532C392.541 244.962 393.111 244.618 393.67 244.765C394.254 244.918 394.867 245 395.5 245C396.134 245 396.747 244.918 397.331 244.765C397.89 244.618 398.46 244.962 398.604 245.532C398.748 246.103 398.411 246.684 397.852 246.831C397.427 246.943 396.991 247.025 396.546 247.075V253.704C396.546 254.168 396.932 254.537 397.383 254.477C397.89 254.411 398.389 254.318 398.878 254.2C399.338 254.089 399.668 253.677 399.683 253.196C399.71 252.322 400.308 251.454 401.264 250.889C404.691 248.86 407 245.072 407 240.733C407 234.253 401.851 229 395.5 229Z" fill="#D4D7FF" style="fill:#D4D7FF;fill:color(display-p3 0.8295 0.8446 1.0000);fill-opacity:1;"/>
<path fill-rule="evenodd" clip-rule="evenodd" d="M391.336 256.235C391.444 255.656 391.991 255.276 392.558 255.386C393.51 255.57 394.494 255.667 395.5 255.667C396.506 255.667 397.49 255.57 398.442 255.386C399.009 255.276 399.556 255.656 399.664 256.235C399.771 256.814 399.398 257.372 398.831 257.482C397.751 257.691 396.638 257.8 395.5 257.8C394.362 257.8 393.249 257.691 392.169 257.482C391.602 257.372 391.229 256.814 391.336 256.235Z" fill="#D4D7FF" style="fill:#D4D7FF;fill:color(display-p3 0.8295 0.8446 1.0000);fill-opacity:1;"/>
<path fill-rule="evenodd" clip-rule="evenodd" d="M392.369 259.711C392.429 259.126 392.944 258.7 393.518 258.762C394.169 258.831 394.83 258.867 395.5 258.867C396.17 258.867 396.831 258.831 397.482 258.762C398.056 258.7 398.571 259.126 398.631 259.711C398.691 260.297 398.274 260.822 397.7 260.883C396.976 260.96 396.243 261 395.5 261C394.757 261 394.024 260.96 393.3 260.883C392.726 260.822 392.309 260.297 392.369 259.711Z" fill="#D4D7FF" style="fill:#D4D7FF;fill:color(display-p3 0.8295 0.8446 1.0000);fill-opacity:1;"/>
<rect x="474.748" y="186.748" width="54.5047" height="54.5047" stroke="#ABB2FA" style="stroke:#ABB2FA;stroke:color(display-p3 0.6706 0.6990 0.9799);stroke-opacity:1;" stroke-width="3.4953"/>
<path fill-rule="evenodd" clip-rule="evenodd" d="M501.322 198.242C501.714 197.919 502.286 197.919 502.678 198.242C506.555 201.427 511.463 203.427 516.833 203.682C517.316 203.705 517.728 204.05 517.791 204.524C517.929 205.552 518 206.602 518 207.667C518 217.882 511.48 226.59 502.333 229.941C502.119 230.02 501.882 230.02 501.668 229.941C492.52 226.59 486 217.882 486 207.667C486 206.601 486.071 205.552 486.208 204.524C486.272 204.05 486.684 203.705 487.167 203.682C492.537 203.427 497.445 201.427 501.322 198.242ZM509.713 210.024C510.2 209.361 510.052 208.433 509.382 207.951C508.712 207.469 507.774 207.615 507.287 208.278L500.319 217.756L496.561 214.037C495.975 213.458 495.025 213.458 494.439 214.037C493.854 214.617 493.854 215.557 494.439 216.136L499.439 221.083C499.75 221.39 500.18 221.547 500.617 221.513C501.055 221.479 501.455 221.257 501.713 220.906L509.713 210.024Z" fill="#D4D7FF" style="fill:#D4D7FF;fill:color(display-p3 0.8295 0.8446 1.0000);fill-opacity:1;"/>
<rect x="326.748" y="57.7477" width="136.505" height="60.5047" stroke="#ABB2FA" style="stroke:#ABB2FA;stroke:color(display-p3 0.6706 0.6990 0.9799);stroke-opacity:1;" stroke-width="3.4953"/>
<rect x="40.1587" y="79" width="59.8412" height="59.8412" fill="#7780D9" style="fill:#7780D9;fill:color(display-p3 0.4667 0.5020 0.8510);fill-opacity:1;"/>
<rect x="44.7622" y="83.603" width="50.6349" height="50.6349" fill="#B9BFFF" style="fill:#B9BFFF;fill:color(display-p3 0.7246 0.7499 1.0000);fill-opacity:1;"/>
<path d="M47.0637 85.9047H51.6669V90.5078H47.0637V85.9047Z" fill="#B0B7FF" style="fill:#B0B7FF;fill:color(display-p3 0.6897 0.7182 1.0000);fill-opacity:1;"/>
<path d="M47.0637 92.8094H51.6669V97.4126H47.0637V92.8094Z" fill="#B0B7FF" style="fill:#B0B7FF;fill:color(display-p3 0.6897 0.7182 1.0000);fill-opacity:1;"/>
<path d="M47.0637 99.7141H51.6669V104.317H47.0637V99.7141Z" fill="#B0B7FF" style="fill:#B0B7FF;fill:color(display-p3 0.6897 0.7182 1.0000);fill-opacity:1;"/>
<path d="M47.0637 106.619H51.6669V111.222H47.0637V106.619Z" fill="#ABB2FA" style="fill:#ABB2FA;fill:color(display-p3 0.6706 0.6990 0.9799);fill-opacity:1;"/>
<path d="M47.0637 113.524H51.6669V118.127H47.0637V113.524Z" fill="#ABB2FA" style="fill:#ABB2FA;fill:color(display-p3 0.6706 0.6990 0.9799);fill-opacity:1;"/>
<path d="M47.0637 120.428H51.6669V125.032H47.0637V120.428Z" fill="#ABB2FA" style="fill:#ABB2FA;fill:color(display-p3 0.6706 0.6990 0.9799);fill-opacity:1;"/>
<path d="M47.0637 127.333H51.6669V131.936H47.0637V127.333Z" fill="#969FF4" style="fill:#969FF4;fill:color(display-p3 0.5882 0.6220 0.9566);fill-opacity:1;"/>
<path d="M67.7781 85.9047H72.3812V90.5078H67.7781V85.9047Z" fill="#ABB2FA" style="fill:#ABB2FA;fill:color(display-p3 0.6706 0.6990 0.9799);fill-opacity:1;"/>
<path d="M67.7781 92.8094H72.3812V97.4126H67.7781V92.8094Z" fill="#ABB2FA" style="fill:#ABB2FA;fill:color(display-p3 0.6706 0.6990 0.9799);fill-opacity:1;"/>
<path d="M67.7781 99.7141H72.3812V104.317H67.7781V99.7141Z" fill="#ABB2FA" style="fill:#ABB2FA;fill:color(display-p3 0.6706 0.6990 0.9799);fill-opacity:1;"/>
<path d="M67.7781 106.619H72.3812V111.222H67.7781V106.619Z" fill="#969FF4" style="fill:#969FF4;fill:color(display-p3 0.5882 0.6220 0.9566);fill-opacity:1;"/>
<path d="M67.7781 113.524H72.3812V118.127H67.7781V113.524Z" fill="#969FF4" style="fill:#969FF4;fill:color(display-p3 0.5882 0.6220 0.9566);fill-opacity:1;"/>
<path d="M67.7781 120.428H72.3812V125.032H67.7781V120.428Z" fill="#969FF4" style="fill:#969FF4;fill:color(display-p3 0.5882 0.6220 0.9566);fill-opacity:1;"/>
<path d="M67.7781 127.333H72.3812V131.936H67.7781V127.333Z" fill="#969FF4" style="fill:#969FF4;fill:color(display-p3 0.5882 0.6220 0.9566);fill-opacity:1;"/>
<path d="M53.9688 85.9047H58.5719V90.5078H53.9688V85.9047Z" fill="#B0B7FF" style="fill:#B0B7FF;fill:color(display-p3 0.6897 0.7182 1.0000);fill-opacity:1;"/>
<path d="M53.9688 92.8094H58.5719V97.4126H53.9688V92.8094Z" fill="#B0B7FF" style="fill:#B0B7FF;fill:color(display-p3 0.6897 0.7182 1.0000);fill-opacity:1;"/>
<path d="M53.9688 99.7141H58.5719V104.317H53.9688V99.7141Z" fill="#ABB2FA" style="fill:#ABB2FA;fill:color(display-p3 0.6706 0.6990 0.9799);fill-opacity:1;"/>
<path d="M53.9688 106.619H58.5719V111.222H53.9688V106.619Z" fill="#ABB2FA" style="fill:#ABB2FA;fill:color(display-p3 0.6706 0.6990 0.9799);fill-opacity:1;"/>
<path d="M53.9688 113.524H58.5719V118.127H53.9688V113.524Z" fill="#ABB2FA" style="fill:#ABB2FA;fill:color(display-p3 0.6706 0.6990 0.9799);fill-opacity:1;"/>
<path d="M53.9688 120.428H58.5719V125.032H53.9688V120.428Z" fill="#969FF4" style="fill:#969FF4;fill:color(display-p3 0.5882 0.6220 0.9566);fill-opacity:1;"/>
<path d="M53.9688 127.333H58.5719V131.936H53.9688V127.333Z" fill="#969FF4" style="fill:#969FF4;fill:color(display-p3 0.5882 0.6220 0.9566);fill-opacity:1;"/>
<path d="M74.6826 85.9047H79.2858V90.5078H74.6826V85.9047Z" fill="#ABB2FA" style="fill:#ABB2FA;fill:color(display-p3 0.6706 0.6990 0.9799);fill-opacity:1;"/>
<path d="M74.6826 92.8094H79.2858V97.4126H74.6826V92.8094Z" fill="#ABB2FA" style="fill:#ABB2FA;fill:color(display-p3 0.6706 0.6990 0.9799);fill-opacity:1;"/>
<path d="M74.6826 99.7141H79.2858V104.317H74.6826V99.7141Z" fill="#969FF4" style="fill:#969FF4;fill:color(display-p3 0.5882 0.6220 0.9566);fill-opacity:1;"/>
<path d="M74.6826 106.619H79.2858V111.222H74.6826V106.619Z" fill="#969FF4" style="fill:#969FF4;fill:color(display-p3 0.5882 0.6220 0.9566);fill-opacity:1;"/>
<path d="M74.6826 113.524H79.2858V118.127H74.6826V113.524Z" fill="#969FF4" style="fill:#969FF4;fill:color(display-p3 0.5882 0.6220 0.9566);fill-opacity:1;"/>
<path d="M74.6826 120.428H79.2858V125.032H74.6826V120.428Z" fill="#969FF4" style="fill:#969FF4;fill:color(display-p3 0.5882 0.6220 0.9566);fill-opacity:1;"/>
<path d="M74.6826 127.333H79.2858V131.936H74.6826V127.333Z" fill="#969FF4" style="fill:#969FF4;fill:color(display-p3 0.5882 0.6220 0.9566);fill-opacity:1;"/>
<path d="M60.873 85.9047H65.4762V90.5078H60.873V85.9047Z" fill="#B0B7FF" style="fill:#B0B7FF;fill:color(display-p3 0.6897 0.7182 1.0000);fill-opacity:1;"/>
<path d="M60.873 92.8094H65.4762V97.4126H60.873V92.8094Z" fill="#ABB2FA" style="fill:#ABB2FA;fill:color(display-p3 0.6706 0.6990 0.9799);fill-opacity:1;"/>
<path d="M60.873 99.7141H65.4762V104.317H60.873V99.7141Z" fill="#ABB2FA" style="fill:#ABB2FA;fill:color(display-p3 0.6706 0.6990 0.9799);fill-opacity:1;"/>
<path d="M60.873 106.619H65.4762V111.222H60.873V106.619Z" fill="#ABB2FA" style="fill:#ABB2FA;fill:color(display-p3 0.6706 0.6990 0.9799);fill-opacity:1;"/>
<path d="M60.873 113.524H65.4762V118.127H60.873V113.524Z" fill="#969FF4" style="fill:#969FF4;fill:color(display-p3 0.5882 0.6220 0.9566);fill-opacity:1;"/>
<path d="M60.873 120.428H65.4762V125.032H60.873V120.428Z" fill="#969FF4" style="fill:#969FF4;fill:color(display-p3 0.5882 0.6220 0.9566);fill-opacity:1;"/>
<path d="M60.873 127.333H65.4762V131.936H60.873V127.333Z" fill="#969FF4" style="fill:#969FF4;fill:color(display-p3 0.5882 0.6220 0.9566);fill-opacity:1;"/>
<path d="M81.5876 85.9047H86.1908V90.5078H81.5876V85.9047Z" fill="#ABB2FA" style="fill:#ABB2FA;fill:color(display-p3 0.6706 0.6990 0.9799);fill-opacity:1;"/>
<path d="M81.5876 92.8094H86.1908V97.4126H81.5876V92.8094Z" fill="#969FF4" style="fill:#969FF4;fill:color(display-p3 0.5882 0.6220 0.9566);fill-opacity:1;"/>
<path d="M81.5876 99.7141H86.1908V104.317H81.5876V99.7141Z" fill="#969FF4" style="fill:#969FF4;fill:color(display-p3 0.5882 0.6220 0.9566);fill-opacity:1;"/>
<path d="M81.5876 106.619H86.1908V111.222H81.5876V106.619Z" fill="#969FF4" style="fill:#969FF4;fill:color(display-p3 0.5882 0.6220 0.9566);fill-opacity:1;"/>
<path d="M81.5876 113.524H86.1908V118.127H81.5876V113.524Z" fill="#969FF4" style="fill:#969FF4;fill:color(display-p3 0.5882 0.6220 0.9566);fill-opacity:1;"/>
<path d="M81.5876 120.428H86.1908V125.032H81.5876V120.428Z" fill="#969FF4" style="fill:#969FF4;fill:color(display-p3 0.5882 0.6220 0.9566);fill-opacity:1;"/>
<path d="M81.5876 127.333H86.1908V131.936H81.5876V127.333Z" fill="#969FF4" style="fill:#969FF4;fill:color(display-p3 0.5882 0.6220 0.9566);fill-opacity:1;"/>
<path d="M88.4924 85.9047H93.0956V90.5078H88.4924V85.9047Z" fill="#969FF4" style="fill:#969FF4;fill:color(display-p3 0.5882 0.6220 0.9566);fill-opacity:1;"/>
<path d="M88.4924 92.8094H93.0956V97.4126H88.4924V92.8094Z" fill="#969FF4" style="fill:#969FF4;fill:color(display-p3 0.5882 0.6220 0.9566);fill-opacity:1;"/>
<path d="M88.4924 99.7141H93.0956V104.317H88.4924V99.7141Z" fill="#969FF4" style="fill:#969FF4;fill:color(display-p3 0.5882 0.6220 0.9566);fill-opacity:1;"/>
<path d="M88.4924 106.619H93.0956V111.222H88.4924V106.619Z" fill="#969FF4" style="fill:#969FF4;fill:color(display-p3 0.5882 0.6220 0.9566);fill-opacity:1;"/>
<path d="M88.4924 113.524H93.0956V118.127H88.4924V113.524Z" fill="#969FF4" style="fill:#969FF4;fill:color(display-p3 0.5882 0.6220 0.9566);fill-opacity:1;"/>
<path d="M88.4924 120.428H93.0956V125.032H88.4924V120.428Z" fill="#969FF4" style="fill:#969FF4;fill:color(display-p3 0.5882 0.6220 0.9566);fill-opacity:1;"/>
<path d="M88.4924 127.333H93.0956V131.936H88.4924V127.333Z" fill="#969FF4" style="fill:#969FF4;fill:color(display-p3 0.5882 0.6220 0.9566);fill-opacity:1;"/>
<line x1="251" y1="10" x2="397" y2="9.99999" stroke="white" stroke-opacity="0.2" style="stroke:white;stroke-opacity:0.2;" stroke-width="2"/>
<line x1="288" y1="88" x2="288" y2="181" stroke="white" stroke-opacity="0.2" style="stroke:white;stroke-opacity:0.2;" stroke-width="2"/>
<line y1="-1" x2="93" y2="-1" transform="matrix(-4.37114e-08 1 1 4.37114e-08 503 88)" stroke="white" stroke-opacity="0.2" style="stroke:white;stroke-opacity:0.2;" stroke-width="2"/>
<line x1="396" y1="120" x2="396" y2="213" stroke="white" stroke-opacity="0.2" style="stroke:white;stroke-opacity:0.2;" stroke-width="2"/>
<line x1="70" y1="10" x2="230" y2="9.99999" stroke="white" stroke-opacity="0.2" style="stroke:white;stroke-opacity:0.2;" stroke-width="2"/>
<line x1="71" y1="11" x2="71" y2="49" stroke="white" stroke-opacity="0.2" style="stroke:white;stroke-opacity:0.2;" stroke-width="2"/>
<line x1="396" y1="11" x2="396" y2="49" stroke="white" stroke-opacity="0.2" style="stroke:white;stroke-opacity:0.2;" stroke-width="2"/>
<line x1="287" y1="87" x2="325" y2="87" stroke="white" stroke-opacity="0.2" style="stroke:white;stroke-opacity:0.2;" stroke-width="2"/>
<line y1="-1" x2="38" y2="-1" transform="matrix(-1 1.74846e-07 1.74846e-07 1 503 88)" stroke="white" stroke-opacity="0.2" style="stroke:white;stroke-opacity:0.2;" stroke-width="2"/>
<path d="M27.3753 166V154.32H31.1993C31.9566 154.32 32.6126 154.464 33.1673 154.752C33.7326 155.04 34.1646 155.451 34.4633 155.984C34.7726 156.507 34.9273 157.125 34.9273 157.84C34.9273 158.544 34.7726 159.163 34.4633 159.696C34.1539 160.229 33.7219 160.64 33.1673 160.928C32.6126 161.216 31.9566 161.36 31.1993 161.36H29.1033V166H27.3753ZM29.1033 159.808H31.1993C31.7966 159.808 32.2713 159.632 32.6233 159.28C32.9859 158.917 33.1673 158.437 33.1673 157.84C33.1673 157.232 32.9859 156.752 32.6233 156.4C32.2713 156.048 31.7966 155.872 31.1993 155.872H29.1033V159.808ZM40.889 166C40.345 166 39.8703 165.893 39.465 165.68C39.0597 165.456 38.7397 165.141 38.505 164.736C38.281 164.331 38.169 163.861 38.169 163.328V155.888H35.289V154.32H39.897V163.328C39.897 163.669 39.993 163.941 40.185 164.144C40.377 164.336 40.6383 164.432 40.969 164.432H43.689V166H40.889ZM47.5388 166.16C46.6214 166.16 45.8961 165.925 45.3628 165.456C44.8401 164.976 44.5788 164.325 44.5788 163.504C44.5788 162.672 44.8561 162.021 45.4108 161.552C45.9761 161.072 46.7494 160.832 47.7308 160.832H50.1788V160.016C50.1788 159.536 50.0294 159.163 49.7308 158.896C49.4321 158.629 49.0108 158.496 48.4668 158.496C47.9868 158.496 47.5868 158.603 47.2668 158.816C46.9468 159.019 46.7601 159.291 46.7068 159.632H45.0108C45.1068 158.843 45.4694 158.213 46.0988 157.744C46.7388 157.275 47.5441 157.04 48.5148 157.04C49.5601 157.04 50.3868 157.307 50.9948 157.84C51.6028 158.363 51.9068 159.077 51.9068 159.984V166H50.2268V164.384H49.9388L50.2268 164.064C50.2268 164.704 49.9814 165.216 49.4908 165.6C49.0001 165.973 48.3494 166.16 47.5388 166.16ZM48.0508 164.832C48.6694 164.832 49.1761 164.677 49.5708 164.368C49.9761 164.048 50.1788 163.643 50.1788 163.152V162H47.7628C47.3148 162 46.9574 162.123 46.6908 162.368C46.4348 162.613 46.3068 162.949 46.3068 163.376C46.3068 163.824 46.4614 164.181 46.7708 164.448C47.0801 164.704 47.5068 164.832 48.0508 164.832ZM53.7565 166V157.2H55.4685V158.88H55.8845L55.4685 159.28C55.4685 158.576 55.6765 158.027 56.0925 157.632C56.5085 157.237 57.0845 157.04 57.8205 157.04C58.6952 157.04 59.3938 157.323 59.9165 157.888C60.4392 158.443 60.7005 159.195 60.7005 160.144V166H58.9725V160.336C58.9725 159.76 58.8178 159.317 58.5085 159.008C58.1992 158.699 57.7778 158.544 57.2445 158.544C56.7005 158.544 56.2685 158.709 55.9485 159.04C55.6392 159.36 55.4845 159.829 55.4845 160.448V166H53.7565ZM66.0062 166.144C65.2809 166.144 64.6516 166.005 64.1182 165.728C63.5849 165.451 63.1742 165.056 62.8862 164.544C62.5982 164.032 62.4542 163.429 62.4542 162.736V160.464C62.4542 159.76 62.5982 159.157 62.8862 158.656C63.1742 158.144 63.5849 157.749 64.1182 157.472C64.6516 157.195 65.2809 157.056 66.0062 157.056C66.7316 157.056 67.3609 157.195 67.8942 157.472C68.4276 157.749 68.8382 158.144 69.1262 158.656C69.4142 159.157 69.5582 159.76 69.5582 160.464V162.736C69.5582 163.429 69.4142 164.032 69.1262 164.544C68.8382 165.056 68.4276 165.451 67.8942 165.728C67.3609 166.005 66.7316 166.144 66.0062 166.144ZM66.0062 164.624C66.5929 164.624 67.0462 164.464 67.3662 164.144C67.6862 163.813 67.8462 163.344 67.8462 162.736V160.464C67.8462 159.845 67.6862 159.376 67.3662 159.056C67.0462 158.736 66.5929 158.576 66.0062 158.576C65.4302 158.576 64.9769 158.736 64.6462 159.056C64.3262 159.376 64.1662 159.845 64.1662 160.464V162.736C64.1662 163.344 64.3262 163.813 64.6462 164.144C64.9769 164.464 65.4302 164.624 66.0062 164.624ZM83.5937 166.16C82.8684 166.16 82.2391 166.027 81.7057 165.76C81.1831 165.483 80.7777 165.088 80.4897 164.576C80.2124 164.053 80.0737 163.445 80.0737 162.752V157.568C80.0737 156.864 80.2124 156.256 80.4897 155.744C80.7777 155.232 81.1831 154.843 81.7057 154.576C82.2391 154.299 82.8684 154.16 83.5937 154.16C84.3191 154.16 84.9431 154.299 85.4657 154.576C85.9991 154.843 86.4044 155.232 86.6817 155.744C86.9697 156.256 87.1137 156.859 87.1137 157.552V162.752C87.1137 163.445 86.9697 164.053 86.6817 164.576C86.4044 165.088 85.9991 165.483 85.4657 165.76C84.9431 166.027 84.3191 166.16 83.5937 166.16ZM83.5937 164.624C84.1804 164.624 84.6231 164.464 84.9217 164.144C85.2311 163.813 85.3857 163.349 85.3857 162.752V157.568C85.3857 156.96 85.2311 156.496 84.9217 156.176C84.6231 155.856 84.1804 155.696 83.5937 155.696C83.0177 155.696 82.5751 155.856 82.2657 156.176C81.9564 156.496 81.8017 156.96 81.8017 157.568V162.752C81.8017 163.349 81.9564 163.813 82.2657 164.144C82.5751 164.464 83.0177 164.624 83.5937 164.624ZM88.9315 168.88V157.2H90.6435V158.88H91.0115L90.6435 159.28C90.6435 158.587 90.8568 158.043 91.2835 157.648C91.7208 157.243 92.3022 157.04 93.0275 157.04C93.9128 157.04 94.6168 157.339 95.1395 157.936C95.6728 158.523 95.9395 159.328 95.9395 160.352V162.832C95.9395 163.515 95.8168 164.107 95.5715 164.608C95.3368 165.099 95.0008 165.483 94.5635 165.76C94.1368 166.027 93.6248 166.16 93.0275 166.16C92.3128 166.16 91.7368 165.963 91.2995 165.568C90.8622 165.163 90.6435 164.613 90.6435 163.92L91.0115 164.32H90.6115L90.6595 166.368V168.88H88.9315ZM92.4355 164.656C93.0008 164.656 93.4382 164.496 93.7475 164.176C94.0675 163.845 94.2275 163.371 94.2275 162.752V160.448C94.2275 159.829 94.0675 159.36 93.7475 159.04C93.4382 158.709 93.0008 158.544 92.4355 158.544C91.8915 158.544 91.4595 158.715 91.1395 159.056C90.8195 159.387 90.6595 159.851 90.6595 160.448V162.752C90.6595 163.349 90.8195 163.819 91.1395 164.16C91.4595 164.491 91.8915 164.656 92.4355 164.656ZM101.181 166.16C100.467 166.16 99.8372 166.021 99.2932 165.744C98.7599 165.456 98.3492 165.056 98.0612 164.544C97.7732 164.032 97.6292 163.435 97.6292 162.752V160.448C97.6292 159.755 97.7732 159.157 98.0612 158.656C98.3492 158.144 98.7599 157.749 99.2932 157.472C99.8372 157.184 100.467 157.04 101.181 157.04C101.907 157.04 102.536 157.184 103.069 157.472C103.603 157.749 104.013 158.144 104.301 158.656C104.589 159.157 104.733 159.755 104.733 160.448V162.016H99.2932V162.752C99.2932 163.403 99.4532 163.899 99.7732 164.24C100.104 164.581 100.579 164.752 101.197 164.752C101.699 164.752 102.104 164.667 102.413 164.496C102.723 164.315 102.915 164.053 102.989 163.712H104.701C104.573 164.459 104.189 165.056 103.549 165.504C102.909 165.941 102.12 166.16 101.181 166.16ZM103.069 160.976V160.432C103.069 159.792 102.909 159.296 102.589 158.944C102.269 158.592 101.8 158.416 101.181 158.416C100.573 158.416 100.104 158.592 99.7732 158.944C99.4532 159.296 99.2932 159.797 99.2932 160.448V160.848L103.197 160.832L103.069 160.976ZM106.519 166V157.2H108.231V158.88H108.647L108.231 159.28C108.231 158.576 108.439 158.027 108.855 157.632C109.271 157.237 109.847 157.04 110.583 157.04C111.458 157.04 112.156 157.323 112.679 157.888C113.202 158.443 113.463 159.195 113.463 160.144V166H111.735V160.336C111.735 159.76 111.58 159.317 111.271 159.008C110.962 158.699 110.54 158.544 110.007 158.544C109.463 158.544 109.031 158.709 108.711 159.04C108.402 159.36 108.247 159.829 108.247 160.448V166H106.519ZM48.0668 184.16C47.2774 184.16 46.6001 184.032 46.0348 183.776C45.4694 183.509 45.0321 183.136 44.7228 182.656C44.4134 182.165 44.2588 181.584 44.2588 180.912H45.9708C45.9708 181.445 46.1574 181.867 46.5308 182.176C46.9041 182.475 47.4214 182.624 48.0828 182.624C48.7014 182.624 49.1868 182.475 49.5388 182.176C49.8908 181.877 50.0668 181.467 50.0668 180.944C50.0668 180.507 49.9441 180.128 49.6988 179.808C49.4641 179.488 49.1228 179.269 48.6748 179.152L47.2028 178.72C46.3494 178.475 45.6881 178.059 45.2188 177.472C44.7601 176.875 44.5308 176.165 44.5308 175.344C44.5308 174.704 44.6748 174.144 44.9628 173.664C45.2508 173.184 45.6614 172.811 46.1948 172.544C46.7281 172.277 47.3574 172.144 48.0828 172.144C49.1494 172.144 50.0028 172.432 50.6428 173.008C51.2934 173.584 51.6241 174.357 51.6348 175.328H49.9068C49.9068 174.816 49.7414 174.416 49.4108 174.128C49.0908 173.829 48.6374 173.68 48.0508 173.68C47.4854 173.68 47.0428 173.819 46.7228 174.096C46.4028 174.363 46.2428 174.741 46.2428 175.232C46.2428 175.669 46.3601 176.048 46.5948 176.368C46.8401 176.688 47.1868 176.912 47.6348 177.04L49.1228 177.488C49.9761 177.723 50.6321 178.139 51.0908 178.736C51.5494 179.333 51.7788 180.048 51.7788 180.88C51.7788 181.531 51.6241 182.107 51.3148 182.608C51.0054 183.099 50.5734 183.483 50.0188 183.76C49.4641 184.027 48.8134 184.16 48.0668 184.16ZM56.8125 184.144C56.0872 184.144 55.4578 184.005 54.9245 183.728C54.3912 183.451 53.9805 183.056 53.6925 182.544C53.4045 182.032 53.2605 181.429 53.2605 180.736V178.464C53.2605 177.76 53.4045 177.157 53.6925 176.656C53.9805 176.144 54.3912 175.749 54.9245 175.472C55.4578 175.195 56.0872 175.056 56.8125 175.056C57.5378 175.056 58.1672 175.195 58.7005 175.472C59.2338 175.749 59.6445 176.144 59.9325 176.656C60.2205 177.157 60.3645 177.76 60.3645 178.464V180.736C60.3645 181.429 60.2205 182.032 59.9325 182.544C59.6445 183.056 59.2338 183.451 58.7005 183.728C58.1672 184.005 57.5378 184.144 56.8125 184.144ZM56.8125 182.624C57.3992 182.624 57.8525 182.464 58.1725 182.144C58.4925 181.813 58.6525 181.344 58.6525 180.736V178.464C58.6525 177.845 58.4925 177.376 58.1725 177.056C57.8525 176.736 57.3992 176.576 56.8125 176.576C56.2365 176.576 55.7832 176.736 55.4525 177.056C55.1325 177.376 54.9725 177.845 54.9725 178.464V180.736C54.9725 181.344 55.1325 181.813 55.4525 182.144C55.7832 182.464 56.2365 182.624 56.8125 182.624ZM65.5903 184.16C64.5343 184.16 63.6916 183.856 63.0623 183.248C62.4329 182.629 62.1183 181.792 62.1183 180.736V175.2H63.8463V180.736C63.8463 181.344 64.0009 181.819 64.3103 182.16C64.6196 182.491 65.0463 182.656 65.5903 182.656C66.1449 182.656 66.5769 182.491 66.8863 182.16C67.2063 181.819 67.3663 181.344 67.3663 180.736V175.2H69.0943V180.736C69.0943 181.792 68.7743 182.629 68.1343 183.248C67.5049 183.856 66.6569 184.16 65.5903 184.16ZM71.232 184V175.2H72.896V176.88H73.312L72.784 177.92C72.784 176.971 72.992 176.256 73.408 175.776C73.824 175.285 74.4427 175.04 75.264 175.04C76.2027 175.04 76.944 175.333 77.488 175.92C78.0427 176.496 78.32 177.291 78.32 178.304V178.896H76.544V178.448C76.544 177.819 76.384 177.339 76.064 177.008C75.7547 176.667 75.3173 176.496 74.752 176.496C74.1867 176.496 73.744 176.667 73.424 177.008C73.1147 177.349 72.96 177.829 72.96 178.448V184H71.232ZM83.2578 184.16C82.5324 184.16 81.8924 184.027 81.3378 183.76C80.7938 183.483 80.3724 183.088 80.0738 182.576C79.7858 182.053 79.6418 181.445 79.6418 180.752V178.448C79.6418 177.744 79.7858 177.136 80.0738 176.624C80.3724 176.112 80.7938 175.723 81.3378 175.456C81.8924 175.179 82.5324 175.04 83.2578 175.04C84.3138 175.04 85.1618 175.317 85.8018 175.872C86.4418 176.427 86.7778 177.184 86.8098 178.144H85.0818C85.0498 177.643 84.8738 177.253 84.5538 176.976C84.2338 176.699 83.8018 176.56 83.2578 176.56C82.6711 176.56 82.2071 176.725 81.8658 177.056C81.5244 177.376 81.3538 177.835 81.3538 178.432V180.752C81.3538 181.349 81.5244 181.813 81.8658 182.144C82.2071 182.475 82.6711 182.64 83.2578 182.64C83.8018 182.64 84.2338 182.501 84.5538 182.224C84.8738 181.947 85.0498 181.557 85.0818 181.056H86.8098C86.7778 182.016 86.4418 182.773 85.8018 183.328C85.1618 183.883 84.3138 184.16 83.2578 184.16ZM91.9875 184.16C91.2728 184.16 90.6435 184.021 90.0995 183.744C89.5662 183.456 89.1555 183.056 88.8675 182.544C88.5795 182.032 88.4355 181.435 88.4355 180.752V178.448C88.4355 177.755 88.5795 177.157 88.8675 176.656C89.1555 176.144 89.5662 175.749 90.0995 175.472C90.6435 175.184 91.2728 175.04 91.9875 175.04C92.7128 175.04 93.3422 175.184 93.8755 175.472C94.4088 175.749 94.8195 176.144 95.1075 176.656C95.3955 177.157 95.5395 177.755 95.5395 178.448V180.016H90.0995V180.752C90.0995 181.403 90.2595 181.899 90.5795 182.24C90.9102 182.581 91.3848 182.752 92.0035 182.752C92.5048 182.752 92.9102 182.667 93.2195 182.496C93.5288 182.315 93.7208 182.053 93.7955 181.712H95.5075C95.3795 182.459 94.9955 183.056 94.3555 183.504C93.7155 183.941 92.9262 184.16 91.9875 184.16ZM93.8755 178.976V178.432C93.8755 177.792 93.7155 177.296 93.3955 176.944C93.0755 176.592 92.6062 176.416 91.9875 176.416C91.3795 176.416 90.9102 176.592 90.5795 176.944C90.2595 177.296 90.0995 177.797 90.0995 178.448V178.848L94.0035 178.832L93.8755 178.976Z" fill="white" style="fill:white;fill-opacity:1;"/>
<path d="M386.494 85L389.47 73.32H391.742L394.718 85H392.974L392.27 82.04H388.958L388.254 85H386.494ZM389.278 80.616H391.934L391.134 77.24C390.996 76.6427 390.878 76.1253 390.782 75.688C390.697 75.24 390.638 74.936 390.606 74.776C390.574 74.936 390.516 75.24 390.43 75.688C390.345 76.1253 390.228 76.6373 390.078 77.224L389.278 80.616ZM396.168 85V83.464H398.52V74.856H396.168V73.32H402.632V74.856H400.28V83.464H402.632V85H396.168ZM346.922 103L349.898 91.32H352.17L355.146 103H353.402L352.698 100.04H349.386L348.682 103H346.922ZM349.706 98.616H352.362L351.562 95.24C351.424 94.6427 351.306 94.1253 351.21 93.688C351.125 93.24 351.066 92.936 351.034 92.776C351.002 92.936 350.944 93.24 350.858 93.688C350.773 94.1253 350.656 94.6373 350.506 95.224L349.706 98.616ZM356.372 105.88V94.2H358.084V95.88H358.452L358.084 96.28C358.084 95.5867 358.297 95.0427 358.724 94.648C359.161 94.2427 359.743 94.04 360.468 94.04C361.353 94.04 362.057 94.3387 362.58 94.936C363.113 95.5227 363.38 96.328 363.38 97.352V99.832C363.38 100.515 363.257 101.107 363.012 101.608C362.777 102.099 362.441 102.483 362.004 102.76C361.577 103.027 361.065 103.16 360.468 103.16C359.753 103.16 359.177 102.963 358.74 102.568C358.303 102.163 358.084 101.613 358.084 100.92L358.452 101.32H358.052L358.1 103.368V105.88H356.372ZM359.876 101.656C360.441 101.656 360.879 101.496 361.188 101.176C361.508 100.845 361.668 100.371 361.668 99.752V97.448C361.668 96.8293 361.508 96.36 361.188 96.04C360.879 95.7093 360.441 95.544 359.876 95.544C359.332 95.544 358.9 95.7147 358.58 96.056C358.26 96.3867 358.1 96.8507 358.1 97.448V99.752C358.1 100.349 358.26 100.819 358.58 101.16C358.9 101.491 359.332 101.656 359.876 101.656ZM365.166 105.88V94.2H366.878V95.88H367.246L366.878 96.28C366.878 95.5867 367.091 95.0427 367.518 94.648C367.955 94.2427 368.537 94.04 369.262 94.04C370.147 94.04 370.851 94.3387 371.374 94.936C371.907 95.5227 372.174 96.328 372.174 97.352V99.832C372.174 100.515 372.051 101.107 371.806 101.608C371.571 102.099 371.235 102.483 370.798 102.76C370.371 103.027 369.859 103.16 369.262 103.16C368.547 103.16 367.971 102.963 367.534 102.568C367.097 102.163 366.878 101.613 366.878 100.92L367.246 101.32H366.846L366.894 103.368V105.88H365.166ZM368.67 101.656C369.235 101.656 369.673 101.496 369.982 101.176C370.302 100.845 370.462 100.371 370.462 99.752V97.448C370.462 96.8293 370.302 96.36 369.982 96.04C369.673 95.7093 369.235 95.544 368.67 95.544C368.126 95.544 367.694 95.7147 367.374 96.056C367.054 96.3867 366.894 96.8507 366.894 97.448V99.752C366.894 100.349 367.054 100.819 367.374 101.16C367.694 101.491 368.126 101.656 368.67 101.656ZM378.68 103C378.136 103 377.661 102.893 377.256 102.68C376.85 102.456 376.53 102.141 376.296 101.736C376.072 101.331 375.96 100.861 375.96 100.328V92.888H373.08V91.32H377.688V100.328C377.688 100.669 377.784 100.941 377.976 101.144C378.168 101.336 378.429 101.432 378.76 101.432H381.48V103H378.68ZM382.705 103V101.432H385.793V95.768H383.105V94.2H387.473V101.432H390.305V103H382.705ZM386.465 92.68C386.092 92.68 385.793 92.584 385.569 92.392C385.345 92.1893 385.233 91.9227 385.233 91.592C385.233 91.2507 385.345 90.984 385.569 90.792C385.793 90.5893 386.092 90.488 386.465 90.488C386.839 90.488 387.137 90.5893 387.361 90.792C387.585 90.984 387.697 91.2507 387.697 91.592C387.697 91.9227 387.585 92.1893 387.361 92.392C387.137 92.584 386.839 92.68 386.465 92.68ZM395.067 103.16C394.342 103.16 393.702 103.027 393.147 102.76C392.603 102.483 392.182 102.088 391.883 101.576C391.595 101.053 391.451 100.445 391.451 99.752V97.448C391.451 96.744 391.595 96.136 391.883 95.624C392.182 95.112 392.603 94.7227 393.147 94.456C393.702 94.1787 394.342 94.04 395.067 94.04C396.123 94.04 396.971 94.3173 397.611 94.872C398.251 95.4267 398.587 96.184 398.619 97.144H396.891C396.859 96.6427 396.683 96.2533 396.363 95.976C396.043 95.6987 395.611 95.56 395.067 95.56C394.48 95.56 394.016 95.7253 393.675 96.056C393.334 96.376 393.163 96.8347 393.163 97.432V99.752C393.163 100.349 393.334 100.813 393.675 101.144C394.016 101.475 394.48 101.64 395.067 101.64C395.611 101.64 396.043 101.501 396.363 101.224C396.683 100.947 396.859 100.557 396.891 100.056H398.619C398.587 101.016 398.251 101.773 397.611 102.328C396.971 102.883 396.123 103.16 395.067 103.16ZM402.917 103.16C402 103.16 401.274 102.925 400.741 102.456C400.218 101.976 399.957 101.325 399.957 100.504C399.957 99.672 400.234 99.0213 400.789 98.552C401.354 98.072 402.128 97.832 403.109 97.832H405.557V97.016C405.557 96.536 405.408 96.1627 405.109 95.896C404.81 95.6293 404.389 95.496 403.845 95.496C403.365 95.496 402.965 95.6027 402.645 95.816C402.325 96.0187 402.138 96.2907 402.085 96.632H400.389C400.485 95.8427 400.848 95.2133 401.477 94.744C402.117 94.2747 402.922 94.04 403.893 94.04C404.938 94.04 405.765 94.3067 406.373 94.84C406.981 95.3627 407.285 96.0773 407.285 96.984V103H405.605V101.384H405.317L405.605 101.064C405.605 101.704 405.36 102.216 404.869 102.6C404.378 102.973 403.728 103.16 402.917 103.16ZM403.429 101.832C404.048 101.832 404.554 101.677 404.949 101.368C405.354 101.048 405.557 100.643 405.557 100.152V99H403.141C402.693 99 402.336 99.1227 402.069 99.368C401.813 99.6133 401.685 99.9493 401.685 100.376C401.685 100.824 401.84 101.181 402.149 101.448C402.458 101.704 402.885 101.832 403.429 101.832ZM413.551 103C412.751 103 412.127 102.781 411.679 102.344C411.231 101.907 411.007 101.299 411.007 100.52V95.768H408.575V94.2H411.007V91.72H412.735V94.2H416.175V95.768H412.735V100.52C412.735 101.128 413.028 101.432 413.615 101.432H416.015V103H413.551ZM417.88 103V101.432H420.968V95.768H418.28V94.2H422.648V101.432H425.48V103H417.88ZM421.64 92.68C421.267 92.68 420.968 92.584 420.744 92.392C420.52 92.1893 420.408 91.9227 420.408 91.592C420.408 91.2507 420.52 90.984 420.744 90.792C420.968 90.5893 421.267 90.488 421.64 90.488C422.014 90.488 422.312 90.5893 422.536 90.792C422.76 90.984 422.872 91.2507 422.872 91.592C422.872 91.9227 422.76 92.1893 422.536 92.392C422.312 92.584 422.014 92.68 421.64 92.68ZM430.178 103.144C429.453 103.144 428.823 103.005 428.29 102.728C427.757 102.451 427.346 102.056 427.058 101.544C426.77 101.032 426.626 100.429 426.626 99.736V97.464C426.626 96.76 426.77 96.1573 427.058 95.656C427.346 95.144 427.757 94.7493 428.29 94.472C428.823 94.1947 429.453 94.056 430.178 94.056C430.903 94.056 431.533 94.1947 432.066 94.472C432.599 94.7493 433.01 95.144 433.298 95.656C433.586 96.1573 433.73 96.76 433.73 97.464V99.736C433.73 100.429 433.586 101.032 433.298 101.544C433.01 102.056 432.599 102.451 432.066 102.728C431.533 103.005 430.903 103.144 430.178 103.144ZM430.178 101.624C430.765 101.624 431.218 101.464 431.538 101.144C431.858 100.813 432.018 100.344 432.018 99.736V97.464C432.018 96.8453 431.858 96.376 431.538 96.056C431.218 95.736 430.765 95.576 430.178 95.576C429.602 95.576 429.149 95.736 428.818 96.056C428.498 96.376 428.338 96.8453 428.338 97.464V99.736C428.338 100.344 428.498 100.813 428.818 101.144C429.149 101.464 429.602 101.624 430.178 101.624ZM435.516 103V94.2H437.228V95.88H437.644L437.228 96.28C437.228 95.576 437.436 95.0267 437.852 94.632C438.268 94.2373 438.844 94.04 439.58 94.04C440.455 94.04 441.153 94.3227 441.676 94.888C442.199 95.4427 442.46 96.1947 442.46 97.144V103H440.732V97.336C440.732 96.76 440.577 96.3173 440.268 96.008C439.959 95.6987 439.537 95.544 439.004 95.544C438.46 95.544 438.028 95.7093 437.708 96.04C437.399 96.36 437.244 96.8293 437.244 97.448V103H435.516Z" fill="white" style="fill:white;fill-opacity:1;"/>
<path d="M248 9.5L233.75 17.7272L233.75 1.27276L248 9.5Z" fill="#ABB2FA" style="fill:#ABB2FA;fill:color(display-p3 0.6706 0.6990 0.9799);fill-opacity:1;"/>
</svg>
