<svg width="91" height="34" viewBox="0 0 91 34" fill="none" xmlns="http://www.w3.org/2000/svg">
<path d="M0.723003 33.0923V7.27685H5.03737V10.99H6.02755L5.03737 12.0156C5.03737 10.436 5.50889 9.19827 6.45192 8.30239C7.39495 7.38294 8.66804 6.92321 10.2712 6.92321C12.228 6.92321 13.7958 7.59512 14.9746 8.93894C16.1534 10.2828 16.7427 12.0863 16.7427 14.3496V19.6188C16.7427 21.1276 16.4716 22.4479 15.9294 23.5795C15.4107 24.6876 14.6681 25.5481 13.7015 26.161C12.7349 26.774 11.5914 27.0805 10.2712 27.0805C8.66804 27.0805 7.39495 26.6326 6.45192 25.7367C5.50889 24.8172 5.03737 23.5677 5.03737 21.9881L6.02755 23.0137H5.00201L5.14346 27.6463V33.0923H0.723003ZM8.71519 23.2612C9.84683 23.2612 10.7309 22.9312 11.3675 22.271C12.004 21.6109 12.3223 20.6679 12.3223 19.442V14.5618C12.3223 13.3358 12.004 12.3928 11.3675 11.7327C10.7309 11.0725 9.84683 10.7425 8.71519 10.7425C7.60713 10.7425 6.73483 11.0843 6.09828 11.768C5.46174 12.4282 5.14346 13.3594 5.14346 14.5618V19.442C5.14346 20.6443 5.46174 21.5873 6.09828 22.271C6.73483 22.9312 7.60713 23.2612 8.71519 23.2612ZM29.9549 26.7269C28.6819 26.7269 27.562 26.4675 26.5954 25.9489C25.6524 25.4302 24.9097 24.6994 24.3675 23.7563C23.8252 22.7897 23.5541 21.6817 23.5541 20.4321V4.90748H17.3301V0.911385H27.9746V20.4321C27.9746 21.1394 28.175 21.7052 28.5758 22.1296C29.0001 22.5304 29.5659 22.7308 30.2732 22.7308H36.1436V26.7269H29.9549ZM43.2025 27.0805C41.1986 27.0805 39.619 26.55 38.4638 25.4891C37.3086 24.4282 36.731 23.0019 36.731 21.2101C36.731 19.3005 37.3675 17.827 38.6406 16.7897C39.9137 15.7523 41.7172 15.2337 44.0512 15.2337H48.8961V13.5716C48.8961 12.6285 48.5896 11.8977 47.9766 11.379C47.3636 10.8368 46.5267 10.5657 45.4658 10.5657C44.4992 10.5657 43.6976 10.7779 43.0611 11.2022C42.4245 11.6266 42.0473 12.2042 41.9294 12.935H37.6151C37.8272 11.0961 38.6524 9.63442 40.0905 8.54994C41.5286 7.46545 43.3675 6.92321 45.6072 6.92321C47.9884 6.92321 49.8627 7.52439 51.2301 8.72676C52.621 9.90555 53.3165 11.5087 53.3165 13.5362V26.7269H49.0375V23.332H48.3302L49.0375 22.3771C49.0375 23.8153 48.5071 24.9587 47.4462 25.8074C46.3852 26.6561 44.9707 27.0805 43.2025 27.0805ZM44.6524 23.7563C45.9019 23.7563 46.9157 23.438 47.6937 22.8015C48.4953 22.165 48.8961 21.3398 48.8961 20.326V17.9567H44.122C43.2261 17.9567 42.507 18.216 41.9648 18.7347C41.4225 19.2533 41.1514 19.937 41.1514 20.7858C41.1514 21.7052 41.4579 22.4361 42.0709 22.9783C42.7074 23.497 43.5679 23.7563 44.6524 23.7563ZM55.8489 26.7269V7.27685H60.1633V10.99H61.3656L60.1633 12.0156C60.1633 10.4124 60.623 9.16291 61.5424 8.26703C62.4855 7.37115 63.7704 6.92321 65.3971 6.92321C67.3067 6.92321 68.8274 7.55976 69.959 8.83285C71.1142 10.1059 71.6918 11.8152 71.6918 13.9606V26.7269H67.2714V14.4203C67.2714 13.2415 66.9649 12.3339 66.3519 11.6973C65.7389 11.0608 64.8784 10.7425 63.7704 10.7425C62.6859 10.7425 61.8254 11.0725 61.1888 11.7327C60.5758 12.3928 60.2694 13.3358 60.2694 14.5618V26.7269H55.8489ZM82.1103 27.0451C80.46 27.0451 79.0219 26.7387 77.7959 26.1257C76.5936 25.4891 75.6505 24.605 74.9668 23.4734C74.3067 22.3182 73.9766 20.9626 73.9766 19.4066V14.5971C73.9766 13.0411 74.3067 11.6973 74.9668 10.5657C75.6505 9.41045 76.5936 8.52636 77.7959 7.91339C79.0219 7.27685 80.46 6.95857 82.1103 6.95857C83.7842 6.95857 85.2223 7.27685 86.4247 7.91339C87.627 8.52636 88.5583 9.41045 89.2184 10.5657C89.9021 11.6973 90.2439 13.0293 90.2439 14.5618V19.4066C90.2439 20.9626 89.9021 22.3182 89.2184 23.4734C88.5583 24.605 87.627 25.4891 86.4247 26.1257C85.2223 26.7387 83.7842 27.0451 82.1103 27.0451ZM82.1103 23.1905C83.2891 23.1905 84.1967 22.8722 84.8333 22.2357C85.4934 21.5756 85.8235 20.6325 85.8235 19.4066V14.5971C85.8235 13.3476 85.4934 12.4046 84.8333 11.768C84.1967 11.1315 83.2891 10.8132 82.1103 10.8132C80.9551 10.8132 80.0474 11.1315 79.3873 11.768C78.7272 12.4046 78.3971 13.3476 78.3971 14.5971V19.4066C78.3971 20.6325 78.7272 21.5756 79.3873 22.2357C80.0474 22.8722 80.9551 23.1905 82.1103 23.1905Z" fill="#7780D9" style="fill:#7780D9;fill:color(display-p3 0.4667 0.5020 0.8510);fill-opacity:1;"/>
</svg>
