<svg width="354" height="60" viewBox="0 0 354 60" fill="none" xmlns="http://www.w3.org/2000/svg">
<path d="M43.5977 54.2294V20.8547H49.1754V25.6551H50.4556L49.1754 26.981C49.1754 24.9389 49.785 23.3387 51.0042 22.1805C52.2234 20.9918 53.8692 20.3975 55.9418 20.3975C58.4716 20.3975 60.4985 21.2661 62.0224 23.0035C63.5464 24.7408 64.3083 27.0724 64.3083 29.9984V36.8105C64.3083 38.7612 63.9578 40.468 63.2568 41.931C62.5863 43.3635 61.6262 44.476 60.3765 45.2685C59.1269 46.061 57.6486 46.4572 55.9418 46.4572C53.8692 46.4572 52.2234 45.8781 51.0042 44.7199C49.785 43.5312 49.1754 41.9158 49.1754 39.8737L50.4556 41.1995H49.1297L49.3126 47.1887V54.2294H43.5977ZM53.9302 41.5196C55.3932 41.5196 56.5362 41.0929 57.3591 40.2394C58.182 39.386 58.5935 38.1668 58.5935 36.5819V30.2727C58.5935 28.6878 58.182 27.4687 57.3591 26.6152C56.5362 25.7618 55.3932 25.3351 53.9302 25.3351C52.4977 25.3351 51.3699 25.7771 50.547 26.661C49.7241 27.5144 49.3126 28.7183 49.3126 30.2727V36.5819C49.3126 38.1364 49.7241 39.3555 50.547 40.2394C51.3699 41.0929 52.4977 41.5196 53.9302 41.5196ZM81.3893 46C79.7434 46 78.2957 45.6647 77.046 44.9942C75.8269 44.3236 74.8668 43.3788 74.1657 42.1596C73.4647 40.91 73.1142 39.4775 73.1142 37.8621V17.7915H65.0677V12.6253H78.8291V37.8621C78.8291 38.7764 79.0881 39.5079 79.6063 40.0566C80.1549 40.5747 80.8864 40.8338 81.8008 40.8338H89.3901V46H81.3893ZM98.516 46.4572C95.9253 46.4572 93.8832 45.7714 92.3897 44.3998C90.8962 43.0283 90.1495 41.1843 90.1495 38.8679C90.1495 36.3991 90.9724 34.4941 92.6183 33.153C94.2642 31.8119 96.5958 31.1414 99.6133 31.1414H105.877V28.9926C105.877 27.7734 105.48 26.8286 104.688 26.158C103.896 25.457 102.814 25.1065 101.442 25.1065C100.192 25.1065 99.1561 25.3808 98.3331 25.9295C97.5102 26.4781 97.0225 27.2248 96.8701 28.1697H91.2924C91.5667 25.7923 92.6335 23.9026 94.4927 22.5005C96.352 21.0985 98.7294 20.3975 101.625 20.3975C104.703 20.3975 107.126 21.1747 108.894 22.7291C110.692 24.2531 111.592 26.3257 111.592 28.9469V46H106.06V41.611H105.145L106.06 40.3766C106.06 42.2358 105.374 43.7141 104.002 44.8113C102.631 45.9086 100.802 46.4572 98.516 46.4572ZM100.39 42.1596C102.006 42.1596 103.316 41.7482 104.322 40.9252C105.359 40.1023 105.877 39.0355 105.877 37.7249V34.6617H99.7047C98.5465 34.6617 97.6169 34.997 96.9158 35.6676C96.2148 36.3381 95.8643 37.222 95.8643 38.3192C95.8643 39.5079 96.2605 40.4528 97.053 41.1538C97.8759 41.8244 98.9884 42.1596 100.39 42.1596ZM114.865 46V20.8547H120.443V25.6551H121.998L120.443 26.981C120.443 24.9084 121.038 23.293 122.226 22.1348C123.445 20.9766 125.106 20.3975 127.21 20.3975C129.678 20.3975 131.644 21.2204 133.107 22.8663C134.601 24.5122 135.347 26.7219 135.347 29.4955V46H129.633V30.0899C129.633 28.5659 129.236 27.3925 128.444 26.5695C127.651 25.7466 126.539 25.3351 125.106 25.3351C123.704 25.3351 122.592 25.7618 121.769 26.6152C120.977 27.4687 120.58 28.6878 120.58 30.2727V46H114.865ZM148.817 46.4115C146.683 46.4115 144.824 46.0152 143.239 45.2228C141.685 44.3998 140.465 43.2569 139.581 41.7939C138.728 40.3004 138.301 38.5478 138.301 36.5362V30.3185C138.301 28.3068 138.728 26.5695 139.581 25.1065C140.465 23.613 141.685 22.4701 143.239 21.6776C144.824 20.8547 146.683 20.4432 148.817 20.4432C150.981 20.4432 152.84 20.8547 154.394 21.6776C155.949 22.4701 157.153 23.613 158.006 25.1065C158.89 26.5695 159.332 28.2916 159.332 30.2727V36.5362C159.332 38.5478 158.89 40.3004 158.006 41.7939C157.153 43.2569 155.949 44.3998 154.394 45.2228C152.84 46.0152 150.981 46.4115 148.817 46.4115ZM148.817 41.4281C150.341 41.4281 151.514 41.0167 152.337 40.1937C153.19 39.3403 153.617 38.1211 153.617 36.5362V30.3185C153.617 28.7031 153.19 27.4839 152.337 26.661C151.514 25.838 150.341 25.4265 148.817 25.4265C147.323 25.4265 146.15 25.838 145.296 26.661C144.443 27.4839 144.016 28.7031 144.016 30.3185V36.5362C144.016 38.1211 144.443 39.3403 145.296 40.1937C146.15 41.0167 147.323 41.4281 148.817 41.4281ZM165.258 33.5645V28.2611H179.888V33.5645H165.258ZM196.008 46.4572C193.844 46.4572 191.955 46.061 190.339 45.2685C188.754 44.476 187.52 43.3635 186.636 41.931C185.752 40.4985 185.31 38.8069 185.31 36.8562H191.071C191.071 38.3497 191.498 39.5232 192.351 40.3766C193.235 41.1995 194.469 41.611 196.054 41.611C197.639 41.611 198.858 41.1843 199.712 40.3309C200.565 39.4775 200.992 38.3192 200.992 36.8562V34.2503C200.992 32.7568 200.565 31.5986 199.712 30.7756C198.858 29.9222 197.639 29.4955 196.054 29.4955H192.305V24.3293L199.666 17.5172H186.819V12.6253H205.472V17.7915L196.054 26.4324V24.6036C199.346 24.6036 201.952 25.4723 203.872 27.2096C205.792 28.9469 206.752 31.2938 206.752 34.2503V36.8562C206.752 38.8069 206.31 40.4985 205.427 41.931C204.543 43.3635 203.293 44.476 201.678 45.2685C200.062 46.061 198.172 46.4572 196.008 46.4572ZM220.084 46.4572C217.92 46.4572 216.046 46.0457 214.461 45.2228C212.876 44.3998 211.642 43.2416 210.758 41.7482C209.904 40.2547 209.478 38.5021 209.478 36.4905V22.1348C209.478 20.1232 209.904 18.3706 210.758 16.8771C211.642 15.3837 212.876 14.2254 214.461 13.4025C216.046 12.5796 217.92 12.1681 220.084 12.1681C222.279 12.1681 224.153 12.5796 225.708 13.4025C227.293 14.2254 228.512 15.3837 229.365 16.8771C230.249 18.3706 230.691 20.1232 230.691 22.1348V36.4905C230.691 38.5021 230.249 40.2547 229.365 41.7482C228.512 43.2416 227.293 44.3998 225.708 45.2228C224.123 46.0457 222.248 46.4572 220.084 46.4572ZM220.084 41.5196C221.669 41.5196 222.934 41.0624 223.879 40.148C224.824 39.2336 225.296 38.0145 225.296 36.4905V22.1348C225.296 20.6108 224.824 19.3917 223.879 18.4773C222.934 17.5629 221.669 17.1057 220.084 17.1057C218.499 17.1057 217.235 17.5629 216.29 18.4773C215.345 19.3917 214.872 20.6108 214.872 22.1348V36.4905C214.872 38.0145 215.345 39.2336 216.29 40.148C217.235 41.0624 218.499 41.5196 220.084 41.5196ZM220.084 32.2844C219.2 32.2844 218.469 31.9948 217.89 31.4157C217.341 30.8366 217.067 30.0899 217.067 29.1755C217.067 28.2611 217.341 27.5296 217.89 26.981C218.439 26.4324 219.17 26.158 220.084 26.158C220.999 26.158 221.73 26.4324 222.279 26.981C222.828 27.5296 223.102 28.2611 223.102 29.1755C223.102 30.0899 222.828 30.8366 222.279 31.4157C221.73 31.9948 220.999 32.2844 220.084 32.2844ZM245.989 46.4572C243.916 46.4572 242.271 45.8781 241.051 44.7199C239.832 43.5312 239.223 41.9158 239.223 39.8737L240.503 41.1995H239.223V46H233.645V12.6253H239.36V19.666L239.177 25.6551H240.503L239.223 26.981C239.223 24.9389 239.832 23.3387 241.051 22.1805C242.271 20.9918 243.916 20.3975 245.989 20.3975C248.519 20.3975 250.546 21.2661 252.07 23.0035C253.594 24.7408 254.356 27.0877 254.356 30.0441V36.8562C254.356 39.7822 253.594 42.1139 252.07 43.8512C250.546 45.5885 248.519 46.4572 245.989 46.4572ZM243.977 41.5196C245.44 41.5196 246.583 41.0929 247.406 40.2394C248.229 39.386 248.641 38.1668 248.641 36.5819V30.2727C248.641 28.6878 248.229 27.4687 247.406 26.6152C246.583 25.7618 245.44 25.3351 243.977 25.3351C242.545 25.3351 241.417 25.7771 240.594 26.661C239.771 27.5144 239.36 28.7183 239.36 30.2727V36.5819C239.36 38.1364 239.771 39.3555 240.594 40.2394C241.417 41.0929 242.545 41.5196 243.977 41.5196ZM260.281 33.5645V28.2611H274.911V33.5645H260.281ZM288.563 46.4572C285.973 46.4572 283.93 45.7714 282.437 44.3998C280.943 43.0283 280.197 41.1843 280.197 38.8679C280.197 36.3991 281.02 34.4941 282.666 33.153C284.311 31.8119 286.643 31.1414 289.661 31.1414H295.924V28.9926C295.924 27.7734 295.528 26.8286 294.735 26.158C293.943 25.457 292.861 25.1065 291.489 25.1065C290.24 25.1065 289.203 25.3808 288.38 25.9295C287.557 26.4781 287.07 27.2248 286.917 28.1697H281.34C281.614 25.7923 282.681 23.9026 284.54 22.5005C286.399 21.0985 288.777 20.3975 291.672 20.3975C294.751 20.3975 297.174 21.1747 298.941 22.7291C300.74 24.2531 301.639 26.3257 301.639 28.9469V46H296.107V41.611H295.193L296.107 40.3766C296.107 42.2358 295.421 43.7141 294.05 44.8113C292.678 45.9086 290.849 46.4572 288.563 46.4572ZM290.438 42.1596C292.053 42.1596 293.364 41.7482 294.37 40.9252C295.406 40.1023 295.924 39.0355 295.924 37.7249V34.6617H289.752C288.594 34.6617 287.664 34.997 286.963 35.6676C286.262 36.3381 285.912 37.222 285.912 38.3192C285.912 39.5079 286.308 40.4528 287.1 41.1538C287.923 41.8244 289.036 42.1596 290.438 42.1596ZM314.788 46.4572C312.624 46.4572 310.734 46.061 309.119 45.2685C307.534 44.476 306.3 43.3635 305.416 41.931C304.532 40.4985 304.09 38.8069 304.09 36.8562H309.85C309.85 38.3497 310.277 39.5232 311.13 40.3766C312.014 41.1995 313.249 41.611 314.834 41.611C316.419 41.611 317.638 41.1843 318.491 40.3309C319.345 39.4775 319.771 38.3192 319.771 36.8562V34.2503C319.771 32.7568 319.345 31.5986 318.491 30.7756C317.638 29.9222 316.419 29.4955 314.834 29.4955H311.085V24.3293L318.446 17.5172H305.599V12.6253H324.252V17.7915L314.834 26.4324V24.6036C318.125 24.6036 320.731 25.4723 322.652 27.2096C324.572 28.9469 325.532 31.2938 325.532 34.2503V36.8562C325.532 38.8069 325.09 40.4985 324.206 41.931C323.322 43.3635 322.073 44.476 320.457 45.2685C318.842 46.061 316.952 46.4572 314.788 46.4572ZM341.013 46.4572C338.94 46.4572 337.294 45.8781 336.075 44.7199C334.856 43.5312 334.246 41.9158 334.246 39.8737L335.526 41.1995H334.246V46H328.669V12.6253H334.384V19.666L334.201 25.6551H335.526L334.246 26.981C334.246 24.9389 334.856 23.3387 336.075 22.1805C337.294 20.9918 338.94 20.3975 341.013 20.3975C343.543 20.3975 345.569 21.2661 347.093 23.0035C348.617 24.7408 349.379 27.0877 349.379 30.0441V36.8562C349.379 39.7822 348.617 42.1139 347.093 43.8512C345.569 45.5885 343.543 46.4572 341.013 46.4572ZM339.001 41.5196C340.464 41.5196 341.607 41.0929 342.43 40.2394C343.253 39.386 343.664 38.1668 343.664 36.5819V30.2727C343.664 28.6878 343.253 27.4687 342.43 26.6152C341.607 25.7618 340.464 25.3351 339.001 25.3351C337.569 25.3351 336.441 25.7771 335.618 26.661C334.795 27.5144 334.384 28.7183 334.384 30.2727V36.5819C334.384 38.1364 334.795 39.3555 335.618 40.2394C336.441 41.0929 337.569 41.5196 339.001 41.5196Z" fill="#7780D9" style="fill:#7780D9;fill:color(display-p3 0.4667 0.5020 0.8510);fill-opacity:1;"/>
<rect y="13.2812" width="33.6133" height="33.6133" fill="#7780D9" style="fill:#7780D9;fill:color(display-p3 0.4667 0.5020 0.8510);fill-opacity:1;"/>
<rect x="2.58569" y="15.8672" width="28.442" height="28.442" fill="#B9BFFF" style="fill:#B9BFFF;fill:color(display-p3 0.7246 0.7499 1.0000);fill-opacity:1;"/>
<path d="M3.87842 17.1602H6.46405V19.7458H3.87842V17.1602Z" fill="#B0B7FF" style="fill:#B0B7FF;fill:color(display-p3 0.6897 0.7182 1.0000);fill-opacity:1;"/>
<path d="M3.87842 21.0381H6.46405V23.6237H3.87842V21.0381Z" fill="#B0B7FF" style="fill:#B0B7FF;fill:color(display-p3 0.6897 0.7182 1.0000);fill-opacity:1;"/>
<path d="M3.87842 24.917H6.46405V27.5026H3.87842V24.917Z" fill="#B0B7FF" style="fill:#B0B7FF;fill:color(display-p3 0.6897 0.7182 1.0000);fill-opacity:1;"/>
<path d="M3.87842 28.7949H6.46405V31.3806H3.87842V28.7949Z" fill="#ABB2FA" style="fill:#ABB2FA;fill:color(display-p3 0.6706 0.6990 0.9799);fill-opacity:1;"/>
<path d="M3.87842 32.6738H6.46405V35.2595H3.87842V32.6738Z" fill="#ABB2FA" style="fill:#ABB2FA;fill:color(display-p3 0.6706 0.6990 0.9799);fill-opacity:1;"/>
<path d="M3.87842 36.5518H6.46405V39.1374H3.87842V36.5518Z" fill="#ABB2FA" style="fill:#ABB2FA;fill:color(display-p3 0.6706 0.6990 0.9799);fill-opacity:1;"/>
<path d="M3.87842 40.4307H6.46405V43.0163H3.87842V40.4307Z" fill="#969FF4" style="fill:#969FF4;fill:color(display-p3 0.5882 0.6220 0.9566);fill-opacity:1;"/>
<path d="M15.5138 17.1602H18.0994V19.7458H15.5138V17.1602Z" fill="#ABB2FA" style="fill:#ABB2FA;fill:color(display-p3 0.6706 0.6990 0.9799);fill-opacity:1;"/>
<path d="M15.5138 21.0381H18.0994V23.6237H15.5138V21.0381Z" fill="#ABB2FA" style="fill:#ABB2FA;fill:color(display-p3 0.6706 0.6990 0.9799);fill-opacity:1;"/>
<path d="M15.5138 24.917H18.0994V27.5026H15.5138V24.917Z" fill="#ABB2FA" style="fill:#ABB2FA;fill:color(display-p3 0.6706 0.6990 0.9799);fill-opacity:1;"/>
<path d="M15.5138 28.7949H18.0994V31.3806H15.5138V28.7949Z" fill="#969FF4" style="fill:#969FF4;fill:color(display-p3 0.5882 0.6220 0.9566);fill-opacity:1;"/>
<path d="M15.5138 32.6738H18.0994V35.2595H15.5138V32.6738Z" fill="#969FF4" style="fill:#969FF4;fill:color(display-p3 0.5882 0.6220 0.9566);fill-opacity:1;"/>
<path d="M15.5138 36.5518H18.0994V39.1374H15.5138V36.5518Z" fill="#969FF4" style="fill:#969FF4;fill:color(display-p3 0.5882 0.6220 0.9566);fill-opacity:1;"/>
<path d="M15.5138 40.4307H18.0994V43.0163H15.5138V40.4307Z" fill="#969FF4" style="fill:#969FF4;fill:color(display-p3 0.5882 0.6220 0.9566);fill-opacity:1;"/>
<path d="M7.75684 17.1602H10.3425V19.7458H7.75684V17.1602Z" fill="#B0B7FF" style="fill:#B0B7FF;fill:color(display-p3 0.6897 0.7182 1.0000);fill-opacity:1;"/>
<path d="M7.75684 21.0381H10.3425V23.6237H7.75684V21.0381Z" fill="#B0B7FF" style="fill:#B0B7FF;fill:color(display-p3 0.6897 0.7182 1.0000);fill-opacity:1;"/>
<path d="M7.75684 24.917H10.3425V27.5026H7.75684V24.917Z" fill="#ABB2FA" style="fill:#ABB2FA;fill:color(display-p3 0.6706 0.6990 0.9799);fill-opacity:1;"/>
<path d="M7.75684 28.7949H10.3425V31.3806H7.75684V28.7949Z" fill="#ABB2FA" style="fill:#ABB2FA;fill:color(display-p3 0.6706 0.6990 0.9799);fill-opacity:1;"/>
<path d="M7.75684 32.6738H10.3425V35.2595H7.75684V32.6738Z" fill="#ABB2FA" style="fill:#ABB2FA;fill:color(display-p3 0.6706 0.6990 0.9799);fill-opacity:1;"/>
<path d="M7.75684 36.5518H10.3425V39.1374H7.75684V36.5518Z" fill="#969FF4" style="fill:#969FF4;fill:color(display-p3 0.5882 0.6220 0.9566);fill-opacity:1;"/>
<path d="M7.75684 40.4307H10.3425V43.0163H7.75684V40.4307Z" fill="#969FF4" style="fill:#969FF4;fill:color(display-p3 0.5882 0.6220 0.9566);fill-opacity:1;"/>
<path d="M19.3922 17.1602H21.9778V19.7458H19.3922V17.1602Z" fill="#ABB2FA" style="fill:#ABB2FA;fill:color(display-p3 0.6706 0.6990 0.9799);fill-opacity:1;"/>
<path d="M19.3922 21.0381H21.9778V23.6237H19.3922V21.0381Z" fill="#ABB2FA" style="fill:#ABB2FA;fill:color(display-p3 0.6706 0.6990 0.9799);fill-opacity:1;"/>
<path d="M19.3922 24.917H21.9778V27.5026H19.3922V24.917Z" fill="#969FF4" style="fill:#969FF4;fill:color(display-p3 0.5882 0.6220 0.9566);fill-opacity:1;"/>
<path d="M19.3922 28.7949H21.9778V31.3806H19.3922V28.7949Z" fill="#969FF4" style="fill:#969FF4;fill:color(display-p3 0.5882 0.6220 0.9566);fill-opacity:1;"/>
<path d="M19.3922 32.6738H21.9778V35.2595H19.3922V32.6738Z" fill="#969FF4" style="fill:#969FF4;fill:color(display-p3 0.5882 0.6220 0.9566);fill-opacity:1;"/>
<path d="M19.3922 36.5518H21.9778V39.1374H19.3922V36.5518Z" fill="#969FF4" style="fill:#969FF4;fill:color(display-p3 0.5882 0.6220 0.9566);fill-opacity:1;"/>
<path d="M19.3922 40.4307H21.9778V43.0163H19.3922V40.4307Z" fill="#969FF4" style="fill:#969FF4;fill:color(display-p3 0.5882 0.6220 0.9566);fill-opacity:1;"/>
<path d="M11.6353 17.1602H14.2209V19.7458H11.6353V17.1602Z" fill="#B0B7FF" style="fill:#B0B7FF;fill:color(display-p3 0.6897 0.7182 1.0000);fill-opacity:1;"/>
<path d="M11.6353 21.0381H14.2209V23.6237H11.6353V21.0381Z" fill="#ABB2FA" style="fill:#ABB2FA;fill:color(display-p3 0.6706 0.6990 0.9799);fill-opacity:1;"/>
<path d="M11.6353 24.917H14.2209V27.5026H11.6353V24.917Z" fill="#ABB2FA" style="fill:#ABB2FA;fill:color(display-p3 0.6706 0.6990 0.9799);fill-opacity:1;"/>
<path d="M11.6353 28.7949H14.2209V31.3806H11.6353V28.7949Z" fill="#ABB2FA" style="fill:#ABB2FA;fill:color(display-p3 0.6706 0.6990 0.9799);fill-opacity:1;"/>
<path d="M11.6353 32.6738H14.2209V35.2595H11.6353V32.6738Z" fill="#969FF4" style="fill:#969FF4;fill:color(display-p3 0.5882 0.6220 0.9566);fill-opacity:1;"/>
<path d="M11.6353 36.5518H14.2209V39.1374H11.6353V36.5518Z" fill="#969FF4" style="fill:#969FF4;fill:color(display-p3 0.5882 0.6220 0.9566);fill-opacity:1;"/>
<path d="M11.6353 40.4307H14.2209V43.0163H11.6353V40.4307Z" fill="#969FF4" style="fill:#969FF4;fill:color(display-p3 0.5882 0.6220 0.9566);fill-opacity:1;"/>
<path d="M23.2706 17.1602H25.8563V19.7458H23.2706V17.1602Z" fill="#ABB2FA" style="fill:#ABB2FA;fill:color(display-p3 0.6706 0.6990 0.9799);fill-opacity:1;"/>
<path d="M23.2706 21.0381H25.8563V23.6237H23.2706V21.0381Z" fill="#969FF4" style="fill:#969FF4;fill:color(display-p3 0.5882 0.6220 0.9566);fill-opacity:1;"/>
<path d="M23.2706 24.917H25.8563V27.5026H23.2706V24.917Z" fill="#969FF4" style="fill:#969FF4;fill:color(display-p3 0.5882 0.6220 0.9566);fill-opacity:1;"/>
<path d="M23.2706 28.7949H25.8563V31.3806H23.2706V28.7949Z" fill="#969FF4" style="fill:#969FF4;fill:color(display-p3 0.5882 0.6220 0.9566);fill-opacity:1;"/>
<path d="M23.2706 32.6738H25.8563V35.2595H23.2706V32.6738Z" fill="#969FF4" style="fill:#969FF4;fill:color(display-p3 0.5882 0.6220 0.9566);fill-opacity:1;"/>
<path d="M23.2706 36.5518H25.8563V39.1374H23.2706V36.5518Z" fill="#969FF4" style="fill:#969FF4;fill:color(display-p3 0.5882 0.6220 0.9566);fill-opacity:1;"/>
<path d="M23.2706 40.4307H25.8563V43.0163H23.2706V40.4307Z" fill="#969FF4" style="fill:#969FF4;fill:color(display-p3 0.5882 0.6220 0.9566);fill-opacity:1;"/>
<path d="M27.1492 17.1602H29.7348V19.7458H27.1492V17.1602Z" fill="#969FF4" style="fill:#969FF4;fill:color(display-p3 0.5882 0.6220 0.9566);fill-opacity:1;"/>
<path d="M27.1492 21.0381H29.7348V23.6237H27.1492V21.0381Z" fill="#969FF4" style="fill:#969FF4;fill:color(display-p3 0.5882 0.6220 0.9566);fill-opacity:1;"/>
<path d="M27.1492 24.917H29.7348V27.5026H27.1492V24.917Z" fill="#969FF4" style="fill:#969FF4;fill:color(display-p3 0.5882 0.6220 0.9566);fill-opacity:1;"/>
<path d="M27.1492 28.7949H29.7348V31.3806H27.1492V28.7949Z" fill="#969FF4" style="fill:#969FF4;fill:color(display-p3 0.5882 0.6220 0.9566);fill-opacity:1;"/>
<path d="M27.1492 32.6738H29.7348V35.2595H27.1492V32.6738Z" fill="#969FF4" style="fill:#969FF4;fill:color(display-p3 0.5882 0.6220 0.9566);fill-opacity:1;"/>
<path d="M27.1492 36.5518H29.7348V39.1374H27.1492V36.5518Z" fill="#969FF4" style="fill:#969FF4;fill:color(display-p3 0.5882 0.6220 0.9566);fill-opacity:1;"/>
<path d="M27.1492 40.4307H29.7348V43.0163H27.1492V40.4307Z" fill="#969FF4" style="fill:#969FF4;fill:color(display-p3 0.5882 0.6220 0.9566);fill-opacity:1;"/>
</svg>
