<svg width="289" height="325" viewBox="0 0 289 325" fill="none" xmlns="http://www.w3.org/2000/svg">
<rect x="80" y="187" width="59.8412" height="59.8412" fill="#7780D9" style="fill:#7780D9;fill:color(display-p3 0.4667 0.5020 0.8510);fill-opacity:1;"/>
<rect x="84.6035" y="191.603" width="50.6349" height="50.6349" fill="#B9BFFF" style="fill:#B9BFFF;fill:color(display-p3 0.7246 0.7499 1.0000);fill-opacity:1;"/>
<path d="M86.9048 193.905H91.508V198.508H86.9048V193.905Z" fill="#B0B7FF" style="fill:#B0B7FF;fill:color(display-p3 0.6897 0.7182 1.0000);fill-opacity:1;"/>
<path d="M86.9048 200.809H91.508V205.413H86.9048V200.809Z" fill="#B0B7FF" style="fill:#B0B7FF;fill:color(display-p3 0.6897 0.7182 1.0000);fill-opacity:1;"/>
<path d="M86.9048 207.714H91.508V212.317H86.9048V207.714Z" fill="#B0B7FF" style="fill:#B0B7FF;fill:color(display-p3 0.6897 0.7182 1.0000);fill-opacity:1;"/>
<path d="M86.9048 214.619H91.508V219.222H86.9048V214.619Z" fill="#ABB2FA" style="fill:#ABB2FA;fill:color(display-p3 0.6706 0.6990 0.9799);fill-opacity:1;"/>
<path d="M86.9048 221.524H91.508V226.127H86.9048V221.524Z" fill="#ABB2FA" style="fill:#ABB2FA;fill:color(display-p3 0.6706 0.6990 0.9799);fill-opacity:1;"/>
<path d="M86.9048 228.428H91.508V233.032H86.9048V228.428Z" fill="#ABB2FA" style="fill:#ABB2FA;fill:color(display-p3 0.6706 0.6990 0.9799);fill-opacity:1;"/>
<path d="M86.9048 235.333H91.508V239.936H86.9048V235.333Z" fill="#969FF4" style="fill:#969FF4;fill:color(display-p3 0.5882 0.6220 0.9566);fill-opacity:1;"/>
<path d="M107.619 193.905H112.222V198.508H107.619V193.905Z" fill="#ABB2FA" style="fill:#ABB2FA;fill:color(display-p3 0.6706 0.6990 0.9799);fill-opacity:1;"/>
<path d="M107.619 200.809H112.222V205.413H107.619V200.809Z" fill="#ABB2FA" style="fill:#ABB2FA;fill:color(display-p3 0.6706 0.6990 0.9799);fill-opacity:1;"/>
<path d="M107.619 207.714H112.222V212.317H107.619V207.714Z" fill="#ABB2FA" style="fill:#ABB2FA;fill:color(display-p3 0.6706 0.6990 0.9799);fill-opacity:1;"/>
<path d="M107.619 214.619H112.222V219.222H107.619V214.619Z" fill="#969FF4" style="fill:#969FF4;fill:color(display-p3 0.5882 0.6220 0.9566);fill-opacity:1;"/>
<path d="M107.619 221.524H112.222V226.127H107.619V221.524Z" fill="#969FF4" style="fill:#969FF4;fill:color(display-p3 0.5882 0.6220 0.9566);fill-opacity:1;"/>
<path d="M107.619 228.428H112.222V233.032H107.619V228.428Z" fill="#969FF4" style="fill:#969FF4;fill:color(display-p3 0.5882 0.6220 0.9566);fill-opacity:1;"/>
<path d="M107.619 235.333H112.222V239.936H107.619V235.333Z" fill="#969FF4" style="fill:#969FF4;fill:color(display-p3 0.5882 0.6220 0.9566);fill-opacity:1;"/>
<path d="M93.8096 193.905H98.4127V198.508H93.8096V193.905Z" fill="#B0B7FF" style="fill:#B0B7FF;fill:color(display-p3 0.6897 0.7182 1.0000);fill-opacity:1;"/>
<path d="M93.8096 200.809H98.4127V205.413H93.8096V200.809Z" fill="#B0B7FF" style="fill:#B0B7FF;fill:color(display-p3 0.6897 0.7182 1.0000);fill-opacity:1;"/>
<path d="M93.8096 207.714H98.4127V212.317H93.8096V207.714Z" fill="#ABB2FA" style="fill:#ABB2FA;fill:color(display-p3 0.6706 0.6990 0.9799);fill-opacity:1;"/>
<path d="M93.8096 214.619H98.4127V219.222H93.8096V214.619Z" fill="#ABB2FA" style="fill:#ABB2FA;fill:color(display-p3 0.6706 0.6990 0.9799);fill-opacity:1;"/>
<path d="M93.8096 221.524H98.4127V226.127H93.8096V221.524Z" fill="#ABB2FA" style="fill:#ABB2FA;fill:color(display-p3 0.6706 0.6990 0.9799);fill-opacity:1;"/>
<path d="M93.8096 228.428H98.4127V233.032H93.8096V228.428Z" fill="#969FF4" style="fill:#969FF4;fill:color(display-p3 0.5882 0.6220 0.9566);fill-opacity:1;"/>
<path d="M93.8096 235.333H98.4127V239.936H93.8096V235.333Z" fill="#969FF4" style="fill:#969FF4;fill:color(display-p3 0.5882 0.6220 0.9566);fill-opacity:1;"/>
<path d="M114.524 193.905H119.127V198.508H114.524V193.905Z" fill="#ABB2FA" style="fill:#ABB2FA;fill:color(display-p3 0.6706 0.6990 0.9799);fill-opacity:1;"/>
<path d="M114.524 200.809H119.127V205.413H114.524V200.809Z" fill="#ABB2FA" style="fill:#ABB2FA;fill:color(display-p3 0.6706 0.6990 0.9799);fill-opacity:1;"/>
<path d="M114.524 207.714H119.127V212.317H114.524V207.714Z" fill="#969FF4" style="fill:#969FF4;fill:color(display-p3 0.5882 0.6220 0.9566);fill-opacity:1;"/>
<path d="M114.524 214.619H119.127V219.222H114.524V214.619Z" fill="#969FF4" style="fill:#969FF4;fill:color(display-p3 0.5882 0.6220 0.9566);fill-opacity:1;"/>
<path d="M114.524 221.524H119.127V226.127H114.524V221.524Z" fill="#969FF4" style="fill:#969FF4;fill:color(display-p3 0.5882 0.6220 0.9566);fill-opacity:1;"/>
<path d="M114.524 228.428H119.127V233.032H114.524V228.428Z" fill="#969FF4" style="fill:#969FF4;fill:color(display-p3 0.5882 0.6220 0.9566);fill-opacity:1;"/>
<path d="M114.524 235.333H119.127V239.936H114.524V235.333Z" fill="#969FF4" style="fill:#969FF4;fill:color(display-p3 0.5882 0.6220 0.9566);fill-opacity:1;"/>
<path d="M100.714 193.905H105.318V198.508H100.714V193.905Z" fill="#B0B7FF" style="fill:#B0B7FF;fill:color(display-p3 0.6897 0.7182 1.0000);fill-opacity:1;"/>
<path d="M100.714 200.809H105.318V205.413H100.714V200.809Z" fill="#ABB2FA" style="fill:#ABB2FA;fill:color(display-p3 0.6706 0.6990 0.9799);fill-opacity:1;"/>
<path d="M100.714 207.714H105.318V212.317H100.714V207.714Z" fill="#ABB2FA" style="fill:#ABB2FA;fill:color(display-p3 0.6706 0.6990 0.9799);fill-opacity:1;"/>
<path d="M100.714 214.619H105.318V219.222H100.714V214.619Z" fill="#ABB2FA" style="fill:#ABB2FA;fill:color(display-p3 0.6706 0.6990 0.9799);fill-opacity:1;"/>
<path d="M100.714 221.524H105.318V226.127H100.714V221.524Z" fill="#969FF4" style="fill:#969FF4;fill:color(display-p3 0.5882 0.6220 0.9566);fill-opacity:1;"/>
<path d="M100.714 228.428H105.318V233.032H100.714V228.428Z" fill="#969FF4" style="fill:#969FF4;fill:color(display-p3 0.5882 0.6220 0.9566);fill-opacity:1;"/>
<path d="M100.714 235.333H105.318V239.936H100.714V235.333Z" fill="#969FF4" style="fill:#969FF4;fill:color(display-p3 0.5882 0.6220 0.9566);fill-opacity:1;"/>
<path d="M121.429 193.905H126.032V198.508H121.429V193.905Z" fill="#ABB2FA" style="fill:#ABB2FA;fill:color(display-p3 0.6706 0.6990 0.9799);fill-opacity:1;"/>
<path d="M121.429 200.809H126.032V205.413H121.429V200.809Z" fill="#969FF4" style="fill:#969FF4;fill:color(display-p3 0.5882 0.6220 0.9566);fill-opacity:1;"/>
<path d="M121.429 207.714H126.032V212.317H121.429V207.714Z" fill="#969FF4" style="fill:#969FF4;fill:color(display-p3 0.5882 0.6220 0.9566);fill-opacity:1;"/>
<path d="M121.429 214.619H126.032V219.222H121.429V214.619Z" fill="#969FF4" style="fill:#969FF4;fill:color(display-p3 0.5882 0.6220 0.9566);fill-opacity:1;"/>
<path d="M121.429 221.524H126.032V226.127H121.429V221.524Z" fill="#969FF4" style="fill:#969FF4;fill:color(display-p3 0.5882 0.6220 0.9566);fill-opacity:1;"/>
<path d="M121.429 228.428H126.032V233.032H121.429V228.428Z" fill="#969FF4" style="fill:#969FF4;fill:color(display-p3 0.5882 0.6220 0.9566);fill-opacity:1;"/>
<path d="M121.429 235.333H126.032V239.936H121.429V235.333Z" fill="#969FF4" style="fill:#969FF4;fill:color(display-p3 0.5882 0.6220 0.9566);fill-opacity:1;"/>
<path d="M128.333 193.905H132.937V198.508H128.333V193.905Z" fill="#969FF4" style="fill:#969FF4;fill:color(display-p3 0.5882 0.6220 0.9566);fill-opacity:1;"/>
<path d="M128.333 200.809H132.937V205.413H128.333V200.809Z" fill="#969FF4" style="fill:#969FF4;fill:color(display-p3 0.5882 0.6220 0.9566);fill-opacity:1;"/>
<path d="M128.333 207.714H132.937V212.317H128.333V207.714Z" fill="#969FF4" style="fill:#969FF4;fill:color(display-p3 0.5882 0.6220 0.9566);fill-opacity:1;"/>
<path d="M128.333 214.619H132.937V219.222H128.333V214.619Z" fill="#969FF4" style="fill:#969FF4;fill:color(display-p3 0.5882 0.6220 0.9566);fill-opacity:1;"/>
<path d="M128.333 221.524H132.937V226.127H128.333V221.524Z" fill="#969FF4" style="fill:#969FF4;fill:color(display-p3 0.5882 0.6220 0.9566);fill-opacity:1;"/>
<path d="M128.333 228.428H132.937V233.032H128.333V228.428Z" fill="#969FF4" style="fill:#969FF4;fill:color(display-p3 0.5882 0.6220 0.9566);fill-opacity:1;"/>
<path d="M128.333 235.333H132.937V239.936H128.333V235.333Z" fill="#969FF4" style="fill:#969FF4;fill:color(display-p3 0.5882 0.6220 0.9566);fill-opacity:1;"/>
<line x1="110" y1="42" x2="110" y2="183" stroke="white" stroke-opacity="0.2" style="stroke:white;stroke-opacity:0.2;" stroke-width="2"/>
<line x1="146" y1="218" x2="203" y2="218" stroke="white" stroke-opacity="0.2" style="stroke:white;stroke-opacity:0.2;" stroke-width="2"/>
<line x1="204" y1="217" x2="204" y2="288" stroke="white" stroke-opacity="0.2" style="stroke:white;stroke-opacity:0.2;" stroke-width="2"/>
<rect x="1.74765" y="132.748" width="214.505" height="26.5047" fill="#47495D" stroke="#ABB2FA" style="fill:#47495D;fill:color(display-p3 0.2784 0.2863 0.3647);fill-opacity:1;stroke:#ABB2FA;stroke:color(display-p3 0.6706 0.6990 0.9799);stroke-opacity:1;" stroke-width="3.4953"/>
<path d="M13.3106 151V141.51H16.4176C17.0329 141.51 17.5659 141.627 18.0166 141.861C18.4759 142.095 18.8269 142.429 19.0696 142.862C19.3209 143.287 19.4466 143.789 19.4466 144.37C19.4466 144.942 19.3209 145.445 19.0696 145.878C18.8182 146.311 18.4672 146.645 18.0166 146.879C17.5659 147.113 17.0329 147.23 16.4176 147.23H14.7146V151H13.3106ZM14.7146 145.969H16.4176C16.9029 145.969 17.2886 145.826 17.5746 145.54C17.8692 145.245 18.0166 144.855 18.0166 144.37C18.0166 143.876 17.8692 143.486 17.5746 143.2C17.2886 142.914 16.9029 142.771 16.4176 142.771H14.7146V145.969ZM20.6895 151V143.85H22.0415V145.215H22.3795L21.9505 146.06C21.9505 145.289 22.1195 144.708 22.4575 144.318C22.7955 143.919 23.2981 143.72 23.9655 143.72C24.7281 143.72 25.3305 143.958 25.7725 144.435C26.2231 144.903 26.4485 145.549 26.4485 146.372V146.853H25.0055V146.489C25.0055 145.978 24.8755 145.588 24.6155 145.319C24.3641 145.042 24.0088 144.903 23.5495 144.903C23.0901 144.903 22.7305 145.042 22.4705 145.319C22.2191 145.596 22.0935 145.986 22.0935 146.489V151H20.6895ZM30.4084 151.117C29.8191 151.117 29.3077 151.004 28.8744 150.779C28.4411 150.554 28.1074 150.233 27.8734 149.817C27.6394 149.401 27.5224 148.911 27.5224 148.348V146.502C27.5224 145.93 27.6394 145.44 27.8734 145.033C28.1074 144.617 28.4411 144.296 28.8744 144.071C29.3077 143.846 29.8191 143.733 30.4084 143.733C30.9977 143.733 31.5091 143.846 31.9424 144.071C32.3757 144.296 32.7094 144.617 32.9434 145.033C33.1774 145.44 33.2944 145.93 33.2944 146.502V148.348C33.2944 148.911 33.1774 149.401 32.9434 149.817C32.7094 150.233 32.3757 150.554 31.9424 150.779C31.5091 151.004 30.9977 151.117 30.4084 151.117ZM30.4084 149.882C30.8851 149.882 31.2534 149.752 31.5134 149.492C31.7734 149.223 31.9034 148.842 31.9034 148.348V146.502C31.9034 145.999 31.7734 145.618 31.5134 145.358C31.2534 145.098 30.8851 144.968 30.4084 144.968C29.9404 144.968 29.5721 145.098 29.3034 145.358C29.0434 145.618 28.9134 145.999 28.9134 146.502V148.348C28.9134 148.842 29.0434 149.223 29.3034 149.492C29.5721 149.752 29.9404 149.882 30.4084 149.882ZM37.6053 151.13C37.016 151.13 36.496 151.022 36.0453 150.805C35.6033 150.58 35.261 150.259 35.0183 149.843C34.7843 149.418 34.6673 148.924 34.6673 148.361V146.489C34.6673 145.917 34.7843 145.423 35.0183 145.007C35.261 144.591 35.6033 144.275 36.0453 144.058C36.496 143.833 37.016 143.72 37.6053 143.72C38.4633 143.72 39.1523 143.945 39.6723 144.396C40.1923 144.847 40.4653 145.462 40.4913 146.242H39.0873C39.0613 145.835 38.9183 145.518 38.6583 145.293C38.3983 145.068 38.0473 144.955 37.6053 144.955C37.1287 144.955 36.7516 145.089 36.4743 145.358C36.197 145.618 36.0583 145.991 36.0583 146.476V148.361C36.0583 148.846 36.197 149.223 36.4743 149.492C36.7516 149.761 37.1287 149.895 37.6053 149.895C38.0473 149.895 38.3983 149.782 38.6583 149.557C38.9183 149.332 39.0613 149.015 39.0873 148.608H40.4913C40.4653 149.388 40.1923 150.003 39.6723 150.454C39.1523 150.905 38.4633 151.13 37.6053 151.13ZM44.6982 151.13C44.1176 151.13 43.6062 151.017 43.1642 150.792C42.7309 150.558 42.3972 150.233 42.1632 149.817C41.9292 149.401 41.8122 148.916 41.8122 148.361V146.489C41.8122 145.926 41.9292 145.44 42.1632 145.033C42.3972 144.617 42.7309 144.296 43.1642 144.071C43.6062 143.837 44.1176 143.72 44.6982 143.72C45.2876 143.72 45.7989 143.837 46.2322 144.071C46.6656 144.296 46.9992 144.617 47.2332 145.033C47.4672 145.44 47.5842 145.926 47.5842 146.489V147.763H43.1642V148.361C43.1642 148.89 43.2942 149.293 43.5542 149.57C43.8229 149.847 44.2086 149.986 44.7112 149.986C45.1186 149.986 45.4479 149.917 45.6992 149.778C45.9506 149.631 46.1066 149.418 46.1672 149.141H47.5582C47.4542 149.748 47.1422 150.233 46.6222 150.597C46.1022 150.952 45.4609 151.13 44.6982 151.13ZM46.2322 146.918V146.476C46.2322 145.956 46.1022 145.553 45.8422 145.267C45.5822 144.981 45.2009 144.838 44.6982 144.838C44.2042 144.838 43.8229 144.981 43.5542 145.267C43.2942 145.553 43.1642 145.96 43.1642 146.489V146.814L46.3362 146.801L46.2322 146.918ZM51.5962 151.117C51.0848 151.117 50.6342 151.035 50.2442 150.87C49.8628 150.705 49.5595 150.48 49.3342 150.194C49.1175 149.899 48.9918 149.553 48.9572 149.154H50.3612C50.3958 149.388 50.5215 149.579 50.7382 149.726C50.9548 149.865 51.2408 149.934 51.5962 149.934H52.1552C52.5798 149.934 52.9005 149.847 53.1172 149.674C53.3338 149.501 53.4422 149.271 53.4422 148.985C53.4422 148.708 53.3425 148.491 53.1432 148.335C52.9525 148.17 52.6665 148.062 52.2852 148.01L51.3622 147.867C50.5995 147.746 50.0362 147.529 49.6722 147.217C49.3168 146.896 49.1392 146.424 49.1392 145.8C49.1392 145.141 49.3515 144.634 49.7762 144.279C50.2095 143.915 50.8465 143.733 51.6872 143.733H52.1812C52.9265 143.733 53.5202 143.906 53.9622 144.253C54.4128 144.591 54.6685 145.046 54.7292 145.618H53.3252C53.2905 145.41 53.1735 145.241 52.9742 145.111C52.7835 144.981 52.5192 144.916 52.1812 144.916H51.6872C51.2798 144.916 50.9808 144.994 50.7902 145.15C50.6082 145.297 50.5172 145.518 50.5172 145.813C50.5172 146.073 50.5995 146.268 50.7642 146.398C50.9288 146.528 51.1845 146.619 51.5312 146.671L52.4802 146.827C53.2862 146.94 53.8755 147.165 54.2482 147.503C54.6295 147.832 54.8202 148.313 54.8202 148.946C54.8202 149.631 54.5948 150.164 54.1442 150.545C53.7022 150.926 53.0392 151.117 52.1552 151.117H51.5962ZM58.7411 151.117C58.2297 151.117 57.7791 151.035 57.3891 150.87C57.0077 150.705 56.7044 150.48 56.4791 150.194C56.2624 149.899 56.1367 149.553 56.1021 149.154H57.5061C57.5407 149.388 57.6664 149.579 57.8831 149.726C58.0997 149.865 58.3857 149.934 58.7411 149.934H59.3001C59.7247 149.934 60.0454 149.847 60.2621 149.674C60.4787 149.501 60.5871 149.271 60.5871 148.985C60.5871 148.708 60.4874 148.491 60.2881 148.335C60.0974 148.17 59.8114 148.062 59.4301 148.01L58.5071 147.867C57.7444 147.746 57.1811 147.529 56.8171 147.217C56.4617 146.896 56.2841 146.424 56.2841 145.8C56.2841 145.141 56.4964 144.634 56.9211 144.279C57.3544 143.915 57.9914 143.733 58.8321 143.733H59.3261C60.0714 143.733 60.6651 143.906 61.1071 144.253C61.5577 144.591 61.8134 145.046 61.8741 145.618H60.4701C60.4354 145.41 60.3184 145.241 60.1191 145.111C59.9284 144.981 59.6641 144.916 59.3261 144.916H58.8321C58.4247 144.916 58.1257 144.994 57.9351 145.15C57.7531 145.297 57.6621 145.518 57.6621 145.813C57.6621 146.073 57.7444 146.268 57.9091 146.398C58.0737 146.528 58.3294 146.619 58.6761 146.671L59.6251 146.827C60.4311 146.94 61.0204 147.165 61.3931 147.503C61.7744 147.832 61.9651 148.313 61.9651 148.946C61.9651 149.631 61.7397 150.164 61.2891 150.545C60.8471 150.926 60.1841 151.117 59.3001 151.117H58.7411ZM63.286 151V149.726H65.795V145.124H63.611V143.85H67.16V149.726H69.461V151H63.286ZM66.341 142.615C66.0377 142.615 65.795 142.537 65.613 142.381C65.431 142.216 65.34 142 65.34 141.731C65.34 141.454 65.431 141.237 65.613 141.081C65.795 140.916 66.0377 140.834 66.341 140.834C66.6443 140.834 66.887 140.916 67.069 141.081C67.251 141.237 67.342 141.454 67.342 141.731C67.342 142 67.251 142.216 67.069 142.381C66.887 142.537 66.6443 142.615 66.341 142.615ZM70.4699 151V143.85H71.8609V145.215H72.1989L71.8609 145.54C71.8609 144.968 72.0299 144.522 72.3679 144.201C72.7059 143.88 73.1739 143.72 73.7719 143.72C74.4826 143.72 75.0503 143.95 75.4749 144.409C75.8996 144.86 76.1119 145.471 76.1119 146.242V151H74.7079V146.398C74.7079 145.93 74.5823 145.57 74.3309 145.319C74.0796 145.068 73.7373 144.942 73.3039 144.942C72.8619 144.942 72.5109 145.076 72.2509 145.345C71.9996 145.605 71.8739 145.986 71.8739 146.489V151H70.4699ZM78.5509 153.34V152.131H80.7479C81.1119 152.131 81.3805 152.044 81.5539 151.871C81.7359 151.698 81.8269 151.442 81.8269 151.104V150.389L81.8529 149.063H81.5539L81.8399 148.803C81.8399 149.349 81.6665 149.778 81.3199 150.09C80.9819 150.402 80.5225 150.558 79.9419 150.558C79.2052 150.558 78.6245 150.315 78.1999 149.83C77.7752 149.345 77.5629 148.69 77.5629 147.867V146.411C77.5629 145.588 77.7752 144.933 78.1999 144.448C78.6245 143.963 79.2052 143.72 79.9419 143.72C80.5225 143.72 80.9819 143.88 81.3199 144.201C81.6665 144.513 81.8399 144.942 81.8399 145.488L81.5539 145.215H81.8399L81.8269 143.85H83.2179V151.13C83.2179 151.815 83.0012 152.352 82.5679 152.742C82.1345 153.141 81.5322 153.34 80.7609 153.34H78.5509ZM80.3969 149.349C80.8389 149.349 81.1855 149.215 81.4369 148.946C81.6969 148.669 81.8269 148.287 81.8269 147.802V146.489C81.8269 146.004 81.6969 145.627 81.4369 145.358C81.1855 145.081 80.8389 144.942 80.3969 144.942C79.9375 144.942 79.5822 145.076 79.3309 145.345C79.0882 145.605 78.9669 145.986 78.9669 146.489V147.802C78.9669 148.296 79.0882 148.677 79.3309 148.946C79.5822 149.215 79.9375 149.349 80.3969 149.349ZM91.8657 151V141.51H93.6337L96.4027 149.401C96.3854 149.15 96.3637 148.851 96.3377 148.504C96.3117 148.157 96.29 147.798 96.2727 147.425C96.264 147.052 96.2597 146.714 96.2597 146.411V141.51H97.5597V151H95.7917L93.0357 143.109C93.053 143.334 93.0704 143.616 93.0877 143.954C93.1137 144.292 93.131 144.643 93.1397 145.007C93.157 145.371 93.1657 145.709 93.1657 146.021V151H91.8657ZM101.143 151.13C100.397 151.13 99.8079 150.939 99.3746 150.558C98.9499 150.168 98.7376 149.639 98.7376 148.972C98.7376 148.296 98.9629 147.767 99.4136 147.386C99.8729 146.996 100.501 146.801 101.299 146.801H103.288V146.138C103.288 145.748 103.166 145.445 102.924 145.228C102.681 145.011 102.339 144.903 101.897 144.903C101.507 144.903 101.182 144.99 100.922 145.163C100.662 145.328 100.51 145.549 100.467 145.826H99.0886C99.1666 145.185 99.4613 144.673 99.9726 144.292C100.493 143.911 101.147 143.72 101.936 143.72C102.785 143.72 103.457 143.937 103.951 144.37C104.445 144.795 104.692 145.375 104.692 146.112V151H103.327V149.687H103.093L103.327 149.427C103.327 149.947 103.127 150.363 102.729 150.675C102.33 150.978 101.801 151.13 101.143 151.13ZM101.559 150.051C102.061 150.051 102.473 149.925 102.794 149.674C103.123 149.414 103.288 149.085 103.288 148.686V147.75H101.325C100.961 147.75 100.67 147.85 100.454 148.049C100.246 148.248 100.142 148.521 100.142 148.868C100.142 149.232 100.267 149.522 100.519 149.739C100.77 149.947 101.117 150.051 101.559 150.051ZM109.783 151C109.133 151 108.626 150.822 108.262 150.467C107.898 150.112 107.716 149.618 107.716 148.985V145.124H105.74V143.85H107.716V141.835H109.12V143.85H111.915V145.124H109.12V148.985C109.12 149.479 109.358 149.726 109.835 149.726H111.785V151H109.783ZM116.134 151.13C115.276 151.13 114.592 150.883 114.08 150.389C113.569 149.886 113.313 149.206 113.313 148.348V143.85H114.717V148.348C114.717 148.842 114.843 149.228 115.094 149.505C115.346 149.774 115.692 149.908 116.134 149.908C116.585 149.908 116.936 149.774 117.187 149.505C117.447 149.228 117.577 148.842 117.577 148.348V143.85H118.981V148.348C118.981 149.206 118.721 149.886 118.201 150.389C117.69 150.883 117.001 151.13 116.134 151.13ZM120.718 151V143.85H122.07V145.215H122.408L121.979 146.06C121.979 145.289 122.148 144.708 122.486 144.318C122.824 143.919 123.327 143.72 123.994 143.72C124.757 143.72 125.359 143.958 125.801 144.435C126.252 144.903 126.477 145.549 126.477 146.372V146.853H125.034V146.489C125.034 145.978 124.904 145.588 124.644 145.319C124.393 145.042 124.038 144.903 123.578 144.903C123.119 144.903 122.759 145.042 122.499 145.319C122.248 145.596 122.122 145.986 122.122 146.489V151H120.718ZM129.722 151.13C128.977 151.13 128.388 150.939 127.954 150.558C127.53 150.168 127.317 149.639 127.317 148.972C127.317 148.296 127.543 147.767 127.993 147.386C128.453 146.996 129.081 146.801 129.878 146.801H131.867V146.138C131.867 145.748 131.746 145.445 131.503 145.228C131.261 145.011 130.918 144.903 130.476 144.903C130.086 144.903 129.761 144.99 129.501 145.163C129.241 145.328 129.09 145.549 129.046 145.826H127.668C127.746 145.185 128.041 144.673 128.552 144.292C129.072 143.911 129.727 143.72 130.515 143.72C131.365 143.72 132.036 143.937 132.53 144.37C133.024 144.795 133.271 145.375 133.271 146.112V151H131.906V149.687H131.672L131.906 149.427C131.906 149.947 131.707 150.363 131.308 150.675C130.91 150.978 130.381 151.13 129.722 151.13ZM130.138 150.051C130.641 150.051 131.053 149.925 131.373 149.674C131.703 149.414 131.867 149.085 131.867 148.686V147.75H129.904C129.54 147.75 129.25 147.85 129.033 148.049C128.825 148.248 128.721 148.521 128.721 148.868C128.721 149.232 128.847 149.522 129.098 149.739C129.35 149.947 129.696 150.051 130.138 150.051ZM138.609 151C138.167 151 137.782 150.913 137.452 150.74C137.123 150.558 136.863 150.302 136.672 149.973C136.49 149.644 136.399 149.262 136.399 148.829V142.784H134.059V141.51H137.803V148.829C137.803 149.106 137.881 149.327 138.037 149.492C138.193 149.648 138.406 149.726 138.674 149.726H140.884V151H138.609ZM149.389 151V141.51H150.793V149.713H154.94V151H149.389ZM158.302 151.13C157.557 151.13 156.967 150.939 156.534 150.558C156.109 150.168 155.897 149.639 155.897 148.972C155.897 148.296 156.122 147.767 156.573 147.386C157.032 146.996 157.661 146.801 158.458 146.801H160.447V146.138C160.447 145.748 160.326 145.445 160.083 145.228C159.84 145.011 159.498 144.903 159.056 144.903C158.666 144.903 158.341 144.99 158.081 145.163C157.821 145.328 157.669 145.549 157.626 145.826H156.248C156.326 145.185 156.621 144.673 157.132 144.292C157.652 143.911 158.306 143.72 159.095 143.72C159.944 143.72 160.616 143.937 161.11 144.37C161.604 144.795 161.851 145.375 161.851 146.112V151H160.486V149.687H160.252L160.486 149.427C160.486 149.947 160.287 150.363 159.888 150.675C159.489 150.978 158.961 151.13 158.302 151.13ZM158.718 150.051C159.221 150.051 159.632 149.925 159.953 149.674C160.282 149.414 160.447 149.085 160.447 148.686V147.75H158.484C158.12 147.75 157.83 147.85 157.613 148.049C157.405 148.248 157.301 148.521 157.301 148.868C157.301 149.232 157.427 149.522 157.678 149.739C157.929 149.947 158.276 150.051 158.718 150.051ZM163.354 151V143.85H164.745V145.215H165.083L164.745 145.54C164.745 144.968 164.914 144.522 165.252 144.201C165.59 143.88 166.058 143.72 166.656 143.72C167.367 143.72 167.934 143.95 168.359 144.409C168.784 144.86 168.996 145.471 168.996 146.242V151H167.592V146.398C167.592 145.93 167.466 145.57 167.215 145.319C166.964 145.068 166.621 144.942 166.188 144.942C165.746 144.942 165.395 145.076 165.135 145.345C164.884 145.605 164.758 145.986 164.758 146.489V151H163.354ZM171.435 153.34V152.131H173.632C173.996 152.131 174.264 152.044 174.438 151.871C174.62 151.698 174.711 151.442 174.711 151.104V150.389L174.737 149.063H174.438L174.724 148.803C174.724 149.349 174.55 149.778 174.204 150.09C173.866 150.402 173.406 150.558 172.826 150.558C172.089 150.558 171.508 150.315 171.084 149.83C170.659 149.345 170.447 148.69 170.447 147.867V146.411C170.447 145.588 170.659 144.933 171.084 144.448C171.508 143.963 172.089 143.72 172.826 143.72C173.406 143.72 173.866 143.88 174.204 144.201C174.55 144.513 174.724 144.942 174.724 145.488L174.438 145.215H174.724L174.711 143.85H176.102V151.13C176.102 151.815 175.885 152.352 175.452 152.742C175.018 153.141 174.416 153.34 173.645 153.34H171.435ZM173.281 149.349C173.723 149.349 174.069 149.215 174.321 148.946C174.581 148.669 174.711 148.287 174.711 147.802V146.489C174.711 146.004 174.581 145.627 174.321 145.358C174.069 145.081 173.723 144.942 173.281 144.942C172.821 144.942 172.466 145.076 172.215 145.345C171.972 145.605 171.851 145.986 171.851 146.489V147.802C171.851 148.296 171.972 148.677 172.215 148.946C172.466 149.215 172.821 149.349 173.281 149.349ZM180.439 151.13C179.581 151.13 178.896 150.883 178.385 150.389C177.873 149.886 177.618 149.206 177.618 148.348V143.85H179.022V148.348C179.022 148.842 179.147 149.228 179.399 149.505C179.65 149.774 179.997 149.908 180.439 149.908C180.889 149.908 181.24 149.774 181.492 149.505C181.752 149.228 181.882 148.842 181.882 148.348V143.85H183.286V148.348C183.286 149.206 183.026 149.886 182.506 150.389C181.994 150.883 181.305 151.13 180.439 151.13ZM186.882 151.13C186.136 151.13 185.547 150.939 185.114 150.558C184.689 150.168 184.477 149.639 184.477 148.972C184.477 148.296 184.702 147.767 185.153 147.386C185.612 146.996 186.24 146.801 187.038 146.801H189.027V146.138C189.027 145.748 188.905 145.445 188.663 145.228C188.42 145.011 188.078 144.903 187.636 144.903C187.246 144.903 186.921 144.99 186.661 145.163C186.401 145.328 186.249 145.549 186.206 145.826H184.828C184.906 145.185 185.2 144.673 185.712 144.292C186.232 143.911 186.886 143.72 187.675 143.72C188.524 143.72 189.196 143.937 189.69 144.37C190.184 144.795 190.431 145.375 190.431 146.112V151H189.066V149.687H188.832L189.066 149.427C189.066 149.947 188.866 150.363 188.468 150.675C188.069 150.978 187.54 151.13 186.882 151.13ZM187.298 150.051C187.8 150.051 188.212 149.925 188.533 149.674C188.862 149.414 189.027 149.085 189.027 148.686V147.75H187.064C186.7 147.75 186.409 147.85 186.193 148.049C185.985 148.248 185.881 148.521 185.881 148.868C185.881 149.232 186.006 149.522 186.258 149.739C186.509 149.947 186.856 150.051 187.298 150.051ZM192.87 153.34V152.131H195.067C195.431 152.131 195.699 152.044 195.873 151.871C196.055 151.698 196.146 151.442 196.146 151.104V150.389L196.172 149.063H195.873L196.159 148.803C196.159 149.349 195.985 149.778 195.639 150.09C195.301 150.402 194.841 150.558 194.261 150.558C193.524 150.558 192.943 150.315 192.519 149.83C192.094 149.345 191.882 148.69 191.882 147.867V146.411C191.882 145.588 192.094 144.933 192.519 144.448C192.943 143.963 193.524 143.72 194.261 143.72C194.841 143.72 195.301 143.88 195.639 144.201C195.985 144.513 196.159 144.942 196.159 145.488L195.873 145.215H196.159L196.146 143.85H197.537V151.13C197.537 151.815 197.32 152.352 196.887 152.742C196.453 153.141 195.851 153.34 195.08 153.34H192.87ZM194.716 149.349C195.158 149.349 195.504 149.215 195.756 148.946C196.016 148.669 196.146 148.287 196.146 147.802V146.489C196.146 146.004 196.016 145.627 195.756 145.358C195.504 145.081 195.158 144.942 194.716 144.942C194.256 144.942 193.901 145.076 193.65 145.345C193.407 145.605 193.286 145.986 193.286 146.489V147.802C193.286 148.296 193.407 148.677 193.65 148.946C193.901 149.215 194.256 149.349 194.716 149.349ZM201.887 151.13C201.306 151.13 200.795 151.017 200.353 150.792C199.919 150.558 199.586 150.233 199.352 149.817C199.118 149.401 199.001 148.916 199.001 148.361V146.489C199.001 145.926 199.118 145.44 199.352 145.033C199.586 144.617 199.919 144.296 200.353 144.071C200.795 143.837 201.306 143.72 201.887 143.72C202.476 143.72 202.987 143.837 203.421 144.071C203.854 144.296 204.188 144.617 204.422 145.033C204.656 145.44 204.773 145.926 204.773 146.489V147.763H200.353V148.361C200.353 148.89 200.483 149.293 200.743 149.57C201.011 149.847 201.397 149.986 201.9 149.986C202.307 149.986 202.636 149.917 202.888 149.778C203.139 149.631 203.295 149.418 203.356 149.141H204.747C204.643 149.748 204.331 150.233 203.811 150.597C203.291 150.952 202.649 151.13 201.887 151.13ZM203.421 146.918V146.476C203.421 145.956 203.291 145.553 203.031 145.267C202.771 144.981 202.389 144.838 201.887 144.838C201.393 144.838 201.011 144.981 200.743 145.267C200.483 145.553 200.353 145.96 200.353 146.489V146.814L203.525 146.801L203.421 146.918Z" fill="white" style="fill:white;fill-opacity:1;"/>
<rect x="114.748" y="296.748" width="172.505" height="26.5047" fill="#47495D" stroke="#ABB2FA" style="fill:#47495D;fill:color(display-p3 0.2784 0.2863 0.3647);fill-opacity:1;stroke:#ABB2FA;stroke:color(display-p3 0.6706 0.6990 0.9799);stroke-opacity:1;" stroke-width="3.4953"/>
<path d="M133.357 315L135.775 305.51H137.621L140.039 315H138.622L138.05 312.595H135.359L134.787 315H133.357ZM135.619 311.438H137.777L137.127 308.695C137.015 308.21 136.919 307.789 136.841 307.434C136.772 307.07 136.724 306.823 136.698 306.693C136.672 306.823 136.625 307.07 136.555 307.434C136.486 307.789 136.391 308.205 136.269 308.682L135.619 311.438ZM141.971 317.34V316.131H144.168C144.532 316.131 144.801 316.044 144.974 315.871C145.156 315.698 145.247 315.442 145.247 315.104V314.389L145.273 313.063H144.974L145.26 312.803C145.26 313.349 145.087 313.778 144.74 314.09C144.402 314.402 143.943 314.558 143.362 314.558C142.625 314.558 142.045 314.315 141.62 313.83C141.195 313.345 140.983 312.69 140.983 311.867V310.411C140.983 309.588 141.195 308.933 141.62 308.448C142.045 307.963 142.625 307.72 143.362 307.72C143.943 307.72 144.402 307.88 144.74 308.201C145.087 308.513 145.26 308.942 145.26 309.488L144.974 309.215H145.26L145.247 307.85H146.638V315.13C146.638 315.815 146.421 316.352 145.988 316.742C145.555 317.141 144.952 317.34 144.181 317.34H141.971ZM143.817 313.349C144.259 313.349 144.606 313.215 144.857 312.946C145.117 312.669 145.247 312.287 145.247 311.802V310.489C145.247 310.004 145.117 309.627 144.857 309.358C144.606 309.081 144.259 308.942 143.817 308.942C143.358 308.942 143.002 309.076 142.751 309.345C142.508 309.605 142.387 309.986 142.387 310.489V311.802C142.387 312.296 142.508 312.677 142.751 312.946C143.002 313.215 143.358 313.349 143.817 313.349ZM150.988 315.13C150.407 315.13 149.896 315.017 149.454 314.792C149.021 314.558 148.687 314.233 148.453 313.817C148.219 313.401 148.102 312.916 148.102 312.361V310.489C148.102 309.926 148.219 309.44 148.453 309.033C148.687 308.617 149.021 308.296 149.454 308.071C149.896 307.837 150.407 307.72 150.988 307.72C151.577 307.72 152.089 307.837 152.522 308.071C152.955 308.296 153.289 308.617 153.523 309.033C153.757 309.44 153.874 309.926 153.874 310.489V311.763H149.454V312.361C149.454 312.89 149.584 313.293 149.844 313.57C150.113 313.847 150.498 313.986 151.001 313.986C151.408 313.986 151.738 313.917 151.989 313.778C152.24 313.631 152.396 313.418 152.457 313.141H153.848C153.744 313.748 153.432 314.233 152.912 314.597C152.392 314.952 151.751 315.13 150.988 315.13ZM152.522 310.918V310.476C152.522 309.956 152.392 309.553 152.132 309.267C151.872 308.981 151.491 308.838 150.988 308.838C150.494 308.838 150.113 308.981 149.844 309.267C149.584 309.553 149.454 309.96 149.454 310.489V310.814L152.626 310.801L152.522 310.918ZM155.325 315V307.85H156.716V309.215H157.054L156.716 309.54C156.716 308.968 156.885 308.522 157.223 308.201C157.561 307.88 158.029 307.72 158.627 307.72C159.338 307.72 159.905 307.95 160.33 308.409C160.755 308.86 160.967 309.471 160.967 310.242V315H159.563V310.398C159.563 309.93 159.437 309.57 159.186 309.319C158.935 309.068 158.592 308.942 158.159 308.942C157.717 308.942 157.366 309.076 157.106 309.345C156.855 309.605 156.729 309.986 156.729 310.489V315H155.325ZM166.058 315C165.408 315 164.901 314.822 164.537 314.467C164.173 314.112 163.991 313.618 163.991 312.985V309.124H162.015V307.85H163.991V305.835H165.395V307.85H168.19V309.124H165.395V312.985C165.395 313.479 165.633 313.726 166.11 313.726H168.06V315H166.058ZM179.568 315.13C178.978 315.13 178.467 315.022 178.034 314.805C177.609 314.58 177.28 314.259 177.046 313.843C176.82 313.418 176.708 312.924 176.708 312.361V308.149C176.708 307.577 176.82 307.083 177.046 306.667C177.28 306.251 177.609 305.935 178.034 305.718C178.467 305.493 178.978 305.38 179.568 305.38C180.157 305.38 180.664 305.493 181.089 305.718C181.522 305.935 181.851 306.251 182.077 306.667C182.311 307.083 182.428 307.573 182.428 308.136V312.361C182.428 312.924 182.311 313.418 182.077 313.843C181.851 314.259 181.522 314.58 181.089 314.805C180.664 315.022 180.157 315.13 179.568 315.13ZM179.568 313.882C180.044 313.882 180.404 313.752 180.647 313.492C180.898 313.223 181.024 312.846 181.024 312.361V308.149C181.024 307.655 180.898 307.278 180.647 307.018C180.404 306.758 180.044 306.628 179.568 306.628C179.1 306.628 178.74 306.758 178.489 307.018C178.237 307.278 178.112 307.655 178.112 308.149V312.361C178.112 312.846 178.237 313.223 178.489 313.492C178.74 313.752 179.1 313.882 179.568 313.882ZM184.139 315V307.85H185.491V309.215H185.829L185.4 310.06C185.4 309.289 185.569 308.708 185.907 308.318C186.245 307.919 186.747 307.72 187.415 307.72C188.177 307.72 188.78 307.958 189.222 308.435C189.672 308.903 189.898 309.549 189.898 310.372V310.853H188.455V310.489C188.455 309.978 188.325 309.588 188.065 309.319C187.813 309.042 187.458 308.903 186.999 308.903C186.539 308.903 186.18 309.042 185.92 309.319C185.668 309.596 185.543 309.986 185.543 310.489V315H184.139ZM193.91 315.13C193.32 315.13 192.8 315.022 192.35 314.805C191.908 314.58 191.565 314.259 191.323 313.843C191.089 313.418 190.972 312.924 190.972 312.361V310.489C190.972 309.917 191.089 309.423 191.323 309.007C191.565 308.591 191.908 308.275 192.35 308.058C192.8 307.833 193.32 307.72 193.91 307.72C194.768 307.72 195.457 307.945 195.977 308.396C196.497 308.847 196.77 309.462 196.796 310.242H195.392C195.366 309.835 195.223 309.518 194.963 309.293C194.703 309.068 194.352 308.955 193.91 308.955C193.433 308.955 193.056 309.089 192.779 309.358C192.501 309.618 192.363 309.991 192.363 310.476V312.361C192.363 312.846 192.501 313.223 192.779 313.492C193.056 313.761 193.433 313.895 193.91 313.895C194.352 313.895 194.703 313.782 194.963 313.557C195.223 313.332 195.366 313.015 195.392 312.608H196.796C196.77 313.388 196.497 314.003 195.977 314.454C195.457 314.905 194.768 315.13 193.91 315.13ZM198.195 315V305.51H199.599V307.85L199.586 309.215H199.924L199.586 309.54C199.586 308.968 199.755 308.522 200.093 308.201C200.431 307.88 200.899 307.72 201.497 307.72C202.207 307.72 202.775 307.95 203.2 308.409C203.624 308.86 203.837 309.471 203.837 310.242V315H202.433V310.398C202.433 309.93 202.307 309.566 202.056 309.306C201.804 309.046 201.462 308.916 201.029 308.916C200.587 308.916 200.236 309.055 199.976 309.332C199.724 309.601 199.599 309.986 199.599 310.489V315H198.195ZM208.147 315.13C207.567 315.13 207.055 315.017 206.613 314.792C206.18 314.558 205.846 314.233 205.612 313.817C205.378 313.401 205.261 312.916 205.261 312.361V310.489C205.261 309.926 205.378 309.44 205.612 309.033C205.846 308.617 206.18 308.296 206.613 308.071C207.055 307.837 207.567 307.72 208.147 307.72C208.737 307.72 209.248 307.837 209.681 308.071C210.115 308.296 210.448 308.617 210.682 309.033C210.916 309.44 211.033 309.926 211.033 310.489V311.763H206.613V312.361C206.613 312.89 206.743 313.293 207.003 313.57C207.272 313.847 207.658 313.986 208.16 313.986C208.568 313.986 208.897 313.917 209.148 313.778C209.4 313.631 209.556 313.418 209.616 313.141H211.007C210.903 313.748 210.591 314.233 210.071 314.597C209.551 314.952 208.91 315.13 208.147 315.13ZM209.681 310.918V310.476C209.681 309.956 209.551 309.553 209.291 309.267C209.031 308.981 208.65 308.838 208.147 308.838C207.653 308.838 207.272 308.981 207.003 309.267C206.743 309.553 206.613 309.96 206.613 310.489V310.814L209.785 310.801L209.681 310.918ZM215.045 315.117C214.534 315.117 214.083 315.035 213.693 314.87C213.312 314.705 213.009 314.48 212.783 314.194C212.567 313.899 212.441 313.553 212.406 313.154H213.81C213.845 313.388 213.971 313.579 214.187 313.726C214.404 313.865 214.69 313.934 215.045 313.934H215.604C216.029 313.934 216.35 313.847 216.566 313.674C216.783 313.501 216.891 313.271 216.891 312.985C216.891 312.708 216.792 312.491 216.592 312.335C216.402 312.17 216.116 312.062 215.734 312.01L214.811 311.867C214.049 311.746 213.485 311.529 213.121 311.217C212.766 310.896 212.588 310.424 212.588 309.8C212.588 309.141 212.801 308.634 213.225 308.279C213.659 307.915 214.296 307.733 215.136 307.733H215.63C216.376 307.733 216.969 307.906 217.411 308.253C217.862 308.591 218.118 309.046 218.178 309.618H216.774C216.74 309.41 216.623 309.241 216.423 309.111C216.233 308.981 215.968 308.916 215.63 308.916H215.136C214.729 308.916 214.43 308.994 214.239 309.15C214.057 309.297 213.966 309.518 213.966 309.813C213.966 310.073 214.049 310.268 214.213 310.398C214.378 310.528 214.634 310.619 214.98 310.671L215.929 310.827C216.735 310.94 217.325 311.165 217.697 311.503C218.079 311.832 218.269 312.313 218.269 312.946C218.269 313.631 218.044 314.164 217.593 314.545C217.151 314.926 216.488 315.117 215.604 315.117H215.045ZM223.217 315C222.567 315 222.06 314.822 221.696 314.467C221.332 314.112 221.15 313.618 221.15 312.985V309.124H219.174V307.85H221.15V305.835H222.554V307.85H225.349V309.124H222.554V312.985C222.554 313.479 222.793 313.726 223.269 313.726H225.219V315H223.217ZM227.008 315V307.85H228.36V309.215H228.698L228.269 310.06C228.269 309.289 228.438 308.708 228.776 308.318C229.114 307.919 229.617 307.72 230.284 307.72C231.047 307.72 231.649 307.958 232.091 308.435C232.542 308.903 232.767 309.549 232.767 310.372V310.853H231.324V310.489C231.324 309.978 231.194 309.588 230.934 309.319C230.683 309.042 230.328 308.903 229.868 308.903C229.409 308.903 229.049 309.042 228.789 309.319C228.538 309.596 228.412 309.986 228.412 310.489V315H227.008ZM236.012 315.13C235.267 315.13 234.677 314.939 234.244 314.558C233.819 314.168 233.607 313.639 233.607 312.972C233.607 312.296 233.832 311.767 234.283 311.386C234.742 310.996 235.371 310.801 236.168 310.801H238.157V310.138C238.157 309.748 238.036 309.445 237.793 309.228C237.55 309.011 237.208 308.903 236.766 308.903C236.376 308.903 236.051 308.99 235.791 309.163C235.531 309.328 235.379 309.549 235.336 309.826H233.958C234.036 309.185 234.331 308.673 234.842 308.292C235.362 307.911 236.016 307.72 236.805 307.72C237.654 307.72 238.326 307.937 238.82 308.37C239.314 308.795 239.561 309.375 239.561 310.112V315H238.196V313.687H237.962L238.196 313.427C238.196 313.947 237.997 314.363 237.598 314.675C237.199 314.978 236.671 315.13 236.012 315.13ZM236.428 314.051C236.931 314.051 237.342 313.925 237.663 313.674C237.992 313.414 238.157 313.085 238.157 312.686V311.75H236.194C235.83 311.75 235.54 311.85 235.323 312.049C235.115 312.248 235.011 312.521 235.011 312.868C235.011 313.232 235.137 313.522 235.388 313.739C235.639 313.947 235.986 314.051 236.428 314.051ZM244.652 315C244.002 315 243.495 314.822 243.131 314.467C242.767 314.112 242.585 313.618 242.585 312.985V309.124H240.609V307.85H242.585V305.835H243.989V307.85H246.784V309.124H243.989V312.985C243.989 313.479 244.227 313.726 244.704 313.726H246.654V315H244.652ZM248.17 315V313.726H250.679V309.124H248.495V307.85H252.044V313.726H254.345V315H248.17ZM251.225 306.615C250.922 306.615 250.679 306.537 250.497 306.381C250.315 306.216 250.224 306 250.224 305.731C250.224 305.454 250.315 305.237 250.497 305.081C250.679 304.916 250.922 304.834 251.225 304.834C251.528 304.834 251.771 304.916 251.953 305.081C252.135 305.237 252.226 305.454 252.226 305.731C252.226 306 252.135 306.216 251.953 306.381C251.771 306.537 251.528 306.615 251.225 306.615ZM258.162 315.117C257.573 315.117 257.061 315.004 256.628 314.779C256.195 314.554 255.861 314.233 255.627 313.817C255.393 313.401 255.276 312.911 255.276 312.348V310.502C255.276 309.93 255.393 309.44 255.627 309.033C255.861 308.617 256.195 308.296 256.628 308.071C257.061 307.846 257.573 307.733 258.162 307.733C258.751 307.733 259.263 307.846 259.696 308.071C260.129 308.296 260.463 308.617 260.697 309.033C260.931 309.44 261.048 309.93 261.048 310.502V312.348C261.048 312.911 260.931 313.401 260.697 313.817C260.463 314.233 260.129 314.554 259.696 314.779C259.263 315.004 258.751 315.117 258.162 315.117ZM258.162 313.882C258.639 313.882 259.007 313.752 259.267 313.492C259.527 313.223 259.657 312.842 259.657 312.348V310.502C259.657 309.999 259.527 309.618 259.267 309.358C259.007 309.098 258.639 308.968 258.162 308.968C257.694 308.968 257.326 309.098 257.057 309.358C256.797 309.618 256.667 309.999 256.667 310.502V312.348C256.667 312.842 256.797 313.223 257.057 313.492C257.326 313.752 257.694 313.882 258.162 313.882ZM262.499 315V307.85H263.89V309.215H264.228L263.89 309.54C263.89 308.968 264.059 308.522 264.397 308.201C264.735 307.88 265.203 307.72 265.801 307.72C266.511 307.72 267.079 307.95 267.504 308.409C267.928 308.86 268.141 309.471 268.141 310.242V315H266.737V310.398C266.737 309.93 266.611 309.57 266.36 309.319C266.108 309.068 265.766 308.942 265.333 308.942C264.891 308.942 264.54 309.076 264.28 309.345C264.028 309.605 263.903 309.986 263.903 310.489V315H262.499Z" fill="white" style="fill:white;fill-opacity:1;"/>
<rect x="50.7477" y="75.7477" width="116.505" height="26.5047" fill="#47495D" stroke="#ABB2FA" style="fill:#47495D;fill:color(display-p3 0.2784 0.2863 0.3647);fill-opacity:1;stroke:#ABB2FA;stroke:color(display-p3 0.6706 0.6990 0.9799);stroke-opacity:1;" stroke-width="3.4953"/>
<path d="M66.8975 94V84.51H69.8745C70.4725 84.51 70.9925 84.627 71.4345 84.861C71.8765 85.0863 72.2188 85.407 72.4615 85.823C72.7128 86.239 72.8385 86.7287 72.8385 87.292C72.8385 87.9247 72.6738 88.475 72.3445 88.943C72.0238 89.4023 71.5861 89.7273 71.0315 89.918L72.9685 94H71.3695L69.6405 90.1H68.3015V94H66.8975ZM68.3015 88.865H69.8745C70.3425 88.865 70.7151 88.7263 70.9925 88.449C71.2698 88.163 71.4085 87.786 71.4085 87.318C71.4085 86.8327 71.2698 86.4513 70.9925 86.174C70.7151 85.8967 70.3425 85.758 69.8745 85.758H68.3015V88.865ZM76.8504 94.13C76.2697 94.13 75.7584 94.0173 75.3164 93.792C74.8831 93.558 74.5494 93.233 74.3154 92.817C74.0814 92.401 73.9644 91.9157 73.9644 91.361V89.489C73.9644 88.9257 74.0814 88.4403 74.3154 88.033C74.5494 87.617 74.8831 87.2963 75.3164 87.071C75.7584 86.837 76.2697 86.72 76.8504 86.72C77.4397 86.72 77.9511 86.837 78.3844 87.071C78.8177 87.2963 79.1514 87.617 79.3854 88.033C79.6194 88.4403 79.7364 88.9257 79.7364 89.489V90.763H75.3164V91.361C75.3164 91.8897 75.4464 92.2927 75.7064 92.57C75.9751 92.8473 76.3607 92.986 76.8634 92.986C77.2707 92.986 77.6001 92.9167 77.8514 92.778C78.1027 92.6307 78.2587 92.4183 78.3194 92.141H79.7104C79.6064 92.7477 79.2944 93.233 78.7744 93.597C78.2544 93.9523 77.6131 94.13 76.8504 94.13ZM78.3844 89.918V89.476C78.3844 88.956 78.2544 88.553 77.9944 88.267C77.7344 87.981 77.3531 87.838 76.8504 87.838C76.3564 87.838 75.9751 87.981 75.7064 88.267C75.4464 88.553 75.3164 88.9603 75.3164 89.489V89.814L78.4884 89.801L78.3844 89.918ZM85.3993 96.34V94.299L85.4383 92.635H85.1133L85.4123 92.31C85.4123 92.8733 85.239 93.3197 84.8923 93.649C84.5456 93.9697 84.0776 94.13 83.4883 94.13C82.769 94.13 82.197 93.8873 81.7723 93.402C81.3476 92.9167 81.1353 92.258 81.1353 91.426V89.411C81.1353 88.579 81.3476 87.9247 81.7723 87.448C82.197 86.9627 82.769 86.72 83.4883 86.72C84.0776 86.72 84.5456 86.8847 84.8923 87.214C85.239 87.5347 85.4123 87.9767 85.4123 88.54L85.1133 88.215H85.4123V86.85H86.8033V96.34H85.3993ZM83.9693 92.908C84.4113 92.908 84.758 92.7737 85.0093 92.505C85.2693 92.2277 85.3993 91.8463 85.3993 91.361V89.489C85.3993 89.0037 85.2693 88.6267 85.0093 88.358C84.758 88.0807 84.4113 87.942 83.9693 87.942C83.51 87.942 83.1546 88.0763 82.9033 88.345C82.6606 88.605 82.5393 88.9863 82.5393 89.489V91.361C82.5393 91.8637 82.6606 92.2493 82.9033 92.518C83.1546 92.778 83.51 92.908 83.9693 92.908ZM91.1272 94.13C90.2692 94.13 89.5846 93.883 89.0732 93.389C88.5619 92.8863 88.3062 92.206 88.3062 91.348V86.85H89.7102V91.348C89.7102 91.842 89.8359 92.2277 90.0872 92.505C90.3386 92.7737 90.6852 92.908 91.1272 92.908C91.5779 92.908 91.9289 92.7737 92.1802 92.505C92.4402 92.2277 92.5702 91.842 92.5702 91.348V86.85H93.9742V91.348C93.9742 92.206 93.7142 92.8863 93.1942 93.389C92.6829 93.883 91.9939 94.13 91.1272 94.13ZM98.2852 94.13C97.7045 94.13 97.1932 94.0173 96.7512 93.792C96.3178 93.558 95.9842 93.233 95.7502 92.817C95.5162 92.401 95.3992 91.9157 95.3992 91.361V89.489C95.3992 88.9257 95.5162 88.4403 95.7502 88.033C95.9842 87.617 96.3178 87.2963 96.7512 87.071C97.1932 86.837 97.7045 86.72 98.2852 86.72C98.8745 86.72 99.3858 86.837 99.8192 87.071C100.252 87.2963 100.586 87.617 100.82 88.033C101.054 88.4403 101.171 88.9257 101.171 89.489V90.763H96.7512V91.361C96.7512 91.8897 96.8812 92.2927 97.1412 92.57C97.4098 92.8473 97.7955 92.986 98.2982 92.986C98.7055 92.986 99.0348 92.9167 99.2862 92.778C99.5375 92.6307 99.6935 92.4183 99.7542 92.141H101.145C101.041 92.7477 100.729 93.233 100.209 93.597C99.6892 93.9523 99.0478 94.13 98.2852 94.13ZM99.8192 89.918V89.476C99.8192 88.956 99.6892 88.553 99.4292 88.267C99.1692 87.981 98.7878 87.838 98.2852 87.838C97.7912 87.838 97.4098 87.981 97.1412 88.267C96.8812 88.553 96.7512 88.9603 96.7512 89.489V89.814L99.9232 89.801L99.8192 89.918ZM105.183 94.117C104.672 94.117 104.221 94.0347 103.831 93.87C103.45 93.7053 103.146 93.48 102.921 93.194C102.704 92.8993 102.579 92.5527 102.544 92.154H103.948C103.983 92.388 104.108 92.5787 104.325 92.726C104.542 92.8647 104.828 92.934 105.183 92.934H105.742C106.167 92.934 106.487 92.8473 106.704 92.674C106.921 92.5007 107.029 92.271 107.029 91.985C107.029 91.7077 106.929 91.491 106.73 91.335C106.539 91.1703 106.253 91.062 105.872 91.01L104.949 90.867C104.186 90.7457 103.623 90.529 103.259 90.217C102.904 89.8963 102.726 89.424 102.726 88.8C102.726 88.1413 102.938 87.6343 103.363 87.279C103.796 86.915 104.433 86.733 105.274 86.733H105.768C106.513 86.733 107.107 86.9063 107.549 87.253C108 87.591 108.255 88.046 108.316 88.618H106.912C106.877 88.41 106.76 88.241 106.561 88.111C106.37 87.981 106.106 87.916 105.768 87.916H105.274C104.867 87.916 104.568 87.994 104.377 88.15C104.195 88.2973 104.104 88.5183 104.104 88.813C104.104 89.073 104.186 89.268 104.351 89.398C104.516 89.528 104.771 89.619 105.118 89.671L106.067 89.827C106.873 89.9397 107.462 90.165 107.835 90.503C108.216 90.8323 108.407 91.3133 108.407 91.946C108.407 92.6307 108.182 93.1637 107.731 93.545C107.289 93.9263 106.626 94.117 105.742 94.117H105.183ZM113.355 94C112.705 94 112.198 93.8223 111.834 93.467C111.47 93.1117 111.288 92.6177 111.288 91.985V88.124H109.312V86.85H111.288V84.835H112.692V86.85H115.487V88.124H112.692V91.985C112.692 92.479 112.93 92.726 113.407 92.726H115.357V94H113.355ZM126.163 94V85.797H123.628V84.497H130.102V85.797H127.567V94H126.163ZM133.295 94.13C132.549 94.13 131.96 93.9393 131.527 93.558C131.102 93.168 130.89 92.6393 130.89 91.972C130.89 91.296 131.115 90.7673 131.566 90.386C132.025 89.996 132.653 89.801 133.451 89.801H135.44V89.138C135.44 88.748 135.318 88.4447 135.076 88.228C134.833 88.0113 134.491 87.903 134.049 87.903C133.659 87.903 133.334 87.9897 133.074 88.163C132.814 88.3277 132.662 88.5487 132.619 88.826H131.241C131.319 88.1847 131.613 87.6733 132.125 87.292C132.645 86.9107 133.299 86.72 134.088 86.72C134.937 86.72 135.609 86.9367 136.103 87.37C136.597 87.7947 136.844 88.3753 136.844 89.112V94H135.479V92.687H135.245L135.479 92.427C135.479 92.947 135.279 93.363 134.881 93.675C134.482 93.9783 133.953 94.13 133.295 94.13ZM133.711 93.051C134.213 93.051 134.625 92.9253 134.946 92.674C135.275 92.414 135.44 92.0847 135.44 91.686V90.75H133.477C133.113 90.75 132.822 90.8497 132.606 91.049C132.398 91.2483 132.294 91.5213 132.294 91.868C132.294 92.232 132.419 92.5223 132.671 92.739C132.922 92.947 133.269 93.051 133.711 93.051ZM140.908 94.117C140.396 94.117 139.946 94.0347 139.556 93.87C139.174 93.7053 138.871 93.48 138.646 93.194C138.429 92.8993 138.303 92.5527 138.269 92.154H139.673C139.707 92.388 139.833 92.5787 140.05 92.726C140.266 92.8647 140.552 92.934 140.908 92.934H141.467C141.891 92.934 142.212 92.8473 142.429 92.674C142.645 92.5007 142.754 92.271 142.754 91.985C142.754 91.7077 142.654 91.491 142.455 91.335C142.264 91.1703 141.978 91.062 141.597 91.01L140.674 90.867C139.911 90.7457 139.348 90.529 138.984 90.217C138.628 89.8963 138.451 89.424 138.451 88.8C138.451 88.1413 138.663 87.6343 139.088 87.279C139.521 86.915 140.158 86.733 140.999 86.733H141.493C142.238 86.733 142.832 86.9063 143.274 87.253C143.724 87.591 143.98 88.046 144.041 88.618H142.637C142.602 88.41 142.485 88.241 142.286 88.111C142.095 87.981 141.831 87.916 141.493 87.916H140.999C140.591 87.916 140.292 87.994 140.102 88.15C139.92 88.2973 139.829 88.5183 139.829 88.813C139.829 89.073 139.911 89.268 140.076 89.398C140.24 89.528 140.496 89.619 140.843 89.671L141.792 89.827C142.598 89.9397 143.187 90.165 143.56 90.503C143.941 90.8323 144.132 91.3133 144.132 91.946C144.132 92.6307 143.906 93.1637 143.456 93.545C143.014 93.9263 142.351 94.117 141.467 94.117H140.908ZM145.531 94V84.51H146.935V89.723H148.196L150.094 86.85H151.68L149.405 90.282L151.719 94H150.107L148.196 90.932H146.935V94H145.531Z" fill="white" style="fill:white;fill-opacity:1;"/>
<circle cx="110.5" cy="19.5" r="19" fill="url(#paint0_linear_254_1220)" stroke="#B0B7FF" style="stroke:#B0B7FF;stroke:color(display-p3 0.6897 0.7182 1.0000);stroke-opacity:1;"/>
<defs>
<linearGradient id="paint0_linear_254_1220" x1="111" y1="-7" x2="110.5" y2="39" gradientUnits="userSpaceOnUse">
<stop stop-color="#5A57E9" style="stop-color:#5A57E9;stop-color:color(display-p3 0.3512 0.3417 0.9119);stop-opacity:1;"/>
<stop offset="1" stop-color="white" style="stop-color:white;stop-opacity:1;"/>
</linearGradient>
</defs>
</svg>
